<?xml version="1.0" encoding="UTF-8" standalone="no"?>
<svg
   version="1.1"
   x="0"
   y="0"
   width="95.938"
   height="96"
   viewBox="0, 0, 95.938, 96"
   id="svg944"
   sodipodi:docname="loaded_die.svg"
   inkscape:version="1.1.1 (1:1.1+202109281949+c3084ef5ed)"
   xmlns:inkscape="http://www.inkscape.org/namespaces/inkscape"
   xmlns:sodipodi="http://sodipodi.sourceforge.net/DTD/sodipodi-0.dtd"
   xmlns="http://www.w3.org/2000/svg"
   xmlns:svg="http://www.w3.org/2000/svg">
  <defs
     id="defs948" />
  <sodipodi:namedview
     id="namedview946"
     pagecolor="#ffffff"
     bordercolor="#666666"
     borderopacity="1.0"
     inkscape:pageshadow="2"
     inkscape:pageopacity="0.0"
     inkscape:pagecheckerboard="0"
     showgrid="false"
     inkscape:zoom="4.203125"
     inkscape:cx="79.821561"
     inkscape:cy="51.98513"
     inkscape:window-width="1848"
     inkscape:window-height="1016"
     inkscape:window-x="72"
     inkscape:window-y="27"
     inkscape:window-maximized="1"
     inkscape:current-layer="svg944" />
  <path
     d="M 55.225,0 C 54.963,-0.006 54.68,0.059 54.321,0.181 39.493,4.515 24.649,8.885 9.856,13.283 6.641,29.614 3.301,45.785 0.053,62.029 -0.051,62.496 -0.033,62.612 0.397,62.988 13.122,74.073 26.053,85.049 38.828,96 53.752,90.422 68.677,84.859 83.664,79.259 84.442,78.887 84.591,78.821 84.677,78.065 88.467,61.876 92.212,45.638 95.938,29.453 82.927,19.771 69.74,10.222 56.561,0.582 56.024,0.203 55.659,0.011 55.222,0.002 Z"
     fill="#000000"
     id="path909" />
  <path
     d="M 54.872,1.857 C 54.61,1.851 54.326,1.916 53.967,2.038 L 14.164,13.725 c -0.331,0.078 -0.312,0.167 -0.036,0.38 L 49.46,42.312 c 0.651,0.539 0.957,0.606 1.864,0.325 l 39.62,-13.731 c 0.909,-0.334 0.972,-0.416 0.036,-1.032 L 56.207,2.438 C 55.67,2.06 55.305,1.867 54.868,1.859 Z"
     fill="#ffffff"
     id="path903" />
  <path
     d="m 50.331,5.276 c 0.792,-0.006 1.629,0.082 2.496,0.272 3.47,0.76 5.93,2.88 5.482,4.722 -0.448,1.841 -3.622,2.714 -7.092,1.954 -3.469,-0.761 -5.93,-2.863 -5.482,-4.704 0.336,-1.381 2.218,-2.232 4.596,-2.244 z"
     fill="#000000"
     id="path901" />
  <path
     d="m 27.897,12.097 c 0.792,-0.006 1.647,0.081 2.514,0.272 3.47,0.76 5.912,2.862 5.464,4.703 -0.448,1.842 -3.622,2.733 -7.092,1.972 -3.469,-0.76 -5.912,-2.88 -5.464,-4.722 0.336,-1.38 2.2,-2.213 4.578,-2.225 z"
     fill="#000000"
     id="path899" />
  <path
     d="m 61.891,13.834 c 0.792,-0.006 1.647,0.099 2.514,0.289 3.47,0.761 5.912,2.863 5.464,4.704 -0.448,1.841 -3.623,2.715 -7.092,1.954 -3.469,-0.76 -5.912,-2.863 -5.464,-4.704 0.336,-1.381 2.2,-2.231 4.578,-2.243 z"
     fill="#000000"
     id="path897" />
  <path
     d="m 11.668,16.023 c -0.072,0.019 -0.096,0.132 -0.144,0.362 L 2.55,61.27 c -0.104,0.467 -0.086,0.583 0.344,0.959 l 34.085,29.382 c 0.793,0.758 0.96,0.748 1.068,-0.18 L 47.979,45.912 C 48.187,45.291 47.973,44.95 47.617,44.663 L 12.029,16.244 C 11.846,16.089 11.74,16.008 11.668,16.027 Z"
     fill="#ffffff"
     id="path895" />
  <path
     d="m 39.35,21.143 c 0.793,-0.006 1.648,0.081 2.515,0.271 3.469,0.761 5.912,2.863 5.464,4.704 -0.448,1.842 -3.623,2.715 -7.092,1.954 -3.47,-0.76 -5.912,-2.862 -5.464,-4.704 0.336,-1.38 2.199,-2.213 4.577,-2.225 z"
     fill="#000000"
     id="path893" />
  <path
     d="m 73.708,22.645 c 0.792,-0.006 1.647,0.081 2.515,0.271 3.469,0.761 5.911,2.863 5.463,4.704 -0.448,1.841 -3.622,2.733 -7.092,1.972 -3.469,-0.761 -5.912,-2.881 -5.464,-4.722 0.337,-1.381 2.2,-2.213 4.578,-2.225 z"
     fill="#000000"
     id="path891" />
  <path
     d="m 16.842148,24.912897 c 0.134,-0.013 0.281,-0.007 0.417,0 1.632,0.086 3.4,1.617 4.432,4.071 1.376,3.272 0.917,6.944 -1.013,8.195 -1.93,1.251 -4.613,-0.382 -5.988,-3.654 -1.376,-3.272 -0.918,-6.945 1.013,-8.196 0.362,-0.234 0.739,-0.376 1.14,-0.416 z"
     fill="#000000"
     id="path889" />
  <path
     d="m 51.165,30.189 c 0.793,-0.006 1.647,0.081 2.515,0.271 3.469,0.761 5.912,2.863 5.463,4.704 -0.448,1.841 -3.622,2.715 -7.092,1.954 -3.469,-0.76 -5.911,-2.862 -5.463,-4.704 0.336,-1.38 2.199,-2.213 4.577,-2.225 z"
     fill="#000000"
     id="path887" />
  <path
     d="m 92.795,31.437 c -0.076,0.016 -0.183,0.043 -0.307,0.091 l -40.69,14.114 c -0.829,0.341 -0.804,0.481 -0.941,1.104 l -9.914,45.375 c -0.034,0.668 -0.28,0.972 0.506,0.615 l 40.093,-14.98 c 0.778,-0.372 0.927,-0.437 1.014,-1.194 L 92.958,31.82 c 0.087,-0.315 0.066,-0.427 -0.162,-0.38 z"
     fill="#ffffff"
     id="path885" />
  <path
     d="m 86.049574,37.089612 c 1.145,0.018 2.044,0.576 2.442,1.646 0.796,2.141 -0.736,5.568 -3.437,7.653 -2.701,2.085 -5.537,2.033 -6.332,-0.109 -0.796,-2.141 0.736,-5.568 3.437,-7.653 1.351,-1.042 2.744,-1.556 3.89,-1.537 z"
     fill="#000000"
     id="path883" />
  <path
     d="m 36.170589,41.977794 c 1.653,0.042 3.457,1.596 4.505,4.088 1.376,3.273 0.935,6.945 -0.995,8.196 -1.93,1.251 -4.613,-0.4 -5.988,-3.673 -1.376,-3.272 -0.918,-6.926 1.013,-8.177 0.362,-0.235 0.738,-0.377 1.14,-0.416 0.108,-0.012 0.215,-0.021 0.325,-0.018 z"
     fill="#000000"
     id="path881" />
  <path
     d="m 13.682767,40.069726 c 1.653,0.042 3.457,1.596 4.505,4.088 1.376,3.273 0.935,6.945 -0.995,8.196 -1.93,1.251 -4.613,-0.4 -5.988,-3.673 -1.3760005,-3.272 -0.918,-6.926 1.013,-8.177 0.362,-0.235 0.738,-0.377 1.14,-0.416 0.108,-0.012 0.215,-0.021 0.325,-0.018 z"
     fill="#000000"
     id="path881-6" />
  <path
     d="m 32.962212,56.564146 c 1.653,0.042 3.457,1.596 4.505,4.088 1.376,3.273 0.935,6.945 -0.995,8.196 -1.93,1.251 -4.613,-0.4 -5.988,-3.673 -1.376,-3.272 -0.918,-6.926 1.013,-8.177 0.362,-0.235 0.738,-0.377 1.14,-0.416 0.108,-0.012 0.215,-0.021 0.325,-0.018 z"
     fill="#000000"
     id="path881-2" />
  <path
     d="m 10.360419,54.403331 c 0.134,-0.014 0.281,-0.007 0.417,0 1.632,0.086 3.382,1.634 4.414,4.088 1.376,3.273 0.935,6.927 -0.995,8.178 -1.93,1.251 -4.6129999,-0.382 -5.9879999,-3.655 -1.376,-3.272 -0.917,-6.944 1.013,-8.195 0.362,-0.235 0.739,-0.377 1.1399999,-0.416 z"
     fill="#000000"
     id="path877"
     inkscape:transform-center-x="-1.0917368"
     inkscape:transform-center-y="2.8086198" />
  <path
     d="m 58.799859,61.084159 c 1.121,0.036 2.015,0.592 2.406,1.646 0.796,2.141 -0.754,5.568 -3.455,7.653 -2.701,2.085 -5.537,2.032 -6.332,-0.109 -0.796,-2.141 0.754,-5.568 3.455,-7.653 1.182,-0.912 2.387,-1.42 3.438,-1.519 0.169,-0.016 0.328,-0.023 0.488,-0.018 z"
     fill="#000000"
     id="path875" />
  <path
     d="m 62.938759,45.591443 c 1.121,0.036 2.015,0.592 2.406,1.646 0.796,2.141 -0.754,5.568 -3.455,7.653 -2.701,2.085 -5.537,2.032 -6.332,-0.109 -0.796,-2.141 0.754,-5.568 3.455,-7.653 1.182,-0.912 2.387,-1.42 3.438,-1.519 0.169,-0.016 0.328,-0.023 0.488,-0.018 z"
     fill="#000000"
     id="path875-8" />
  <path
     d="m 82.727567,52.022732 c 1.121,0.036 2.015,0.592 2.406,1.646 0.796,2.141 -0.754,5.568 -3.455,7.653 -2.701,2.085 -5.537,2.032 -6.332,-0.109 -0.796,-2.141 0.754,-5.568 3.455,-7.653 1.182,-0.912 2.387,-1.42 3.438,-1.519 0.169,-0.016 0.328,-0.023 0.488,-0.018 z"
     fill="#000000"
     id="path875-7" />
  <path
     d="m 79.261561,65.952747 c 1.121,0.036 2.015,0.592 2.406,1.646 0.796,2.141 -0.754,5.568 -3.455,7.653 -2.701,2.085 -5.537,2.032 -6.332,-0.109 -0.796,-2.141 0.754,-5.568 3.455,-7.653 1.182,-0.912 2.387,-1.42 3.438,-1.519 0.169,-0.016 0.328,-0.023 0.488,-0.018 z"
     fill="#000000"
     id="path875-9" />
  <path
     d="m 29.758887,70.63657 c 0.134,-0.014 0.28,-0.007 0.416,0 1.633,0.086 3.401,1.616 4.433,4.07 1.375,3.272 0.917,6.945 -1.014,8.196 -1.93,1.251 -4.594,-0.382 -5.97,-3.655 -1.376,-3.272 -0.935,-6.944 0.995,-8.195 0.362,-0.235 0.739,-0.377 1.14,-0.416 z"
     fill="#000000"
     id="path873" />
  <path
     d="m 55.004582,75.341537 c 1.146,0.018 2.045,0.557 2.442,1.628 0.796,2.141 -0.736,5.568 -3.437,7.653 -2.701,2.084 -5.537,2.05 -6.332,-0.091 -0.796,-2.141 0.736,-5.568 3.437,-7.653 1.351,-1.042 2.744,-1.556 3.89,-1.538 z"
     fill="#000000"
     id="path3924" />
</svg>
