<?xml version="1.0" encoding="UTF-8" standalone="no"?>
<!-- Created with Inkscape (http://www.inkscape.org/) -->

<svg
   xmlns:dc="http://purl.org/dc/elements/1.1/"
   xmlns:cc="http://creativecommons.org/ns#"
   xmlns:rdf="http://www.w3.org/1999/02/22-rdf-syntax-ns#"
   xmlns:svg="http://www.w3.org/2000/svg"
   xmlns="http://www.w3.org/2000/svg"
   xmlns:sodipodi="http://sodipodi.sourceforge.net/DTD/sodipodi-0.dtd"
   xmlns:inkscape="http://www.inkscape.org/namespaces/inkscape"
   id="svg12285"
   version="1.1"
   viewBox="0 0 205 43.030388"
   height="43.030388mm"
   width="205mm"
   inkscape:version="0.92.5 (2060ec1f9f, 2020-04-08)"
   sodipodi:docname="solution_1_e1c.svg">
  <defs
     id="defs12279" />
  <sodipodi:namedview
     id="base"
     pagecolor="#ffffff"
     bordercolor="#666666"
     borderopacity="1.0"
     inkscape:pageopacity="0.0"
     inkscape:pageshadow="2"
     inkscape:zoom="0.98994949"
     inkscape:cx="334.72287"
     inkscape:cy="-155.85998"
     inkscape:document-units="mm"
     inkscape:current-layer="layer1"
     showgrid="false"
     inkscape:window-width="1684"
     inkscape:window-height="1376"
     inkscape:window-x="1756"
     inkscape:window-y="27"
     inkscape:window-maximized="0"
     fit-margin-top="0"
     fit-margin-left="0"
     fit-margin-right="0"
     fit-margin-bottom="0" />
  <metadata
     id="metadata12282">
    <rdf:RDF>
      <cc:Work
         rdf:about="">
        <dc:format>image/svg+xml</dc:format>
        <dc:type
           rdf:resource="http://purl.org/dc/dcmitype/StillImage" />
        <dc:title></dc:title>
      </cc:Work>
    </rdf:RDF>
  </metadata>
  <g
     inkscape:label="Layer 1"
     inkscape:groupmode="layer"
     id="layer1"
     transform="translate(-8.0180864,-20.643307)">
    <rect
       style="fill:#ffffff;fill-opacity:1;stroke:none;stroke-width:0.49999994;stroke-miterlimit:4;stroke-dasharray:none;stroke-opacity:1"
       id="rect12945"
       width="205"
       height="43.030388"
       x="8.0180864"
       y="20.643307" />
    <g
       id="g13254"
       transform="matrix(0.86224677,0,0,0.86224677,-60.429234,-41.804503)"
       style="stroke-width:1.15976083">
      <g
         word-spacing="normal"
         letter-spacing="normal"
         font-size-adjust="none"
         font-stretch="normal"
         font-weight="normal"
         font-variant="normal"
         font-style="normal"
         stroke-miterlimit="10.433"
         xml:space="preserve"
         transform="matrix(0.3,0,0,-0.3,-52.5,222.75)"
         id="g13252"
         style="font-style:normal;font-variant:normal;font-weight:normal;font-stretch:normal;letter-spacing:normal;word-spacing:normal;text-anchor:start;fill:none;fill-opacity:1;fill-rule:evenodd;stroke:#000000;stroke-width:1.15976083;stroke-linecap:butt;stroke-linejoin:miter;stroke-miterlimit:10.43299961;stroke-dasharray:none;stroke-dashoffset:0;stroke-opacity:1"><path
           id="path13166"
           d="m 470.61,421.47 0.21,1.28 3.39,13.56 c 0.43,1.74 0.54,1.89 2.68,1.89 h 4.79 c 4.14,0 6.78,-1.34 6.78,-4.78 0,-1.95 -1,-6.23 -2.94,-8.03 -2.5,-2.23 -5.48,-2.64 -7.69,-2.64 h -7.01 l -0.21,-1.28 h 8.47 c 7.08,0 14,5.17 14,10.75 0,3.84 -3.28,7.53 -9.81,7.53 h -16.14 c -0.95,0 -1.5,0 -1.5,-0.95 0,-0.6 0.45,-0.6 1.45,-0.6 0.64,0 1.55,-0.04 2.14,-0.09 0.8,-0.11 1.1,-0.25 1.1,-0.8 0,-0.2 -0.05,-0.36 -0.21,-0.95 l -6.67,-26.75 c -0.5,-1.95 -0.59,-2.34 -4.53,-2.34 -0.84,0 -1.39,0 -1.39,-0.96 0,-0.59 0.59,-0.59 0.73,-0.59 1.41,0 4.94,0.16 6.33,0.16 1.05,0 2.14,-0.07 3.19,-0.07 1.11,0 2.2,-0.09 3.25,-0.09 0.34,0 0.98,0 0.98,1 0,0.55 -0.43,0.55 -1.39,0.55 -1.84,0 -3.23,0 -3.23,0.89 0,0.29 0.09,0.54 0.14,0.84 z"
           inkscape:connector-curvature="0"
           style="fill:#000000;stroke-width:0" /><path
           id="path13168"
           d="m 511,393.77 v 0.02 0.03 0.01 0.02 0.01 l -0.01,0.02 v 0.01 l -0.01,0.02 -0.01,0.02 -0.01,0.02 -0.01,0.02 -0.02,0.03 -0.01,0.02 -0.02,0.03 -0.02,0.03 -0.03,0.03 -0.02,0.03 -0.03,0.04 -0.02,0.02 -0.01,0.02 -0.02,0.02 -0.02,0.02 -0.02,0.02 -0.02,0.02 -0.02,0.03 -0.02,0.02 -0.02,0.03 -0.03,0.02 -0.02,0.03 -0.03,0.03 -0.03,0.03 -0.02,0.02 -0.03,0.03 -0.03,0.04 -0.03,0.03 -0.03,0.03 -0.04,0.03 -0.03,0.04 -0.04,0.04 -0.03,0.03 -0.04,0.04 -0.04,0.04 c -6.22,6.28 -7.81,15.69 -7.81,23.31 0,8.67 1.89,17.35 8.01,23.56 0.64,0.61 0.64,0.71 0.64,0.86 0,0.35 -0.18,0.49 -0.48,0.49 -0.5,0 -4.98,-3.38 -7.92,-9.7 -2.55,-5.49 -3.14,-11.02 -3.14,-15.21 0,-3.89 0.54,-9.9 3.28,-15.55 2.98,-6.12 7.28,-9.35 7.78,-9.35 0.3,0 0.48,0.14 0.48,0.5 z"
           inkscape:connector-curvature="0"
           style="fill:#000000;stroke-width:0" /><path
           id="path13170"
           d="m 532.48,435.86 0.04,0.16 0.04,0.16 0.04,0.15 0.04,0.15 0.04,0.13 0.04,0.13 0.05,0.13 0.06,0.11 0.06,0.11 0.06,0.11 0.07,0.1 0.08,0.09 0.09,0.09 0.1,0.08 0.11,0.07 0.12,0.07 0.14,0.07 0.14,0.06 0.17,0.06 0.17,0.05 0.1,0.02 0.09,0.02 0.11,0.02 0.1,0.02 0.12,0.02 0.11,0.02 0.12,0.01 0.13,0.02 0.13,0.01 0.13,0.02 0.14,0.01 0.15,0.01 0.15,0.01 0.15,0.01 0.17,0.01 0.16,0.01 h 0.18 l 0.18,0.01 h 0.18 l 0.19,0.01 h 0.2 0.2 0.21 0.22 c 1.48,0 1.89,0 1.89,0.96 0,0.59 -0.55,0.59 -0.8,0.59 -1.65,0 -5.73,-0.16 -7.37,-0.16 -1.5,0 -5.14,0.16 -6.63,0.16 -0.36,0 -0.95,0 -0.95,-1 0,-0.55 0.45,-0.55 1.39,-0.55 0.11,0 1.05,0 1.91,-0.09 0.89,-0.11 1.34,-0.16 1.34,-0.8 0,-0.2 -0.06,-0.36 -0.2,-0.95 l -6.68,-26.75 c -0.5,-1.95 -0.61,-2.34 -4.54,-2.34 -0.85,0 -1.35,0 -1.35,-1 0,-0.55 0.46,-0.55 1.35,-0.55 h 23.08 c 1.18,0 1.23,0 1.54,0.84 l 3.92,10.77 c 0.21,0.55 0.21,0.64 0.21,0.7 0,0.19 -0.14,0.55 -0.6,0.55 -0.45,0 -0.5,-0.25 -0.84,-1.05 -1.7,-4.59 -3.89,-10.26 -12.52,-10.26 h -4.67 c -0.7,0 -0.79,0 -1.09,0.04 -0.5,0.05 -0.66,0.1 -0.66,0.5 0,0.14 0,0.25 0.25,1.14 z"
           inkscape:connector-curvature="0"
           style="fill:#000000;stroke-width:0" /><path
           id="path13172"
           d="m 555.72,441.3 -0.01,0.16 v 0.17 0.16 l -0.01,0.08 v 0.08 l -0.01,0.08 -0.01,0.07 -0.01,0.08 -0.01,0.07 -0.01,0.07 -0.02,0.07 -0.02,0.07 -0.02,0.06 -0.02,0.06 -0.03,0.06 -0.03,0.06 -0.04,0.05 -0.04,0.05 -0.04,0.04 -0.05,0.05 -0.05,0.04 -0.02,0.01 -0.03,0.02 -0.03,0.02 -0.03,0.01 -0.03,0.01 -0.04,0.02 -0.03,0.01 -0.03,0.01 -0.04,0.01 -0.04,0.01 h -0.04 l -0.04,0.01 h -0.04 l -0.04,0.01 h -0.05 -0.04 c -1,0 -1,-0.89 -1,-1.78 v -46.24 c 0,-0.9 0,-1.79 1,-1.79 1,0 1,0.89 1,1.79 z"
           inkscape:connector-curvature="0"
           style="fill:#000000;stroke-width:0" /><path
           id="path13174"
           d="m 598.47,427.44 -0.02,0.74 -0.05,0.73 -0.07,0.71 -0.11,0.7 -0.13,0.68 -0.16,0.66 -0.19,0.64 -0.22,0.62 -0.24,0.6 -0.27,0.59 -0.29,0.56 -0.32,0.54 -0.34,0.52 -0.37,0.5 -0.38,0.47 -0.42,0.45 -0.43,0.43 -0.45,0.41 -0.48,0.38 -0.49,0.35 -0.52,0.33 -0.53,0.3 -0.55,0.28 -0.57,0.25 -0.59,0.22 -0.6,0.2 -0.62,0.16 -0.63,0.14 -0.65,0.1 -0.67,0.08 -0.67,0.05 -0.69,0.01 -0.3,-1.25 c 4.09,0 8.58,-2.78 8.58,-10.2 0,-3.59 -1.35,-11.36 -6.28,-17.5 -2.4,-3.03 -6.49,-5.97 -10.66,-5.97 v 0 c -4.94,0 -8.42,4.03 -8.42,10.61 0,2.19 0.68,9.47 4.53,15.3 3.44,5.17 8.31,7.76 12.25,7.76 l 0.3,1.25 c -10.75,0 -21.72,-11.31 -21.72,-22.92 0,-8.26 5.57,-13.3 12.76,-13.3 10.55,0 21.68,10.91 21.68,22.82 z"
           inkscape:connector-curvature="0"
           style="fill:#000000;stroke-width:0" /><path
           id="path13176"
           d="m 615.46,418.17 v 0.37 l -0.01,0.39 v 0.39 l -0.02,0.41 -0.04,0.84 -0.06,0.88 -0.08,0.92 -0.11,0.95 -0.13,0.97 -0.16,1.01 -0.2,1.02 -0.23,1.03 -0.27,1.05 -0.3,1.06 -0.35,1.07 -0.39,1.07 -0.22,0.53 -0.22,0.53 -0.24,0.53 -0.25,0.53 c -2.98,6.12 -7.27,9.36 -7.77,9.36 -0.29,0 -0.5,-0.19 -0.5,-0.49 0,-0.15 0,-0.25 0.94,-1.15 4.89,-4.92 7.74,-12.85 7.74,-23.27 0,-8.51 -1.85,-17.28 -8.04,-23.56 -0.64,-0.59 -0.64,-0.7 -0.64,-0.84 0,-0.3 0.21,-0.5 0.5,-0.5 0.5,0 4.97,3.39 7.93,9.71 2.53,5.47 3.12,11 3.12,15.19 z"
           inkscape:connector-curvature="0"
           style="fill:#000000;stroke-width:0" /><path
           id="path13178"
           d="m 668.42,422.02 h 0.14 0.14 0.15 l 0.07,0.01 h 0.07 l 0.07,0.01 0.07,0.01 0.07,0.01 0.07,0.01 0.07,0.01 0.07,0.02 0.06,0.02 0.07,0.02 0.06,0.02 0.06,0.03 0.05,0.03 0.05,0.04 0.05,0.03 0.05,0.05 0.04,0.04 0.04,0.05 0.02,0.03 0.02,0.03 0.02,0.02 0.01,0.03 0.02,0.03 0.01,0.04 0.01,0.03 0.01,0.04 0.01,0.03 0.01,0.04 0.01,0.04 v 0.04 l 0.01,0.04 v 0.04 0.04 0.05 c 0,1 -0.95,1 -1.63,1 h -29.85 c -0.7,0 -1.64,0 -1.64,-1 0,-0.98 0.94,-0.98 1.69,-0.98 z"
           inkscape:connector-curvature="0"
           style="fill:#000000;stroke-width:0" /><path
           id="path13180"
           d="m 668.47,412.34 h 0.06 0.07 l 0.13,0.01 h 0.14 0.07 l 0.07,0.01 0.07,0.01 h 0.07 l 0.07,0.01 0.07,0.02 0.06,0.01 0.07,0.02 0.06,0.02 0.06,0.02 0.06,0.02 0.06,0.03 0.05,0.03 0.06,0.04 0.05,0.04 0.04,0.04 0.05,0.05 0.02,0.02 0.02,0.03 0.01,0.02 0.02,0.03 0.02,0.03 0.01,0.03 0.02,0.03 0.01,0.03 0.01,0.04 0.01,0.03 0.01,0.04 0.01,0.04 0.01,0.04 v 0.04 l 0.01,0.04 v 0.04 0.05 0.04 c 0,1 -0.95,1 -1.68,1 h -29.75 c -0.75,0 -1.69,0 -1.69,-1 0,-1 0.94,-1 1.64,-1 z"
           inkscape:connector-curvature="0"
           style="fill:#000000;stroke-width:0" /><path
           id="path13182"
           d="m 844.2,440.64 0.14,1.12 2.37,9.44 c 0.28,1.08 0.31,1.19 1.78,1.19 h 4.08 c 3.23,0 5.25,-0.99 5.25,-3.46 0,-1.07 -0.41,-3.82 -2.16,-5.4 -1.25,-1.11 -3.23,-1.77 -5.75,-1.77 h -5.57 l -0.14,-1.12 h 6.31 c 5.89,0 10.87,3.76 10.87,7.56 0,2.94 -2.86,5.44 -7.64,5.44 h -12.19 c -0.7,0 -1.1,0 -1.1,-0.77 0,-0.48 0.37,-0.48 1.14,-0.48 0.56,0 0.7,0 1.32,-0.08 0.71,-0.06 0.77,-0.14 0.77,-0.49 0,-0.06 0,-0.23 -0.14,-0.76 l -4.59,-18.36 c -0.36,-1.36 -0.4,-1.61 -3.11,-1.61 -0.63,0 -1.05,0 -1.05,-0.77 0,-0.03 0,-0.48 0.56,-0.48 1.02,0 3.52,0.14 4.53,0.14 0.6,0 1.82,0 2.41,-0.03 0.69,-0.05 1.56,-0.11 2.23,-0.11 0.21,0 0.72,0 0.72,0.77 0,0.48 -0.4,0.48 -1.11,0.48 -0.03,0 -0.7,0 -1.33,0.08 -0.79,0.06 -0.79,0.17 -0.79,0.51 0,0.03 0,0.25 0.14,0.77 z"
           inkscape:connector-curvature="0"
           style="fill:#000000;stroke-width:0" /><path
           id="path13184"
           d="m 875.41,455.98 -0.61,-0.45 -0.58,-0.46 -0.55,-0.47 -0.52,-0.49 -0.5,-0.5 -0.47,-0.51 -0.45,-0.53 -0.42,-0.53 -0.4,-0.54 -0.38,-0.55 -0.35,-0.56 -0.33,-0.56 -0.31,-0.57 -0.29,-0.57 -0.26,-0.58 -0.25,-0.58 -0.23,-0.58 -0.21,-0.58 -0.19,-0.59 -0.17,-0.58 -0.16,-0.58 -0.14,-0.58 -0.12,-0.57 -0.11,-0.57 -0.09,-0.57 -0.08,-0.56 -0.06,-0.55 -0.06,-0.54 -0.04,-0.54 -0.02,-0.53 -0.02,-0.51 -0.01,-0.51 c 0,-4.92 1.47,-12.55 8.38,-17.42 0.28,0 0.69,0 0.69,0.4 0,0.22 -0.1,0.29 -0.35,0.54 -4.64,4.18 -6.34,10.1 -6.34,16.45 0,9.4 3.59,14 6.45,16.58 0.14,0.14 0.24,0.25 0.24,0.42 0,0.42 -0.41,0.42 -0.69,0.42 z"
           inkscape:connector-curvature="0"
           style="fill:#000000;stroke-width:0" /><path
           id="path13186"
           d="m 907.52,444.65 -0.01,0.51 -0.03,0.5 -0.06,0.49 -0.08,0.49 -0.1,0.47 -0.12,0.47 -0.14,0.45 -0.17,0.44 -0.18,0.43 -0.21,0.42 -0.22,0.41 -0.25,0.39 -0.26,0.38 -0.29,0.36 -0.3,0.35 -0.32,0.34 -0.34,0.31 -0.35,0.31 -0.37,0.28 -0.4,0.27 -0.4,0.24 -0.43,0.23 -0.44,0.21 -0.45,0.2 -0.47,0.17 -0.49,0.14 -0.5,0.13 -0.52,0.11 -0.53,0.08 -0.55,0.06 -0.55,0.04 -0.58,0.01 -0.28,-1.13 c 3.63,0 6.97,-2.29 6.97,-7.34 0,-2.55 -1.08,-7.64 -4.31,-11.36 -2.44,-2.8 -5.61,-4.22 -8.33,-4.22 v 0 c -3.7,0 -6.83,2.52 -6.83,7.67 0,1.77 0.49,6.72 3.69,10.69 2.33,2.86 5.72,4.56 8.81,4.56 l 0.28,1.13 c -8.32,0 -16.37,-7.81 -16.37,-15.66 0,-5.61 4.14,-9.54 10.14,-9.54 8.3,0 16.34,7.61 16.34,15.51 z"
           inkscape:connector-curvature="0"
           style="fill:#000000;stroke-width:0" /><path
           id="path13188"
           d="m 916.72,454.62 v 0.05 0.05 0.05 0.06 0.05 l -0.01,0.06 v 0.05 0.06 l -0.01,0.06 -0.01,0.05 -0.01,0.06 -0.01,0.06 -0.01,0.05 -0.01,0.06 -0.02,0.05 -0.02,0.05 -0.02,0.05 -0.02,0.05 -0.03,0.05 -0.03,0.05 -0.03,0.04 -0.04,0.04 -0.03,0.04 -0.03,0.01 -0.02,0.02 -0.02,0.02 -0.02,0.01 -0.03,0.02 -0.02,0.01 -0.03,0.01 -0.03,0.01 -0.03,0.01 -0.03,0.01 -0.03,0.01 -0.03,0.01 -0.03,0.01 h -0.04 -0.03 l -0.04,0.01 h -0.04 -0.03 c -0.88,0 -0.88,-0.81 -0.88,-1.36 v -32.14 c 0,-0.52 0,-1.36 0.84,-1.36 0.88,0 0.88,0.81 0.88,1.36 z"
           inkscape:connector-curvature="0"
           style="fill:#000000;stroke-width:0" /><path
           id="path13190"
           d="m 936.19,450.78 0.03,0.11 0.03,0.11 0.03,0.11 0.03,0.1 0.03,0.1 0.03,0.09 0.03,0.08 0.04,0.08 0.04,0.08 0.05,0.07 0.05,0.07 0.05,0.06 0.06,0.06 0.07,0.06 0.08,0.05 0.08,0.05 0.09,0.04 0.1,0.04 0.11,0.04 0.12,0.03 0.07,0.02 0.07,0.01 0.07,0.02 0.07,0.01 0.08,0.01 0.07,0.01 0.09,0.01 0.08,0.01 0.09,0.01 0.09,0.01 0.1,0.01 0.1,0.01 h 0.1 l 0.11,0.01 h 0.11 l 0.11,0.01 h 0.12 l 0.12,0.01 h 0.13 0.13 0.14 l 0.13,0.01 h 0.15 0.15 c 1.08,0 1.42,0 1.42,0.76 0,0.03 -0.03,0.49 -0.59,0.49 -0.8,0 -1.74,-0.07 -2.58,-0.11 -0.88,-0.03 -1.91,-0.03 -2.79,-0.03 -0.73,0 -1.67,0.03 -2.4,0.03 -0.73,0 -1.56,0.11 -2.27,0.11 -0.2,0 -0.73,0 -0.73,-0.77 0,-0.48 0.42,-0.48 1.12,-0.48 0.03,0 0.69,0 1.32,-0.08 0.73,-0.06 0.81,-0.14 0.81,-0.49 0,-0.06 0,-0.23 -0.14,-0.76 l -4.64,-18.5 c -0.32,-1.19 -0.39,-1.47 -3.07,-1.47 -0.59,0 -1.04,0 -1.04,-0.73 0,-0.52 0.42,-0.52 1.04,-0.52 h 17.52 c 0.88,0 0.91,0.03 1.19,0.7 0.36,0.94 2.97,7.69 2.97,7.97 0,0.11 -0.08,0.5 -0.6,0.5 -0.42,0 -0.48,-0.19 -0.7,-0.73 -1.31,-3.32 -2.86,-7.19 -9.23,-7.19 h -3.94 c -1.08,0 -1.11,0.05 -1.11,0.36 0,0.03 0,0.2 0.14,0.72 z"
           inkscape:connector-curvature="0"
           style="fill:#000000;stroke-width:0" /><path
           id="path13192"
           d="m 952.33,455.98 h -0.02 -0.03 -0.02 -0.03 -0.03 -0.02 -0.03 l -0.03,-0.01 h -0.03 -0.02 l -0.03,-0.01 h -0.03 l -0.03,-0.01 -0.03,-0.01 h -0.02 l -0.03,-0.01 -0.02,-0.01 -0.03,-0.01 -0.02,-0.02 -0.02,-0.01 -0.02,-0.02 -0.02,-0.02 -0.02,-0.02 -0.01,-0.01 -0.01,-0.01 -0.01,-0.01 -0.01,-0.01 v -0.01 l -0.01,-0.02 -0.01,-0.01 v -0.01 l -0.01,-0.02 v -0.01 l -0.01,-0.02 v -0.01 -0.02 l -0.01,-0.02 v -0.01 -0.02 -0.02 -0.02 c 0,-0.17 0.11,-0.28 0.31,-0.53 3,-2.75 6.35,-7.46 6.35,-16.44 0,-7.28 -2.27,-12.8 -6.04,-16.2 -0.57,-0.6 -0.62,-0.63 -0.62,-0.82 0,-0.17 0.11,-0.4 0.45,-0.4 0.42,0 3.74,2.29 6.04,6.65 1.53,2.89 2.54,6.66 2.54,10.74 0,4.9 -1.47,12.53 -8.36,17.42 z"
           inkscape:connector-curvature="0"
           style="fill:#000000;stroke-width:0" /><path
           id="path13194"
           d="m 976.04,438.51 0.26,0.12 0.26,0.11 0.24,0.11 0.24,0.1 0.23,0.1 0.22,0.1 0.21,0.09 0.21,0.09 0.2,0.08 0.19,0.08 0.18,0.08 0.18,0.07 0.17,0.08 0.16,0.06 0.16,0.07 0.15,0.06 0.14,0.07 0.14,0.05 0.14,0.06 0.12,0.05 0.13,0.06 0.12,0.05 0.11,0.05 0.11,0.04 0.11,0.05 0.1,0.05 0.19,0.08 0.18,0.08 0.16,0.08 c 0.68,0.27 0.99,0.41 0.99,1.08 0,0.6 -0.45,1.11 -1.08,1.11 -0.25,0 -0.31,0 -0.73,-0.31 l -4.74,-3.17 0.52,5.15 c 0.08,0.63 0,1.5 -1.05,1.5 -0.42,0 -1.08,-0.28 -1.08,-1.04 0,-0.32 0.14,-1.36 0.17,-1.71 0.08,-0.59 0.32,-3.11 0.4,-3.9 l -4.71,3.17 c -0.36,0.2 -0.45,0.31 -0.76,0.31 -0.64,0 -1.1,-0.51 -1.1,-1.11 0,-0.7 0.42,-0.87 0.74,-1.01 l 5.26,-2.19 c -2.86,-1.27 -4.14,-1.75 -5.01,-2.17 -0.66,-0.28 -0.99,-0.43 -0.99,-1.08 0,-0.6 0.46,-1.11 1.1,-1.11 0.23,0 0.31,0 0.72,0.31 l 4.75,3.17 -0.57,-5.61 c 0,-0.76 0.66,-1.04 1.08,-1.04 0.42,0 1.08,0.28 1.08,1.04 0,0.32 -0.14,1.36 -0.17,1.71 -0.07,0.59 -0.32,3.09 -0.38,3.9 l 4.17,-2.79 c 0.91,-0.69 0.99,-0.69 1.3,-0.69 0.63,0 1.08,0.51 1.08,1.11 0,0.7 -0.42,0.87 -0.74,1.01 z"
           inkscape:connector-curvature="0"
           style="fill:#000000;stroke-width:0" /><path
           id="path13196"
           d="m 997.06,440.64 0.14,1.12 2.38,9.44 c 0.28,1.08 0.31,1.19 1.82,1.19 h 4 c 3.3,0 5.3,-0.99 5.3,-3.46 0,-1.07 -0.4,-3.82 -2.2,-5.4 -1.2,-1.11 -3.2,-1.77 -5.7,-1.77 h -5.6 l -0.14,-1.12 h 6.34 c 5.9,0 10.8,3.76 10.8,7.56 0,2.94 -2.8,5.44 -7.6,5.44 h -12.18 c -0.7,0 -1.11,0 -1.11,-0.77 0,-0.48 0.38,-0.48 1.14,-0.48 0.57,0 0.71,0 1.33,-0.08 0.7,-0.06 0.77,-0.14 0.77,-0.49 0,-0.06 0,-0.23 -0.14,-0.76 l -4.6,-18.36 c -0.36,-1.36 -0.39,-1.61 -3.11,-1.61 -0.62,0 -1.04,0 -1.04,-0.77 0,-0.03 0,-0.48 0.56,-0.48 1.01,0 3.51,0.14 4.53,0.14 0.59,0 1.81,0 2.41,-0.03 0.68,-0.05 1.56,-0.11 2.23,-0.11 0.2,0 0.72,0 0.72,0.77 0,0.48 -0.41,0.48 -1.11,0.48 -0.03,0 -0.7,0 -1.33,0.08 -0.79,0.06 -0.79,0.17 -0.79,0.51 0,0.03 0,0.25 0.14,0.77 z"
           inkscape:connector-curvature="0"
           style="fill:#000000;stroke-width:0" /><path
           id="path13198"
           d="m 1028.3,455.98 -0.6,-0.45 -0.6,-0.46 -0.6,-0.47 -0.5,-0.49 -0.5,-0.5 -0.5,-0.51 -0.4,-0.53 -0.4,-0.53 -0.4,-0.54 -0.4,-0.55 -0.4,-0.56 -0.3,-0.56 -0.3,-0.57 -0.3,-0.57 -0.2,-0.58 -0.3,-0.58 -0.2,-0.58 -0.2,-0.58 -0.2,-0.59 -0.2,-0.58 -0.2,-0.58 -0.1,-0.58 -0.1,-0.57 -0.1,-0.57 -0.1,-0.57 -0.1,-0.56 -0.1,-0.55 v -0.54 l -0.1,-0.54 v -0.53 -0.51 -0.51 c 0,-4.92 1.5,-12.55 8.4,-17.42 0.3,0 0.7,0 0.7,0.4 0,0.22 -0.1,0.29 -0.4,0.54 -4.6,4.18 -6.3,10.1 -6.3,16.45 0,9.4 3.6,14 6.4,16.58 0.2,0.14 0.3,0.25 0.3,0.42 0,0.42 -0.4,0.42 -0.7,0.42 z"
           inkscape:connector-curvature="0"
           style="fill:#000000;stroke-width:0" /><path
           id="path13200"
           d="m 1045.9,450.78 v 0.11 0.11 0.11 l 0.1,0.1 v 0.1 0.09 l 0.1,0.08 v 0.08 0.08 l 0.1,0.07 v 0.07 l 0.1,0.06 0.1,0.06 v 0.06 l 0.1,0.05 0.1,0.05 0.1,0.04 0.1,0.04 0.1,0.04 0.1,0.03 0.1,0.02 v 0.01 l 0.1,0.02 0.1,0.01 0.1,0.01 v 0.01 l 0.1,0.01 0.1,0.01 0.1,0.01 0.1,0.01 0.1,0.01 0.1,0.01 h 0.1 l 0.1,0.01 h 0.1 l 0.1,0.01 h 0.1 l 0.2,0.01 h 0.1 0.1 0.2 l 0.1,0.01 h 0.1 0.2 c 1.1,0 1.4,0 1.4,0.76 0,0.03 0,0.49 -0.6,0.49 -0.8,0 -1.7,-0.07 -2.6,-0.11 -0.8,-0.03 -1.9,-0.03 -2.8,-0.03 -0.7,0 -1.6,0.03 -2.3,0.03 -0.8,0 -1.6,0.11 -2.3,0.11 -0.2,0 -0.7,0 -0.7,-0.77 0,-0.48 0.4,-0.48 1.1,-0.48 0,0 0.7,0 1.3,-0.08 0.7,-0.06 0.8,-0.14 0.8,-0.49 0,-0.06 0,-0.23 -0.1,-0.76 l -4.7,-18.5 c -0.3,-1.19 -0.4,-1.47 -3.1,-1.47 -0.5,0 -1,0 -1,-0.73 0,-0.52 0.4,-0.52 1,-0.52 h 17.6 c 0.8,0 0.9,0.03 1.2,0.7 0.3,0.94 2.9,7.69 2.9,7.97 0,0.11 0,0.5 -0.6,0.5 -0.4,0 -0.4,-0.19 -0.7,-0.73 -1.3,-3.32 -2.8,-7.19 -9.2,-7.19 h -3.9 c -1.1,0 -1.1,0.05 -1.1,0.36 0,0.03 0,0.2 0.1,0.72 z"
           inkscape:connector-curvature="0"
           style="fill:#000000;stroke-width:0" /><path
           id="path13202"
           d="m 1062,455.98 v 0 0 h -0.1 v 0 0 h -0.1 v 0 -0.01 0 h -0.1 v -0.01 0 -0.01 l -0.1,-0.01 v 0 -0.01 l -0.1,-0.01 v -0.01 -0.02 -0.01 -0.02 l -0.1,-0.02 v -0.02 -0.01 -0.01 -0.01 -0.01 -0.01 -0.02 -0.01 -0.01 -0.02 l -0.1,-0.01 v -0.02 -0.01 -0.02 -0.02 -0.01 -0.02 -0.02 -0.02 c 0,-0.17 0.1,-0.28 0.3,-0.53 3,-2.75 6.4,-7.46 6.4,-16.44 0,-7.28 -2.3,-12.8 -6.1,-16.2 -0.5,-0.6 -0.6,-0.63 -0.6,-0.82 0,-0.17 0.1,-0.4 0.5,-0.4 0.4,0 3.7,2.29 6,6.65 1.5,2.89 2.6,6.66 2.6,10.74 0,4.9 -1.5,12.53 -8.4,17.42 z"
           inkscape:connector-curvature="0"
           style="fill:#000000;stroke-width:0" /><polyline
           id="polyline13204"
           points="693,417 1214.2,417 1214.2,419.04 693,419.04 "
           style="fill:#000000;fill-rule:nonzero;stroke-width:0" /><path
           id="path13206"
           d="m 704.64,399.36 0.14,1.12 2.37,9.44 c 0.28,1.08 0.32,1.19 1.78,1.19 h 4.08 c 3.24,0 5.25,-0.99 5.25,-3.46 0,-1.08 -0.41,-3.83 -2.16,-5.4 -1.25,-1.11 -3.23,-1.77 -5.75,-1.77 h -5.57 l -0.14,-1.12 h 6.31 c 5.89,0 10.87,3.76 10.87,7.56 0,2.94 -2.85,5.44 -7.64,5.44 H 702 c -0.71,0 -1.11,0 -1.11,-0.77 0,-0.48 0.37,-0.48 1.14,-0.48 0.56,0 0.7,0 1.32,-0.08 0.71,-0.07 0.77,-0.14 0.77,-0.49 0,-0.06 0,-0.23 -0.14,-0.76 l -4.59,-18.36 c -0.36,-1.36 -0.39,-1.61 -3.11,-1.61 -0.63,0 -1.05,0 -1.05,-0.77 0,-0.03 0,-0.48 0.56,-0.48 1.02,0 3.52,0.14 4.53,0.14 0.6,0 1.82,0 2.41,-0.03 0.69,-0.05 1.56,-0.11 2.24,-0.11 0.2,0 0.71,0 0.71,0.76 0,0.49 -0.4,0.49 -1.11,0.49 -0.03,0 -0.7,0 -1.32,0.08 -0.8,0.06 -0.8,0.17 -0.8,0.51 0,0.03 0,0.25 0.14,0.77 z"
           inkscape:connector-curvature="0"
           style="fill:#000000;stroke-width:0" /><path
           id="path13208"
           d="m 735.85,414.7 -0.6,-0.45 -0.58,-0.46 -0.56,-0.47 -0.52,-0.49 -0.5,-0.5 -0.47,-0.51 -0.45,-0.53 -0.42,-0.53 -0.4,-0.54 -0.38,-0.55 -0.35,-0.56 -0.33,-0.56 -0.31,-0.57 -0.29,-0.57 -0.26,-0.58 -0.25,-0.58 -0.23,-0.58 -0.21,-0.58 -0.19,-0.59 -0.17,-0.58 -0.16,-0.58 -0.13,-0.58 -0.13,-0.57 -0.11,-0.57 -0.09,-0.57 -0.08,-0.56 -0.06,-0.55 -0.05,-0.55 -0.04,-0.53 -0.03,-0.53 -0.02,-0.52 v -0.5 c 0,-4.92 1.47,-12.55 8.37,-17.42 0.28,0 0.69,0 0.69,0.4 0,0.22 -0.09,0.28 -0.34,0.53 -4.65,4.19 -6.35,10.11 -6.35,16.46 0,9.4 3.6,14 6.45,16.58 0.15,0.14 0.24,0.25 0.24,0.42 0,0.42 -0.41,0.42 -0.69,0.42 z"
           inkscape:connector-curvature="0"
           style="fill:#000000;stroke-width:0" /><path
           id="path13210"
           d="m 767.97,403.37 -0.02,0.51 -0.03,0.5 -0.06,0.49 -0.08,0.49 -0.1,0.47 -0.12,0.47 -0.14,0.45 -0.17,0.44 -0.18,0.43 -0.21,0.42 -0.22,0.41 -0.25,0.39 -0.26,0.38 -0.28,0.36 -0.31,0.35 -0.32,0.34 -0.33,0.31 -0.36,0.3 -0.37,0.29 -0.39,0.27 -0.41,0.24 -0.43,0.23 -0.44,0.21 -0.45,0.19 -0.47,0.17 -0.49,0.15 -0.5,0.13 -0.52,0.11 -0.53,0.08 -0.54,0.06 -0.56,0.04 -0.58,0.01 -0.28,-1.13 c 3.63,0 6.97,-2.29 6.97,-7.34 0,-2.55 -1.07,-7.64 -4.31,-11.36 -2.44,-2.8 -5.61,-4.22 -8.33,-4.22 v 0 c -3.7,0 -6.83,2.52 -6.83,7.67 0,1.77 0.49,6.72 3.69,10.69 2.33,2.86 5.72,4.56 8.81,4.56 l 0.28,1.13 c -8.32,0 -16.37,-7.81 -16.37,-15.66 0,-5.61 4.14,-9.54 10.14,-9.54 8.3,0 16.35,7.6 16.35,15.51 z"
           inkscape:connector-curvature="0"
           style="fill:#000000;stroke-width:0" /><path
           id="path13212"
           d="m 777.16,413.34 v 0.05 0.05 0.05 l -0.01,0.06 v 0.05 0.06 0.05 l -0.01,0.06 v 0.06 l -0.01,0.05 -0.01,0.06 -0.01,0.06 -0.01,0.05 -0.01,0.06 -0.02,0.05 -0.02,0.05 -0.02,0.05 -0.02,0.05 -0.03,0.05 -0.03,0.04 -0.03,0.05 -0.04,0.04 -0.04,0.03 -0.02,0.02 -0.02,0.02 -0.02,0.02 -0.03,0.01 -0.02,0.01 -0.03,0.02 -0.02,0.01 -0.03,0.01 -0.03,0.01 -0.03,0.01 -0.03,0.01 -0.03,0.01 h -0.03 l -0.04,0.01 h -0.03 l -0.04,0.01 h -0.04 -0.04 c -0.87,0 -0.87,-0.81 -0.87,-1.36 V 381.2 c 0,-0.52 0,-1.36 0.84,-1.36 0.88,0 0.88,0.81 0.88,1.36 z"
           inkscape:connector-curvature="0"
           style="fill:#000000;stroke-width:0" /><path
           id="path13214"
           d="m 796.63,409.5 0.03,0.11 0.03,0.11 0.02,0.11 0.03,0.1 0.03,0.09 0.03,0.09 0.04,0.09 0.04,0.08 0.04,0.08 0.04,0.07 0.05,0.07 0.06,0.06 0.06,0.06 0.07,0.06 0.07,0.05 0.09,0.05 0.09,0.04 0.1,0.04 0.11,0.04 0.12,0.03 0.07,0.02 0.06,0.01 0.07,0.01 0.08,0.02 0.07,0.01 0.08,0.01 0.08,0.01 0.09,0.01 0.09,0.01 0.09,0.01 0.1,0.01 0.1,0.01 h 0.1 l 0.11,0.01 h 0.11 l 0.11,0.01 h 0.12 l 0.12,0.01 h 0.13 0.13 0.13 0.14 0.15 l 0.14,0.01 c 1.08,0 1.43,0 1.43,0.76 0,0.03 -0.03,0.49 -0.6,0.49 -0.8,0 -1.73,-0.07 -2.58,-0.11 -0.87,-0.04 -1.9,-0.04 -2.78,-0.04 -0.73,0 -1.67,0.04 -2.4,0.04 -0.74,0 -1.57,0.11 -2.27,0.11 -0.2,0 -0.73,0 -0.73,-0.77 0,-0.48 0.42,-0.48 1.12,-0.48 0.03,0 0.69,0 1.31,-0.08 0.74,-0.07 0.82,-0.14 0.82,-0.49 0,-0.06 0,-0.23 -0.14,-0.76 l -4.65,-18.5 c -0.31,-1.19 -0.38,-1.47 -3.06,-1.47 -0.59,0 -1.04,0 -1.04,-0.74 0,-0.51 0.42,-0.51 1.04,-0.51 h 17.52 c 0.87,0 0.91,0.03 1.19,0.7 0.35,0.94 2.97,7.69 2.97,7.97 0,0.11 -0.08,0.5 -0.6,0.5 -0.42,0 -0.48,-0.19 -0.7,-0.73 -1.32,-3.32 -2.86,-7.19 -9.24,-7.19 h -3.93 c -1.08,0 -1.11,0.05 -1.11,0.36 0,0.03 0,0.2 0.14,0.72 z"
           inkscape:connector-curvature="0"
           style="fill:#000000;stroke-width:0" /><path
           id="path13216"
           d="m 812.77,414.7 h -0.02 -0.03 -0.02 -0.03 -0.03 -0.02 l -0.03,-0.01 h -0.03 -0.03 -0.03 l -0.02,-0.01 h -0.03 l -0.03,-0.01 -0.03,-0.01 h -0.02 l -0.03,-0.01 -0.02,-0.01 -0.03,-0.02 -0.02,-0.01 -0.03,-0.01 -0.02,-0.02 -0.02,-0.02 -0.02,-0.02 v -0.01 l -0.01,-0.01 -0.01,-0.01 -0.01,-0.01 v -0.01 l -0.01,-0.02 -0.01,-0.01 v -0.01 l -0.01,-0.02 v -0.01 l -0.01,-0.02 v -0.02 -0.01 l -0.01,-0.02 v -0.02 -0.01 -0.02 -0.02 c 0,-0.17 0.11,-0.28 0.31,-0.53 3,-2.75 6.34,-7.46 6.34,-16.44 0,-7.28 -2.26,-12.8 -6.03,-16.2 -0.57,-0.6 -0.62,-0.63 -0.62,-0.82 0,-0.17 0.11,-0.4 0.45,-0.4 0.42,0 3.73,2.29 6.03,6.65 1.53,2.89 2.55,6.66 2.55,10.74 0,4.9 -1.47,12.53 -8.36,17.42 z"
           inkscape:connector-curvature="0"
           style="fill:#000000;stroke-width:0" /><path
           id="path13218"
           d="m 836.48,397.23 0.26,0.12 0.26,0.11 0.24,0.11 0.24,0.1 0.23,0.1 0.22,0.09 0.21,0.1 0.21,0.08 0.19,0.09 0.19,0.08 0.19,0.08 0.17,0.07 0.17,0.07 0.17,0.07 0.15,0.07 0.15,0.06 0.15,0.06 0.14,0.06 0.13,0.06 0.13,0.05 0.13,0.06 0.11,0.05 0.12,0.05 0.11,0.04 0.1,0.05 0.11,0.04 0.19,0.09 0.18,0.08 0.16,0.08 c 0.67,0.27 0.99,0.41 0.99,1.08 0,0.59 -0.46,1.11 -1.08,1.11 -0.25,0 -0.31,0 -0.74,-0.31 l -4.73,-3.17 0.52,5.15 c 0.07,0.63 0,1.5 -1.05,1.5 -0.42,0 -1.08,-0.28 -1.08,-1.05 0,-0.31 0.14,-1.35 0.17,-1.7 0.08,-0.59 0.31,-3.11 0.39,-3.9 l -4.7,3.17 c -0.36,0.2 -0.45,0.31 -0.77,0.31 -0.64,0 -1.09,-0.52 -1.09,-1.11 0,-0.7 0.42,-0.87 0.73,-1.02 l 5.27,-2.18 c -2.86,-1.27 -4.14,-1.75 -5.02,-2.17 -0.65,-0.29 -0.98,-0.43 -0.98,-1.08 0,-0.6 0.45,-1.11 1.09,-1.11 0.24,0 0.32,0 0.72,0.31 l 4.75,3.17 -0.56,-5.61 c 0,-0.76 0.66,-1.04 1.08,-1.04 0.42,0 1.08,0.28 1.08,1.04 0,0.32 -0.14,1.36 -0.18,1.71 -0.06,0.59 -0.31,3.09 -0.37,3.9 l 4.17,-2.79 c 0.91,-0.69 0.99,-0.69 1.3,-0.69 0.62,0 1.08,0.51 1.08,1.11 0,0.7 -0.43,0.87 -0.74,1.01 z"
           inkscape:connector-curvature="0"
           style="fill:#000000;stroke-width:0" /><path
           id="path13220"
           d="m 857.5,399.36 0.14,1.12 2.38,9.44 c 0.28,1.08 0.31,1.19 1.78,1.19 h 4.08 c 3.23,0 5.24,-0.99 5.24,-3.46 0,-1.08 -0.4,-3.83 -2.15,-5.4 -1.25,-1.11 -3.24,-1.77 -5.75,-1.77 h -5.58 l -0.14,-1.12 h 6.31 c 5.89,0 10.88,3.76 10.88,7.56 0,2.94 -2.86,5.44 -7.64,5.44 h -12.19 c -0.7,0 -1.11,0 -1.11,-0.77 0,-0.48 0.37,-0.48 1.14,-0.48 0.56,0 0.7,0 1.33,-0.08 0.7,-0.07 0.76,-0.14 0.76,-0.49 0,-0.06 0,-0.23 -0.14,-0.76 l -4.59,-18.36 c -0.36,-1.36 -0.39,-1.61 -3.11,-1.61 -0.62,0 -1.05,0 -1.05,-0.77 0,-0.03 0,-0.48 0.57,-0.48 1.01,0 3.51,0.14 4.53,0.14 0.59,0 1.81,0 2.4,-0.03 0.69,-0.05 1.57,-0.11 2.24,-0.11 0.2,0 0.72,0 0.72,0.76 0,0.49 -0.41,0.49 -1.11,0.49 -0.03,0 -0.71,0 -1.33,0.08 -0.8,0.06 -0.8,0.17 -0.8,0.51 0,0.03 0,0.25 0.14,0.77 z"
           inkscape:connector-curvature="0"
           style="fill:#000000;stroke-width:0" /><path
           id="path13222"
           d="m 888.72,414.7 -0.61,-0.45 -0.58,-0.46 -0.55,-0.47 -0.52,-0.49 -0.5,-0.5 -0.47,-0.51 -0.45,-0.53 -0.42,-0.53 -0.4,-0.54 -0.38,-0.55 -0.35,-0.56 -0.33,-0.56 -0.31,-0.57 -0.29,-0.57 -0.27,-0.58 -0.24,-0.58 -0.23,-0.58 -0.21,-0.58 -0.19,-0.59 -0.17,-0.58 -0.16,-0.58 -0.14,-0.58 -0.12,-0.57 -0.11,-0.57 -0.09,-0.57 -0.08,-0.56 -0.07,-0.55 -0.05,-0.55 -0.04,-0.53 -0.02,-0.53 -0.02,-0.52 -0.01,-0.5 c 0,-4.92 1.47,-12.55 8.38,-17.42 0.28,0 0.69,0 0.69,0.4 0,0.22 -0.1,0.28 -0.35,0.53 -4.64,4.19 -6.34,10.11 -6.34,16.46 0,9.4 3.59,14 6.45,16.58 0.14,0.14 0.24,0.25 0.24,0.42 0,0.42 -0.41,0.42 -0.69,0.42 z"
           inkscape:connector-curvature="0"
           style="fill:#000000;stroke-width:0" /><path
           id="path13224"
           d="m 906.3,409.5 0.03,0.11 0.03,0.11 0.03,0.11 0.02,0.1 0.04,0.09 0.03,0.09 0.03,0.09 0.04,0.08 0.04,0.08 0.04,0.07 0.05,0.07 0.06,0.06 0.06,0.06 0.07,0.06 0.08,0.05 0.08,0.05 0.09,0.04 0.1,0.04 0.11,0.04 0.12,0.03 0.07,0.02 0.07,0.01 0.07,0.01 0.07,0.02 0.07,0.01 0.08,0.01 0.09,0.01 0.08,0.01 0.09,0.01 0.09,0.01 0.1,0.01 0.1,0.01 h 0.1 l 0.11,0.01 h 0.11 l 0.11,0.01 h 0.12 l 0.12,0.01 h 0.13 0.13 0.14 0.13 0.15 l 0.15,0.01 c 1.07,0 1.42,0 1.42,0.76 0,0.03 -0.03,0.49 -0.6,0.49 -0.79,0 -1.73,-0.07 -2.57,-0.11 -0.88,-0.04 -1.91,-0.04 -2.78,-0.04 -0.74,0 -1.68,0.04 -2.41,0.04 -0.74,0 -1.56,0.11 -2.27,0.11 -0.2,0 -0.73,0 -0.73,-0.77 0,-0.48 0.42,-0.48 1.12,-0.48 0.04,0 0.69,0 1.32,-0.08 0.73,-0.07 0.81,-0.14 0.81,-0.49 0,-0.06 0,-0.23 -0.14,-0.76 l -4.64,-18.5 c -0.31,-1.19 -0.39,-1.47 -3.06,-1.47 -0.6,0 -1.05,0 -1.05,-0.74 0,-0.51 0.42,-0.51 1.05,-0.51 h 17.51 c 0.87,0 0.91,0.03 1.19,0.7 0.36,0.94 2.97,7.69 2.97,7.97 0,0.11 -0.08,0.5 -0.6,0.5 -0.42,0 -0.48,-0.19 -0.7,-0.73 -1.31,-3.32 -2.86,-7.19 -9.24,-7.19 h -3.93 c -1.08,0 -1.11,0.05 -1.11,0.36 0,0.03 0,0.2 0.14,0.72 z"
           inkscape:connector-curvature="0"
           style="fill:#000000;stroke-width:0" /><path
           id="path13226"
           d="m 922.44,414.7 h -0.02 -0.03 -0.02 -0.03 -0.03 -0.02 l -0.03,-0.01 h -0.03 -0.03 -0.03 l -0.02,-0.01 h -0.03 l -0.03,-0.01 -0.03,-0.01 h -0.02 l -0.03,-0.01 -0.02,-0.01 -0.03,-0.02 -0.02,-0.01 -0.02,-0.01 -0.02,-0.02 -0.02,-0.02 -0.02,-0.02 -0.01,-0.01 -0.01,-0.01 -0.01,-0.01 -0.01,-0.01 v -0.01 l -0.01,-0.02 -0.01,-0.01 v -0.01 l -0.01,-0.02 v -0.01 l -0.01,-0.02 v -0.02 -0.01 l -0.01,-0.02 v -0.02 -0.01 -0.02 -0.02 c 0,-0.17 0.11,-0.28 0.31,-0.53 3,-2.75 6.35,-7.46 6.35,-16.44 0,-7.28 -2.27,-12.8 -6.03,-16.2 -0.58,-0.6 -0.63,-0.63 -0.63,-0.82 0,-0.17 0.11,-0.4 0.45,-0.4 0.43,0 3.74,2.29 6.03,6.65 1.53,2.89 2.55,6.66 2.55,10.74 0,4.9 -1.47,12.53 -8.36,17.42 z"
           inkscape:connector-curvature="0"
           style="fill:#000000;stroke-width:0" /><path
           id="path13228"
           d="m 951.04,396.43 h 10.66 c 0.45,0 1.28,0 1.28,0.85 0,0.86 -0.8,0.86 -1.28,0.86 h -10.66 v 10.7 c 0,0.45 0,1.28 -0.84,1.28 -0.88,0 -0.88,-0.8 -0.88,-1.28 v -10.7 h -10.69 c -0.45,0 -1.29,0 -1.29,-0.83 0,-0.88 0.79,-0.88 1.29,-0.88 h 10.69 v -10.7 c 0,-0.45 0,-1.28 0.84,-1.28 0.88,0 0.88,0.8 0.88,1.28 z"
           inkscape:connector-curvature="0"
           style="fill:#000000;stroke-width:0" /><path
           id="path13230"
           d="m 977.37,399.36 0.14,1.12 2.38,9.44 c 0.28,1.08 0.31,1.19 1.78,1.19 h 4.08 c 3.23,0 5.25,-0.99 5.25,-3.46 0,-1.08 -0.41,-3.83 -2.16,-5.4 -1.25,-1.11 -3.24,-1.77 -5.75,-1.77 h -5.58 l -0.14,-1.12 h 6.31 c 5.89,0 10.88,3.76 10.88,7.56 0,2.94 -2.86,5.44 -7.64,5.44 h -12.19 c -0.7,0 -1.11,0 -1.11,-0.77 0,-0.48 0.38,-0.48 1.14,-0.48 0.56,0 0.71,0 1.33,-0.08 0.7,-0.07 0.76,-0.14 0.76,-0.49 0,-0.06 0,-0.23 -0.13,-0.76 l -4.6,-18.36 c -0.36,-1.36 -0.39,-1.61 -3.11,-1.61 -0.62,0 -1.04,0 -1.04,-0.77 0,-0.03 0,-0.48 0.56,-0.48 1.01,0 3.51,0.14 4.53,0.14 0.59,0 1.81,0 2.41,-0.03 0.68,-0.05 1.56,-0.11 2.23,-0.11 0.2,0 0.72,0 0.72,0.76 0,0.49 -0.41,0.49 -1.11,0.49 -0.03,0 -0.71,0 -1.33,0.08 -0.8,0.06 -0.8,0.17 -0.8,0.51 0,0.03 0,0.25 0.14,0.77 z"
           inkscape:connector-curvature="0"
           style="fill:#000000;stroke-width:0" /><path
           id="path13232"
           d="m 1008.6,414.7 -0.6,-0.45 -0.6,-0.46 -0.5,-0.47 -0.6,-0.49 -0.5,-0.5 -0.4,-0.51 -0.5,-0.53 -0.4,-0.53 -0.4,-0.54 -0.4,-0.55 -0.3,-0.56 -0.4,-0.56 -0.3,-0.57 -0.3,-0.57 -0.2,-0.58 -0.3,-0.58 -0.2,-0.58 -0.2,-0.58 -0.2,-0.59 -0.2,-0.58 -0.1,-0.58 -0.2,-0.58 -0.1,-0.57 -0.1,-0.57 -0.1,-0.57 -0.1,-0.56 v -0.55 l -0.1,-0.55 v -0.53 l -0.1,-0.53 v -0.52 -0.5 c 0,-4.92 1.5,-12.55 8.4,-17.42 0.3,0 0.7,0 0.7,0.4 0,0.22 -0.1,0.28 -0.4,0.53 -4.6,4.19 -6.3,10.11 -6.3,16.46 0,9.4 3.6,14 6.4,16.58 0.2,0.14 0.3,0.25 0.3,0.42 0,0.42 -0.4,0.42 -0.7,0.42 z"
           inkscape:connector-curvature="0"
           style="fill:#000000;stroke-width:0" /><path
           id="path13234"
           d="m 1040.7,403.37 v 0.51 0.5 l -0.1,0.49 -0.1,0.49 -0.1,0.47 -0.1,0.47 -0.1,0.45 -0.2,0.44 -0.2,0.43 -0.2,0.42 -0.2,0.41 -0.3,0.39 -0.2,0.38 -0.3,0.36 -0.3,0.35 -0.3,0.34 -0.4,0.31 -0.3,0.3 -0.4,0.29 -0.4,0.27 -0.4,0.24 -0.4,0.23 -0.5,0.21 -0.4,0.19 -0.5,0.17 -0.5,0.15 -0.5,0.13 -0.5,0.11 -0.5,0.08 -0.6,0.06 -0.5,0.04 -0.6,0.01 -0.3,-1.13 c 3.6,0 7,-2.29 7,-7.34 0,-2.55 -1.1,-7.64 -4.3,-11.36 -2.5,-2.8 -5.6,-4.22 -8.4,-4.22 v 0 c -3.7,0 -6.8,2.52 -6.8,7.67 0,1.77 0.5,6.72 3.7,10.69 2.3,2.86 5.7,4.56 8.8,4.56 l 0.3,1.13 c -8.3,0 -16.4,-7.81 -16.4,-15.66 0,-5.61 4.2,-9.54 10.2,-9.54 8.3,0 16.3,7.6 16.3,15.51 z"
           inkscape:connector-curvature="0"
           style="fill:#000000;stroke-width:0" /><path
           id="path13236"
           d="m 1049.9,413.34 v 0.05 0.05 0.05 0.06 0.05 0.06 0.05 0.06 0.06 0.05 0.06 l -0.1,0.06 v 0.05 0.06 0.05 0.05 0.05 l -0.1,0.05 v 0.05 0.04 0.05 l -0.1,0.04 v 0.03 0.02 l -0.1,0.02 v 0.02 0.01 0.01 l -0.1,0.02 v 0.01 0.01 0.01 l -0.1,0.01 v 0.01 0.01 h -0.1 v 0.01 0 l -0.1,0.01 v 0 0 c -0.9,0 -0.9,-0.81 -0.9,-1.36 V 381.2 c 0,-0.52 0,-1.36 0.8,-1.36 0.9,0 0.9,0.81 0.9,1.36 z"
           inkscape:connector-curvature="0"
           style="fill:#000000;stroke-width:0" /><path
           id="path13238"
           d="m 1066.9,399.78 h 3.8 c 2.6,0 3.1,-0.42 3.1,-1.57 0,-0.53 0,-0.59 -0.3,-1.57 -0.1,-0.21 -0.1,-0.32 -0.1,-0.41 0,-0.36 0.3,-0.53 0.6,-0.53 0.4,0 0.5,0.17 0.7,0.8 l 1.8,7.39 c 0.1,0.11 0.2,0.62 0.2,0.7 0,0.34 -0.3,0.52 -0.6,0.52 -0.5,0 -0.5,-0.21 -0.7,-0.83 -0.7,-2.72 -1.7,-3.25 -4.7,-3.25 h -3.5 l 2.2,8.75 c 0.3,1.08 0.3,1.18 1.8,1.18 h 5.3 c 4.7,0 5.6,-1.1 5.6,-4.01 0,-1.14 -0.2,-1.88 -0.2,-2.16 0,-0.28 0.1,-0.59 0.6,-0.59 0.5,0 0.6,0.31 0.6,0.91 l 0.7,6.06 c 0,1.04 -0.2,1.04 -1.1,1.04 h -18.6 c -0.6,0 -1.1,0 -1.1,-0.76 0,-0.49 0.4,-0.49 1.1,-0.49 0.1,0 0.7,0 1.4,-0.07 0.7,-0.07 0.8,-0.13 0.8,-0.49 0,-0.23 -0.1,-0.59 -0.2,-0.76 l -4.5,-18.22 c -0.4,-1.36 -0.4,-1.61 -3.1,-1.61 -0.6,0 -1.1,0 -1.1,-0.74 0,-0.34 0.3,-0.51 0.6,-0.51 1,0 3.6,0.14 4.6,0.14 l 2.7,-0.03 c 0.9,0 1.8,-0.11 2.7,-0.11 0.2,0 0.8,0 0.8,0.76 0,0.49 -0.5,0.49 -1.2,0.49 -0.1,0 -1,0 -1.9,0.08 -0.7,0.06 -1,0.09 -1,0.59 0,0.14 0,0.23 0.1,0.63 z"
           inkscape:connector-curvature="0"
           style="fill:#000000;stroke-width:0" /><path
           id="path13240"
           d="m 1088.9,414.7 h -0.1 v 0 0 0 h -0.1 v 0 -0.01 h -0.1 v 0 0 -0.01 h -0.1 v -0.01 -0.01 0 l -0.1,-0.01 v -0.01 -0.02 -0.01 l -0.1,-0.01 v -0.02 -0.02 -0.02 -0.01 -0.01 -0.01 l -0.1,-0.01 v -0.01 -0.02 -0.01 -0.01 -0.02 -0.01 -0.02 -0.02 -0.01 -0.02 -0.02 -0.01 -0.02 -0.02 c 0,-0.17 0.1,-0.28 0.3,-0.53 3,-2.75 6.3,-7.46 6.3,-16.44 0,-7.28 -2.2,-12.8 -6,-16.2 -0.6,-0.6 -0.6,-0.63 -0.6,-0.82 0,-0.17 0.1,-0.4 0.4,-0.4 0.5,0 3.8,2.29 6.1,6.65 1.5,2.89 2.5,6.66 2.5,10.74 0,4.9 -1.4,12.53 -8.3,17.42 z"
           inkscape:connector-curvature="0"
           style="fill:#000000;stroke-width:0" /><path
           id="path13242"
           d="m 1112.6,397.23 0.2,0.12 0.3,0.11 0.2,0.11 0.3,0.1 0.2,0.1 0.2,0.09 0.2,0.1 0.2,0.08 0.2,0.09 0.2,0.08 0.2,0.08 0.2,0.07 0.2,0.07 0.1,0.07 0.2,0.07 0.1,0.06 0.2,0.06 0.1,0.06 0.1,0.06 0.2,0.05 0.1,0.06 0.1,0.05 0.1,0.05 0.1,0.04 0.2,0.05 0.1,0.04 0.1,0.09 0.2,0.08 0.2,0.08 c 0.7,0.27 1,0.41 1,1.08 0,0.59 -0.5,1.11 -1.1,1.11 -0.3,0 -0.3,0 -0.7,-0.31 l -4.8,-3.17 0.5,5.15 c 0.1,0.63 0,1.5 -1,1.5 -0.4,0 -1.1,-0.28 -1.1,-1.05 0,-0.31 0.2,-1.35 0.2,-1.7 0.1,-0.59 0.3,-3.11 0.4,-3.9 l -4.7,3.17 c -0.4,0.2 -0.5,0.31 -0.8,0.31 -0.6,0 -1.1,-0.52 -1.1,-1.11 0,-0.7 0.4,-0.87 0.8,-1.02 l 5.2,-2.18 c -2.8,-1.27 -4.1,-1.75 -5,-2.17 -0.7,-0.29 -1,-0.43 -1,-1.08 0,-0.6 0.5,-1.11 1.1,-1.11 0.2,0 0.3,0 0.7,0.31 l 4.8,3.17 -0.6,-5.61 c 0,-0.76 0.7,-1.04 1.1,-1.04 0.4,0 1.1,0.28 1.1,1.04 0,0.32 -0.2,1.36 -0.2,1.71 -0.1,0.59 -0.3,3.09 -0.4,3.9 l 4.2,-2.79 c 0.9,-0.69 1,-0.69 1.3,-0.69 0.6,0 1.1,0.51 1.1,1.11 0,0.7 -0.4,0.87 -0.8,1.01 z"
           inkscape:connector-curvature="0"
           style="fill:#000000;stroke-width:0" /><path
           id="path13244"
           d="m 1133.6,399.36 0.1,1.12 2.4,9.44 c 0.3,1.08 0.3,1.19 1.8,1.19 h 4.1 c 3.2,0 5.2,-0.99 5.2,-3.46 0,-1.08 -0.4,-3.83 -2.1,-5.4 -1.3,-1.11 -3.3,-1.77 -5.8,-1.77 h -5.6 l -0.1,-1.12 h 6.3 c 5.9,0 10.9,3.76 10.9,7.56 0,2.94 -2.9,5.44 -7.7,5.44 h -12.2 c -0.7,0 -1.1,0 -1.1,-0.77 0,-0.48 0.4,-0.48 1.2,-0.48 0.6,0 0.7,0 1.3,-0.08 0.7,-0.07 0.8,-0.14 0.8,-0.49 0,-0.06 0,-0.23 -0.2,-0.76 l -4.6,-18.36 c -0.3,-1.36 -0.4,-1.61 -3.1,-1.61 -0.6,0 -1,0 -1,-0.77 0,-0.03 0,-0.48 0.6,-0.48 1,0 3.5,0.14 4.5,0.14 0.6,0 1.8,0 2.4,-0.03 0.7,-0.05 1.5,-0.11 2.2,-0.11 0.2,0 0.7,0 0.7,0.76 0,0.49 -0.4,0.49 -1.1,0.49 0,0 -0.7,0 -1.3,0.08 -0.8,0.06 -0.8,0.17 -0.8,0.51 0,0.03 0,0.25 0.2,0.77 z"
           inkscape:connector-curvature="0"
           style="fill:#000000;stroke-width:0" /><path
           id="path13246"
           d="m 1164.8,414.7 -0.6,-0.45 -0.6,-0.46 -0.5,-0.47 -0.6,-0.49 -0.4,-0.5 -0.5,-0.51 -0.5,-0.53 -0.4,-0.53 -0.4,-0.54 -0.4,-0.55 -0.3,-0.56 -0.3,-0.56 -0.4,-0.57 -0.2,-0.57 -0.3,-0.58 -0.3,-0.58 -0.2,-0.58 -0.2,-0.58 -0.2,-0.59 -0.2,-0.58 -0.1,-0.58 -0.2,-0.58 -0.1,-0.57 -0.1,-0.57 -0.1,-0.57 -0.1,-0.56 v -0.55 l -0.1,-0.55 v -0.53 -0.53 l -0.1,-0.52 v -0.5 c 0,-4.92 1.5,-12.55 8.4,-17.42 0.3,0 0.7,0 0.7,0.4 0,0.22 -0.1,0.28 -0.3,0.53 -4.7,4.19 -6.4,10.11 -6.4,16.46 0,9.4 3.6,14 6.5,16.58 0.1,0.14 0.2,0.25 0.2,0.42 0,0.42 -0.4,0.42 -0.7,0.42 z"
           inkscape:connector-curvature="0"
           style="fill:#000000;stroke-width:0" /><path
           id="path13248"
           d="m 1180,399.78 h 3.7 c 2.6,0 3.1,-0.42 3.1,-1.57 0,-0.53 0,-0.59 -0.3,-1.57 0,-0.21 -0.1,-0.32 -0.1,-0.41 0,-0.36 0.3,-0.53 0.6,-0.53 0.5,0 0.5,0.17 0.7,0.8 l 1.9,7.39 c 0,0.11 0.1,0.62 0.1,0.7 0,0.34 -0.2,0.52 -0.6,0.52 -0.5,0 -0.5,-0.21 -0.7,-0.83 -0.7,-2.72 -1.7,-3.25 -4.6,-3.25 h -3.5 l 2.2,8.75 c 0.2,1.08 0.3,1.18 1.7,1.18 h 5.4 c 4.6,0 5.5,-1.1 5.5,-4.01 0,-1.14 -0.2,-1.88 -0.2,-2.16 0,-0.28 0.1,-0.59 0.6,-0.59 0.6,0 0.6,0.31 0.7,0.91 l 0.6,6.06 c 0.1,1.04 -0.2,1.04 -1,1.04 h -18.6 c -0.7,0 -1.1,0 -1.1,-0.76 0,-0.49 0.4,-0.49 1.1,-0.49 0,0 0.7,0 1.3,-0.07 0.7,-0.07 0.8,-0.13 0.8,-0.49 0,-0.23 -0.1,-0.59 -0.2,-0.76 l -4.5,-18.22 c -0.4,-1.36 -0.4,-1.61 -3.1,-1.61 -0.6,0 -1.1,0 -1.1,-0.74 0,-0.34 0.3,-0.51 0.6,-0.51 1,0 3.6,0.14 4.6,0.14 l 2.7,-0.03 c 0.9,0 1.9,-0.11 2.7,-0.11 0.3,0 0.8,0 0.8,0.76 0,0.49 -0.4,0.49 -1.2,0.49 -0.1,0 -1,0 -1.8,0.08 -0.8,0.06 -1.1,0.09 -1.1,0.59 0,0.14 0,0.23 0.1,0.63 z"
           inkscape:connector-curvature="0"
           style="fill:#000000;stroke-width:0" /><path
           id="path13250"
           d="m 1201.9,414.7 v 0 h -0.1 v 0 0 0 h -0.1 v -0.01 0 0 h -0.1 v -0.01 0 l -0.1,-0.01 v -0.01 0 -0.01 l -0.1,-0.01 v -0.02 -0.01 -0.01 l -0.1,-0.02 v -0.02 -0.02 -0.01 -0.01 -0.01 -0.01 -0.01 -0.02 -0.01 l -0.1,-0.01 v -0.02 -0.01 -0.02 -0.02 -0.01 -0.02 -0.02 -0.01 -0.02 -0.02 c 0,-0.17 0.1,-0.28 0.3,-0.53 3,-2.75 6.4,-7.46 6.4,-16.44 0,-7.28 -2.3,-12.8 -6.1,-16.2 -0.5,-0.6 -0.6,-0.63 -0.6,-0.82 0,-0.17 0.1,-0.4 0.5,-0.4 0.4,0 3.7,2.29 6,6.65 1.5,2.89 2.5,6.66 2.5,10.74 0,4.9 -1.4,12.53 -8.3,17.42 z"
           inkscape:connector-curvature="0"
           style="fill:#000000;stroke-width:0" /></g>    </g>
  </g>
</svg>
