<?xml version="1.0" encoding="UTF-8" standalone="no"?>
<!-- Created with Inkscape (http://www.inkscape.org/) -->

<svg
   xmlns:dc="http://purl.org/dc/elements/1.1/"
   xmlns:cc="http://creativecommons.org/ns#"
   xmlns:rdf="http://www.w3.org/1999/02/22-rdf-syntax-ns#"
   xmlns:svg="http://www.w3.org/2000/svg"
   xmlns="http://www.w3.org/2000/svg"
   xmlns:sodipodi="http://sodipodi.sourceforge.net/DTD/sodipodi-0.dtd"
   xmlns:inkscape="http://www.inkscape.org/namespaces/inkscape"
   width="532mm"
   height="34.210533mm"
   viewBox="0 0 532 34.210533"
   version="1.1"
   id="svg8515"
   inkscape:version="0.92.5 (2060ec1f9f, 2020-04-08)"
   sodipodi:docname="solution_1_e1b.svg">
  <defs
     id="defs8509" />
  <sodipodi:namedview
     id="base"
     pagecolor="#ffffff"
     bordercolor="#666666"
     borderopacity="1.0"
     inkscape:pageopacity="0.0"
     inkscape:pageshadow="2"
     inkscape:zoom="0.35"
     inkscape:cx="655.3543"
     inkscape:cy="-651.1721"
     inkscape:document-units="mm"
     inkscape:current-layer="layer1"
     showgrid="false"
     fit-margin-top="0"
     fit-margin-left="0"
     fit-margin-right="0"
     fit-margin-bottom="0"
     inkscape:window-width="1684"
     inkscape:window-height="1376"
     inkscape:window-x="72"
     inkscape:window-y="27"
     inkscape:window-maximized="0" />
  <metadata
     id="metadata8512">
    <rdf:RDF>
      <cc:Work
         rdf:about="">
        <dc:format>image/svg+xml</dc:format>
        <dc:type
           rdf:resource="http://purl.org/dc/dcmitype/StillImage" />
        <dc:title></dc:title>
      </cc:Work>
    </rdf:RDF>
  </metadata>
  <g
     inkscape:label="Layer 1"
     inkscape:groupmode="layer"
     id="layer1"
     transform="translate(206.27975,57.666485)">
    <rect
       style="fill:#ffffff;fill-opacity:1;stroke:none;stroke-width:0.5;stroke-miterlimit:4;stroke-dasharray:none;stroke-opacity:1"
       id="rect5597"
       width="532"
       height="34.210533"
       x="-206.27975"
       y="-57.666485" />
    <g
       id="g1443"
       transform="translate(-287.86276,-137.93072)">
      <g
         word-spacing="normal"
         letter-spacing="normal"
         font-size-adjust="none"
         font-stretch="normal"
         font-weight="normal"
         font-variant="normal"
         font-style="normal"
         stroke-miterlimit="10.433"
         xml:space="preserve"
         transform="matrix(0.3,0,0,-0.3,-52.5,222.75)"
         id="g1441"
         style="font-style:normal;font-variant:normal;font-weight:normal;font-stretch:normal;letter-spacing:normal;word-spacing:normal;text-anchor:start;fill:none;fill-opacity:1;fill-rule:evenodd;stroke:#000000;stroke-linecap:butt;stroke-linejoin:miter;stroke-miterlimit:10.43299961;stroke-dasharray:none;stroke-dashoffset:0;stroke-opacity:1"><path
           id="path1403"
           d="m 470.61,421.47 0.21,1.28 3.39,13.56 c 0.43,1.74 0.54,1.89 2.68,1.89 h 4.79 c 4.14,0 6.78,-1.34 6.78,-4.78 0,-1.95 -1,-6.23 -2.94,-8.03 -2.5,-2.23 -5.48,-2.64 -7.69,-2.64 h -7.01 l -0.21,-1.28 h 8.47 c 7.08,0 14,5.17 14,10.75 0,3.84 -3.28,7.53 -9.81,7.53 h -16.14 c -0.95,0 -1.5,0 -1.5,-0.95 0,-0.6 0.45,-0.6 1.45,-0.6 0.64,0 1.55,-0.04 2.14,-0.09 0.8,-0.11 1.1,-0.25 1.1,-0.8 0,-0.2 -0.05,-0.36 -0.21,-0.95 l -6.67,-26.75 c -0.5,-1.95 -0.59,-2.34 -4.53,-2.34 -0.84,0 -1.39,0 -1.39,-0.96 0,-0.59 0.59,-0.59 0.73,-0.59 1.41,0 4.94,0.16 6.33,0.16 1.05,0 2.14,-0.07 3.19,-0.07 1.11,0 2.2,-0.09 3.25,-0.09 0.34,0 0.98,0 0.98,1 0,0.55 -0.43,0.55 -1.39,0.55 -1.84,0 -3.23,0 -3.23,0.89 0,0.29 0.09,0.54 0.14,0.84 z"
           inkscape:connector-curvature="0"
           style="fill:#000000;stroke-width:0" /><path
           id="path1405"
           d="m 511,393.77 v 0.02 0.03 0.01 0.02 0.01 l -0.01,0.02 v 0.01 l -0.01,0.02 -0.01,0.02 -0.01,0.02 -0.01,0.02 -0.02,0.03 -0.01,0.02 -0.02,0.03 -0.02,0.03 -0.03,0.03 -0.02,0.03 -0.03,0.04 -0.02,0.02 -0.01,0.02 -0.02,0.02 -0.02,0.02 -0.02,0.02 -0.02,0.02 -0.02,0.03 -0.02,0.02 -0.02,0.03 -0.03,0.02 -0.02,0.03 -0.03,0.03 -0.03,0.03 -0.02,0.02 -0.03,0.03 -0.03,0.04 -0.03,0.03 -0.03,0.03 -0.04,0.03 -0.03,0.04 -0.04,0.04 -0.03,0.03 -0.04,0.04 -0.04,0.04 c -6.22,6.28 -7.81,15.69 -7.81,23.31 0,8.67 1.89,17.35 8.01,23.56 0.64,0.61 0.64,0.71 0.64,0.86 0,0.35 -0.18,0.49 -0.48,0.49 -0.5,0 -4.98,-3.38 -7.92,-9.7 -2.55,-5.49 -3.14,-11.02 -3.14,-15.21 0,-3.89 0.54,-9.9 3.28,-15.55 2.98,-6.12 7.28,-9.35 7.78,-9.35 0.3,0 0.48,0.14 0.48,0.5 z"
           inkscape:connector-curvature="0"
           style="fill:#000000;stroke-width:0" /><path
           id="path1407"
           d="m 532.48,435.86 0.04,0.16 0.04,0.16 0.04,0.15 0.04,0.15 0.04,0.13 0.04,0.13 0.05,0.13 0.06,0.11 0.06,0.11 0.06,0.11 0.07,0.1 0.08,0.09 0.09,0.09 0.1,0.08 0.11,0.07 0.12,0.07 0.14,0.07 0.14,0.06 0.17,0.06 0.17,0.05 0.1,0.02 0.09,0.02 0.11,0.02 0.1,0.02 0.12,0.02 0.11,0.02 0.12,0.01 0.13,0.02 0.13,0.01 0.13,0.02 0.14,0.01 0.15,0.01 0.15,0.01 0.15,0.01 0.17,0.01 0.16,0.01 h 0.18 l 0.18,0.01 h 0.18 l 0.19,0.01 h 0.2 0.2 0.21 0.22 c 1.48,0 1.89,0 1.89,0.96 0,0.59 -0.55,0.59 -0.8,0.59 -1.65,0 -5.73,-0.16 -7.37,-0.16 -1.5,0 -5.14,0.16 -6.63,0.16 -0.36,0 -0.95,0 -0.95,-1 0,-0.55 0.45,-0.55 1.39,-0.55 0.11,0 1.05,0 1.91,-0.09 0.89,-0.11 1.34,-0.16 1.34,-0.8 0,-0.2 -0.06,-0.36 -0.2,-0.95 l -6.68,-26.75 c -0.5,-1.95 -0.61,-2.34 -4.54,-2.34 -0.85,0 -1.35,0 -1.35,-1 0,-0.55 0.46,-0.55 1.35,-0.55 h 23.08 c 1.18,0 1.23,0 1.54,0.84 l 3.92,10.77 c 0.21,0.55 0.21,0.64 0.21,0.7 0,0.19 -0.14,0.55 -0.6,0.55 -0.45,0 -0.5,-0.25 -0.84,-1.05 -1.7,-4.59 -3.89,-10.26 -12.52,-10.26 h -4.67 c -0.7,0 -0.79,0 -1.09,0.04 -0.5,0.05 -0.66,0.1 -0.66,0.5 0,0.14 0,0.25 0.25,1.14 z"
           inkscape:connector-curvature="0"
           style="fill:#000000;stroke-width:0" /><path
           id="path1409"
           d="m 555.72,441.3 -0.01,0.16 v 0.17 0.16 l -0.01,0.08 v 0.08 l -0.01,0.08 -0.01,0.07 -0.01,0.08 -0.01,0.07 -0.01,0.07 -0.02,0.07 -0.02,0.07 -0.02,0.06 -0.02,0.06 -0.03,0.06 -0.03,0.06 -0.04,0.05 -0.04,0.05 -0.04,0.04 -0.05,0.05 -0.05,0.04 -0.02,0.01 -0.03,0.02 -0.03,0.02 -0.03,0.01 -0.03,0.01 -0.04,0.02 -0.03,0.01 -0.03,0.01 -0.04,0.01 -0.04,0.01 h -0.04 l -0.04,0.01 h -0.04 l -0.04,0.01 h -0.05 -0.04 c -1,0 -1,-0.89 -1,-1.78 v -46.24 c 0,-0.9 0,-1.79 1,-1.79 1,0 1,0.89 1,1.79 z"
           inkscape:connector-curvature="0"
           style="fill:#000000;stroke-width:0" /><path
           id="path1411"
           d="m 598.47,427.44 -0.02,0.74 -0.05,0.73 -0.07,0.71 -0.11,0.7 -0.13,0.68 -0.16,0.66 -0.19,0.64 -0.22,0.62 -0.24,0.6 -0.27,0.59 -0.29,0.56 -0.32,0.54 -0.34,0.52 -0.37,0.5 -0.38,0.47 -0.42,0.45 -0.43,0.43 -0.45,0.41 -0.48,0.38 -0.49,0.35 -0.52,0.33 -0.53,0.3 -0.55,0.28 -0.57,0.25 -0.59,0.22 -0.6,0.2 -0.62,0.16 -0.63,0.14 -0.65,0.1 -0.67,0.08 -0.67,0.05 -0.69,0.01 -0.3,-1.25 c 4.09,0 8.58,-2.78 8.58,-10.2 0,-3.59 -1.35,-11.36 -6.28,-17.5 -2.4,-3.03 -6.49,-5.97 -10.66,-5.97 v 0 c -4.94,0 -8.42,4.03 -8.42,10.61 0,2.19 0.68,9.47 4.53,15.3 3.44,5.17 8.31,7.76 12.25,7.76 l 0.3,1.25 c -10.75,0 -21.72,-11.31 -21.72,-22.92 0,-8.26 5.57,-13.3 12.76,-13.3 10.55,0 21.68,10.91 21.68,22.82 z"
           inkscape:connector-curvature="0"
           style="fill:#000000;stroke-width:0" /><path
           id="path1413"
           d="m 615.46,418.17 v 0.37 l -0.01,0.39 v 0.39 l -0.02,0.41 -0.04,0.84 -0.06,0.88 -0.08,0.92 -0.11,0.95 -0.13,0.97 -0.16,1.01 -0.2,1.02 -0.23,1.03 -0.27,1.05 -0.3,1.06 -0.35,1.07 -0.39,1.07 -0.22,0.53 -0.22,0.53 -0.24,0.53 -0.25,0.53 c -2.98,6.12 -7.27,9.36 -7.77,9.36 -0.29,0 -0.5,-0.19 -0.5,-0.49 0,-0.15 0,-0.25 0.94,-1.15 4.89,-4.92 7.74,-12.85 7.74,-23.27 0,-8.51 -1.85,-17.28 -8.04,-23.56 -0.64,-0.59 -0.64,-0.7 -0.64,-0.84 0,-0.3 0.21,-0.5 0.5,-0.5 0.5,0 4.97,3.39 7.93,9.71 2.53,5.47 3.12,11 3.12,15.19 z"
           inkscape:connector-curvature="0"
           style="fill:#000000;stroke-width:0" /><path
           id="path1415"
           d="m 668.42,422.02 h 0.14 0.14 0.15 l 0.07,0.01 h 0.07 l 0.07,0.01 0.07,0.01 0.07,0.01 0.07,0.01 0.07,0.01 0.07,0.02 0.06,0.02 0.07,0.02 0.06,0.02 0.06,0.03 0.05,0.03 0.05,0.04 0.05,0.03 0.05,0.05 0.04,0.04 0.04,0.05 0.02,0.03 0.02,0.03 0.02,0.02 0.01,0.03 0.02,0.03 0.01,0.04 0.01,0.03 0.01,0.04 0.01,0.03 0.01,0.04 0.01,0.04 v 0.04 l 0.01,0.04 v 0.04 0.04 0.05 c 0,1 -0.95,1 -1.63,1 h -29.85 c -0.7,0 -1.64,0 -1.64,-1 0,-0.98 0.94,-0.98 1.69,-0.98 z"
           inkscape:connector-curvature="0"
           style="fill:#000000;stroke-width:0" /><path
           id="path1417"
           d="m 668.47,412.34 h 0.06 0.07 l 0.13,0.01 h 0.14 0.07 l 0.07,0.01 0.07,0.01 h 0.07 l 0.07,0.01 0.07,0.02 0.06,0.01 0.07,0.02 0.06,0.02 0.06,0.02 0.06,0.02 0.06,0.03 0.05,0.03 0.06,0.04 0.05,0.04 0.04,0.04 0.05,0.05 0.02,0.02 0.02,0.03 0.01,0.02 0.02,0.03 0.02,0.03 0.01,0.03 0.02,0.03 0.01,0.03 0.01,0.04 0.01,0.03 0.01,0.04 0.01,0.04 0.01,0.04 v 0.04 l 0.01,0.04 v 0.04 0.05 0.04 c 0,1 -0.95,1 -1.68,1 h -29.75 c -0.75,0 -1.69,0 -1.69,-1 0,-1 0.94,-1 1.64,-1 z"
           inkscape:connector-curvature="0"
           style="fill:#000000;stroke-width:0" /><path
           id="path1419"
           d="m 704.64,440.64 0.14,1.12 2.37,9.44 c 0.28,1.08 0.32,1.19 1.78,1.19 h 4.08 c 3.24,0 5.25,-0.99 5.25,-3.46 0,-1.07 -0.41,-3.82 -2.16,-5.4 -1.25,-1.11 -3.23,-1.77 -5.75,-1.77 h -5.57 l -0.14,-1.12 h 6.31 c 5.89,0 10.87,3.76 10.87,7.56 0,2.94 -2.85,5.44 -7.64,5.44 H 702 c -0.71,0 -1.11,0 -1.11,-0.77 0,-0.48 0.37,-0.48 1.14,-0.48 0.56,0 0.7,0 1.32,-0.08 0.71,-0.06 0.77,-0.14 0.77,-0.49 0,-0.06 0,-0.23 -0.14,-0.76 l -4.59,-18.36 c -0.36,-1.36 -0.39,-1.61 -3.11,-1.61 -0.63,0 -1.05,0 -1.05,-0.77 0,-0.03 0,-0.48 0.56,-0.48 1.02,0 3.52,0.14 4.53,0.14 0.6,0 1.82,0 2.41,-0.03 0.69,-0.05 1.56,-0.11 2.24,-0.11 0.2,0 0.71,0 0.71,0.77 0,0.48 -0.4,0.48 -1.11,0.48 -0.03,0 -0.7,0 -1.32,0.08 -0.8,0.06 -0.8,0.17 -0.8,0.51 0,0.03 0,0.25 0.14,0.77 z"
           inkscape:connector-curvature="0"
           style="fill:#000000;stroke-width:0" /><path
           id="path1421"
           d="m 735.85,455.98 -0.6,-0.45 -0.58,-0.46 -0.56,-0.47 -0.52,-0.49 -0.5,-0.5 -0.47,-0.51 -0.45,-0.53 -0.42,-0.53 -0.4,-0.54 -0.38,-0.55 -0.35,-0.56 -0.33,-0.56 -0.31,-0.57 -0.29,-0.57 -0.26,-0.58 -0.25,-0.58 -0.23,-0.58 -0.21,-0.58 -0.19,-0.59 -0.17,-0.58 -0.16,-0.58 -0.13,-0.58 -0.13,-0.57 -0.11,-0.57 -0.09,-0.57 -0.08,-0.56 -0.06,-0.55 -0.05,-0.54 -0.04,-0.54 -0.03,-0.53 -0.02,-0.51 v -0.51 c 0,-4.92 1.47,-12.55 8.37,-17.42 0.28,0 0.69,0 0.69,0.4 0,0.22 -0.09,0.29 -0.34,0.54 -4.65,4.18 -6.35,10.1 -6.35,16.45 0,9.4 3.6,14 6.45,16.58 0.15,0.14 0.24,0.25 0.24,0.42 0,0.42 -0.41,0.42 -0.69,0.42 z"
           inkscape:connector-curvature="0"
           style="fill:#000000;stroke-width:0" /><path
           id="path1423"
           d="m 753.43,450.78 0.03,0.11 0.03,0.11 0.03,0.11 0.03,0.1 0.03,0.1 0.03,0.09 0.03,0.08 0.04,0.08 0.04,0.08 0.05,0.07 0.05,0.07 0.05,0.06 0.06,0.06 0.07,0.06 0.08,0.05 0.08,0.05 0.09,0.04 0.1,0.04 0.12,0.04 0.12,0.03 0.06,0.02 0.07,0.01 0.07,0.02 0.07,0.01 0.08,0.01 0.08,0.01 0.08,0.01 0.08,0.01 0.09,0.01 0.1,0.01 0.09,0.01 0.1,0.01 h 0.1 l 0.11,0.01 h 0.11 l 0.12,0.01 h 0.11 l 0.13,0.01 h 0.12 0.13 0.14 l 0.14,0.01 h 0.14 0.15 c 1.08,0 1.42,0 1.42,0.76 0,0.03 -0.03,0.49 -0.59,0.49 -0.8,0 -1.74,-0.07 -2.58,-0.11 -0.88,-0.03 -1.91,-0.03 -2.78,-0.03 -0.74,0 -1.68,0.03 -2.41,0.03 -0.73,0 -1.56,0.11 -2.27,0.11 -0.2,0 -0.73,0 -0.73,-0.77 0,-0.48 0.42,-0.48 1.13,-0.48 0.03,0 0.68,0 1.31,-0.08 0.73,-0.06 0.81,-0.14 0.81,-0.49 0,-0.06 0,-0.23 -0.14,-0.76 l -4.64,-18.5 c -0.31,-1.19 -0.39,-1.47 -3.06,-1.47 -0.6,0 -1.05,0 -1.05,-0.73 0,-0.52 0.42,-0.52 1.05,-0.52 h 17.51 c 0.88,0 0.91,0.03 1.19,0.7 0.36,0.94 2.97,7.69 2.97,7.97 0,0.11 -0.08,0.5 -0.6,0.5 -0.42,0 -0.48,-0.19 -0.7,-0.73 -1.31,-3.32 -2.86,-7.19 -9.23,-7.19 h -3.94 c -1.08,0 -1.11,0.05 -1.11,0.36 0,0.03 0,0.2 0.14,0.72 z"
           inkscape:connector-curvature="0"
           style="fill:#000000;stroke-width:0" /><path
           id="path1425"
           d="m 773.79,430.4 v -0.36 l -0.02,-0.37 -0.03,-0.38 -0.04,-0.38 -0.03,-0.2 -0.03,-0.19 -0.04,-0.2 -0.05,-0.19 -0.04,-0.2 -0.06,-0.2 -0.06,-0.2 -0.07,-0.2 -0.08,-0.21 -0.08,-0.2 -0.09,-0.2 -0.1,-0.21 -0.1,-0.2 -0.12,-0.21 -0.12,-0.2 -0.14,-0.21 -0.14,-0.21 -0.15,-0.21 -0.16,-0.2 -0.17,-0.21 -0.18,-0.21 -0.2,-0.21 -0.2,-0.2 -0.22,-0.21 c -0.14,-0.14 -0.25,-0.25 -0.25,-0.42 0,-0.25 0.28,-0.49 0.49,-0.49 0.48,0 3.45,2.78 3.45,6.92 0,2.17 -0.84,3.8 -2.44,3.8 -1.15,0 -1.98,-0.91 -1.98,-1.98 0,-1.11 0.8,-2.02 2.01,-2.02 0.85,0 1.4,0.56 1.44,0.56 z"
           inkscape:connector-curvature="0"
           style="fill:#000000;stroke-width:0" /><path
           id="path1427"
           d="m 807.2,444.65 -0.01,0.51 -0.03,0.5 -0.06,0.49 -0.08,0.49 -0.1,0.47 -0.12,0.47 -0.14,0.45 -0.17,0.44 -0.18,0.43 -0.21,0.42 -0.22,0.41 -0.25,0.39 -0.26,0.38 -0.29,0.36 -0.3,0.35 -0.32,0.34 -0.34,0.31 -0.35,0.31 -0.37,0.28 -0.4,0.27 -0.4,0.24 -0.43,0.23 -0.44,0.21 -0.45,0.2 -0.47,0.17 -0.49,0.14 -0.5,0.13 -0.52,0.11 -0.53,0.08 -0.55,0.06 -0.55,0.04 -0.58,0.01 -0.28,-1.13 c 3.63,0 6.97,-2.29 6.97,-7.34 0,-2.55 -1.08,-7.64 -4.31,-11.36 -2.44,-2.8 -5.61,-4.22 -8.33,-4.22 v 0 c -3.7,0 -6.83,2.52 -6.83,7.67 0,1.77 0.49,6.72 3.69,10.69 2.33,2.86 5.72,4.56 8.81,4.56 l 0.28,1.13 c -8.32,0 -16.37,-7.81 -16.37,-15.66 0,-5.61 4.14,-9.54 10.14,-9.54 8.3,0 16.34,7.61 16.34,15.51 z"
           inkscape:connector-curvature="0"
           style="fill:#000000;stroke-width:0" /><path
           id="path1429"
           d="m 812.77,455.98 h -0.02 -0.03 -0.02 -0.03 -0.03 -0.02 -0.03 l -0.03,-0.01 h -0.03 -0.03 l -0.02,-0.01 h -0.03 l -0.03,-0.01 -0.03,-0.01 h -0.02 l -0.03,-0.01 -0.02,-0.01 -0.03,-0.01 -0.02,-0.02 -0.03,-0.01 -0.02,-0.02 -0.02,-0.02 -0.02,-0.02 v -0.01 l -0.01,-0.01 -0.01,-0.01 -0.01,-0.01 v -0.01 l -0.01,-0.02 -0.01,-0.01 v -0.01 l -0.01,-0.02 v -0.01 l -0.01,-0.02 v -0.01 -0.02 l -0.01,-0.02 v -0.01 -0.02 -0.02 -0.02 c 0,-0.17 0.11,-0.28 0.31,-0.53 3,-2.75 6.34,-7.46 6.34,-16.44 0,-7.28 -2.26,-12.8 -6.03,-16.2 -0.57,-0.6 -0.62,-0.63 -0.62,-0.82 0,-0.17 0.11,-0.4 0.45,-0.4 0.42,0 3.73,2.29 6.03,6.65 1.53,2.89 2.55,6.66 2.55,10.74 0,4.9 -1.47,12.53 -8.36,17.42 z"
           inkscape:connector-curvature="0"
           style="fill:#000000;stroke-width:0" /><polyline
           id="polyline1431"
           points="693,417 825.48,417 825.48,419.04 693,419.04 "
           style="fill:#000000;fill-rule:nonzero;stroke-width:0" /><path
           id="path1433"
           d="m 724.2,399.36 0.14,1.12 2.37,9.44 c 0.28,1.08 0.31,1.19 1.78,1.19 h 4.08 c 3.23,0 5.25,-0.99 5.25,-3.46 0,-1.08 -0.41,-3.83 -2.16,-5.4 -1.25,-1.11 -3.23,-1.77 -5.75,-1.77 h -5.57 l -0.14,-1.12 h 6.31 c 5.89,0 10.87,3.76 10.87,7.56 0,2.94 -2.86,5.44 -7.64,5.44 h -12.19 c -0.7,0 -1.1,0 -1.1,-0.77 0,-0.48 0.37,-0.48 1.14,-0.48 0.56,0 0.7,0 1.32,-0.08 0.71,-0.07 0.77,-0.14 0.77,-0.49 0,-0.06 0,-0.23 -0.14,-0.76 l -4.59,-18.36 c -0.36,-1.36 -0.4,-1.61 -3.11,-1.61 -0.63,0 -1.05,0 -1.05,-0.77 0,-0.03 0,-0.48 0.56,-0.48 1.02,0 3.52,0.14 4.53,0.14 0.6,0 1.82,0 2.41,-0.03 0.69,-0.05 1.56,-0.11 2.23,-0.11 0.21,0 0.72,0 0.72,0.76 0,0.49 -0.4,0.49 -1.11,0.49 -0.03,0 -0.7,0 -1.33,0.08 -0.79,0.06 -0.79,0.17 -0.79,0.51 0,0.03 0,0.25 0.14,0.77 z"
           inkscape:connector-curvature="0"
           style="fill:#000000;stroke-width:0" /><path
           id="path1435"
           d="m 755.41,414.7 -0.61,-0.45 -0.58,-0.46 -0.55,-0.47 -0.52,-0.49 -0.5,-0.5 -0.47,-0.51 -0.45,-0.53 -0.42,-0.53 -0.4,-0.54 -0.38,-0.55 -0.35,-0.56 -0.33,-0.56 -0.31,-0.57 -0.29,-0.57 -0.26,-0.58 -0.25,-0.58 -0.23,-0.58 -0.21,-0.58 -0.19,-0.59 -0.17,-0.58 -0.16,-0.58 -0.14,-0.58 -0.12,-0.57 -0.11,-0.57 -0.09,-0.57 -0.08,-0.56 -0.06,-0.55 -0.06,-0.55 -0.04,-0.53 -0.02,-0.53 -0.02,-0.52 -0.01,-0.5 c 0,-4.92 1.47,-12.55 8.38,-17.42 0.28,0 0.69,0 0.69,0.4 0,0.22 -0.1,0.28 -0.35,0.53 -4.64,4.19 -6.34,10.11 -6.34,16.46 0,9.4 3.59,14 6.45,16.58 0.14,0.14 0.24,0.25 0.24,0.42 0,0.42 -0.41,0.42 -0.69,0.42 z"
           inkscape:connector-curvature="0"
           style="fill:#000000;stroke-width:0" /><path
           id="path1437"
           d="m 787.52,403.37 -0.01,0.51 -0.03,0.5 -0.06,0.49 -0.08,0.49 -0.1,0.47 -0.12,0.47 -0.14,0.45 -0.17,0.44 -0.18,0.43 -0.21,0.42 -0.22,0.41 -0.25,0.39 -0.26,0.38 -0.29,0.36 -0.3,0.35 -0.32,0.34 -0.34,0.31 -0.35,0.3 -0.37,0.29 -0.4,0.27 -0.4,0.24 -0.43,0.23 -0.44,0.21 -0.45,0.19 -0.47,0.17 -0.49,0.15 -0.5,0.13 -0.52,0.11 -0.53,0.08 -0.55,0.06 -0.55,0.04 -0.58,0.01 -0.28,-1.13 c 3.63,0 6.97,-2.29 6.97,-7.34 0,-2.55 -1.08,-7.64 -4.31,-11.36 -2.44,-2.8 -5.61,-4.22 -8.33,-4.22 v 0 c -3.7,0 -6.83,2.52 -6.83,7.67 0,1.77 0.49,6.72 3.69,10.69 2.33,2.86 5.72,4.56 8.81,4.56 l 0.28,1.13 c -8.32,0 -16.37,-7.81 -16.37,-15.66 0,-5.61 4.14,-9.54 10.14,-9.54 8.3,0 16.34,7.6 16.34,15.51 z"
           inkscape:connector-curvature="0"
           style="fill:#000000;stroke-width:0" /><path
           id="path1439"
           d="m 793.09,414.7 h -0.02 -0.02 -0.03 -0.03 -0.02 -0.03 l -0.03,-0.01 h -0.03 -0.02 -0.03 l -0.03,-0.01 h -0.03 l -0.03,-0.01 -0.02,-0.01 h -0.03 l -0.03,-0.01 -0.02,-0.01 -0.03,-0.02 -0.02,-0.01 -0.02,-0.01 -0.02,-0.02 -0.02,-0.02 -0.02,-0.02 -0.01,-0.01 -0.01,-0.01 -0.01,-0.01 v -0.01 l -0.01,-0.01 -0.01,-0.02 v -0.01 l -0.01,-0.01 v -0.02 l -0.01,-0.01 v -0.02 l -0.01,-0.02 v -0.01 -0.02 l -0.01,-0.02 v -0.01 -0.02 -0.02 c 0,-0.17 0.11,-0.28 0.31,-0.53 3,-2.75 6.35,-7.46 6.35,-16.44 0,-7.28 -2.27,-12.8 -6.03,-16.2 -0.58,-0.6 -0.63,-0.63 -0.63,-0.82 0,-0.17 0.11,-0.4 0.46,-0.4 0.42,0 3.73,2.29 6.03,6.65 1.53,2.89 2.54,6.66 2.54,10.74 0,4.9 -1.47,12.53 -8.36,17.42 z"
           inkscape:connector-curvature="0"
           style="fill:#000000;stroke-width:0" /></g>    </g>
  </g>
</svg>
