<?xml version="1.0" encoding="UTF-8" standalone="no"?>
<!-- Created with Inkscape (http://www.inkscape.org/) -->

<svg
   xmlns:dc="http://purl.org/dc/elements/1.1/"
   xmlns:cc="http://creativecommons.org/ns#"
   xmlns:rdf="http://www.w3.org/1999/02/22-rdf-syntax-ns#"
   xmlns:svg="http://www.w3.org/2000/svg"
   xmlns="http://www.w3.org/2000/svg"
   xmlns:sodipodi="http://sodipodi.sourceforge.net/DTD/sodipodi-0.dtd"
   xmlns:inkscape="http://www.inkscape.org/namespaces/inkscape"
   width="205.00002mm"
   height="36.615646mm"
   viewBox="0 0 205.00002 36.615646"
   version="1.1"
   id="svg16397"
   inkscape:version="0.92.5 (2060ec1f9f, 2020-04-08)"
   sodipodi:docname="solution_2_e1c.svg">
  <defs
     id="defs16391" />
  <sodipodi:namedview
     id="base"
     pagecolor="#ffffff"
     bordercolor="#666666"
     borderopacity="1.0"
     inkscape:pageopacity="0.0"
     inkscape:pageshadow="2"
     inkscape:zoom="0.98994949"
     inkscape:cx="479.42964"
     inkscape:cy="-43.271007"
     inkscape:document-units="mm"
     inkscape:current-layer="layer1"
     showgrid="false"
     inkscape:window-width="1684"
     inkscape:window-height="1376"
     inkscape:window-x="1756"
     inkscape:window-y="27"
     inkscape:window-maximized="0"
     fit-margin-top="0"
     fit-margin-left="0"
     fit-margin-right="0"
     fit-margin-bottom="0" />
  <metadata
     id="metadata16394">
    <rdf:RDF>
      <cc:Work
         rdf:about="">
        <dc:format>image/svg+xml</dc:format>
        <dc:type
           rdf:resource="http://purl.org/dc/dcmitype/StillImage" />
        <dc:title></dc:title>
      </cc:Work>
    </rdf:RDF>
  </metadata>
  <g
     inkscape:label="Layer 1"
     inkscape:groupmode="layer"
     id="layer1"
     transform="translate(-13.630747,-21.445387)">
    <rect
       style="fill:#ffffff;fill-opacity:1;stroke:none;stroke-width:0.49999997;stroke-miterlimit:4;stroke-dasharray:none;stroke-opacity:1"
       id="rect17084"
       width="205.00002"
       height="36.615646"
       x="13.630747"
       y="21.445387" />
    <g
       id="g17034"
       transform="translate(-44.879246,-59.53929)">
      <g
         word-spacing="normal"
         letter-spacing="normal"
         font-size-adjust="none"
         font-stretch="normal"
         font-weight="normal"
         font-variant="normal"
         font-style="normal"
         stroke-miterlimit="10.433"
         xml:space="preserve"
         transform="matrix(0.3,0,0,-0.3,-52.5,222.75)"
         id="content"
         style="font-style:normal;font-variant:normal;font-weight:normal;font-stretch:normal;letter-spacing:normal;word-spacing:normal;text-anchor:start;fill:none;fill-opacity:1;fill-rule:evenodd;stroke:#000000;stroke-linecap:butt;stroke-linejoin:miter;stroke-miterlimit:10.43299961;stroke-dasharray:none;stroke-dashoffset:0;stroke-opacity:1"><path
           id="path16945"
           d="m 598.23,444.73 h -1.05 c -0.08,-0.48 -0.33,-2.01 -0.71,-2.26 -0.21,-0.16 -2.3,-0.16 -2.68,-0.16 h -4.87 c 1.64,1.22 3.48,2.61 4.98,3.61 2.24,1.55 4.33,3 4.33,5.64 0,3.19 -3.01,4.96 -6.58,4.96 -3.36,0 -5.83,-1.96 -5.83,-4.4 0,-1.29 1.1,-1.51 1.46,-1.51 0.67,0 1.47,0.45 1.47,1.47 0,0.89 -0.66,1.39 -1.43,1.47 0.69,1.12 2.15,1.87 3.82,1.87 2.4,0 4.42,-1.45 4.42,-3.89 0,-2.09 -1.44,-3.69 -3.36,-5.31 l -6.08,-5.16 c -0.25,-0.22 -0.27,-0.22 -0.3,-0.39 v -0.75 h 11.58 z"
           inkscape:connector-curvature="0"
           style="fill:#000000;stroke-width:0" /><polyline
           id="polyline16947"
           points="567,434 617.88,434 617.88,435.8 567,435.8 "
           style="fill:#000000;fill-rule:nonzero;stroke-width:0" /><path
           id="path16949"
           d="m 576.56,430.45 v 0.03 0.03 0.04 0.03 0.03 0.03 0.03 0.02 0.03 l -0.01,0.02 v 0.03 0.02 0.03 l -0.01,0.02 v 0.02 0.02 l -0.01,0.02 v 0.02 l -0.01,0.03 -0.01,0.03 -0.02,0.03 -0.01,0.03 -0.02,0.02 -0.02,0.02 -0.02,0.02 -0.02,0.02 -0.03,0.01 -0.03,0.01 -0.03,0.02 h -0.04 l -0.04,0.01 -0.04,0.01 h -0.02 -0.02 l -0.03,0.01 h -0.02 -0.03 -0.02 -0.03 -0.03 -0.03 -0.03 -0.03 -0.03 -0.03 -0.04 -0.03 -0.04 l -0.04,0.01 h -0.03 c -1.77,-1.6 -4.54,-1.6 -5.04,-1.6 h -0.42 v -1.09 h 0.42 c 0.58,0 2.19,0.06 3.65,0.69 v -12.46 c 0,-0.76 0,-1.04 -2.65,-1.04 h -1.24 v -1.1 c 1.37,0.1 3.59,0.1 5.03,0.1 1.45,0 3.67,0 5.03,-0.1 v 1.1 h -1.24 c -2.64,0 -2.64,0.28 -2.64,1.04 z"
           inkscape:connector-curvature="0"
           style="fill:#000000;stroke-width:0" /><path
           id="path16951"
           d="m 598.53,422.57 v 0.18 0.21 l -0.01,0.24 -0.01,0.26 -0.01,0.28 -0.02,0.29 -0.02,0.32 -0.03,0.33 -0.05,0.34 -0.05,0.35 -0.07,0.35 -0.08,0.37 -0.09,0.37 -0.11,0.36 -0.12,0.37 -0.15,0.37 -0.16,0.36 -0.18,0.35 -0.2,0.34 -0.23,0.33 -0.25,0.32 -0.28,0.3 -0.14,0.14 -0.16,0.14 -0.16,0.13 -0.17,0.13 -0.17,0.12 -0.18,0.12 -0.19,0.11 -0.2,0.1 -0.2,0.1 -0.22,0.09 -0.22,0.08 -0.23,0.08 -0.23,0.07 -0.25,0.05 -0.26,0.06 -0.26,0.04 -0.27,0.03 -0.28,0.03 -0.29,0.01 -0.3,0.01 v -0.83 c 1.84,0 3.17,-0.94 3.65,-2.69 0.36,-1.27 0.36,-3.34 0.36,-4.81 0,-1.69 0,-3.71 -0.37,-5.21 -0.66,-2.42 -2.64,-2.78 -3.64,-2.78 v 0 c -0.93,0 -3.02,0.32 -3.64,2.83 -0.35,1.34 -0.38,3.13 -0.38,5.16 0,1.84 0,3.56 0.41,4.98 0.62,2.1 2.55,2.52 3.61,2.52 v 0.83 c -6.5,0 -6.5,-6.83 -6.5,-8.63 0,-1.81 0,-8.52 6.5,-8.52 6.5,0 6.5,6.71 6.5,8.52 z"
           inkscape:connector-curvature="0"
           style="fill:#000000;stroke-width:0" /><path
           id="path16953"
           d="m 615.45,422.57 -0.01,0.18 v 0.21 0.24 l -0.01,0.26 -0.01,0.28 -0.02,0.29 -0.02,0.32 -0.04,0.33 -0.04,0.34 -0.05,0.35 -0.07,0.35 -0.08,0.37 -0.09,0.37 -0.11,0.36 -0.12,0.37 -0.15,0.37 -0.16,0.36 -0.18,0.35 -0.21,0.34 -0.22,0.33 -0.25,0.32 -0.28,0.3 -0.14,0.14 -0.16,0.14 -0.16,0.13 -0.17,0.13 -0.17,0.12 -0.18,0.12 -0.19,0.11 -0.2,0.1 -0.21,0.1 -0.21,0.09 -0.22,0.08 -0.23,0.08 -0.24,0.07 -0.24,0.05 -0.26,0.06 -0.26,0.04 -0.27,0.03 -0.28,0.03 -0.3,0.01 -0.29,0.01 v -0.83 c 1.84,0 3.17,-0.94 3.65,-2.69 0.36,-1.27 0.36,-3.34 0.36,-4.81 0,-1.69 0,-3.71 -0.37,-5.21 -0.66,-2.42 -2.64,-2.78 -3.64,-2.78 v 0 c -0.93,0 -3.02,0.32 -3.65,2.83 -0.34,1.34 -0.37,3.13 -0.37,5.16 0,1.84 0,3.56 0.41,4.98 0.62,2.1 2.54,2.52 3.61,2.52 v 0.83 c -6.5,0 -6.5,-6.83 -6.5,-8.63 0,-1.81 0,-8.52 6.5,-8.52 6.5,0 6.5,6.71 6.5,8.52 z"
           inkscape:connector-curvature="0"
           style="fill:#000000;stroke-width:0" /><path
           id="path16955"
           d="m 634.77,435.27 0.26,0.12 0.26,0.11 0.24,0.11 0.24,0.1 0.23,0.1 0.22,0.1 0.21,0.09 0.21,0.09 0.2,0.08 0.19,0.08 0.18,0.08 0.18,0.08 0.17,0.07 0.16,0.07 0.16,0.06 0.15,0.07 0.14,0.06 0.14,0.06 0.14,0.05 0.12,0.06 0.13,0.05 0.12,0.05 0.11,0.05 0.11,0.05 0.11,0.04 0.1,0.05 0.19,0.08 0.18,0.08 0.16,0.09 c 0.68,0.26 0.99,0.4 0.99,1.07 0,0.6 -0.45,1.11 -1.08,1.11 -0.25,0 -0.31,0 -0.73,-0.31 l -4.74,-3.17 0.52,5.15 c 0.08,0.63 0,1.5 -1.05,1.5 -0.42,0 -1.08,-0.28 -1.08,-1.04 0,-0.31 0.14,-1.36 0.17,-1.71 0.08,-0.59 0.32,-3.1 0.4,-3.9 l -4.71,3.17 c -0.36,0.2 -0.45,0.31 -0.76,0.31 -0.64,0 -1.1,-0.51 -1.1,-1.11 0,-0.7 0.42,-0.87 0.74,-1.01 l 5.26,-2.19 c -2.86,-1.27 -4.14,-1.75 -5.01,-2.17 -0.66,-0.28 -0.99,-0.42 -0.99,-1.08 0,-0.59 0.46,-1.11 1.1,-1.11 0.23,0 0.31,0 0.72,0.31 l 4.75,3.18 -0.57,-5.61 c 0,-0.77 0.66,-1.05 1.08,-1.05 0.42,0 1.08,0.28 1.08,1.05 0,0.31 -0.14,1.36 -0.17,1.7 -0.07,0.59 -0.32,3.09 -0.38,3.91 l 4.18,-2.8 c 0.9,-0.69 0.98,-0.69 1.29,-0.69 0.63,0 1.08,0.52 1.08,1.11 0,0.7 -0.42,0.88 -0.74,1.02 z"
           inkscape:connector-curvature="0"
           style="fill:#000000;stroke-width:0" /><path
           id="path16957"
           d="m 656.29,452.74 -0.6,-0.44 -0.58,-0.46 -0.55,-0.48 -0.53,-0.49 -0.5,-0.5 -0.47,-0.51 -0.45,-0.52 -0.42,-0.54 -0.4,-0.54 -0.38,-0.55 -0.35,-0.56 -0.33,-0.56 -0.31,-0.57 -0.28,-0.57 -0.27,-0.58 -0.25,-0.58 -0.23,-0.58 -0.21,-0.58 -0.19,-0.58 -0.17,-0.59 -0.15,-0.58 -0.14,-0.57 -0.13,-0.58 -0.11,-0.57 -0.09,-0.57 -0.08,-0.56 -0.06,-0.55 -0.05,-0.54 -0.04,-0.54 -0.03,-0.53 -0.02,-0.51 v -0.51 c 0,-4.92 1.47,-12.55 8.37,-17.42 0.28,0 0.69,0 0.69,0.41 0,0.21 -0.09,0.28 -0.34,0.53 -4.64,4.18 -6.35,10.11 -6.35,16.45 0,9.41 3.6,14 6.46,16.58 0.14,0.14 0.23,0.25 0.23,0.42 0,0.42 -0.41,0.42 -0.69,0.42 z"
           inkscape:connector-curvature="0"
           style="fill:#000000;stroke-width:0" /><path
           id="path16959"
           d="m 675.32,455.77 v 0.03 0.03 0.04 0.03 0.03 0.03 0.03 0.02 l -0.01,0.03 v 0.03 0.02 0.02 l -0.01,0.03 v 0.02 0.02 l -0.01,0.02 v 0.02 0.02 l -0.01,0.03 -0.01,0.03 -0.02,0.03 -0.01,0.03 -0.02,0.02 -0.02,0.02 -0.02,0.02 -0.03,0.02 -0.02,0.01 -0.03,0.02 -0.04,0.01 -0.03,0.01 h -0.04 l -0.04,0.01 h -0.02 -0.03 l -0.02,0.01 h -0.02 -0.03 -0.02 -0.03 -0.03 -0.03 -0.03 l -0.03,0.01 h -0.03 -0.04 -0.03 -0.03 -0.04 -0.04 -0.04 c -1.76,-1.6 -4.53,-1.6 -5.03,-1.6 h -0.42 v -1.09 h 0.42 c 0.58,0 2.19,0.06 3.64,0.69 v -12.46 c 0,-0.76 0,-1.04 -2.64,-1.04 h -1.25 v -1.1 c 1.38,0.1 3.6,0.1 5.03,0.1 1.46,0 3.68,0 5.04,-0.1 v 1.1 h -1.24 c -2.64,0 -2.64,0.28 -2.64,1.04 z"
           inkscape:connector-curvature="0"
           style="fill:#000000;stroke-width:0" /><polyline
           id="polyline16961"
           points="665,434 682.04,434 682.04,435.8 665,435.8 "
           style="fill:#000000;fill-rule:nonzero;stroke-width:0" /><path
           id="path16963"
           d="m 680.07,419.41 h -1.05 c -0.07,-0.48 -0.32,-2.01 -0.72,-2.26 -0.2,-0.16 -2.29,-0.16 -2.67,-0.16 h -4.87 c 1.64,1.22 3.48,2.61 4.98,3.61 2.24,1.55 4.33,3 4.33,5.64 0,3.19 -3.02,4.96 -6.58,4.96 -3.36,0 -5.83,-1.96 -5.83,-4.4 0,-1.29 1.1,-1.51 1.46,-1.51 0.67,0 1.47,0.45 1.47,1.47 0,0.89 -0.66,1.39 -1.43,1.47 0.69,1.12 2.14,1.87 3.82,1.87 2.4,0 4.42,-1.45 4.42,-3.89 0,-2.09 -1.44,-3.69 -3.36,-5.31 l -6.08,-5.16 c -0.25,-0.22 -0.26,-0.22 -0.3,-0.39 v -0.75 h 11.58 z"
           inkscape:connector-curvature="0"
           style="fill:#000000;stroke-width:0" /><path
           id="path16965"
           d="m 691.46,452.74 h -0.02 -0.03 -0.02 -0.03 -0.03 -0.02 -0.03 -0.03 l -0.03,-0.01 h -0.03 l -0.02,-0.01 h -0.03 l -0.03,-0.01 h -0.03 l -0.02,-0.01 -0.03,-0.01 -0.02,-0.01 -0.03,-0.01 -0.02,-0.02 -0.02,-0.01 -0.03,-0.02 -0.02,-0.02 -0.01,-0.01 -0.01,-0.02 -0.01,-0.01 -0.01,-0.01 -0.01,-0.01 v -0.01 l -0.01,-0.01 -0.01,-0.02 v -0.01 l -0.01,-0.02 v -0.01 l -0.01,-0.02 v -0.01 -0.02 l -0.01,-0.02 v -0.01 -0.02 -0.02 -0.02 c 0,-0.17 0.11,-0.28 0.31,-0.53 3,-2.75 6.35,-7.45 6.35,-16.44 0,-7.28 -2.27,-12.8 -6.04,-16.2 -0.57,-0.6 -0.62,-0.63 -0.62,-0.81 0,-0.18 0.11,-0.41 0.45,-0.41 0.42,0 3.74,2.3 6.03,6.66 1.53,2.89 2.55,6.65 2.55,10.73 0,4.91 -1.47,12.53 -8.36,17.42 z"
           inkscape:connector-curvature="0"
           style="fill:#000000;stroke-width:0" /><path
           id="path16967"
           d="m 708.78,444.04 -0.01,-0.06 -0.02,-0.06 -0.02,-0.07 -0.01,-0.06 -0.02,-0.07 -0.02,-0.07 -0.03,-0.15 -0.04,-0.14 -0.03,-0.15 -0.04,-0.14 -0.01,-0.07 -0.02,-0.07 -0.01,-0.07 -0.02,-0.06 -0.01,-0.07 -0.02,-0.06 -0.01,-0.06 -0.01,-0.06 -0.02,-0.05 -0.01,-0.05 -0.01,-0.05 -0.01,-0.04 v -0.04 l -0.01,-0.04 v -0.03 l -0.01,-0.02 v -0.02 -0.01 0 c 0,-0.55 0.44,-0.88 0.92,-0.88 0.38,0 0.92,0.2 1.19,0.83 0.03,0.12 0.33,1.3 0.48,1.94 0.85,3.37 0.85,3.42 0.89,3.51 0.33,0.67 2.11,4.16 5.16,4.16 1.22,0 1.75,-0.67 1.75,-1.78 0,-1.43 -1.05,-3.99 -1.63,-5.41 -0.12,-0.3 -0.24,-0.62 -0.24,-1.05 0,-1.29 1.24,-2.2 2.71,-2.2 2.66,0 4.03,3.25 4.03,3.88 0,0.34 -0.42,0.34 -0.51,0.34 -0.44,0 -0.45,-0.09 -0.61,-0.58 -0.47,-1.48 -1.61,-2.78 -2.81,-2.78 -0.57,0 -0.75,0.39 -0.75,0.94 0,0.53 0.11,0.78 0.33,1.33 0.42,1 1.57,3.82 1.57,5.2 0,1.84 -1.32,2.97 -3.68,2.97 -2.28,0 -3.85,-1.38 -4.72,-2.47 -0.13,2.05 -2.11,2.47 -3.03,2.47 -2.5,0 -3.22,-3.82 -3.22,-3.86 0,-0.36 0.4,-0.36 0.53,-0.36 0.42,0 0.47,0.15 0.56,0.48 0.38,1.44 0.95,2.88 2,2.88 0.84,0 1.02,-0.8 1.02,-1.31 0,-0.35 -0.25,-1.3 -0.39,-1.94 -0.19,-0.67 -0.43,-1.71 -0.55,-2.25 z"
           inkscape:connector-curvature="0"
           style="fill:#000000;stroke-width:0" /><polyline
           id="polyline16969"
           points="462,411 828,411 828,413.04 462,413.04 "
           style="fill:#000000;fill-rule:nonzero;stroke-width:0" /><path
           id="path16971"
           d="m 499.11,397.33 h -1.04 c -0.08,-0.48 -0.33,-2.01 -0.72,-2.26 -0.21,-0.16 -2.3,-0.16 -2.67,-0.16 h -4.88 c 1.64,1.22 3.49,2.61 4.99,3.61 2.23,1.55 4.32,3 4.32,5.64 0,3.19 -3.01,4.95 -6.57,4.95 -3.36,0 -5.83,-1.95 -5.83,-4.39 0,-1.29 1.09,-1.51 1.45,-1.51 0.67,0 1.47,0.45 1.47,1.47 0,0.89 -0.66,1.39 -1.42,1.46 0.68,1.13 2.14,1.88 3.81,1.88 2.41,0 4.42,-1.45 4.42,-3.89 0,-2.09 -1.44,-3.69 -3.36,-5.31 L 487,393.66 c -0.25,-0.22 -0.26,-0.22 -0.29,-0.39 v -0.75 h 11.58 z"
           inkscape:connector-curvature="0"
           style="fill:#000000;stroke-width:0" /><polyline
           id="polyline16973"
           points="468,387 518.88,387 518.88,388.8 468,388.8 "
           style="fill:#000000;fill-rule:nonzero;stroke-width:0" /><path
           id="path16975"
           d="m 477.44,382.92 v 0.04 0.03 0.03 0.03 0.03 0.03 0.03 0.03 l -0.01,0.03 v 0.02 0.03 0.02 0.02 l -0.01,0.02 v 0.03 0.02 l -0.01,0.01 v 0.02 l -0.01,0.04 -0.01,0.03 -0.02,0.03 -0.01,0.03 -0.02,0.02 -0.02,0.02 -0.02,0.02 -0.03,0.01 -0.02,0.02 -0.03,0.01 -0.03,0.01 -0.04,0.01 -0.04,0.01 -0.04,0.01 h -0.02 -0.02 -0.03 -0.02 l -0.03,0.01 h -0.02 -0.03 -0.03 -0.03 -0.03 -0.03 -0.03 -0.03 -0.04 -0.03 -0.04 -0.04 -0.03 c -1.77,-1.59 -4.54,-1.59 -5.04,-1.59 h -0.42 v -1.1 h 0.42 c 0.58,0 2.19,0.07 3.64,0.69 v -12.45 c 0,-0.77 0,-1.05 -2.64,-1.05 h -1.25 v -1.09 c 1.38,0.09 3.6,0.09 5.04,0.09 1.45,0 3.67,0 5.03,-0.09 v 1.09 h -1.24 c -2.64,0 -2.64,0.28 -2.64,1.05 z"
           inkscape:connector-curvature="0"
           style="fill:#000000;stroke-width:0" /><path
           id="path16977"
           d="m 499.41,375.05 v 0.18 l -0.01,0.21 v 0.24 l -0.01,0.25 -0.01,0.28 -0.02,0.3 -0.02,0.31 -0.04,0.33 -0.04,0.34 -0.05,0.35 -0.07,0.36 -0.08,0.37 -0.09,0.36 -0.11,0.37 -0.12,0.37 -0.15,0.36 -0.16,0.36 -0.18,0.35 -0.2,0.35 -0.23,0.33 -0.25,0.31 -0.28,0.3 -0.14,0.15 -0.16,0.14 -0.16,0.13 -0.17,0.13 -0.17,0.12 -0.18,0.12 -0.19,0.11 -0.2,0.1 -0.21,0.1 -0.21,0.09 -0.22,0.08 -0.23,0.08 -0.24,0.06 -0.24,0.06 -0.26,0.05 -0.26,0.04 -0.27,0.04 -0.28,0.02 -0.29,0.02 h -0.3 v -0.83 c 1.84,0 3.17,-0.93 3.65,-2.68 0.36,-1.27 0.36,-3.35 0.36,-4.82 0,-1.68 0,-3.7 -0.37,-5.2 -0.66,-2.42 -2.64,-2.78 -3.64,-2.78 v 0 c -0.93,0 -3.02,0.31 -3.64,2.83 -0.35,1.34 -0.38,3.12 -0.38,5.15 0,1.85 0,3.57 0.41,4.99 0.62,2.09 2.54,2.51 3.61,2.51 v 0.83 c -6.5,0 -6.5,-6.83 -6.5,-8.62 0,-1.82 0,-8.52 6.5,-8.52 6.5,0 6.5,6.7 6.5,8.52 z"
           inkscape:connector-curvature="0"
           style="fill:#000000;stroke-width:0" /><path
           id="path16979"
           d="m 516.32,375.05 v 0.18 0.21 0.24 l -0.01,0.25 -0.01,0.28 -0.02,0.3 -0.02,0.31 -0.04,0.33 -0.04,0.34 -0.05,0.35 -0.07,0.36 -0.08,0.37 -0.09,0.36 -0.11,0.37 -0.13,0.37 -0.14,0.36 -0.16,0.36 -0.18,0.35 -0.21,0.35 -0.22,0.33 -0.25,0.31 -0.28,0.3 -0.15,0.15 -0.15,0.14 -0.16,0.13 -0.17,0.13 -0.17,0.12 -0.19,0.12 -0.19,0.11 -0.19,0.1 -0.21,0.1 -0.21,0.09 -0.22,0.08 -0.23,0.08 -0.24,0.06 -0.24,0.06 -0.26,0.05 -0.26,0.04 -0.27,0.04 -0.29,0.02 -0.29,0.02 h -0.3 v -0.83 c 1.85,0 3.18,-0.93 3.66,-2.68 0.36,-1.27 0.36,-3.35 0.36,-4.82 0,-1.68 0,-3.7 -0.37,-5.2 -0.66,-2.42 -2.65,-2.78 -3.65,-2.78 v 0 c -0.92,0 -3.01,0.31 -3.64,2.83 -0.34,1.34 -0.37,3.12 -0.37,5.15 0,1.85 0,3.57 0.4,4.99 0.63,2.09 2.55,2.51 3.61,2.51 v 0.83 c -6.5,0 -6.5,-6.83 -6.5,-8.62 0,-1.82 0,-8.52 6.5,-8.52 6.5,0 6.5,6.7 6.5,8.52 z"
           inkscape:connector-curvature="0"
           style="fill:#000000;stroke-width:0" /><path
           id="path16981"
           d="m 535.65,387.75 0.26,0.12 0.26,0.11 0.24,0.11 0.24,0.1 0.23,0.1 0.22,0.09 0.21,0.1 0.21,0.08 0.2,0.09 0.19,0.08 0.18,0.08 0.18,0.07 0.17,0.07 0.16,0.07 0.16,0.07 0.15,0.06 0.14,0.06 0.14,0.06 0.13,0.06 0.13,0.05 0.13,0.06 0.12,0.05 0.11,0.05 0.11,0.04 0.11,0.05 0.1,0.04 0.19,0.09 0.18,0.08 0.16,0.08 c 0.68,0.27 0.99,0.41 0.99,1.08 0,0.59 -0.45,1.11 -1.08,1.11 -0.25,0 -0.31,0 -0.73,-0.31 l -4.74,-3.18 0.52,5.16 c 0.08,0.63 0,1.5 -1.05,1.5 -0.42,0 -1.08,-0.28 -1.08,-1.05 0,-0.31 0.14,-1.35 0.17,-1.7 0.08,-0.59 0.32,-3.11 0.39,-3.91 l -4.7,3.18 c -0.36,0.2 -0.45,0.31 -0.76,0.31 -0.64,0 -1.1,-0.52 -1.1,-1.11 0,-0.7 0.42,-0.88 0.74,-1.02 l 5.26,-2.18 c -2.86,-1.27 -4.14,-1.75 -5.01,-2.18 -0.66,-0.28 -0.99,-0.42 -0.99,-1.07 0,-0.6 0.46,-1.11 1.1,-1.11 0.23,0 0.31,0 0.71,0.31 l 4.75,3.17 -0.56,-5.61 c 0,-0.76 0.66,-1.04 1.08,-1.04 0.42,0 1.08,0.28 1.08,1.04 0,0.31 -0.14,1.36 -0.17,1.71 -0.07,0.59 -0.32,3.09 -0.38,3.9 l 4.17,-2.8 c 0.91,-0.68 0.99,-0.68 1.3,-0.68 0.63,0 1.08,0.51 1.08,1.11 0,0.7 -0.42,0.87 -0.74,1.01 z"
           inkscape:connector-curvature="0"
           style="fill:#000000;stroke-width:0" /><path
           id="path16983"
           d="m 557.17,405.22 -0.6,-0.45 -0.58,-0.46 -0.56,-0.47 -0.52,-0.49 -0.5,-0.5 -0.47,-0.51 -0.45,-0.53 -0.42,-0.53 -0.4,-0.54 -0.38,-0.55 -0.35,-0.56 -0.33,-0.56 -0.31,-0.57 -0.29,-0.57 -0.26,-0.58 -0.25,-0.58 -0.23,-0.58 -0.21,-0.58 -0.19,-0.59 -0.17,-0.58 -0.16,-0.58 -0.13,-0.58 -0.13,-0.57 -0.11,-0.57 -0.09,-0.57 -0.08,-0.56 -0.06,-0.55 -0.05,-0.55 -0.04,-0.53 -0.03,-0.53 -0.02,-0.52 v -0.5 c 0,-4.92 1.47,-12.55 8.37,-17.42 0.28,0 0.69,0 0.69,0.4 0,0.22 -0.09,0.28 -0.34,0.53 -4.64,4.19 -6.35,10.11 -6.35,16.46 0,9.4 3.6,14 6.45,16.58 0.15,0.14 0.24,0.24 0.24,0.42 0,0.42 -0.41,0.42 -0.69,0.42 z"
           inkscape:connector-curvature="0"
           style="fill:#000000;stroke-width:0" /><path
           id="path16985"
           d="m 576.2,408.36 v 0.04 0.03 0.03 0.04 0.03 0.02 0.03 0.03 0.03 l -0.01,0.02 v 0.03 0.02 0.02 l -0.01,0.03 v 0.02 0.02 l -0.01,0.02 v 0.01 l -0.01,0.04 -0.01,0.03 -0.02,0.03 -0.01,0.03 -0.02,0.02 -0.02,0.02 -0.02,0.02 -0.02,0.02 -0.03,0.01 -0.03,0.01 -0.03,0.01 -0.04,0.01 -0.04,0.01 -0.04,0.01 h -0.02 -0.02 -0.03 l -0.02,0.01 h -0.03 -0.02 -0.03 -0.03 -0.03 -0.03 -0.03 -0.03 -0.03 -0.04 -0.03 -0.04 -0.03 -0.04 c -1.77,-1.59 -4.53,-1.59 -5.03,-1.59 h -0.43 v -1.09 h 0.43 c 0.57,0 2.18,0.06 3.64,0.68 v -12.45 c 0,-0.77 0,-1.05 -2.64,-1.05 h -1.25 v -1.09 c 1.37,0.09 3.59,0.09 5.03,0.09 1.45,0 3.67,0 5.03,-0.09 v 1.09 h -1.24 c -2.64,0 -2.64,0.28 -2.64,1.05 z"
           inkscape:connector-curvature="0"
           style="fill:#000000;stroke-width:0" /><polyline
           id="polyline16987"
           points="566,387 583.04,387 583.04,388.8 566,388.8 "
           style="fill:#000000;fill-rule:nonzero;stroke-width:0" /><path
           id="path16989"
           d="m 580.95,371.89 h -1.04 c -0.08,-0.48 -0.33,-2.01 -0.72,-2.27 -0.21,-0.15 -2.3,-0.15 -2.67,-0.15 h -4.88 c 1.64,1.22 3.48,2.61 4.98,3.61 2.24,1.54 4.33,3 4.33,5.64 0,3.19 -3.01,4.95 -6.57,4.95 -3.36,0 -5.83,-1.95 -5.83,-4.39 0,-1.3 1.09,-1.51 1.45,-1.51 0.67,0 1.47,0.45 1.47,1.46 0,0.89 -0.66,1.39 -1.42,1.47 0.68,1.13 2.14,1.88 3.81,1.88 2.41,0 4.42,-1.46 4.42,-3.89 0,-2.1 -1.44,-3.69 -3.36,-5.31 l -6.08,-5.16 c -0.25,-0.22 -0.26,-0.22 -0.29,-0.39 v -0.75 h 11.57 z"
           inkscape:connector-curvature="0"
           style="fill:#000000;stroke-width:0" /><path
           id="path16991"
           d="m 592.34,405.22 h -0.02 -0.03 -0.02 -0.03 -0.03 -0.02 l -0.03,-0.01 h -0.03 -0.03 -0.03 l -0.02,-0.01 h -0.03 l -0.03,-0.01 -0.03,-0.01 h -0.02 l -0.03,-0.01 -0.02,-0.01 -0.03,-0.02 -0.02,-0.01 -0.03,-0.01 -0.02,-0.02 -0.02,-0.02 -0.02,-0.02 v -0.01 l -0.01,-0.01 -0.01,-0.01 -0.01,-0.01 v -0.01 l -0.01,-0.02 -0.01,-0.01 v -0.01 l -0.01,-0.02 v -0.01 l -0.01,-0.02 v -0.02 -0.01 l -0.01,-0.02 v -0.02 -0.01 -0.02 -0.02 c 0,-0.18 0.11,-0.28 0.31,-0.53 3,-2.75 6.34,-7.46 6.34,-16.44 0,-7.28 -2.26,-12.8 -6.03,-16.21 -0.57,-0.59 -0.62,-0.62 -0.62,-0.81 0,-0.17 0.11,-0.4 0.45,-0.4 0.42,0 3.73,2.29 6.03,6.65 1.53,2.89 2.55,6.66 2.55,10.74 0,4.9 -1.47,12.53 -8.36,17.42 z"
           inkscape:connector-curvature="0"
           style="fill:#000000;stroke-width:0" /><path
           id="path16993"
           d="m 609.66,391.48 -0.01,-0.06 -0.02,-0.07 -0.02,-0.06 -0.01,-0.07 -0.02,-0.06 -0.02,-0.07 -0.03,-0.15 -0.04,-0.14 -0.03,-0.15 -0.04,-0.14 -0.01,-0.07 -0.02,-0.07 -0.02,-0.07 -0.01,-0.07 -0.02,-0.06 -0.01,-0.06 -0.01,-0.06 -0.02,-0.06 -0.01,-0.05 -0.01,-0.05 -0.01,-0.05 -0.01,-0.04 v -0.04 l -0.01,-0.04 -0.01,-0.03 v -0.02 -0.02 -0.01 -0.01 c 0,-0.54 0.44,-0.87 0.92,-0.87 0.37,0 0.92,0.2 1.19,0.83 0.03,0.12 0.33,1.29 0.48,1.93 0.85,3.38 0.85,3.43 0.89,3.52 0.33,0.67 2.11,4.16 5.16,4.16 1.22,0 1.75,-0.68 1.75,-1.79 0,-1.42 -1.05,-3.98 -1.63,-5.4 -0.12,-0.3 -0.25,-0.63 -0.25,-1.05 0,-1.3 1.25,-2.2 2.72,-2.2 2.66,0 4.03,3.25 4.03,3.87 0,0.35 -0.42,0.35 -0.51,0.35 -0.44,0 -0.46,-0.1 -0.61,-0.58 -0.47,-1.49 -1.61,-2.78 -2.81,-2.78 -0.57,0 -0.75,0.39 -0.75,0.93 0,0.54 0.11,0.79 0.33,1.33 0.42,1 1.57,3.83 1.57,5.21 0,1.84 -1.32,2.96 -3.69,2.96 -2.28,0 -3.84,-1.37 -4.71,-2.46 -0.13,2.04 -2.11,2.46 -3.04,2.46 -2.5,0 -3.21,-3.81 -3.21,-3.85 0,-0.36 0.4,-0.36 0.53,-0.36 0.42,0 0.47,0.15 0.56,0.48 0.37,1.44 0.95,2.88 2,2.88 0.84,0 1.02,-0.8 1.02,-1.32 0,-0.34 -0.25,-1.29 -0.4,-1.93 -0.18,-0.68 -0.42,-1.71 -0.54,-2.25 z"
           inkscape:connector-curvature="0"
           style="fill:#000000;stroke-width:0" /><path
           id="path16995"
           d="m 645.42,386.95 h 10.66 c 0.45,0 1.28,0 1.28,0.85 0,0.86 -0.8,0.86 -1.28,0.86 h -10.66 v 10.7 c 0,0.45 0,1.28 -0.84,1.28 -0.88,0 -0.88,-0.8 -0.88,-1.28 v -10.7 h -10.68 c -0.46,0 -1.3,0 -1.3,-0.83 0,-0.88 0.8,-0.88 1.3,-0.88 h 10.68 v -10.7 c 0,-0.45 0,-1.28 0.85,-1.28 0.87,0 0.87,0.8 0.87,1.28 z"
           inkscape:connector-curvature="0"
           style="fill:#000000;stroke-width:0" /><path
           id="path16997"
           d="m 686.59,400.44 v -0.3 -0.3 l -0.01,-0.31 -0.02,-0.31 -0.02,-0.32 -0.03,-0.32 -0.03,-0.32 -0.05,-0.32 -0.05,-0.32 -0.07,-0.32 -0.07,-0.31 -0.09,-0.31 -0.05,-0.16 -0.06,-0.15 -0.06,-0.15 -0.06,-0.15 -0.06,-0.14 -0.07,-0.15 -0.07,-0.14 -0.08,-0.14 c -0.83,-1.43 -2.3,-2.51 -4.31,-2.51 -0.27,0 -1.8,0 -2.64,0.61 0.62,0.17 1,0.64 1,1.28 0,0.8 -0.6,1.33 -1.33,1.33 -0.42,0 -1.31,-0.22 -1.31,-1.39 0,-2.85 3.65,-2.85 4.33,-2.85 4.18,0 7.85,3.57 7.85,8.72 0,6.03 -2.95,8.42 -6.39,8.42 -2.48,0 -3.7,-0.87 -4.7,-1.72 -1.55,-1.28 -1.86,-2.64 -1.86,-3.92 0,-1.4 0.42,-2.68 1.77,-3.86 1.17,-1.04 2.31,-1.68 4.43,-1.68 l 0.05,0.84 c -1,0 -1.95,0.17 -2.84,1.3 -0.75,0.92 -0.77,1.93 -0.77,3.4 0,1.8 0.06,2.55 1.02,3.55 0.37,0.42 1.12,1.14 2.9,1.14 3.68,0 3.68,-4.11 3.68,-5.17 0,-2.08 -1.47,-4.22 -3.99,-4.22 v 0 l -0.05,-0.84 c 1.02,0 2.82,0.34 4.11,2.51 z"
           inkscape:connector-curvature="0"
           style="fill:#000000;stroke-width:0" /><path
           id="path16999"
           d="m 701.89,401.52 0.23,0.1 0.23,0.1 0.21,0.11 0.21,0.1 0.19,0.11 0.19,0.1 0.18,0.11 0.17,0.11 0.16,0.12 0.15,0.11 0.14,0.11 0.14,0.12 0.12,0.11 0.12,0.12 0.11,0.12 0.1,0.12 0.1,0.12 0.09,0.12 0.08,0.12 0.07,0.13 0.07,0.12 0.06,0.13 0.05,0.12 0.05,0.13 0.04,0.13 0.03,0.12 0.03,0.13 0.03,0.13 0.01,0.13 0.02,0.13 v 0.13 l 0.01,0.14 c 0,2.59 -2.88,3.79 -5.58,3.79 l -0.06,-0.95 c 2,0 4.09,-0.97 4.09,-2.86 0,-2.19 -2.84,-3.22 -2.86,-3.22 -0.03,0 -0.06,0 -0.28,0.13 l -3.59,1.84 c -1.07,0.55 -1.4,1.2 -1.4,1.8 0,1.59 2.05,2.31 4.04,2.31 l 0.06,0.95 c -3.1,0 -5.64,-1.75 -5.64,-4.23 0,-2.3 1.97,-3.31 3.26,-3.99 -2.64,-1.03 -4.12,-2.5 -4.12,-4.53 0,-3 3.31,-4.39 6.44,-4.39 l 0.06,1.02 c -2.27,0 -4.78,1.12 -4.78,3.39 0,2.47 2.68,3.61 3.48,3.97 v 0 l 3.86,-1.97 c 0.89,-0.49 2.17,-1.16 2.17,-2.5 0,-2.02 -2.51,-2.89 -4.73,-2.89 l -0.06,-1.02 c 3.5,0 6.51,1.86 6.51,4.82 0,2.7 -2.59,3.98 -4.26,4.73 z"
           inkscape:connector-curvature="0"
           style="fill:#000000;stroke-width:0" /><polyline
           id="polyline17001"
           points="666,387 716.88,387 716.88,388.8 666,388.8 "
           style="fill:#000000;fill-rule:nonzero;stroke-width:0" /><path
           id="path17003"
           d="m 675.68,382.92 v 0.04 0.03 0.03 0.03 0.03 0.03 0.03 0.03 0.03 0.02 l -0.01,0.03 v 0.02 0.02 0.02 l -0.01,0.03 v 0.02 l -0.01,0.01 v 0.02 l -0.01,0.04 -0.01,0.03 -0.01,0.03 -0.02,0.03 -0.02,0.02 -0.02,0.02 -0.02,0.02 -0.02,0.01 -0.03,0.02 -0.03,0.01 -0.03,0.01 -0.04,0.01 -0.04,0.01 -0.04,0.01 h -0.02 -0.02 -0.03 -0.02 l -0.03,0.01 h -0.02 -0.03 -0.03 -0.03 -0.03 -0.03 -0.03 -0.03 -0.04 -0.03 -0.04 -0.03 -0.04 c -1.77,-1.59 -4.53,-1.59 -5.03,-1.59 h -0.43 v -1.1 h 0.43 c 0.57,0 2.18,0.07 3.64,0.69 v -12.45 c 0,-0.77 0,-1.05 -2.64,-1.05 h -1.25 v -1.09 c 1.37,0.09 3.59,0.09 5.03,0.09 1.45,0 3.67,0 5.03,-0.09 v 1.09 h -1.24 c -2.64,0 -2.64,0.28 -2.64,1.05 z"
           inkscape:connector-curvature="0"
           style="fill:#000000;stroke-width:0" /><path
           id="path17005"
           d="m 697.65,375.05 v 0.18 0.21 l -0.01,0.24 v 0.25 l -0.02,0.28 -0.01,0.3 -0.03,0.31 -0.03,0.33 -0.05,0.34 -0.05,0.35 -0.07,0.36 -0.07,0.37 -0.1,0.36 -0.11,0.37 -0.12,0.37 -0.14,0.36 -0.17,0.36 -0.18,0.35 -0.2,0.35 -0.23,0.33 -0.25,0.31 -0.27,0.3 -0.15,0.15 -0.16,0.14 -0.16,0.13 -0.16,0.13 -0.18,0.12 -0.18,0.12 -0.19,0.11 -0.2,0.1 -0.2,0.1 -0.22,0.09 -0.22,0.08 -0.23,0.08 -0.23,0.06 -0.25,0.06 -0.25,0.05 -0.27,0.04 -0.27,0.04 -0.28,0.02 -0.29,0.02 h -0.3 v -0.83 c 1.84,0 3.17,-0.93 3.65,-2.68 0.36,-1.27 0.36,-3.35 0.36,-4.82 0,-1.68 0,-3.7 -0.37,-5.2 -0.66,-2.42 -2.64,-2.78 -3.64,-2.78 v 0 c -0.92,0 -3.02,0.31 -3.64,2.83 -0.35,1.34 -0.38,3.12 -0.38,5.15 0,1.85 0,3.57 0.41,4.99 0.62,2.09 2.55,2.51 3.61,2.51 v 0.83 c -6.5,0 -6.5,-6.83 -6.5,-8.62 0,-1.82 0,-8.52 6.5,-8.52 6.5,0 6.5,6.7 6.5,8.52 z"
           inkscape:connector-curvature="0"
           style="fill:#000000;stroke-width:0" /><path
           id="path17007"
           d="m 714.57,375.05 v 0.18 l -0.01,0.21 v 0.24 l -0.01,0.25 -0.01,0.28 -0.02,0.3 -0.02,0.31 -0.04,0.33 -0.04,0.34 -0.05,0.35 -0.07,0.36 -0.08,0.37 -0.09,0.36 -0.11,0.37 -0.12,0.37 -0.15,0.36 -0.16,0.36 -0.18,0.35 -0.2,0.35 -0.23,0.33 -0.25,0.31 -0.28,0.3 -0.14,0.15 -0.16,0.14 -0.16,0.13 -0.17,0.13 -0.17,0.12 -0.18,0.12 -0.19,0.11 -0.2,0.1 -0.21,0.1 -0.21,0.09 -0.22,0.08 -0.23,0.08 -0.24,0.06 -0.24,0.06 -0.26,0.05 -0.26,0.04 -0.27,0.04 -0.28,0.02 -0.29,0.02 h -0.3 v -0.83 c 1.84,0 3.17,-0.93 3.65,-2.68 0.36,-1.27 0.36,-3.35 0.36,-4.82 0,-1.68 0,-3.7 -0.37,-5.2 -0.66,-2.42 -2.64,-2.78 -3.64,-2.78 v 0 c -0.92,0 -3.02,0.31 -3.64,2.83 -0.35,1.34 -0.38,3.12 -0.38,5.15 0,1.85 0,3.57 0.41,4.99 0.62,2.09 2.54,2.51 3.61,2.51 v 0.83 c -6.5,0 -6.5,-6.83 -6.5,-8.62 0,-1.82 0,-8.52 6.5,-8.52 6.5,0 6.5,6.7 6.5,8.52 z"
           inkscape:connector-curvature="0"
           style="fill:#000000;stroke-width:0" /><path
           id="path17009"
           d="m 733.89,387.75 0.26,0.12 0.26,0.11 0.24,0.11 0.24,0.1 0.23,0.1 0.22,0.09 0.21,0.1 0.21,0.08 0.2,0.09 0.19,0.08 0.18,0.08 0.18,0.07 0.17,0.07 0.16,0.07 0.16,0.07 0.15,0.06 0.14,0.06 0.14,0.06 0.14,0.06 0.13,0.05 0.12,0.06 0.12,0.05 0.11,0.05 0.11,0.04 0.11,0.05 0.1,0.04 0.19,0.09 0.18,0.08 0.17,0.08 c 0.67,0.27 0.98,0.41 0.98,1.08 0,0.59 -0.45,1.11 -1.08,1.11 -0.25,0 -0.31,0 -0.73,-0.31 l -4.74,-3.18 0.52,5.16 c 0.08,0.63 0,1.5 -1.05,1.5 -0.42,0 -1.08,-0.28 -1.08,-1.05 0,-0.31 0.15,-1.35 0.18,-1.7 0.07,-0.59 0.31,-3.11 0.39,-3.91 l -4.71,3.18 c -0.36,0.2 -0.45,0.31 -0.76,0.31 -0.64,0 -1.1,-0.52 -1.1,-1.11 0,-0.7 0.43,-0.88 0.74,-1.02 l 5.26,-2.18 c -2.85,-1.27 -4.14,-1.75 -5.01,-2.18 -0.66,-0.28 -0.99,-0.42 -0.99,-1.07 0,-0.6 0.46,-1.11 1.1,-1.11 0.23,0 0.31,0 0.72,0.31 l 4.75,3.17 -0.57,-5.61 c 0,-0.76 0.66,-1.04 1.08,-1.04 0.42,0 1.08,0.28 1.08,1.04 0,0.31 -0.14,1.36 -0.17,1.71 -0.06,0.59 -0.31,3.09 -0.38,3.9 l 4.18,-2.8 c 0.9,-0.68 0.98,-0.68 1.29,-0.68 0.63,0 1.08,0.51 1.08,1.11 0,0.7 -0.42,0.87 -0.73,1.01 z"
           inkscape:connector-curvature="0"
           style="fill:#000000;stroke-width:0" /><path
           id="path17011"
           d="m 755.41,405.22 -0.6,-0.45 -0.58,-0.46 -0.55,-0.47 -0.53,-0.49 -0.5,-0.5 -0.47,-0.51 -0.45,-0.53 -0.42,-0.53 -0.4,-0.54 -0.37,-0.55 -0.36,-0.56 -0.33,-0.56 -0.31,-0.57 -0.28,-0.57 -0.27,-0.58 -0.25,-0.58 -0.23,-0.58 -0.2,-0.58 -0.2,-0.59 -0.17,-0.58 -0.15,-0.58 -0.14,-0.58 -0.13,-0.57 -0.1,-0.57 -0.1,-0.57 -0.08,-0.56 -0.06,-0.55 -0.05,-0.55 -0.04,-0.53 -0.03,-0.53 -0.02,-0.52 v -0.5 c 0,-4.92 1.47,-12.55 8.37,-17.42 0.29,0 0.69,0 0.69,0.4 0,0.22 -0.09,0.28 -0.34,0.53 -4.64,4.19 -6.35,10.11 -6.35,16.46 0,9.4 3.6,14 6.46,16.58 0.14,0.14 0.23,0.24 0.23,0.42 0,0.42 -0.4,0.42 -0.69,0.42 z"
           inkscape:connector-curvature="0"
           style="fill:#000000;stroke-width:0" /><path
           id="path17013"
           d="m 774.44,408.36 v 0.04 0.03 0.03 0.04 0.03 0.02 0.03 0.03 l -0.01,0.03 v 0.02 0.03 0.02 0.02 l -0.01,0.03 v 0.02 0.02 l -0.01,0.02 v 0.01 l -0.01,0.04 -0.01,0.03 -0.02,0.03 -0.01,0.03 -0.02,0.02 -0.02,0.02 -0.02,0.02 -0.03,0.02 -0.02,0.01 -0.03,0.01 -0.03,0.01 -0.04,0.01 -0.04,0.01 -0.04,0.01 h -0.02 -0.02 -0.03 l -0.02,0.01 h -0.03 -0.02 -0.03 -0.03 -0.03 -0.03 -0.03 -0.03 -0.03 -0.04 -0.03 -0.04 -0.04 -0.04 c -1.76,-1.59 -4.53,-1.59 -5.03,-1.59 h -0.42 v -1.09 h 0.42 c 0.58,0 2.19,0.06 3.65,0.68 v -12.45 c 0,-0.77 0,-1.05 -2.65,-1.05 h -1.25 v -1.09 c 1.38,0.09 3.6,0.09 5.03,0.09 1.46,0 3.68,0 5.04,-0.09 v 1.09 h -1.24 c -2.64,0 -2.64,0.28 -2.64,1.05 z"
           inkscape:connector-curvature="0"
           style="fill:#000000;stroke-width:0" /><polyline
           id="polyline17015"
           points="765,387 782.04,387 782.04,388.8 765,388.8 "
           style="fill:#000000;fill-rule:nonzero;stroke-width:0" /><path
           id="path17017"
           d="m 769.16,375.25 v 0.11 0.11 l 0.01,0.12 v 0.12 0.13 l 0.01,0.13 v 0.14 l 0.01,0.13 0.02,0.29 0.02,0.29 0.03,0.3 0.04,0.32 0.05,0.31 0.06,0.32 0.08,0.33 0.04,0.16 0.05,0.16 0.05,0.16 0.05,0.16 0.06,0.16 0.06,0.16 0.07,0.16 0.07,0.16 0.08,0.15 0.08,0.15 c 0.72,1.35 2.34,2.74 4.65,2.74 0.49,0 1.6,-0.05 2.35,-0.64 -0.39,-0.11 -1.05,-0.49 -1.05,-1.33 0,-0.8 0.6,-1.31 1.33,-1.31 0.42,0 1.31,0.22 1.31,1.39 0,1.34 -0.94,2.84 -3.95,2.84 -4.3,0 -8.22,-3.51 -8.22,-8.67 0,-5.95 2.91,-8.47 6.55,-8.47 2.46,0 3.64,0.92 4.48,1.63 1.6,1.31 1.92,2.78 1.92,4.03 0,1.51 -0.5,2.73 -1.79,3.89 -1.1,0.98 -2.25,1.65 -4.41,1.65 l -0.06,-0.84 c 1.28,0 2.07,-0.33 2.84,-1.31 0.75,-0.92 0.78,-1.97 0.78,-3.38 0,-1.43 0,-2.39 -0.8,-3.37 -0.7,-0.83 -1.57,-1.28 -2.96,-1.28 v 0 c -3.85,0 -3.85,4.14 -3.85,5.18 0,1.93 1.38,4.16 3.99,4.16 l 0.06,0.84 c -1.45,0 -3.08,-0.68 -4.11,-2.48 z"
           inkscape:connector-curvature="0"
           style="fill:#000000;stroke-width:0" /><path
           id="path17019"
           d="m 790.58,405.22 h -0.02 -0.03 -0.02 -0.03 -0.03 -0.02 l -0.03,-0.01 h -0.03 -0.03 -0.02 l -0.03,-0.01 h -0.03 l -0.03,-0.01 -0.03,-0.01 h -0.02 l -0.03,-0.01 -0.02,-0.01 -0.03,-0.02 -0.02,-0.01 -0.02,-0.01 -0.02,-0.02 -0.02,-0.02 -0.02,-0.02 -0.01,-0.01 -0.01,-0.01 -0.01,-0.01 -0.01,-0.01 v -0.01 l -0.01,-0.02 -0.01,-0.01 v -0.01 l -0.01,-0.02 v -0.01 l -0.01,-0.02 v -0.02 -0.01 l -0.01,-0.02 v -0.02 -0.01 -0.02 -0.02 c 0,-0.18 0.11,-0.28 0.31,-0.53 3,-2.75 6.35,-7.46 6.35,-16.44 0,-7.28 -2.27,-12.8 -6.04,-16.21 -0.57,-0.59 -0.62,-0.62 -0.62,-0.81 0,-0.17 0.11,-0.4 0.45,-0.4 0.42,0 3.74,2.29 6.04,6.65 1.53,2.89 2.54,6.66 2.54,10.74 0,4.9 -1.47,12.53 -8.36,17.42 z"
           inkscape:connector-curvature="0"
           style="fill:#000000;stroke-width:0" /><path
           id="path17021"
           d="m 807.9,391.48 -0.02,-0.06 -0.01,-0.07 -0.02,-0.06 -0.01,-0.07 -0.02,-0.06 -0.02,-0.07 -0.03,-0.15 -0.04,-0.14 -0.03,-0.15 -0.04,-0.14 -0.01,-0.07 -0.02,-0.07 -0.02,-0.07 -0.01,-0.07 -0.02,-0.06 -0.01,-0.06 -0.01,-0.06 -0.02,-0.06 -0.01,-0.05 -0.01,-0.05 -0.01,-0.05 -0.01,-0.04 -0.01,-0.04 v -0.04 l -0.01,-0.03 v -0.02 -0.02 -0.01 -0.01 c 0,-0.54 0.43,-0.87 0.92,-0.87 0.37,0 0.92,0.2 1.19,0.83 0.03,0.12 0.32,1.29 0.48,1.93 0.84,3.38 0.84,3.43 0.89,3.52 0.33,0.67 2.11,4.16 5.16,4.16 1.22,0 1.75,-0.68 1.75,-1.79 0,-1.42 -1.05,-3.98 -1.63,-5.4 -0.12,-0.3 -0.25,-0.63 -0.25,-1.05 0,-1.3 1.25,-2.2 2.72,-2.2 2.66,0 4.03,3.25 4.03,3.87 0,0.35 -0.42,0.35 -0.51,0.35 -0.44,0 -0.46,-0.1 -0.61,-0.58 -0.47,-1.49 -1.61,-2.78 -2.82,-2.78 -0.56,0 -0.75,0.39 -0.75,0.93 0,0.54 0.11,0.79 0.33,1.33 0.42,1 1.58,3.83 1.58,5.21 0,1.84 -1.33,2.96 -3.69,2.96 -2.28,0 -3.84,-1.37 -4.72,-2.46 -0.12,2.04 -2.1,2.46 -3.03,2.46 -2.5,0 -3.22,-3.81 -3.22,-3.85 0,-0.36 0.41,-0.36 0.54,-0.36 0.42,0 0.46,0.15 0.56,0.48 0.37,1.44 0.95,2.88 2,2.88 0.84,0 1.01,-0.8 1.01,-1.32 0,-0.34 -0.25,-1.29 -0.39,-1.93 -0.18,-0.68 -0.42,-1.71 -0.54,-2.25 z"
           inkscape:connector-curvature="0"
           style="fill:#000000;stroke-width:0" /><path
           id="path17023"
           d="m 880.9,415.26 0.06,0.03 0.07,0.03 0.06,0.03 0.05,0.03 0.06,0.03 0.05,0.03 0.05,0.03 0.05,0.03 0.05,0.03 0.04,0.03 0.04,0.03 0.04,0.03 0.04,0.04 0.04,0.03 0.03,0.03 0.03,0.04 0.03,0.03 0.03,0.03 0.02,0.04 0.03,0.04 0.02,0.03 0.02,0.04 0.02,0.03 0.01,0.04 0.01,0.04 0.02,0.04 0.01,0.04 v 0.03 l 0.01,0.04 v 0.04 l 0.01,0.04 v 0.05 c 0,0.5 -0.2,0.79 -1,1.15 l -27.45,12.95 c -0.69,0.35 -0.9,0.35 -1,0.35 -0.6,0 -0.99,-0.45 -0.99,-1 0,-0.6 0.39,-0.85 0.94,-1.1 l 26.15,-12.31 -26.04,-12.29 c -1,-0.46 -1.05,-0.85 -1.05,-1.15 0,-0.56 0.44,-1 0.99,-1 0.15,0 0.25,0 0.9,0.35 z"
           inkscape:connector-curvature="0"
           style="fill:#000000;stroke-width:0" /><path
           id="path17025"
           d="m 880.15,392.29 h 0.16 0.16 l 0.15,0.01 h 0.08 l 0.08,0.01 0.07,0.01 h 0.08 l 0.07,0.01 0.07,0.02 0.07,0.01 0.07,0.02 0.07,0.02 0.06,0.02 0.06,0.02 0.06,0.03 0.05,0.03 0.06,0.04 0.05,0.04 0.04,0.04 0.04,0.04 0.04,0.05 0.02,0.03 0.02,0.03 0.01,0.03 0.02,0.03 0.01,0.03 0.02,0.03 0.01,0.04 0.01,0.03 0.01,0.04 v 0.04 l 0.01,0.04 0.01,0.04 v 0.04 l 0.01,0.04 v 0.05 0.04 c 0,1 -1.05,1 -1.8,1 h -26.86 c -0.73,0 -1.78,0 -1.78,-1 0,-1 0.89,-1 1.74,-1 z"
           inkscape:connector-curvature="0"
           style="fill:#000000;stroke-width:0" /><path
           id="path17027"
           d="m 922.8,415.06 v 0.75 l -0.01,0.74 -0.02,0.75 -0.04,0.74 -0.04,0.75 -0.06,0.74 -0.08,0.74 -0.09,0.73 -0.12,0.74 -0.14,0.72 -0.16,0.73 -0.19,0.71 -0.21,0.72 -0.25,0.7 -0.28,0.7 -0.15,0.35 -0.16,0.34 c -2.28,4.8 -6.37,5.6 -8.47,5.6 -2.98,0 -6.62,-1.3 -8.67,-5.94 -1.59,-3.44 -1.84,-7.33 -1.84,-11.31 0,-3.74 0.2,-8.22 2.25,-12 2.14,-4.03 5.78,-5.03 8.21,-5.03 v 1.09 c -1.93,0 -4.88,1.25 -5.78,6.03 -0.54,2.99 -0.54,7.56 -0.54,10.52 0,3.19 0,6.47 0.4,9.15 0.94,5.94 4.67,6.38 5.92,6.38 1.65,0 4.94,-0.89 5.88,-5.83 0.5,-2.78 0.5,-6.58 0.5,-9.7 0,-3.75 0,-7.13 -0.55,-10.31 -0.75,-4.74 -3.59,-6.24 -5.83,-6.24 v 0 -1.09 c 2.69,0 6.47,1.04 8.68,5.78 1.59,3.44 1.84,7.31 1.84,11.25 z"
           inkscape:connector-curvature="0"
           style="fill:#000000;stroke-width:0" /><path
           id="path17029"
           d="m 934.4,401.76 -0.01,0.14 -0.01,0.13 -0.01,0.13 -0.03,0.13 -0.03,0.12 -0.03,0.13 -0.04,0.12 -0.05,0.12 -0.05,0.12 -0.06,0.11 -0.07,0.11 -0.06,0.11 -0.08,0.1 -0.08,0.1 -0.08,0.1 -0.09,0.09 -0.09,0.09 -0.09,0.08 -0.1,0.08 -0.11,0.08 -0.11,0.06 -0.11,0.07 -0.11,0.06 -0.12,0.05 -0.12,0.05 -0.12,0.04 -0.12,0.04 -0.13,0.03 -0.13,0.02 -0.13,0.02 -0.14,0.01 h -0.13 c -1.44,0 -2.64,-1.2 -2.64,-2.64 0,-1.44 1.2,-2.64 2.64,-2.64 1.45,0 2.64,1.2 2.64,2.64 z"
           inkscape:connector-curvature="0"
           style="fill:#000000;stroke-width:0" /><path
           id="path17031"
           d="m 956.91,414.96 v -1.59 c 0,-11.66 -5.17,-13.95 -8.06,-13.95 -0.86,0 -3.55,0.11 -4.89,1.79 2.19,0 2.59,1.44 2.59,2.3 0,1.53 -1.2,2.28 -2.29,2.28 -0.8,0 -2.28,-0.43 -2.28,-2.39 0,-3.33 2.68,-5.37 6.92,-5.37 6.42,0 12.5,6.76 12.5,17.48 0,13.41 -5.74,16.8 -10.16,16.8 -2.75,0 -5.19,-0.91 -7.33,-3.14 -2.04,-2.25 -3.18,-4.35 -3.18,-8.08 0,-6.22 4.39,-11.11 9.97,-11.11 l 0.04,1.14 c -0.79,0 -3.09,0 -4.64,3.14 -0.89,1.85 -0.89,4.35 -0.89,6.78 0,2.69 0,5.03 1.05,6.88 1.34,2.48 3.23,3.14 4.98,3.14 2.28,0 3.94,-1.7 4.78,-3.94 0.6,-1.59 0.8,-4.73 0.8,-7.03 0,-4.13 -1.7,-8.97 -6.08,-8.97 v 0 l -0.04,-1.14 c 3.03,0 5.07,2.09 6.21,4.98 z"
           inkscape:connector-curvature="0"
           style="fill:#000000;stroke-width:0" /></g>    </g>
  </g>
</svg>
