<?xml version="1.0" encoding="UTF-8" standalone="no"?>
<!-- Created with Inkscape (http://www.inkscape.org/) -->

<svg
   xmlns:dc="http://purl.org/dc/elements/1.1/"
   xmlns:cc="http://creativecommons.org/ns#"
   xmlns:rdf="http://www.w3.org/1999/02/22-rdf-syntax-ns#"
   xmlns:svg="http://www.w3.org/2000/svg"
   xmlns="http://www.w3.org/2000/svg"
   xmlns:sodipodi="http://sodipodi.sourceforge.net/DTD/sodipodi-0.dtd"
   xmlns:inkscape="http://www.inkscape.org/namespaces/inkscape"
   width="532mm"
   height="34.210533mm"
   viewBox="0 0 532 34.210533"
   version="1.1"
   id="svg13599"
   inkscape:version="0.92.5 (2060ec1f9f, 2020-04-08)"
   sodipodi:docname="solution_3_e1c.svg">
  <defs
     id="defs13593" />
  <sodipodi:namedview
     id="base"
     pagecolor="#ffffff"
     bordercolor="#666666"
     borderopacity="1.0"
     inkscape:pageopacity="0.0"
     inkscape:pageshadow="2"
     inkscape:zoom="0.49497475"
     inkscape:cx="948.75372"
     inkscape:cy="-45.576919"
     inkscape:document-units="mm"
     inkscape:current-layer="layer1"
     showgrid="false"
     fit-margin-top="0"
     fit-margin-left="0"
     fit-margin-right="0"
     fit-margin-bottom="0"
     inkscape:window-width="1684"
     inkscape:window-height="1376"
     inkscape:window-x="72"
     inkscape:window-y="27"
     inkscape:window-maximized="0" />
  <metadata
     id="metadata13596">
    <rdf:RDF>
      <cc:Work
         rdf:about="">
        <dc:format>image/svg+xml</dc:format>
        <dc:type
           rdf:resource="http://purl.org/dc/dcmitype/StillImage" />
        <dc:title></dc:title>
      </cc:Work>
    </rdf:RDF>
  </metadata>
  <g
     inkscape:label="Layer 1"
     inkscape:groupmode="layer"
     id="layer1"
     transform="translate(219.8869,367.25665)">
    <rect
       style="fill:#ffffff;fill-opacity:1;stroke:none;stroke-width:0.5;stroke-miterlimit:4;stroke-dasharray:none;stroke-opacity:1"
       id="rect5597"
       width="532"
       height="34.210533"
       x="-219.8869"
       y="-367.25665" />
    <g
       id="g5533"
       transform="translate(-301.30191,-447.30489)">
      <g
         word-spacing="normal"
         letter-spacing="normal"
         font-size-adjust="none"
         font-stretch="normal"
         font-weight="normal"
         font-variant="normal"
         font-style="normal"
         stroke-miterlimit="10.433"
         xml:space="preserve"
         transform="matrix(0.3,0,0,-0.3,-52.5,222.75)"
         id="g5531"
         style="font-style:normal;font-variant:normal;font-weight:normal;font-stretch:normal;letter-spacing:normal;word-spacing:normal;text-anchor:start;fill:none;fill-opacity:1;fill-rule:evenodd;stroke:#000000;stroke-linecap:butt;stroke-linejoin:miter;stroke-miterlimit:10.43299961;stroke-dasharray:none;stroke-dashoffset:0;stroke-opacity:1"><path
           id="path5415"
           d="m 459.91,409.14 -0.02,-0.07 -0.01,-0.08 -0.02,-0.07 -0.01,-0.08 -0.04,-0.16 -0.04,-0.16 -0.03,-0.16 -0.04,-0.16 -0.04,-0.16 -0.04,-0.16 -0.01,-0.08 -0.02,-0.07 -0.02,-0.07 -0.01,-0.07 -0.02,-0.07 -0.01,-0.07 -0.01,-0.06 -0.01,-0.06 -0.01,-0.06 -0.01,-0.05 -0.01,-0.05 -0.01,-0.04 -0.01,-0.04 v -0.04 -0.03 -0.02 c 0,-0.89 0.7,-1.35 1.43,-1.35 0.61,0 1.5,0.39 1.85,1.39 0.06,0.11 0.65,2.44 0.95,3.69 l 1.1,4.48 c 0.29,1.1 0.59,2.19 0.84,3.35 0.2,0.84 0.61,2.28 0.66,2.48 0.75,1.55 3.39,6.08 8.1,6.08 2.25,0 2.71,-1.84 2.71,-3.48 0,-3.1 -2.46,-9.47 -3.25,-11.61 -0.44,-1.14 -0.49,-1.75 -0.49,-2.3 0,-2.33 1.74,-4.08 4.08,-4.08 4.69,0 6.53,7.27 6.53,7.67 0,0.5 -0.45,0.5 -0.61,0.5 -0.48,0 -0.48,-0.15 -0.73,-0.9 -1,-3.38 -2.64,-6.17 -5.09,-6.17 -0.85,0 -1.19,0.5 -1.19,1.64 0,1.25 0.45,2.45 0.89,3.54 0.95,2.64 3.05,8.11 3.05,10.96 0,3.34 -2.15,5.32 -5.74,5.32 -4.48,0 -6.92,-3.18 -7.76,-4.32 -0.25,2.79 -2.3,4.32 -4.6,4.32 -2.28,0 -3.23,-1.93 -3.73,-2.82 -0.8,-1.71 -1.5,-4.64 -1.5,-4.85 0,-0.5 0.5,-0.5 0.61,-0.5 0.5,0 0.54,0.07 0.84,1.16 0.84,3.53 1.84,5.92 3.64,5.92 0.99,0 1.55,-0.64 1.55,-2.28 0,-1.05 -0.16,-1.61 -0.8,-4.19 z"
           inkscape:connector-curvature="0"
           style="fill:#000000;stroke-width:0" /><path
           id="path5417"
           d="m 533.55,422.5 h 0.14 0.15 0.14 l 0.08,0.01 h 0.07 l 0.07,0.01 0.07,0.01 0.07,0.01 0.07,0.01 0.07,0.01 0.07,0.02 0.06,0.02 0.06,0.02 0.06,0.02 0.06,0.03 0.06,0.03 0.05,0.04 0.05,0.03 0.05,0.05 0.04,0.04 0.04,0.05 0.02,0.03 0.02,0.03 0.01,0.02 0.02,0.03 0.01,0.03 0.02,0.04 0.01,0.03 0.01,0.04 0.01,0.03 0.01,0.04 0.01,0.04 v 0.04 l 0.01,0.04 v 0.04 0.04 0.05 c 0,1 -0.95,1 -1.64,1 h -29.84 c -0.71,0 -1.64,0 -1.64,-1 0,-0.98 0.93,-0.98 1.68,-0.98 z"
           inkscape:connector-curvature="0"
           style="fill:#000000;stroke-width:0" /><path
           id="path5419"
           d="m 533.6,412.82 h 0.07 0.06 l 0.14,0.01 h 0.14 0.07 l 0.07,0.01 0.07,0.01 h 0.07 l 0.07,0.01 0.06,0.02 0.07,0.01 0.06,0.02 0.07,0.02 0.06,0.02 0.06,0.02 0.06,0.03 0.05,0.03 0.05,0.04 0.05,0.04 0.05,0.04 0.04,0.05 0.02,0.02 0.02,0.03 0.02,0.02 0.02,0.03 0.01,0.03 0.02,0.03 0.01,0.03 0.02,0.03 0.01,0.04 0.01,0.03 0.01,0.04 0.01,0.04 0.01,0.04 v 0.04 l 0.01,0.04 v 0.04 0.05 0.04 c 0,1 -0.95,1 -1.69,1 H 503.8 c -0.75,0 -1.68,0 -1.68,-1 0,-1 0.93,-1 1.64,-1 z"
           inkscape:connector-curvature="0"
           style="fill:#000000;stroke-width:0" /><path
           id="path5421"
           d="m 558.45,422.54 v 1.19 c 0,12.61 6.17,14.41 8.72,14.41 1.19,0 3.28,-0.3 4.38,-2 -0.74,0 -2.74,0 -2.74,-2.24 0,-1.54 1.21,-2.29 2.3,-2.29 0.8,0 2.28,0.45 2.28,2.39 0,3 -2.19,5.39 -6.31,5.39 -6.39,0 -13.11,-6.44 -13.11,-17.44 0,-13.31 5.78,-16.84 10.41,-16.84 5.53,0 10.26,4.68 10.26,11.25 0,6.32 -4.44,11.12 -9.97,11.12 l -0.05,-1.16 c 0.8,0 3.1,0 4.65,-3.09 0.89,-1.83 0.89,-4.37 0.89,-6.81 0,-2.39 0,-4.89 -0.85,-6.69 -1.5,-2.98 -3.78,-3.23 -4.93,-3.23 v 0 c -3.15,0 -4.63,2.98 -4.93,3.73 -0.9,2.34 -0.9,6.33 -0.9,7.23 0,3.88 1.59,8.86 6.07,8.86 l 0.05,1.16 c -3.37,0 -5.22,-2.55 -6.22,-4.94 z"
           inkscape:connector-curvature="0"
           style="fill:#000000;stroke-width:0" /><path
           id="path5423"
           d="m 609.99,409.98 0.02,-0.19 0.03,-0.18 0.04,-0.19 0.04,-0.18 0.05,-0.19 0.05,-0.18 0.06,-0.18 0.07,-0.18 0.08,-0.18 0.08,-0.17 0.09,-0.18 0.09,-0.16 0.1,-0.16 0.11,-0.16 0.11,-0.16 0.12,-0.14 0.13,-0.14 0.13,-0.14 0.14,-0.13 0.14,-0.12 0.15,-0.12 0.16,-0.1 0.16,-0.1 0.17,-0.09 0.18,-0.08 0.18,-0.07 0.18,-0.06 0.2,-0.05 0.2,-0.04 0.2,-0.03 0.21,-0.02 0.22,-0.01 c 1.03,0 4.08,0.71 4.08,4.74 v 2.78 h -1.25 v -2.78 c 0,-2.89 -1.24,-3.19 -1.8,-3.19 -1.64,0 -1.84,2.23 -1.84,2.48 v 9.97 c 0,2.1 0,4.03 -1.79,5.88 -1.95,1.93 -4.43,2.73 -6.82,2.73 -4.1,0 -7.53,-2.33 -7.53,-5.62 0,-1.49 1,-2.35 2.29,-2.35 1.39,0 2.3,1 2.3,2.3 0,0.59 -0.25,2.23 -2.55,2.3 1.35,1.73 3.78,2.28 5.38,2.28 2.45,0 5.28,-1.94 5.28,-6.38 v -1.84 -1.05 -4.98 c 0,-4.74 -3.58,-6.42 -5.83,-6.42 -2.44,0 -4.48,1.75 -4.48,4.23 0,2.73 2.09,6.88 10.31,7.17 v 0 1.05 c -2.53,-0.14 -6.02,-0.3 -9.16,-1.8 -3.73,-1.69 -4.98,-4.28 -4.98,-6.47 0,-4.03 4.83,-5.28 7.97,-5.28 3.29,0 5.57,1.99 6.53,4.33 z"
           inkscape:connector-curvature="0"
           style="fill:#000000;stroke-width:0" /><path
           id="path5425"
           d="m 628.71,415.87 0.11,-0.02 0.13,-0.02 0.14,-0.03 0.16,-0.04 0.17,-0.04 0.18,-0.04 0.19,-0.05 0.19,-0.06 0.21,-0.06 0.21,-0.07 0.21,-0.08 0.22,-0.08 0.22,-0.1 0.23,-0.1 0.22,-0.11 0.21,-0.12 0.22,-0.14 0.21,-0.14 0.21,-0.15 0.2,-0.16 0.19,-0.18 0.18,-0.19 0.16,-0.2 0.16,-0.21 0.14,-0.22 0.07,-0.12 0.06,-0.12 0.06,-0.13 0.06,-0.12 0.04,-0.14 0.05,-0.13 0.04,-0.14 0.04,-0.14 0.03,-0.15 0.02,-0.15 0.02,-0.16 0.02,-0.15 0.01,-0.17 v -0.16 c 0,-2.53 -1.75,-4.53 -5.63,-4.53 -4.18,0 -5.98,2.84 -6.93,7.07 -0.14,0.64 -0.19,0.85 -0.69,0.85 -0.66,0 -0.66,-0.35 -0.66,-1.25 v -6.58 c 0,-0.84 0,-1.19 0.55,-1.19 0.25,0 0.3,0.05 1.25,1 0.09,0.1 0.09,0.19 1,1.14 2.19,-2.09 4.44,-2.14 5.48,-2.14 5.72,0 8.02,3.35 8.02,6.92 0,2.64 -1.5,4.14 -2.09,4.74 -1.65,1.59 -3.6,2 -5.69,2.39 -2.78,0.55 -6.13,1.2 -6.13,4.09 0,1.74 1.3,3.78 5.58,3.78 5.49,0 5.74,-4.48 5.83,-6.03 0.06,-0.45 0.5,-0.45 0.61,-0.45 0.64,0 0.64,0.25 0.64,1.2 v 5.03 c 0,0.85 0,1.19 -0.55,1.19 -0.25,0 -0.34,0 -1,-0.59 -0.14,-0.21 -0.64,-0.64 -0.84,-0.8 -1.89,1.39 -3.94,1.39 -4.69,1.39 -6.08,0 -7.97,-3.33 -7.97,-6.12 0,-1.74 0.8,-3.14 2.14,-4.24 1.6,-1.29 3,-1.59 6.58,-2.28 z"
           inkscape:connector-curvature="0"
           style="fill:#000000;stroke-width:0" /><path
           id="path5427"
           d="m 678.06,416.86 -0.02,0.59 -0.04,0.59 -0.07,0.58 -0.1,0.57 -0.12,0.56 -0.15,0.55 -0.18,0.54 -0.19,0.53 -0.23,0.51 -0.24,0.5 -0.27,0.49 -0.29,0.47 -0.31,0.46 -0.32,0.44 -0.35,0.43 -0.37,0.4 -0.38,0.39 -0.4,0.37 -0.42,0.35 -0.43,0.32 -0.45,0.31 -0.46,0.28 -0.47,0.26 -0.49,0.24 -0.5,0.21 -0.51,0.18 -0.52,0.16 -0.53,0.13 -0.54,0.11 -0.55,0.07 -0.55,0.05 -0.57,0.01 -0.04,-1.09 c 2.18,0 4.32,-1.1 5.62,-3.24 1.3,-2.14 1.3,-5.03 1.3,-6.92 0,-1.8 0,-4.48 -1.1,-6.67 -1.09,-2.25 -3.28,-3.69 -5.78,-3.69 v 0 c -2.14,0 -4.32,1.05 -5.67,3.33 -1.25,2.2 -1.25,5.23 -1.25,7.03 0,1.94 0,4.63 1.19,6.83 1.36,2.28 3.69,3.33 5.69,3.33 l 0.04,1.09 c -6.22,0 -11.06,-5.42 -11.06,-11.65 0,-6.43 5.19,-11.21 11.02,-11.21 6.03,0 11.06,4.88 11.06,11.21 z"
           inkscape:connector-curvature="0"
           style="fill:#000000;stroke-width:0" /><path
           id="path5429"
           d="m 685.03,423.34 v -13.36 c 0,-2.23 -0.55,-2.23 -3.89,-2.23 v -1.55 c 1.75,0.05 4.28,0.16 5.63,0.16 1.29,0 3.89,-0.11 5.57,-0.16 v 1.55 c -3.32,0 -3.87,0 -3.87,2.23 v 9.17 c 0,5.19 3.53,7.97 6.72,7.97 3.14,0 3.69,-2.69 3.69,-5.53 v -11.61 c 0,-2.23 -0.55,-2.23 -3.9,-2.23 v -1.55 c 1.75,0.05 4.3,0.16 5.64,0.16 1.3,0 3.88,-0.11 5.58,-0.16 v 1.55 c -2.59,0 -3.84,0 -3.89,1.5 v 9.51 c 0,4.28 0,5.83 -1.54,7.61 -0.69,0.86 -2.35,1.84 -5.22,1.84 -3.64,0 -5.99,-2.14 -7.38,-5.21 v 5.21 l -7.03,-0.54 v -1.55 c 3.48,0 3.89,-0.34 3.89,-2.78 z"
           inkscape:connector-curvature="0"
           style="fill:#000000;stroke-width:0" /><path
           id="path5431"
           d="m 716.08,440.78 -7.17,-0.55 v -1.55 c 3.48,0 3.89,-0.34 3.89,-2.79 v -25.91 c 0,-2.23 -0.55,-2.23 -3.89,-2.23 v -1.55 c 1.64,0.05 4.28,0.16 5.53,0.16 1.25,0 3.68,-0.11 5.53,-0.16 v 1.55 c -3.35,0 -3.89,0 -3.89,2.23 z"
           inkscape:connector-curvature="0"
           style="fill:#000000;stroke-width:0" /><path
           id="path5433"
           d="m 741.73,422.93 0.07,0.15 0.06,0.14 0.06,0.14 0.07,0.13 0.07,0.12 0.07,0.13 0.07,0.12 0.07,0.11 0.15,0.22 0.16,0.2 0.15,0.19 0.16,0.18 0.17,0.16 0.16,0.14 0.17,0.14 0.17,0.12 0.17,0.11 0.17,0.1 0.17,0.09 0.17,0.09 0.17,0.07 0.17,0.06 0.16,0.05 0.16,0.05 0.15,0.04 0.16,0.03 0.14,0.03 0.15,0.02 0.13,0.02 0.13,0.02 0.12,0.01 H 746 l 0.11,0.01 h 0.1 0.09 0.08 v 1.55 c -1.16,-0.1 -2.6,-0.14 -3.74,-0.14 -0.91,0 -3.25,0.09 -4.34,0.14 v -1.55 c 1.54,-0.05 2.34,-0.89 2.34,-2.14 0,-0.5 -0.05,-0.59 -0.3,-1.19 l -5.03,-12.26 -5.53,13.4 c -0.2,0.5 -0.3,0.71 -0.3,0.91 0,1.28 1.85,1.28 2.79,1.28 v 1.55 c -1.29,-0.05 -4.58,-0.14 -5.43,-0.14 -1.34,0 -3.34,0.04 -4.82,0.14 v -1.55 c 2.39,0 3.32,0 4.03,-1.73 l 7.47,-18.19 c -0.25,-0.64 -0.94,-2.3 -1.25,-2.94 -1.1,-2.73 -2.49,-6.19 -5.68,-6.19 -0.25,0 -1.39,0 -2.34,0.91 1.55,0.2 1.94,1.3 1.94,2.09 0,1.3 -0.94,2.1 -2.08,2.1 -1,0 -2.09,-0.66 -2.09,-2.14 0,-2.25 2.09,-4.05 4.57,-4.05 3.14,0 5.19,2.84 6.38,5.69 z"
           inkscape:connector-curvature="0"
           style="fill:#000000;stroke-width:0" /><path
           id="path5435"
           d="m 775.1,436.34 0.01,0.16 v 0.16 0.15 l 0.01,0.15 0.01,0.13 0.02,0.13 0.02,0.13 0.02,0.11 0.03,0.12 0.04,0.1 0.05,0.1 0.05,0.09 0.07,0.09 0.07,0.08 0.08,0.08 0.1,0.07 0.1,0.06 0.12,0.06 0.06,0.03 0.07,0.03 0.07,0.02 0.07,0.03 0.08,0.02 0.08,0.02 0.09,0.02 0.08,0.02 0.1,0.02 0.09,0.02 0.1,0.02 0.11,0.01 0.11,0.01 0.11,0.02 0.12,0.01 0.12,0.01 0.13,0.01 0.13,0.01 0.13,0.01 0.14,0.01 h 0.15 l 0.15,0.01 h 0.15 l 0.16,0.01 h 0.17 0.17 0.18 0.18 1.3 v 1.55 c -1.75,-0.16 -5.69,-0.16 -7.58,-0.16 -1.94,0 -5.88,0 -7.63,0.16 v -1.55 h 1.3 c 3.94,0 4.09,-0.54 4.09,-2.34 v -26.25 c 0,-1.8 -0.15,-2.34 -4.09,-2.34 h -1.3 v -1.55 c 1.75,0.16 5.69,0.16 7.58,0.16 1.94,0 5.88,0 7.63,-0.16 v 1.55 h -1.3 c -3.94,0 -4.1,0.54 -4.1,2.34 z"
           inkscape:connector-curvature="0"
           style="fill:#000000;stroke-width:0" /><path
           id="path5437"
           d="m 787.39,423.34 v -13.36 c 0,-2.23 -0.55,-2.23 -3.89,-2.23 v -1.55 c 1.75,0.05 4.28,0.16 5.62,0.16 1.3,0 3.89,-0.11 5.58,-0.16 v 1.55 c -3.33,0 -3.88,0 -3.88,2.23 v 9.17 c 0,5.19 3.53,7.97 6.72,7.97 3.14,0 3.69,-2.69 3.69,-5.53 v -11.61 c 0,-2.23 -0.55,-2.23 -3.89,-2.23 v -1.55 c 1.75,0.05 4.3,0.16 5.64,0.16 1.3,0 3.87,-0.11 5.58,-0.16 v 1.55 c -2.59,0 -3.84,0 -3.89,1.5 v 9.51 c 0,4.28 0,5.83 -1.55,7.61 -0.69,0.86 -2.34,1.84 -5.22,1.84 -3.64,0 -5.98,-2.14 -7.37,-5.21 v 5.21 l -7.03,-0.54 v -1.55 c 3.48,0 3.89,-0.34 3.89,-2.78 z"
           inkscape:connector-curvature="0"
           style="fill:#000000;stroke-width:0" /><path
           id="path5439"
           d="m 816.8,426.12 h 7.13 v 1.55 h -7.13 v 9.17 h -1.25 c -0.04,-4.08 -1.54,-9.42 -6.42,-9.61 v -1.11 h 4.24 v -13.75 c 0,-6.12 4.62,-6.72 6.42,-6.72 3.53,0 4.94,3.53 4.94,6.72 v 2.84 h -1.25 v -2.73 c 0,-3.69 -1.5,-5.58 -3.35,-5.58 -3.33,0 -3.33,4.53 -3.33,5.38 z"
           inkscape:connector-curvature="0"
           style="fill:#000000;stroke-width:0" /><path
           id="path5441"
           d="m 833.03,417.71 0.04,1.05 c 0.3,7.42 4.49,8.66 6.19,8.66 5.13,0 5.63,-6.72 5.63,-8.66 h -11.82 l -0.04,-1.05 h 13.9 c 1.1,0 1.24,0 1.24,1.05 0,4.92 -2.69,9.75 -8.91,9.75 -5.78,0 -10.37,-5.12 -10.37,-11.36 0,-6.67 5.23,-11.5 10.96,-11.5 6.08,0 8.32,5.53 8.32,6.47 0,0.5 -0.39,0.61 -0.64,0.61 -0.46,0 -0.55,-0.3 -0.66,-0.7 -1.73,-5.13 -6.22,-5.13 -6.72,-5.13 -2.5,0 -4.48,1.49 -5.62,3.33 -1.5,2.39 -1.5,5.69 -1.5,7.48 z"
           inkscape:connector-curvature="0"
           style="fill:#000000;stroke-width:0" /><path
           id="path5443"
           d="m 854.85,412.82 0.01,0.03 v 0.02 0.03 0.04 0.04 0.05 0.05 l 0.01,0.06 v 0.05 l 0.01,0.07 0.01,0.06 0.01,0.07 0.01,0.07 0.02,0.08 0.01,0.08 0.02,0.08 0.02,0.08 0.03,0.08 0.02,0.09 0.03,0.09 0.03,0.09 0.04,0.09 0.04,0.09 0.04,0.1 0.05,0.09 0.05,0.1 0.05,0.09 0.06,0.1 0.06,0.09 0.07,0.1 0.07,0.09 0.08,0.1 c 1.95,-1.39 3.98,-1.55 4.94,-1.55 v 1.14 c -4.35,0 -4.35,4.99 -4.35,6.14 0,1.35 0.06,2.94 0.8,4.17 0.41,0.61 1.55,2 3.55,2 4.33,0 4.33,-4.98 4.33,-6.12 0,-1.34 -0.05,-2.94 -0.8,-4.19 -0.39,-0.59 -1.55,-2 -3.53,-2 v 0 -1.14 c 4.62,0 8.06,3.44 8.06,7.28 0,1.85 -0.8,3.69 -2.03,4.83 1.78,1.69 3.58,1.94 4.48,1.94 0.1,0 0.35,0 0.5,-0.05 -0.56,-0.2 -0.8,-0.75 -0.8,-1.34 0,-0.85 0.65,-1.44 1.44,-1.44 0.5,0 1.44,0.34 1.44,1.48 0,0.85 -0.59,2.44 -2.53,2.44 -1,0 -3.19,-0.3 -5.28,-2.33 -2.1,1.64 -4.19,1.78 -5.28,1.78 -4.64,0 -8.08,-3.43 -8.08,-7.26 0,-2.19 1.09,-4.09 2.34,-5.14 -0.64,-0.74 -1.55,-2.39 -1.55,-4.13 0,-1.54 0.66,-3.43 2.21,-4.43 -3,-0.85 -4.59,-2.99 -4.59,-4.99 0,-3.58 4.93,-6.33 11.01,-6.33 l 0.05,1.14 c -5.03,0 -8.47,2.55 -8.47,5.19 0,2.3 1.89,4.14 4.09,4.28 h 2.94 c 4.28,0 9.86,0 9.86,-4.28 0,-2.69 -3.53,-5.19 -8.42,-5.19 v 0 l -0.05,-1.14 c 5.87,0 11.06,2.55 11.06,6.43 0,1.75 -0.7,4.29 -3.23,5.68 -2.64,1.39 -5.53,1.39 -8.58,1.39 -1.25,0 -3.39,0 -3.73,0.05 -1.6,0.2 -2.65,1.75 -2.65,3.34 z"
           inkscape:connector-curvature="0"
           style="fill:#000000;stroke-width:0" /><path
           id="path5445"
           d="m 880.06,417.71 0.05,1.05 c 0.3,7.42 4.48,8.66 6.19,8.66 5.12,0 5.62,-6.72 5.62,-8.66 h -11.81 l -0.05,-1.05 h 13.91 c 1.09,0 1.23,0 1.23,1.05 0,4.92 -2.68,9.75 -8.9,9.75 -5.78,0 -10.38,-5.12 -10.38,-11.36 0,-6.67 5.24,-11.5 10.97,-11.5 6.08,0 8.31,5.53 8.31,6.47 0,0.5 -0.39,0.61 -0.64,0.61 -0.45,0 -0.54,-0.3 -0.65,-0.7 -1.74,-5.13 -6.22,-5.13 -6.72,-5.13 -2.5,0 -4.49,1.49 -5.63,3.33 -1.5,2.39 -1.5,5.69 -1.5,7.48 z"
           inkscape:connector-curvature="0"
           style="fill:#000000;stroke-width:0" /><path
           id="path5447"
           d="m 904.92,422.75 v 5.46 L 898,427.67 v -1.55 c 3.48,0 3.89,-0.34 3.89,-2.78 v -13.36 c 0,-2.23 -0.55,-2.23 -3.89,-2.23 v -1.55 c 1.95,0.05 4.28,0.16 5.69,0.16 1.98,0 4.33,0 6.33,-0.16 v 1.55 h -1.05 c -3.69,0 -3.8,0.54 -3.8,2.34 v 7.67 c 0,4.92 2.1,9.36 5.89,9.36 0.35,0 0.44,0 0.55,-0.05 -0.16,-0.04 -1.16,-0.64 -1.16,-1.93 0,-1.41 1.05,-2.14 2.16,-2.14 0.89,0 2.14,0.59 2.14,2.18 0,1.6 -1.55,3.03 -3.69,3.03 -3.64,0 -5.44,-3.32 -6.14,-5.46 z"
           inkscape:connector-curvature="0"
           style="fill:#000000;stroke-width:0" /><path
           id="path5449"
           d="m 926.53,415.87 0.11,-0.02 0.13,-0.02 0.14,-0.03 0.15,-0.04 0.17,-0.04 0.18,-0.04 0.19,-0.05 0.2,-0.06 0.2,-0.06 0.22,-0.07 0.21,-0.08 0.22,-0.08 0.22,-0.1 0.22,-0.1 0.22,-0.11 0.22,-0.12 0.22,-0.14 0.21,-0.14 0.2,-0.15 0.2,-0.16 0.19,-0.18 0.18,-0.19 0.17,-0.2 0.16,-0.21 0.14,-0.22 0.07,-0.12 0.06,-0.12 0.06,-0.13 0.05,-0.12 0.05,-0.14 0.05,-0.13 0.04,-0.14 0.03,-0.14 0.03,-0.15 0.03,-0.15 0.02,-0.16 0.01,-0.15 0.01,-0.17 0.01,-0.16 c 0,-2.53 -1.75,-4.53 -5.63,-4.53 -4.19,0 -5.99,2.84 -6.94,7.07 -0.14,0.64 -0.18,0.85 -0.68,0.85 -0.66,0 -0.66,-0.35 -0.66,-1.25 v -6.58 c 0,-0.84 0,-1.19 0.54,-1.19 0.25,0 0.3,0.05 1.25,1 0.1,0.1 0.1,0.19 1,1.14 2.19,-2.09 4.44,-2.14 5.49,-2.14 5.72,0 8.01,3.35 8.01,6.92 0,2.64 -1.5,4.14 -2.09,4.74 -1.64,1.59 -3.59,2 -5.69,2.39 -2.78,0.55 -6.12,1.2 -6.12,4.09 0,1.74 1.3,3.78 5.58,3.78 5.48,0 5.73,-4.48 5.82,-6.03 0.07,-0.45 0.5,-0.45 0.62,-0.45 0.63,0 0.63,0.25 0.63,1.2 v 5.03 c 0,0.85 0,1.19 -0.54,1.19 -0.25,0 -0.34,0 -1,-0.59 -0.14,-0.21 -0.64,-0.64 -0.84,-0.8 -1.9,1.39 -3.94,1.39 -4.69,1.39 -6.08,0 -7.97,-3.33 -7.97,-6.12 0,-1.74 0.79,-3.14 2.14,-4.24 1.59,-1.29 3,-1.59 6.58,-2.28 z"
           inkscape:connector-curvature="0"
           style="fill:#000000;stroke-width:0" /><path
           id="path5451"
           d="m 957.89,423.34 v -13.36 c 0,-2.23 -0.55,-2.23 -3.89,-2.23 v -1.55 c 1.75,0.05 4.28,0.16 5.62,0.16 1.3,0 3.9,-0.11 5.58,-0.16 v 1.55 c -3.32,0 -3.87,0 -3.87,2.23 v 9.17 c 0,5.19 3.53,7.97 6.72,7.97 3.14,0 3.68,-2.69 3.68,-5.53 v -11.61 c 0,-2.23 -0.54,-2.23 -3.89,-2.23 v -1.55 c 1.75,0.05 4.3,0.16 5.64,0.16 1.3,0 3.88,-0.11 5.58,-0.16 v 1.55 c -3.34,0 -3.89,0 -3.89,2.23 v 9.17 c 0,5.19 3.55,7.97 6.74,7.97 3.14,0 3.68,-2.69 3.68,-5.53 v -11.61 c 0,-2.23 -0.54,-2.23 -3.89,-2.23 v -1.55 c 1.74,0.05 4.28,0.16 5.63,0.16 1.29,0 3.89,-0.11 5.58,-0.16 v 1.55 c -2.58,0 -3.83,0 -3.88,1.5 v 9.51 c 0,4.28 0,5.83 -1.55,7.61 -0.7,0.86 -2.34,1.84 -5.23,1.84 -4.19,0 -6.37,-2.98 -7.22,-4.87 -0.7,4.33 -4.39,4.87 -6.62,4.87 -3.64,0 -5.99,-2.14 -7.38,-5.21 v 5.21 L 954,427.67 v -1.55 c 3.48,0 3.89,-0.34 3.89,-2.78 z"
           inkscape:connector-curvature="0"
           style="fill:#000000;stroke-width:0" /><path
           id="path5453"
           d="m 1010.5,409.98 v -0.19 l 0.1,-0.18 v -0.19 -0.18 l 0.1,-0.19 0.1,-0.18 v -0.18 l 0.1,-0.18 0.1,-0.18 v -0.17 l 0.1,-0.18 0.1,-0.16 0.1,-0.16 0.1,-0.16 0.1,-0.16 0.2,-0.14 0.1,-0.14 0.1,-0.14 0.2,-0.13 0.1,-0.12 0.2,-0.12 0.1,-0.1 0.2,-0.1 0.1,-0.09 0.2,-0.08 0.2,-0.07 0.2,-0.06 0.2,-0.05 0.2,-0.04 0.2,-0.03 0.2,-0.02 0.2,-0.01 c 1,0 4.1,0.71 4.1,4.74 v 2.78 h -1.3 v -2.78 c 0,-2.89 -1.2,-3.19 -1.8,-3.19 -1.6,0 -1.8,2.23 -1.8,2.48 v 9.97 c 0,2.1 0,4.03 -1.8,5.88 -1.9,1.93 -4.4,2.73 -6.8,2.73 -4.1,0 -7.54,-2.33 -7.54,-5.62 0,-1.49 1,-2.35 2.29,-2.35 1.35,0 2.25,1 2.25,2.3 0,0.59 -0.2,2.23 -2.5,2.3 1.3,1.73 3.8,2.28 5.4,2.28 2.4,0 5.3,-1.94 5.3,-6.38 v -1.84 -1.05 -4.98 c 0,-4.74 -3.6,-6.42 -5.9,-6.42 -2.4,0 -4.45,1.75 -4.45,4.23 0,2.73 2.05,6.88 10.35,7.17 v 0 1.05 c -2.6,-0.14 -6.1,-0.3 -9.2,-1.8 -3.73,-1.69 -4.98,-4.28 -4.98,-6.47 0,-4.03 4.78,-5.28 7.98,-5.28 3.3,0 5.6,1.99 6.5,4.33 z"
           inkscape:connector-curvature="0"
           style="fill:#000000;stroke-width:0" /><path
           id="path5455"
           d="m 1024.2,409.98 v -0.1 -0.1 -0.19 l -0.1,-0.18 v -0.17 -0.15 -0.15 -0.13 l -0.1,-0.12 v -0.11 l -0.1,-0.11 v -0.09 l -0.1,-0.09 -0.1,-0.08 v -0.07 l -0.1,-0.06 -0.1,-0.05 -0.1,-0.05 -0.2,-0.05 -0.1,-0.03 -0.1,-0.04 -0.2,-0.02 -0.1,-0.03 -0.2,-0.01 -0.1,-0.01 -0.1,-0.01 -0.1,-0.01 h -0.1 l -0.1,-0.01 h -0.1 -0.1 l -0.2,-0.01 h -0.1 -0.1 -0.1 -0.2 -0.1 -0.1 -0.2 -0.1 -0.2 -0.1 v -1.55 c 1.6,0.05 4,0.16 5.4,0.16 1.5,0 3.5,-0.07 5.5,-0.16 v 1.55 c -3.4,0 -3.9,0 -3.9,2.23 v 5.14 l 3.2,2.74 c 3.8,-5.29 5.9,-8.07 5.9,-8.97 0,-0.94 -0.8,-1.14 -1.8,-1.14 v -1.55 c 1.4,0.05 4.4,0.16 5.4,0.16 1.4,0 2.9,-0.07 4.3,-0.16 v 1.55 c -1.8,0 -2.9,0 -4.8,2.64 l -6.3,8.92 c -0.1,0.09 -0.3,0.39 -0.3,0.55 0,0.18 3.5,3.18 4,3.57 3.2,2.55 5.3,2.64 6.3,2.69 v 1.55 c -1.4,-0.14 -2.1,-0.14 -3.5,-0.14 -1.8,0 -4.9,0.09 -5.6,0.14 v -1.55 c 1,-0.05 1.5,-0.59 1.5,-1.23 0,-1 -0.7,-1.6 -1.1,-1.96 l -7.1,-6.07 v 23.92 l -7.1,-0.55 v -1.55 c 3.5,0 3.9,-0.34 3.9,-2.79 z"
           inkscape:connector-curvature="0"
           style="fill:#000000;stroke-width:0" /><path
           id="path5457"
           d="m 1049.2,417.71 0.1,1.05 c 0.3,7.42 4.5,8.66 6.2,8.66 5.1,0 5.6,-6.72 5.6,-8.66 h -11.8 l -0.1,-1.05 h 14 c 1,0 1.2,0 1.2,1.05 0,4.92 -2.7,9.75 -8.9,9.75 -5.8,0 -10.4,-5.12 -10.4,-11.36 0,-6.67 5.2,-11.5 11,-11.5 6.1,0 8.3,5.53 8.3,6.47 0,0.5 -0.4,0.61 -0.6,0.61 -0.5,0 -0.6,-0.3 -0.7,-0.7 -1.7,-5.13 -6.2,-5.13 -6.7,-5.13 -2.5,0 -4.5,1.49 -5.6,3.33 -1.6,2.39 -1.6,5.69 -1.6,7.48 z"
           inkscape:connector-curvature="0"
           style="fill:#000000;stroke-width:0" /><path
           id="path5459"
           d="m 1092.8,415.87 0.2,-0.02 0.1,-0.02 0.1,-0.03 0.2,-0.04 0.1,-0.04 0.2,-0.04 0.2,-0.05 0.2,-0.06 0.2,-0.06 0.2,-0.07 0.2,-0.08 0.3,-0.08 0.2,-0.1 0.2,-0.1 0.2,-0.11 0.2,-0.12 0.3,-0.14 0.2,-0.14 0.2,-0.15 0.2,-0.16 0.2,-0.18 0.1,-0.19 0.2,-0.2 0.2,-0.21 0.1,-0.22 0.1,-0.12 v -0.12 l 0.1,-0.13 0.1,-0.12 v -0.14 l 0.1,-0.13 v -0.14 -0.14 l 0.1,-0.15 v -0.15 -0.16 -0.15 -0.17 -0.16 c 0,-2.53 -1.7,-4.53 -5.6,-4.53 -4.2,0 -6,2.84 -6.9,7.07 -0.2,0.64 -0.2,0.85 -0.7,0.85 -0.7,0 -0.7,-0.35 -0.7,-1.25 v -6.58 c 0,-0.84 0,-1.19 0.6,-1.19 0.2,0 0.3,0.05 1.2,1 0.1,0.1 0.1,0.19 1,1.14 2.2,-2.09 4.5,-2.14 5.5,-2.14 5.7,0 8,3.35 8,6.92 0,2.64 -1.5,4.14 -2.1,4.74 -1.6,1.59 -3.6,2 -5.7,2.39 -2.7,0.55 -6.1,1.2 -6.1,4.09 0,1.74 1.3,3.78 5.6,3.78 5.5,0 5.7,-4.48 5.8,-6.03 0.1,-0.45 0.5,-0.45 0.6,-0.45 0.7,0 0.7,0.25 0.7,1.2 v 5.03 c 0,0.85 0,1.19 -0.6,1.19 -0.2,0 -0.3,0 -1,-0.59 -0.1,-0.21 -0.6,-0.64 -0.8,-0.8 -1.9,1.39 -4,1.39 -4.7,1.39 -6.1,0 -8,-3.33 -8,-6.12 0,-1.74 0.8,-3.14 2.2,-4.24 1.6,-1.29 3,-1.59 6.5,-2.28 z"
           inkscape:connector-curvature="0"
           style="fill:#000000;stroke-width:0" /><path
           id="path5461"
           d="m 1107.7,417.71 v 1.05 c 0.3,7.42 4.5,8.66 6.2,8.66 5.2,0 5.7,-6.72 5.7,-8.66 h -11.9 v -1.05 h 13.9 c 1.1,0 1.2,0 1.2,1.05 0,4.92 -2.7,9.75 -8.9,9.75 -5.8,0 -10.3,-5.12 -10.3,-11.36 0,-6.67 5.2,-11.5 10.9,-11.5 6.1,0 8.3,5.53 8.3,6.47 0,0.5 -0.4,0.61 -0.6,0.61 -0.5,0 -0.6,-0.3 -0.7,-0.7 -1.7,-5.13 -6.2,-5.13 -6.7,-5.13 -2.5,0 -4.5,1.49 -5.6,3.33 -1.5,2.39 -1.5,5.69 -1.5,7.48 z"
           inkscape:connector-curvature="0"
           style="fill:#000000;stroke-width:0" /><path
           id="path5463"
           d="m 1129.7,423.34 v -13.36 c 0,-2.23 -0.5,-2.23 -3.9,-2.23 v -1.55 c 1.8,0.05 4.3,0.16 5.7,0.16 1.3,0 3.8,-0.11 5.5,-0.16 v 1.55 c -3.3,0 -3.8,0 -3.8,2.23 v 9.17 c 0,5.19 3.5,7.97 6.7,7.97 3.1,0 3.7,-2.69 3.7,-5.53 v -11.61 c 0,-2.23 -0.6,-2.23 -3.9,-2.23 v -1.55 c 1.7,0.05 4.3,0.16 5.6,0.16 1.3,0 3.9,-0.11 5.6,-0.16 v 1.55 c -2.6,0 -3.8,0 -3.9,1.5 v 9.51 c 0,4.28 0,5.83 -1.5,7.61 -0.7,0.86 -2.4,1.84 -5.3,1.84 -3.6,0 -6,-2.14 -7.3,-5.21 v 5.21 l -7.1,-0.54 v -1.55 c 3.5,0 3.9,-0.34 3.9,-2.78 z"
           inkscape:connector-curvature="0"
           style="fill:#000000;stroke-width:0" /><path
           id="path5465"
           d="m 1162.3,415.87 0.1,-0.02 0.2,-0.02 0.1,-0.03 0.2,-0.04 0.1,-0.04 0.2,-0.04 0.2,-0.05 0.2,-0.06 0.2,-0.06 0.2,-0.07 0.2,-0.08 0.2,-0.08 0.3,-0.1 0.2,-0.1 0.2,-0.11 0.2,-0.12 0.2,-0.14 0.2,-0.14 0.3,-0.15 0.1,-0.16 0.2,-0.18 0.2,-0.19 0.2,-0.2 0.1,-0.21 0.2,-0.22 0.1,-0.12 v -0.12 l 0.1,-0.13 v -0.12 l 0.1,-0.14 v -0.13 l 0.1,-0.14 v -0.14 -0.15 l 0.1,-0.15 v -0.16 -0.15 -0.17 -0.16 c 0,-2.53 -1.7,-4.53 -5.6,-4.53 -4.2,0 -6,2.84 -7,7.07 -0.1,0.64 -0.1,0.85 -0.7,0.85 -0.6,0 -0.6,-0.35 -0.6,-1.25 v -6.58 c 0,-0.84 0,-1.19 0.5,-1.19 0.3,0 0.3,0.05 1.3,1 0.1,0.1 0.1,0.19 1,1.14 2.2,-2.09 4.4,-2.14 5.5,-2.14 5.7,0 8,3.35 8,6.92 0,2.64 -1.5,4.14 -2.1,4.74 -1.6,1.59 -3.6,2 -5.7,2.39 -2.8,0.55 -6.1,1.2 -6.1,4.09 0,1.74 1.3,3.78 5.6,3.78 5.5,0 5.7,-4.48 5.8,-6.03 0.1,-0.45 0.5,-0.45 0.6,-0.45 0.6,0 0.6,0.25 0.6,1.2 v 5.03 c 0,0.85 0,1.19 -0.5,1.19 -0.3,0 -0.3,0 -1,-0.59 -0.1,-0.21 -0.6,-0.64 -0.9,-0.8 -1.8,1.39 -3.9,1.39 -4.6,1.39 -6.1,0 -8,-3.33 -8,-6.12 0,-1.74 0.8,-3.14 2.1,-4.24 1.6,-1.29 3,-1.59 6.6,-2.28 z"
           inkscape:connector-curvature="0"
           style="fill:#000000;stroke-width:0" /><path
           id="path5467"
           d="m 1177.2,417.71 v 1.05 c 0.3,7.42 4.5,8.66 6.2,8.66 5.1,0 5.6,-6.72 5.6,-8.66 h -11.8 v -1.05 h 13.9 c 1.1,0 1.2,0 1.2,1.05 0,4.92 -2.7,9.75 -8.9,9.75 -5.8,0 -10.4,-5.12 -10.4,-11.36 0,-6.67 5.3,-11.5 11,-11.5 6.1,0 8.3,5.53 8.3,6.47 0,0.5 -0.4,0.61 -0.6,0.61 -0.5,0 -0.6,-0.3 -0.7,-0.7 -1.7,-5.13 -6.2,-5.13 -6.7,-5.13 -2.5,0 -4.5,1.49 -5.6,3.33 -1.5,2.39 -1.5,5.69 -1.5,7.48 z"
           inkscape:connector-curvature="0"
           style="fill:#000000;stroke-width:0" /><path
           id="path5469"
           d="m 1215.9,409.98 v -0.1 -0.1 -0.19 -0.18 l -0.1,-0.17 v -0.15 -0.15 -0.13 l -0.1,-0.12 v -0.11 -0.11 l -0.1,-0.09 -0.1,-0.09 v -0.08 l -0.1,-0.07 -0.1,-0.06 -0.1,-0.05 -0.1,-0.05 -0.1,-0.05 -0.2,-0.03 -0.1,-0.04 -0.2,-0.02 -0.1,-0.03 -0.2,-0.01 -0.1,-0.01 -0.1,-0.01 -0.1,-0.01 h -0.1 l -0.1,-0.01 h -0.1 -0.1 l -0.1,-0.01 h -0.2 -0.1 -0.1 -0.1 -0.2 -0.1 -0.2 -0.1 -0.2 -0.1 v -1.55 c 1.7,0.05 4.3,0.16 5.6,0.16 1.3,0 3.9,-0.11 5.6,-0.16 v 1.55 c -3.3,0 -3.9,0 -3.9,2.23 v 9.17 c 0,5.19 3.5,7.97 6.7,7.97 3.2,0 3.7,-2.69 3.7,-5.53 v -11.61 c 0,-2.23 -0.5,-2.23 -3.9,-2.23 v -1.55 c 1.8,0.05 4.3,0.16 5.7,0.16 1.3,0 3.8,-0.11 5.6,-0.16 v 1.55 c -2.6,0 -3.9,0 -3.9,1.5 v 9.51 c 0,4.28 0,5.83 -1.6,7.61 -0.7,0.86 -2.3,1.84 -5.2,1.84 -4.2,0 -6.4,-2.98 -7.2,-4.87 v 17.44 l -7.2,-0.55 v -1.55 c 3.5,0 3.9,-0.34 3.9,-2.79 z"
           inkscape:connector-curvature="0"
           style="fill:#000000;stroke-width:0" /><path
           id="path5471"
           d="m 1243.6,417.71 0.1,1.05 c 0.3,7.42 4.5,8.66 6.2,8.66 5.1,0 5.6,-6.72 5.6,-8.66 h -11.8 l -0.1,-1.05 h 14 c 1,0 1.2,0 1.2,1.05 0,4.92 -2.7,9.75 -8.9,9.75 -5.8,0 -10.4,-5.12 -10.4,-11.36 0,-6.67 5.2,-11.5 11,-11.5 6.1,0 8.3,5.53 8.3,6.47 0,0.5 -0.4,0.61 -0.7,0.61 -0.4,0 -0.5,-0.3 -0.6,-0.7 -1.7,-5.13 -6.2,-5.13 -6.7,-5.13 -2.5,0 -4.5,1.49 -5.7,3.33 -1.5,2.39 -1.5,5.69 -1.5,7.48 z"
           inkscape:connector-curvature="0"
           style="fill:#000000;stroke-width:0" /><path
           id="path5473"
           d="m 1268.5,422.75 v 5.46 l -6.9,-0.54 v -1.55 c 3.5,0 3.9,-0.34 3.9,-2.78 v -13.36 c 0,-2.23 -0.6,-2.23 -3.9,-2.23 v -1.55 c 1.9,0.05 4.3,0.16 5.7,0.16 1.9,0 4.3,0 6.3,-0.16 v 1.55 h -1 c -3.7,0 -3.8,0.54 -3.8,2.34 v 7.67 c 0,4.92 2,9.36 5.8,9.36 0.4,0 0.5,0 0.6,-0.05 -0.2,-0.04 -1.2,-0.64 -1.2,-1.93 0,-1.41 1.1,-2.14 2.2,-2.14 0.9,0 2.1,0.59 2.1,2.18 0,1.6 -1.5,3.03 -3.7,3.03 -3.6,0 -5.4,-3.32 -6.1,-5.46 z"
           inkscape:connector-curvature="0"
           style="fill:#000000;stroke-width:0" /><path
           id="path5475"
           d="m 1285.3,417.71 v 1.05 c 0.3,7.42 4.5,8.66 6.2,8.66 5.1,0 5.6,-6.72 5.6,-8.66 h -11.8 v -1.05 h 13.9 c 1.1,0 1.2,0 1.2,1.05 0,4.92 -2.7,9.75 -8.9,9.75 -5.8,0 -10.4,-5.12 -10.4,-11.36 0,-6.67 5.3,-11.5 11,-11.5 6.1,0 8.3,5.53 8.3,6.47 0,0.5 -0.4,0.61 -0.6,0.61 -0.5,0 -0.6,-0.3 -0.7,-0.7 -1.7,-5.13 -6.2,-5.13 -6.7,-5.13 -2.5,0 -4.5,1.49 -5.6,3.33 -1.5,2.39 -1.5,5.69 -1.5,7.48 z"
           inkscape:connector-curvature="0"
           style="fill:#000000;stroke-width:0" /><path
           id="path5477"
           d="m 1334.9,394.25 v 0.02 0.03 0.01 0.02 0.01 0.02 0.01 l -0.1,0.02 v 0.02 0.02 0.02 0.03 0.02 0.03 l -0.1,0.03 v 0.03 0.03 0.04 l -0.1,0.02 v 0.02 0.02 0.02 0.02 0.03 l -0.1,0.02 v 0.02 0.03 0.02 l -0.1,0.03 v 0.03 0.03 0.03 l -0.1,0.03 v 0.03 0.03 l -0.1,0.03 v 0.04 0.03 l -0.1,0.04 v 0.03 0.04 l -0.1,0.04 c -6.2,6.28 -7.8,15.69 -7.8,23.31 0,8.67 1.9,17.35 8,23.56 0.7,0.61 0.7,0.71 0.7,0.86 0,0.35 -0.2,0.49 -0.5,0.49 -0.5,0 -5,-3.38 -7.9,-9.7 -2.6,-5.49 -3.2,-11.02 -3.2,-15.21 0,-3.89 0.6,-9.9 3.3,-15.54 3,-6.13 7.3,-9.36 7.8,-9.36 0.3,0 0.5,0.14 0.5,0.5 z"
           inkscape:connector-curvature="0"
           style="fill:#000000;stroke-width:0" /><path
           id="path5479"
           d="m 1348.2,428.21 -7.6,-0.54 v -1.55 c 3.8,0 4.3,-0.34 4.3,-2.78 v -19.73 c 0,-2.24 -0.5,-6.54 -3.7,-6.54 -0.2,0 -1.4,0 -2.6,0.66 0.7,0.2 1.7,0.89 1.7,2.23 0,1.3 -0.9,2.3 -2.3,2.3 -1.4,0 -2.3,-1 -2.3,-2.3 0,-2.57 2.8,-3.98 5.6,-3.98 3.8,0 6.9,3.19 6.9,7.73 z"
           inkscape:connector-curvature="0"
           style="fill:#000000;stroke-width:0" /><path
           id="path5481"
           d="m 1348.2,436.89 v 0.13 0.14 l -0.1,0.13 v 0.13 0.13 l -0.1,0.12 v 0.12 0.12 l -0.1,0.12 -0.1,0.11 v 0.11 l -0.1,0.11 -0.1,0.1 v 0.1 l -0.1,0.1 -0.1,0.09 -0.1,0.09 -0.1,0.08 -0.1,0.08 -0.1,0.07 -0.1,0.07 -0.1,0.07 -0.1,0.06 -0.1,0.05 -0.2,0.05 -0.1,0.04 -0.1,0.03 -0.1,0.03 -0.2,0.03 -0.1,0.01 -0.1,0.01 -0.2,0.01 c -1.4,0 -2.6,-1.19 -2.6,-2.64 0,-1.44 1.2,-2.64 2.6,-2.64 1.5,0 2.7,1.2 2.7,2.64 z"
           inkscape:connector-curvature="0"
           style="fill:#000000;stroke-width:0" /><path
           id="path5483"
           d="m 1372.4,410.14 v -4.49 l 7.2,0.55 v 1.55 c -3.5,0 -3.9,0.34 -3.9,2.78 v 17.68 l -7.3,-0.54 v -1.55 c 3.5,0 3.9,-0.34 3.9,-2.78 v -8.88 c 0,-4.32 -2.4,-7.71 -6.1,-7.71 -4.1,0 -4.3,2.34 -4.3,4.93 v 16.53 l -7.4,-0.54 v -1.55 c 3.9,0 3.9,-0.14 3.9,-4.58 v -7.47 c 0,-3.89 0,-8.42 7.6,-8.42 2.8,0 5,1.39 6.4,4.49 z"
           inkscape:connector-curvature="0"
           style="fill:#000000;stroke-width:0" /><path
           id="path5485"
           d="m 1391,415.87 0.1,-0.02 0.2,-0.02 0.1,-0.03 0.2,-0.04 0.1,-0.04 0.2,-0.04 0.2,-0.05 0.2,-0.06 0.2,-0.06 0.2,-0.07 0.2,-0.08 0.2,-0.08 0.3,-0.1 0.2,-0.1 0.2,-0.11 0.2,-0.12 0.2,-0.14 0.3,-0.14 0.2,-0.15 0.2,-0.16 0.1,-0.18 0.2,-0.19 0.2,-0.2 0.2,-0.21 0.1,-0.22 0.1,-0.12 v -0.12 l 0.1,-0.13 v -0.12 l 0.1,-0.14 v -0.13 l 0.1,-0.14 v -0.14 -0.15 l 0.1,-0.15 v -0.16 -0.15 -0.17 -0.16 c 0,-2.53 -1.7,-4.53 -5.6,-4.53 -4.2,0 -6,2.84 -7,7.07 -0.1,0.64 -0.1,0.85 -0.6,0.85 -0.7,0 -0.7,-0.35 -0.7,-1.25 v -6.58 c 0,-0.84 0,-1.19 0.5,-1.19 0.3,0 0.3,0.05 1.3,1 0.1,0.1 0.1,0.19 1,1.14 2.2,-2.09 4.4,-2.14 5.5,-2.14 5.7,0 8,3.35 8,6.92 0,2.64 -1.5,4.14 -2.1,4.74 -1.6,1.59 -3.6,2 -5.7,2.39 -2.8,0.55 -6.1,1.2 -6.1,4.09 0,1.74 1.3,3.78 5.6,3.78 5.5,0 5.7,-4.48 5.8,-6.03 0.1,-0.45 0.5,-0.45 0.6,-0.45 0.6,0 0.6,0.25 0.6,1.2 v 5.03 c 0,0.85 0,1.19 -0.5,1.19 -0.2,0 -0.3,0 -1,-0.59 -0.1,-0.21 -0.6,-0.64 -0.8,-0.8 -1.9,1.39 -4,1.39 -4.7,1.39 -6.1,0 -8,-3.33 -8,-6.12 0,-1.74 0.8,-3.14 2.1,-4.24 1.6,-1.29 3,-1.59 6.6,-2.28 z"
           inkscape:connector-curvature="0"
           style="fill:#000000;stroke-width:0" /><path
           id="path5487"
           d="m 1409,426.12 h 7.1 v 1.55 h -7.1 v 9.17 h -1.3 c 0,-4.08 -1.5,-9.42 -6.4,-9.61 v -1.11 h 4.2 v -13.75 c 0,-6.12 4.7,-6.72 6.4,-6.72 3.6,0 5,3.53 5,6.72 v 2.84 h -1.3 v -2.73 c 0,-3.69 -1.5,-5.58 -3.3,-5.58 -3.3,0 -3.3,4.53 -3.3,5.38 z"
           inkscape:connector-curvature="0"
           style="fill:#000000;stroke-width:0" /><path
           id="path5489"
           d="m 1445,426.12 h 7.1 v 1.55 h -7.1 v 9.17 h -1.3 c 0,-4.08 -1.5,-9.42 -6.4,-9.61 v -1.11 h 4.2 v -13.75 c 0,-6.12 4.7,-6.72 6.4,-6.72 3.6,0 5,3.53 5,6.72 v 2.84 h -1.3 v -2.73 c 0,-3.69 -1.5,-5.58 -3.3,-5.58 -3.3,0 -3.3,4.53 -3.3,5.38 z"
           inkscape:connector-curvature="0"
           style="fill:#000000;stroke-width:0" /><path
           id="path5491"
           d="m 1464,422.75 v 5.46 l -7,-0.54 v -1.55 c 3.5,0 3.9,-0.34 3.9,-2.78 v -13.36 c 0,-2.23 -0.5,-2.23 -3.9,-2.23 v -1.55 c 2,0.05 4.3,0.16 5.7,0.16 2,0 4.4,0 6.4,-0.16 v 1.55 h -1.1 c -3.7,0 -3.8,0.54 -3.8,2.34 v 7.67 c 0,4.92 2.1,9.36 5.9,9.36 0.3,0 0.4,0 0.6,-0.05 -0.2,-0.04 -1.2,-0.64 -1.2,-1.93 0,-1.41 1,-2.14 2.2,-2.14 0.8,0 2.1,0.59 2.1,2.18 0,1.6 -1.6,3.03 -3.7,3.03 -3.6,0 -5.4,-3.32 -6.1,-5.46 z"
           inkscape:connector-curvature="0"
           style="fill:#000000;stroke-width:0" /><path
           id="path5493"
           d="m 1495.9,422.93 v 0.15 l 0.1,0.14 0.1,0.14 v 0.13 l 0.1,0.12 0.1,0.13 v 0.12 l 0.1,0.11 0.2,0.22 0.1,0.2 0.2,0.19 0.1,0.18 0.2,0.16 0.2,0.14 0.1,0.14 0.2,0.12 0.2,0.11 0.2,0.1 0.1,0.09 0.2,0.09 0.2,0.07 0.1,0.06 0.2,0.05 0.1,0.05 0.2,0.04 0.2,0.03 0.1,0.03 0.1,0.02 0.2,0.02 0.1,0.02 0.1,0.01 h 0.1 l 0.2,0.01 h 0.1 v 0 h 0.1 v 1.55 c -1.1,-0.1 -2.6,-0.14 -3.7,-0.14 -0.9,0 -3.3,0.09 -4.4,0.14 v -1.55 c 1.6,-0.05 2.4,-0.89 2.4,-2.14 0,-0.5 -0.1,-0.59 -0.3,-1.19 l -5,-12.26 -5.6,13.4 c -0.2,0.5 -0.3,0.71 -0.3,0.91 0,1.28 1.9,1.28 2.8,1.28 v 1.55 c -1.3,-0.05 -4.6,-0.14 -5.4,-0.14 -1.3,0 -3.3,0.04 -4.8,0.14 v -1.55 c 2.4,0 3.3,0 4,-1.73 l 7.5,-18.19 c -0.3,-0.64 -1,-2.3 -1.3,-2.94 -1.1,-2.73 -2.5,-6.19 -5.7,-6.19 -0.2,0 -1.4,0 -2.3,0.91 1.5,0.2 1.9,1.3 1.9,2.09 0,1.3 -0.9,2.1 -2,2.1 -1,0 -2.1,-0.66 -2.1,-2.14 0,-2.25 2.1,-4.05 4.5,-4.05 3.2,0 5.2,2.84 6.4,5.69 z"
           inkscape:connector-curvature="0"
           style="fill:#000000;stroke-width:0" /><path
           id="path5495"
           d="m 1510.3,428.21 -7,-0.54 v -1.55 c 3.3,0 3.7,-0.3 3.7,-2.73 v -13.41 c 0,-2.23 -0.5,-2.23 -3.9,-2.23 v -1.55 c 1.6,0.05 4.3,0.16 5.5,0.16 1.8,0 3.5,-0.11 5.2,-0.16 v 1.55 c -3.3,0 -3.5,0.25 -3.5,2.18 z"
           inkscape:connector-curvature="0"
           style="fill:#000000;stroke-width:0" /><path
           id="path5497"
           d="m 1510.5,436.89 v 0.14 0.15 0.14 l -0.1,0.14 v 0.13 0.13 l -0.1,0.13 v 0.12 l -0.1,0.12 v 0.12 l -0.1,0.11 -0.1,0.1 v 0.1 l -0.1,0.1 -0.1,0.1 -0.1,0.08 -0.1,0.09 -0.1,0.08 -0.1,0.07 -0.1,0.07 -0.1,0.07 -0.1,0.06 -0.1,0.05 -0.1,0.05 -0.2,0.04 -0.1,0.04 -0.1,0.03 -0.1,0.03 -0.2,0.02 -0.1,0.01 -0.1,0.01 -0.1,0.01 c -1.6,0 -2.7,-1.35 -2.7,-2.64 0,-1.35 1.1,-2.64 2.7,-2.64 1.3,0 2.6,1.04 2.6,2.64 z"
           inkscape:connector-curvature="0"
           style="fill:#000000;stroke-width:0" /><path
           id="path5499"
           d="m 1520.8,423.34 v -13.36 c 0,-2.23 -0.6,-2.23 -3.9,-2.23 v -1.55 c 1.7,0.05 4.3,0.16 5.6,0.16 1.3,0 3.9,-0.11 5.6,-0.16 v 1.55 c -3.3,0 -3.9,0 -3.9,2.23 v 9.17 c 0,5.19 3.5,7.97 6.7,7.97 3.2,0 3.7,-2.69 3.7,-5.53 v -11.61 c 0,-2.23 -0.5,-2.23 -3.9,-2.23 v -1.55 c 1.8,0.05 4.3,0.16 5.7,0.16 1.3,0 3.8,-0.11 5.5,-0.16 v 1.55 c -2.6,0 -3.8,0 -3.8,1.5 v 9.51 c 0,4.28 0,5.83 -1.6,7.61 -0.7,0.86 -2.3,1.84 -5.2,1.84 -3.7,0 -6,-2.14 -7.4,-5.21 v 5.21 l -7,-0.54 v -1.55 c 3.5,0 3.9,-0.34 3.9,-2.78 z"
           inkscape:connector-curvature="0"
           style="fill:#000000;stroke-width:0" /><path
           id="path5501"
           d="m 1548.3,412.82 v 0.03 0.02 0.03 0.04 0.04 0.05 0.05 0.06 0.05 0.07 0.06 0.07 0.07 l 0.1,0.08 v 0.08 0.08 0.08 0.08 l 0.1,0.09 v 0.09 0.09 l 0.1,0.09 v 0.09 0.1 l 0.1,0.09 v 0.1 l 0.1,0.09 0.1,0.1 v 0.09 l 0.1,0.1 0.1,0.09 v 0.1 c 2,-1.39 4,-1.55 5,-1.55 v 1.14 c -4.4,0 -4.4,4.99 -4.4,6.14 0,1.35 0.1,2.94 0.8,4.17 0.4,0.61 1.6,2 3.6,2 4.3,0 4.3,-4.98 4.3,-6.12 0,-1.34 -0.1,-2.94 -0.8,-4.19 -0.4,-0.59 -1.5,-2 -3.5,-2 v 0 -1.14 c 4.6,0 8,3.44 8,7.28 0,1.85 -0.8,3.69 -2,4.83 1.8,1.69 3.6,1.94 4.5,1.94 0.1,0 0.3,0 0.5,-0.05 -0.6,-0.2 -0.8,-0.75 -0.8,-1.34 0,-0.85 0.6,-1.44 1.4,-1.44 0.5,0 1.5,0.34 1.5,1.48 0,0.85 -0.6,2.44 -2.6,2.44 -1,0 -3.2,-0.3 -5.3,-2.33 -2.1,1.64 -4.1,1.78 -5.2,1.78 -4.7,0 -8.1,-3.43 -8.1,-7.26 0,-2.19 1.1,-4.09 2.3,-5.14 -0.6,-0.74 -1.5,-2.39 -1.5,-4.13 0,-1.54 0.6,-3.43 2.2,-4.43 -3,-0.85 -4.6,-2.99 -4.6,-4.99 0,-3.58 4.9,-6.33 11,-6.33 l 0.1,1.14 c -5.1,0 -8.5,2.55 -8.5,5.19 0,2.3 1.9,4.14 4.1,4.28 h 2.9 c 4.3,0 9.9,0 9.9,-4.28 0,-2.69 -3.6,-5.19 -8.4,-5.19 v 0 l -0.1,-1.14 c 5.9,0 11.1,2.55 11.1,6.43 0,1.75 -0.7,4.29 -3.3,5.68 -2.6,1.39 -5.5,1.39 -8.5,1.39 -1.3,0 -3.4,0 -3.8,0.05 -1.6,0.2 -2.6,1.75 -2.6,3.34 z"
           inkscape:connector-curvature="0"
           style="fill:#000000;stroke-width:0" /><path
           id="path5503"
           d="m 1615.2,422.93 0.1,0.23 0.1,0.22 0.1,0.21 0.1,0.2 0.1,0.18 0.1,0.18 0.1,0.17 0.1,0.16 0.1,0.15 0.2,0.14 0.1,0.13 0.1,0.13 0.1,0.11 0.2,0.11 0.1,0.1 0.1,0.1 0.2,0.08 0.1,0.08 0.1,0.08 0.2,0.06 0.1,0.06 0.2,0.05 0.1,0.05 0.2,0.04 0.1,0.04 0.2,0.03 0.1,0.03 0.2,0.02 0.1,0.02 0.2,0.01 0.2,0.01 0.1,0.01 v 1.55 c -1.1,-0.1 -2.5,-0.14 -3.6,-0.14 -1.5,0 -3.7,0.09 -4.6,0.14 v -1.55 c 1.7,-0.05 2.8,-0.94 2.8,-2.39 0,-0.3 0,-0.39 -0.2,-1.05 l -4.5,-12.75 -5,13.91 c -0.2,0.59 -0.2,0.69 -0.2,0.94 0,1.34 1.9,1.34 2.9,1.34 v 1.55 c -1.4,-0.05 -4,-0.14 -5.2,-0.14 -1.5,0 -2.9,0.04 -4.4,0.14 v -1.55 c 1.8,0 2.6,-0.09 3.1,-0.73 0.3,-0.32 0.8,-1.8 1.2,-2.75 l -4.3,-12.05 -4.7,13.3 c -0.3,0.59 -0.3,0.7 -0.3,0.89 0,1.34 2,1.34 3,1.34 v 1.55 c -1.5,-0.05 -4.3,-0.14 -5.5,-0.14 -0.2,0 -2.8,0.04 -4.6,0.14 v -1.55 c 2.5,0 3.1,-0.14 3.7,-1.73 l 6.3,-17.64 c 0.2,-0.71 0.4,-1.1 1,-1.1 0.7,0 0.8,0.3 1,1 l 5,14.1 5.1,-14.14 c 0.2,-0.57 0.4,-0.96 1,-0.96 0.7,0 0.8,0.46 1,0.96 z"
           inkscape:connector-curvature="0"
           style="fill:#000000;stroke-width:0" /><path
           id="path5505"
           d="m 1642.4,416.86 v 0.59 0.59 l -0.1,0.58 -0.1,0.57 -0.1,0.56 -0.2,0.55 -0.1,0.54 -0.2,0.53 -0.3,0.51 -0.2,0.5 -0.3,0.49 -0.3,0.47 -0.3,0.46 -0.3,0.44 -0.3,0.43 -0.4,0.4 -0.4,0.39 -0.4,0.37 -0.4,0.35 -0.4,0.32 -0.5,0.31 -0.5,0.28 -0.4,0.26 -0.5,0.24 -0.5,0.21 -0.5,0.18 -0.6,0.16 -0.5,0.13 -0.5,0.11 -0.6,0.07 -0.5,0.05 -0.6,0.01 v -1.09 c 2.2,0 4.3,-1.1 5.6,-3.24 1.3,-2.14 1.3,-5.03 1.3,-6.92 0,-1.8 0,-4.48 -1.1,-6.67 -1.1,-2.25 -3.3,-3.69 -5.8,-3.69 v 0 c -2.1,0 -4.3,1.05 -5.7,3.33 -1.2,2.2 -1.2,5.23 -1.2,7.03 0,1.94 0,4.63 1.2,6.83 1.3,2.28 3.7,3.33 5.7,3.33 v 1.09 c -6.2,0 -11.1,-5.42 -11.1,-11.65 0,-6.43 5.2,-11.21 11.1,-11.21 6,0 11,4.88 11,11.21 z"
           inkscape:connector-curvature="0"
           style="fill:#000000;stroke-width:0" /><path
           id="path5507"
           d="m 1663.4,410.14 v -4.49 l 7.2,0.55 v 1.55 c -3.5,0 -3.9,0.34 -3.9,2.78 v 17.68 l -7.3,-0.54 v -1.55 c 3.5,0 3.8,-0.34 3.8,-2.78 v -8.88 c 0,-4.32 -2.3,-7.71 -6,-7.71 -4.2,0 -4.4,2.34 -4.4,4.93 v 16.53 l -7.3,-0.54 v -1.55 c 3.9,0 3.9,-0.14 3.9,-4.58 v -7.47 c 0,-3.89 0,-8.42 7.6,-8.42 2.8,0 4.9,1.39 6.4,4.49 z"
           inkscape:connector-curvature="0"
           style="fill:#000000;stroke-width:0" /><path
           id="path5509"
           d="m 1680.4,440.78 -7.1,-0.55 v -1.55 c 3.5,0 3.9,-0.34 3.9,-2.79 v -25.91 c 0,-2.23 -0.6,-2.23 -3.9,-2.23 v -1.55 c 1.6,0.05 4.3,0.16 5.5,0.16 1.3,0 3.7,-0.11 5.5,-0.16 v 1.55 c -3.3,0 -3.9,0 -3.9,2.23 z"
           inkscape:connector-curvature="0"
           style="fill:#000000;stroke-width:0" /><path
           id="path5511"
           d="m 1704.4,408.93 v -3.28 l 7.3,0.55 v 1.55 c -3.5,0 -3.9,0.34 -3.9,2.78 v 30.25 l -7.2,-0.55 v -1.55 c 3.5,0 3.9,-0.34 3.9,-2.79 v -10.75 c -1.4,1.78 -3.6,3.07 -6.3,3.07 l 0.2,-1.09 c 1.8,0 3.9,-0.75 5.4,-2.98 0.6,-0.85 0.6,-0.96 0.6,-1.85 v 0 -10.22 c 0,-0.89 0,-1 -0.6,-1.84 -1.5,-2.39 -3.7,-3.48 -5.9,-3.48 -2.2,0 -4,1.29 -5.2,3.18 -1.3,2.05 -1.4,4.89 -1.4,6.93 0,1.84 0.1,4.84 1.5,7.07 1.1,1.55 3,3.19 5.6,3.19 l -0.2,1.09 c -5.8,0 -11.1,-4.87 -11.1,-11.29 0,-6.33 4.9,-11.27 10.6,-11.27 3.2,0 5.4,1.69 6.7,3.28 z"
           inkscape:connector-curvature="0"
           style="fill:#000000;stroke-width:0" /><path
           id="path5513"
           d="m 1746.3,409.98 v -0.19 l 0.1,-0.18 v -0.19 -0.18 l 0.1,-0.19 v -0.18 l 0.1,-0.18 0.1,-0.18 v -0.18 l 0.1,-0.17 0.1,-0.18 0.1,-0.16 0.1,-0.16 0.1,-0.16 0.1,-0.16 0.2,-0.14 0.1,-0.14 0.1,-0.14 0.1,-0.13 0.2,-0.12 0.1,-0.12 0.2,-0.1 0.2,-0.1 0.1,-0.09 0.2,-0.08 0.2,-0.07 0.2,-0.06 0.2,-0.05 0.2,-0.04 0.2,-0.03 0.2,-0.02 0.2,-0.01 c 1,0 4.1,0.71 4.1,4.74 v 2.78 h -1.3 v -2.78 c 0,-2.89 -1.2,-3.19 -1.8,-3.19 -1.6,0 -1.8,2.23 -1.8,2.48 v 9.97 c 0,2.1 0,4.03 -1.8,5.88 -1.9,1.93 -4.4,2.73 -6.8,2.73 -4.1,0 -7.6,-2.33 -7.6,-5.62 0,-1.49 1,-2.35 2.3,-2.35 1.4,0 2.3,1 2.3,2.3 0,0.59 -0.2,2.23 -2.5,2.3 1.3,1.73 3.8,2.28 5.4,2.28 2.4,0 5.2,-1.94 5.2,-6.38 v -1.84 -1.05 -4.98 c 0,-4.74 -3.5,-6.42 -5.8,-6.42 -2.4,0 -4.5,1.75 -4.5,4.23 0,2.73 2.1,6.88 10.3,7.17 v 0 1.05 c -2.5,-0.14 -6,-0.3 -9.1,-1.8 -3.7,-1.69 -5,-4.28 -5,-6.47 0,-4.03 4.8,-5.28 8,-5.28 3.3,0 5.6,1.99 6.5,4.33 z"
           inkscape:connector-curvature="0"
           style="fill:#000000;stroke-width:0" /><path
           id="path5515"
           d="m 1763.5,440.78 -7.2,-0.55 v -1.55 c 3.5,0 3.9,-0.34 3.9,-2.79 v -25.91 c 0,-2.23 -0.5,-2.23 -3.9,-2.23 v -1.55 c 1.6,0.05 4.3,0.16 5.5,0.16 1.3,0 3.7,-0.11 5.6,-0.16 v 1.55 c -3.4,0 -3.9,0 -3.9,2.23 z"
           inkscape:connector-curvature="0"
           style="fill:#000000;stroke-width:0" /><path
           id="path5517"
           d="m 1778.8,415.87 0.1,-0.02 0.2,-0.02 0.1,-0.03 0.2,-0.04 0.1,-0.04 0.2,-0.04 0.2,-0.05 0.2,-0.06 0.2,-0.06 0.2,-0.07 0.2,-0.08 0.3,-0.08 0.2,-0.1 0.2,-0.1 0.2,-0.11 0.2,-0.12 0.2,-0.14 0.3,-0.14 0.2,-0.15 0.2,-0.16 0.2,-0.18 0.1,-0.19 0.2,-0.2 0.2,-0.21 0.1,-0.22 0.1,-0.12 v -0.12 l 0.1,-0.13 v -0.12 l 0.1,-0.14 v -0.13 l 0.1,-0.14 v -0.14 -0.15 l 0.1,-0.15 v -0.16 -0.15 -0.17 -0.16 c 0,-2.53 -1.7,-4.53 -5.6,-4.53 -4.2,0 -6,2.84 -7,7.07 -0.1,0.64 -0.1,0.85 -0.6,0.85 -0.7,0 -0.7,-0.35 -0.7,-1.25 v -6.58 c 0,-0.84 0,-1.19 0.6,-1.19 0.2,0 0.2,0.05 1.2,1 0.1,0.1 0.1,0.19 1,1.14 2.2,-2.09 4.4,-2.14 5.5,-2.14 5.7,0 8,3.35 8,6.92 0,2.64 -1.5,4.14 -2.1,4.74 -1.6,1.59 -3.6,2 -5.7,2.39 -2.8,0.55 -6.1,1.2 -6.1,4.09 0,1.74 1.3,3.78 5.6,3.78 5.5,0 5.7,-4.48 5.8,-6.03 0.1,-0.45 0.5,-0.45 0.6,-0.45 0.7,0 0.7,0.25 0.7,1.2 v 5.03 c 0,0.85 0,1.19 -0.6,1.19 -0.2,0 -0.3,0 -1,-0.59 -0.1,-0.21 -0.6,-0.64 -0.8,-0.8 -1.9,1.39 -4,1.39 -4.7,1.39 -6.1,0 -8,-3.33 -8,-6.12 0,-1.74 0.8,-3.14 2.1,-4.24 1.6,-1.29 3,-1.59 6.6,-2.28 z"
           inkscape:connector-curvature="0"
           style="fill:#000000;stroke-width:0" /><path
           id="path5519"
           d="m 1811.6,416.86 v 0.59 0.59 l -0.1,0.58 -0.1,0.57 -0.1,0.56 -0.2,0.55 -0.2,0.54 -0.2,0.53 -0.2,0.51 -0.2,0.5 -0.3,0.49 -0.3,0.47 -0.3,0.46 -0.3,0.44 -0.4,0.43 -0.3,0.4 -0.4,0.39 -0.4,0.37 -0.4,0.35 -0.5,0.32 -0.4,0.31 -0.5,0.28 -0.4,0.26 -0.5,0.24 -0.5,0.21 -0.5,0.18 -0.6,0.16 -0.5,0.13 -0.5,0.11 -0.6,0.07 -0.5,0.05 -0.6,0.01 v -1.09 c 2.1,0 4.3,-1.1 5.6,-3.24 1.3,-2.14 1.3,-5.03 1.3,-6.92 0,-1.8 0,-4.48 -1.1,-6.67 -1.1,-2.25 -3.3,-3.69 -5.8,-3.69 v 0 c -2.1,0 -4.3,1.05 -5.7,3.33 -1.2,2.2 -1.2,5.23 -1.2,7.03 0,1.94 0,4.63 1.2,6.83 1.3,2.28 3.7,3.33 5.7,3.33 v 1.09 c -6.2,0 -11.1,-5.42 -11.1,-11.65 0,-6.43 5.2,-11.21 11.1,-11.21 6,0 11,4.88 11,11.21 z"
           inkscape:connector-curvature="0"
           style="fill:#000000;stroke-width:0" /><path
           id="path5521"
           d="m 1860.5,422.93 0.1,0.23 0.1,0.22 0.1,0.21 0.1,0.2 0.1,0.18 0.1,0.18 0.1,0.17 0.1,0.16 0.1,0.15 0.1,0.14 0.1,0.13 0.2,0.13 0.1,0.11 0.1,0.11 0.1,0.1 0.2,0.1 0.1,0.08 0.2,0.08 0.1,0.08 0.1,0.06 0.2,0.06 0.1,0.05 0.2,0.05 0.1,0.04 0.2,0.04 0.1,0.03 0.2,0.03 0.2,0.02 0.1,0.02 0.2,0.01 0.1,0.01 0.2,0.01 v 1.55 c -1.1,-0.1 -2.5,-0.14 -3.6,-0.14 -1.5,0 -3.7,0.09 -4.7,0.14 v -1.55 c 1.8,-0.05 2.9,-0.94 2.9,-2.39 0,-0.3 0,-0.39 -0.2,-1.05 l -4.6,-12.75 -4.9,13.91 c -0.2,0.59 -0.3,0.69 -0.3,0.94 0,1.34 2,1.34 3,1.34 v 1.55 c -1.5,-0.05 -4,-0.14 -5.2,-0.14 -1.5,0 -2.9,0.04 -4.4,0.14 v -1.55 c 1.8,0 2.6,-0.09 3.1,-0.73 0.3,-0.32 0.8,-1.8 1.1,-2.75 l -4.2,-12.05 -4.8,13.3 c -0.2,0.59 -0.2,0.7 -0.2,0.89 0,1.34 1.9,1.34 2.9,1.34 v 1.55 c -1.5,-0.05 -4.3,-0.14 -5.4,-0.14 -0.2,0 -2.9,0.04 -4.6,0.14 v -1.55 c 2.5,0 3.1,-0.14 3.6,-1.73 l 6.3,-17.64 c 0.3,-0.71 0.4,-1.1 1.1,-1.1 0.6,0 0.7,0.3 1,1 l 5,14.1 5.1,-14.14 c 0.2,-0.57 0.3,-0.96 1,-0.96 0.6,0 0.8,0.46 1,0.96 z"
           inkscape:connector-curvature="0"
           style="fill:#000000;stroke-width:0" /><path
           id="path5523"
           d="m 1887.7,416.86 v 0.59 l -0.1,0.59 v 0.58 l -0.1,0.57 -0.2,0.56 -0.1,0.55 -0.2,0.54 -0.2,0.53 -0.2,0.51 -0.2,0.5 -0.3,0.49 -0.3,0.47 -0.3,0.46 -0.3,0.44 -0.4,0.43 -0.4,0.4 -0.3,0.39 -0.4,0.37 -0.5,0.35 -0.4,0.32 -0.4,0.31 -0.5,0.28 -0.5,0.26 -0.5,0.24 -0.5,0.21 -0.5,0.18 -0.5,0.16 -0.5,0.13 -0.6,0.11 -0.5,0.07 -0.6,0.05 -0.5,0.01 -0.1,-1.09 c 2.2,0 4.4,-1.1 5.6,-3.24 1.4,-2.14 1.4,-5.03 1.4,-6.92 0,-1.8 0,-4.48 -1.1,-6.67 -1.1,-2.25 -3.3,-3.69 -5.8,-3.69 v 0 c -2.2,0 -4.4,1.05 -5.7,3.33 -1.2,2.2 -1.2,5.23 -1.2,7.03 0,1.94 0,4.63 1.1,6.83 1.4,2.28 3.7,3.33 5.7,3.33 l 0.1,1.09 c -6.2,0 -11.1,-5.42 -11.1,-11.65 0,-6.43 5.2,-11.21 11,-11.21 6.1,0 11.1,4.88 11.1,11.21 z"
           inkscape:connector-curvature="0"
           style="fill:#000000;stroke-width:0" /><path
           id="path5525"
           d="m 1897.5,422.75 v 5.46 l -6.9,-0.54 v -1.55 c 3.5,0 3.9,-0.34 3.9,-2.78 v -13.36 c 0,-2.23 -0.6,-2.23 -3.9,-2.23 v -1.55 c 1.9,0.05 4.2,0.16 5.7,0.16 1.9,0 4.3,0 6.3,-0.16 v 1.55 h -1.1 c -3.7,0 -3.8,0.54 -3.8,2.34 v 7.67 c 0,4.92 2.1,9.36 5.9,9.36 0.4,0 0.5,0 0.6,-0.05 -0.2,-0.04 -1.2,-0.64 -1.2,-1.93 0,-1.41 1.1,-2.14 2.2,-2.14 0.9,0 2.1,0.59 2.1,2.18 0,1.6 -1.5,3.03 -3.7,3.03 -3.6,0 -5.4,-3.32 -6.1,-5.46 z"
           inkscape:connector-curvature="0"
           style="fill:#000000;stroke-width:0" /><path
           id="path5527"
           d="m 1914,409.98 v -0.1 -0.1 -0.19 -0.18 -0.17 -0.15 l -0.1,-0.15 v -0.13 -0.12 l -0.1,-0.11 v -0.11 l -0.1,-0.09 v -0.09 l -0.1,-0.08 -0.1,-0.07 -0.1,-0.06 -0.1,-0.05 -0.1,-0.05 -0.1,-0.05 -0.1,-0.03 -0.2,-0.04 -0.1,-0.02 -0.2,-0.03 -0.2,-0.01 -0.1,-0.01 -0.1,-0.01 -0.1,-0.01 h -0.1 l -0.1,-0.01 h -0.1 -0.1 l -0.1,-0.01 h -0.1 -0.1 -0.2 -0.1 -0.1 -0.2 -0.1 -0.2 -0.1 -0.2 v -1.55 c 1.7,0.05 4,0.16 5.5,0.16 1.5,0 3.5,-0.07 5.5,-0.16 v 1.55 c -3.4,0 -3.9,0 -3.9,2.23 v 5.14 l 3.1,2.74 c 3.9,-5.29 6,-8.07 6,-8.97 0,-0.94 -0.9,-1.14 -1.8,-1.14 v -1.55 c 1.4,0.05 4.3,0.16 5.4,0.16 1.4,0 2.9,-0.07 4.3,-0.16 v 1.55 c -1.9,0 -3,0 -4.8,2.64 l -6.4,8.92 c 0,0.09 -0.3,0.39 -0.3,0.55 0,0.18 3.6,3.18 4.1,3.57 3.1,2.55 5.2,2.64 6.3,2.69 v 1.55 c -1.5,-0.14 -2.1,-0.14 -3.5,-0.14 -1.8,0 -4.9,0.09 -5.6,0.14 v -1.55 c 0.9,-0.05 1.4,-0.59 1.4,-1.23 0,-1 -0.7,-1.6 -1.1,-1.96 l -7,-6.07 v 23.92 l -7.2,-0.55 v -1.55 c 3.5,0 3.9,-0.34 3.9,-2.79 z"
           inkscape:connector-curvature="0"
           style="fill:#000000;stroke-width:0" /><path
           id="path5529"
           d="m 1949.4,418.65 v 0.37 0.39 0.39 0.41 l -0.1,0.84 v 0.88 l -0.1,0.92 -0.1,0.95 -0.1,0.97 -0.2,1.01 -0.2,1.02 -0.2,1.03 -0.3,1.05 -0.3,1.06 -0.4,1.07 -0.3,1.07 -0.3,0.53 -0.2,0.53 -0.2,0.53 -0.3,0.53 c -3,6.12 -7.2,9.36 -7.7,9.36 -0.3,0 -0.5,-0.19 -0.5,-0.49 0,-0.15 0,-0.25 0.9,-1.15 4.9,-4.92 7.7,-12.85 7.7,-23.27 0,-8.51 -1.8,-17.28 -8,-23.56 -0.6,-0.59 -0.6,-0.7 -0.6,-0.84 0,-0.3 0.2,-0.5 0.5,-0.5 0.5,0 4.9,3.39 7.9,9.71 2.5,5.47 3.1,11 3.1,15.19 z"
           inkscape:connector-curvature="0"
           style="fill:#000000;stroke-width:0" /></g>    </g>
  </g>
</svg>
