<?xml version="1.0" encoding="UTF-8" standalone="no"?>
<!-- Created with Inkscape (http://www.inkscape.org/) -->

<svg
   xmlns:dc="http://purl.org/dc/elements/1.1/"
   xmlns:cc="http://creativecommons.org/ns#"
   xmlns:rdf="http://www.w3.org/1999/02/22-rdf-syntax-ns#"
   xmlns:svg="http://www.w3.org/2000/svg"
   xmlns="http://www.w3.org/2000/svg"
   xmlns:sodipodi="http://sodipodi.sourceforge.net/DTD/sodipodi-0.dtd"
   xmlns:inkscape="http://www.inkscape.org/namespaces/inkscape"
   width="532mm"
   height="34.210533mm"
   viewBox="0 0 532 34.210533"
   version="1.1"
   id="svg9190"
   inkscape:version="0.92.5 (2060ec1f9f, 2020-04-08)"
   sodipodi:docname="solution_2_e1b.svg">
  <defs
     id="defs9184" />
  <sodipodi:namedview
     id="base"
     pagecolor="#ffffff"
     bordercolor="#666666"
     borderopacity="1.0"
     inkscape:pageopacity="0.0"
     inkscape:pageshadow="2"
     inkscape:zoom="0.35"
     inkscape:cx="649.64003"
     inkscape:cy="-760.81705"
     inkscape:document-units="mm"
     inkscape:current-layer="layer1"
     showgrid="false"
     fit-margin-top="0"
     fit-margin-left="0"
     fit-margin-right="0"
     fit-margin-bottom="0"
     inkscape:window-width="1684"
     inkscape:window-height="1376"
     inkscape:window-x="72"
     inkscape:window-y="27"
     inkscape:window-maximized="0" />
  <metadata
     id="metadata9187">
    <rdf:RDF>
      <cc:Work
         rdf:about="">
        <dc:format>image/svg+xml</dc:format>
        <dc:type
           rdf:resource="http://purl.org/dc/dcmitype/StillImage" />
        <dc:title></dc:title>
      </cc:Work>
    </rdf:RDF>
  </metadata>
  <g
     inkscape:label="Layer 1"
     inkscape:groupmode="layer"
     id="layer1"
     transform="translate(204.76785,86.676712)">
    <rect
       style="fill:#ffffff;fill-opacity:1;stroke:none;stroke-width:0.5;stroke-miterlimit:4;stroke-dasharray:none;stroke-opacity:1"
       id="rect5597"
       width="532"
       height="34.210533"
       x="-204.76785"
       y="-86.676712" />
    <g
       id="g1758"
       transform="translate(-286.35086,-167.62345)">
      <g
         word-spacing="normal"
         letter-spacing="normal"
         font-size-adjust="none"
         font-stretch="normal"
         font-weight="normal"
         font-variant="normal"
         font-style="normal"
         stroke-miterlimit="10.433"
         xml:space="preserve"
         transform="matrix(0.3,0,0,-0.3,-52.5,222.75)"
         id="g1756"
         style="font-style:normal;font-variant:normal;font-weight:normal;font-stretch:normal;letter-spacing:normal;word-spacing:normal;text-anchor:start;fill:none;fill-opacity:1;fill-rule:evenodd;stroke:#000000;stroke-linecap:butt;stroke-linejoin:miter;stroke-miterlimit:10.43299961;stroke-dasharray:none;stroke-dashoffset:0;stroke-opacity:1"><path
           id="path1596"
           d="m 470.61,416.55 0.21,1.28 3.39,13.56 c 0.43,1.74 0.54,1.9 2.68,1.9 h 4.79 c 4.14,0 6.78,-1.35 6.78,-4.79 0,-1.95 -1,-6.23 -2.94,-8.03 -2.5,-2.23 -5.48,-2.64 -7.69,-2.64 h -7.01 l -0.21,-1.28 h 8.47 c 7.08,0 14,5.17 14,10.75 0,3.84 -3.28,7.53 -9.81,7.53 h -16.14 c -0.95,0 -1.5,0 -1.5,-0.95 0,-0.59 0.45,-0.59 1.45,-0.59 0.64,0 1.55,-0.05 2.14,-0.1 0.8,-0.11 1.1,-0.25 1.1,-0.8 0,-0.2 -0.05,-0.35 -0.21,-0.95 l -6.67,-26.75 c -0.5,-1.95 -0.59,-2.34 -4.53,-2.34 -0.84,0 -1.39,0 -1.39,-0.96 0,-0.59 0.59,-0.59 0.73,-0.59 1.41,0 4.94,0.16 6.33,0.16 1.05,0 2.14,-0.07 3.19,-0.07 1.11,0 2.2,-0.09 3.25,-0.09 0.34,0 0.98,0 0.98,1 0,0.55 -0.43,0.55 -1.39,0.55 -1.84,0 -3.23,0 -3.23,0.89 0,0.3 0.09,0.55 0.14,0.84 z"
           inkscape:connector-curvature="0"
           style="fill:#000000;stroke-width:0" /><path
           id="path1598"
           d="m 511,388.85 v 0.02 0.03 0.01 0.02 0.01 l -0.01,0.02 v 0.02 l -0.01,0.01 -0.01,0.02 -0.01,0.02 -0.01,0.02 -0.02,0.03 -0.01,0.02 -0.02,0.03 -0.02,0.03 -0.03,0.03 -0.02,0.04 -0.03,0.03 -0.02,0.02 -0.01,0.02 -0.02,0.02 -0.02,0.02 -0.02,0.02 -0.02,0.03 -0.02,0.02 -0.02,0.02 -0.02,0.03 -0.03,0.03 -0.02,0.02 -0.03,0.03 -0.03,0.03 -0.02,0.03 -0.03,0.03 -0.03,0.03 -0.03,0.03 -0.03,0.03 -0.04,0.04 -0.03,0.03 -0.04,0.04 -0.03,0.03 -0.04,0.04 -0.04,0.04 c -6.22,6.28 -7.81,15.69 -7.81,23.31 0,8.68 1.89,17.35 8.01,23.57 0.64,0.61 0.64,0.7 0.64,0.86 0,0.34 -0.18,0.48 -0.48,0.48 -0.5,0 -4.98,-3.37 -7.92,-9.7 -2.55,-5.49 -3.14,-11.02 -3.14,-15.21 0,-3.89 0.54,-9.9 3.28,-15.54 2.98,-6.13 7.28,-9.36 7.78,-9.36 0.3,0 0.48,0.14 0.48,0.5 z"
           inkscape:connector-curvature="0"
           style="fill:#000000;stroke-width:0" /><path
           id="path1600"
           d="m 532.48,430.94 0.04,0.17 0.04,0.15 0.04,0.15 0.04,0.15 0.04,0.13 0.04,0.13 0.05,0.13 0.06,0.12 0.06,0.11 0.06,0.1 0.07,0.1 0.08,0.09 0.09,0.09 0.1,0.08 0.11,0.08 0.12,0.07 0.14,0.06 0.14,0.06 0.17,0.06 0.17,0.05 0.1,0.02 0.09,0.02 0.11,0.02 0.1,0.02 0.12,0.02 0.11,0.02 0.12,0.02 0.13,0.01 0.13,0.02 0.13,0.01 0.14,0.01 0.15,0.01 0.15,0.01 0.15,0.01 0.17,0.01 0.16,0.01 h 0.18 l 0.18,0.01 h 0.18 l 0.19,0.01 h 0.2 0.2 0.21 l 0.22,0.01 c 1.48,0 1.89,0 1.89,0.95 0,0.59 -0.55,0.59 -0.8,0.59 -1.65,0 -5.73,-0.15 -7.37,-0.15 -1.5,0 -5.14,0.15 -6.63,0.15 -0.36,0 -0.95,0 -0.95,-1 0,-0.54 0.45,-0.54 1.39,-0.54 0.11,0 1.05,0 1.91,-0.1 0.89,-0.11 1.34,-0.15 1.34,-0.8 0,-0.2 -0.06,-0.35 -0.2,-0.95 l -6.68,-26.75 c -0.5,-1.95 -0.61,-2.34 -4.54,-2.34 -0.85,0 -1.35,0 -1.35,-1 0,-0.55 0.46,-0.55 1.35,-0.55 h 23.08 c 1.18,0 1.23,0 1.54,0.84 l 3.92,10.77 c 0.21,0.55 0.21,0.64 0.21,0.7 0,0.19 -0.14,0.55 -0.6,0.55 -0.45,0 -0.5,-0.25 -0.84,-1.05 -1.7,-4.59 -3.89,-10.26 -12.52,-10.26 h -4.67 c -0.7,0 -0.79,0 -1.09,0.04 -0.5,0.05 -0.66,0.1 -0.66,0.5 0,0.15 0,0.25 0.25,1.15 z"
           inkscape:connector-curvature="0"
           style="fill:#000000;stroke-width:0" /><path
           id="path1602"
           d="m 555.72,436.38 -0.01,0.17 v 0.16 0.16 l -0.01,0.08 v 0.08 l -0.01,0.08 -0.01,0.08 -0.01,0.07 -0.01,0.07 -0.01,0.07 -0.02,0.07 -0.02,0.07 -0.02,0.06 -0.02,0.06 -0.03,0.06 -0.03,0.06 -0.04,0.05 -0.04,0.05 -0.04,0.05 -0.05,0.04 -0.05,0.04 -0.02,0.01 -0.03,0.02 -0.03,0.02 -0.03,0.01 -0.03,0.02 -0.04,0.01 -0.03,0.01 -0.03,0.01 -0.04,0.01 -0.04,0.01 h -0.04 l -0.04,0.01 h -0.04 l -0.04,0.01 h -0.05 -0.04 c -1,0 -1,-0.89 -1,-1.78 v -46.24 c 0,-0.9 0,-1.79 1,-1.79 1,0 1,0.89 1,1.79 z"
           inkscape:connector-curvature="0"
           style="fill:#000000;stroke-width:0" /><path
           id="path1604"
           d="m 598.47,422.52 -0.02,0.75 -0.05,0.72 -0.07,0.72 -0.11,0.69 -0.13,0.68 -0.16,0.66 -0.19,0.64 -0.22,0.62 -0.24,0.61 -0.27,0.58 -0.29,0.56 -0.32,0.54 -0.34,0.52 -0.37,0.5 -0.38,0.47 -0.42,0.45 -0.43,0.43 -0.45,0.41 -0.48,0.38 -0.49,0.35 -0.52,0.33 -0.53,0.3 -0.55,0.28 -0.57,0.25 -0.59,0.22 -0.6,0.2 -0.62,0.16 -0.63,0.14 -0.65,0.11 -0.67,0.07 -0.67,0.05 -0.69,0.02 -0.3,-1.25 c 4.09,0 8.58,-2.79 8.58,-10.21 0,-3.59 -1.35,-11.36 -6.28,-17.5 -2.4,-3.03 -6.49,-5.97 -10.66,-5.97 v 0 c -4.94,0 -8.42,4.04 -8.42,10.61 0,2.19 0.68,9.47 4.53,15.3 3.44,5.17 8.31,7.77 12.25,7.77 l 0.3,1.25 c -10.75,0 -21.72,-11.32 -21.72,-22.93 0,-8.26 5.57,-13.29 12.76,-13.29 10.55,0 21.68,10.9 21.68,22.81 z"
           inkscape:connector-curvature="0"
           style="fill:#000000;stroke-width:0" /><path
           id="path1606"
           d="m 615.46,413.25 v 0.37 l -0.01,0.39 v 0.39 l -0.02,0.41 -0.04,0.84 -0.06,0.88 -0.08,0.92 -0.11,0.95 -0.13,0.98 -0.16,1 -0.2,1.02 -0.23,1.04 -0.27,1.05 -0.3,1.06 -0.35,1.06 -0.39,1.07 -0.22,0.53 -0.22,0.53 -0.24,0.53 -0.25,0.53 c -2.98,6.13 -7.27,9.36 -7.77,9.36 -0.29,0 -0.5,-0.19 -0.5,-0.48 0,-0.16 0,-0.25 0.94,-1.16 4.89,-4.92 7.74,-12.84 7.74,-23.27 0,-8.51 -1.85,-17.28 -8.04,-23.56 -0.64,-0.59 -0.64,-0.7 -0.64,-0.84 0,-0.3 0.21,-0.5 0.5,-0.5 0.5,0 4.97,3.39 7.93,9.72 2.53,5.47 3.12,11 3.12,15.18 z"
           inkscape:connector-curvature="0"
           style="fill:#000000;stroke-width:0" /><path
           id="path1608"
           d="m 668.42,417.1 h 0.14 0.14 0.15 l 0.07,0.01 h 0.07 l 0.07,0.01 0.07,0.01 0.07,0.01 0.07,0.01 0.07,0.01 0.07,0.02 0.06,0.02 0.07,0.02 0.06,0.03 0.06,0.02 0.05,0.03 0.05,0.04 0.05,0.04 0.05,0.04 0.04,0.04 0.04,0.05 0.02,0.03 0.02,0.03 0.02,0.03 0.01,0.03 0.02,0.03 0.01,0.03 0.01,0.03 0.01,0.04 0.01,0.03 0.01,0.04 0.01,0.04 v 0.04 l 0.01,0.04 v 0.04 0.05 0.04 c 0,1 -0.95,1 -1.63,1 h -29.85 c -0.7,0 -1.64,0 -1.64,-1 0,-0.98 0.94,-0.98 1.69,-0.98 z"
           inkscape:connector-curvature="0"
           style="fill:#000000;stroke-width:0" /><path
           id="path1610"
           d="m 668.47,407.43 h 0.06 0.07 0.13 0.14 l 0.07,0.01 h 0.07 l 0.07,0.01 0.07,0.01 0.07,0.01 0.07,0.01 0.06,0.01 0.07,0.02 0.06,0.02 0.06,0.02 0.06,0.03 0.06,0.02 0.05,0.04 0.06,0.03 0.05,0.04 0.04,0.04 0.05,0.05 0.02,0.02 0.02,0.03 0.01,0.02 0.02,0.03 0.02,0.03 0.01,0.03 0.02,0.03 0.01,0.04 0.01,0.03 0.01,0.04 0.01,0.03 0.01,0.04 0.01,0.04 v 0.04 l 0.01,0.04 v 0.05 0.04 0.05 c 0,1 -0.95,1 -1.68,1 h -29.75 c -0.75,0 -1.69,0 -1.69,-1 0,-1 0.94,-1 1.64,-1 z"
           inkscape:connector-curvature="0"
           style="fill:#000000;stroke-width:0" /><path
           id="path1612"
           d="m 844.2,435.72 0.14,1.12 2.37,9.44 c 0.28,1.08 0.31,1.19 1.78,1.19 h 4.08 c 3.23,0 5.25,-0.99 5.25,-3.45 0,-1.08 -0.41,-3.83 -2.16,-5.41 -1.25,-1.11 -3.23,-1.77 -5.75,-1.77 h -5.57 l -0.14,-1.12 h 6.31 c 5.89,0 10.87,3.76 10.87,7.56 0,2.94 -2.86,5.44 -7.64,5.44 h -12.19 c -0.7,0 -1.1,0 -1.1,-0.77 0,-0.48 0.37,-0.48 1.14,-0.48 0.56,0 0.7,0 1.32,-0.08 0.71,-0.06 0.77,-0.14 0.77,-0.48 0,-0.07 0,-0.24 -0.14,-0.77 l -4.59,-18.36 c -0.36,-1.36 -0.4,-1.61 -3.11,-1.61 -0.63,0 -1.05,0 -1.05,-0.76 0,-0.03 0,-0.49 0.56,-0.49 1.02,0 3.52,0.14 4.53,0.14 0.6,0 1.82,0 2.41,-0.03 0.69,-0.05 1.56,-0.11 2.23,-0.11 0.21,0 0.72,0 0.72,0.77 0,0.48 -0.4,0.48 -1.11,0.48 -0.03,0 -0.7,0 -1.33,0.08 -0.79,0.06 -0.79,0.17 -0.79,0.52 0,0.03 0,0.25 0.14,0.76 z"
           inkscape:connector-curvature="0"
           style="fill:#000000;stroke-width:0" /><path
           id="path1614"
           d="m 875.41,451.06 -0.61,-0.44 -0.58,-0.46 -0.55,-0.48 -0.52,-0.49 -0.5,-0.5 -0.47,-0.51 -0.45,-0.52 -0.42,-0.54 -0.4,-0.54 -0.38,-0.55 -0.35,-0.55 -0.33,-0.57 -0.31,-0.57 -0.29,-0.57 -0.26,-0.58 -0.25,-0.58 -0.23,-0.58 -0.21,-0.58 -0.19,-0.58 -0.17,-0.59 -0.16,-0.58 -0.14,-0.57 -0.12,-0.58 -0.11,-0.57 -0.09,-0.57 -0.08,-0.55 -0.06,-0.56 -0.06,-0.54 -0.04,-0.54 -0.02,-0.53 -0.02,-0.51 -0.01,-0.51 c 0,-4.92 1.47,-12.55 8.38,-17.42 0.28,0 0.69,0 0.69,0.41 0,0.22 -0.1,0.28 -0.35,0.53 -4.64,4.19 -6.34,10.11 -6.34,16.45 0,9.41 3.59,14 6.45,16.58 0.14,0.14 0.24,0.25 0.24,0.42 0,0.42 -0.41,0.42 -0.69,0.42 z"
           inkscape:connector-curvature="0"
           style="fill:#000000;stroke-width:0" /><path
           id="path1616"
           d="m 907.52,439.73 -0.01,0.51 -0.03,0.5 -0.06,0.5 -0.08,0.48 -0.1,0.47 -0.12,0.47 -0.14,0.45 -0.17,0.44 -0.18,0.44 -0.21,0.41 -0.22,0.41 -0.25,0.39 -0.26,0.38 -0.29,0.37 -0.3,0.35 -0.32,0.33 -0.34,0.32 -0.35,0.3 -0.37,0.28 -0.4,0.27 -0.4,0.25 -0.43,0.23 -0.44,0.21 -0.45,0.19 -0.47,0.17 -0.49,0.15 -0.5,0.12 -0.52,0.11 -0.53,0.08 -0.55,0.06 -0.55,0.04 -0.58,0.01 -0.28,-1.12 c 3.63,0 6.97,-2.3 6.97,-7.35 0,-2.54 -1.08,-7.64 -4.31,-11.36 -2.44,-2.79 -5.61,-4.21 -8.33,-4.21 v 0 c -3.7,0 -6.83,2.51 -6.83,7.67 0,1.76 0.49,6.72 3.69,10.68 2.33,2.86 5.72,4.57 8.81,4.57 l 0.28,1.12 c -8.32,0 -16.37,-7.81 -16.37,-15.65 0,-5.61 4.14,-9.55 10.14,-9.55 8.3,0 16.34,7.61 16.34,15.51 z"
           inkscape:connector-curvature="0"
           style="fill:#000000;stroke-width:0" /><path
           id="path1618"
           d="m 916.72,449.7 v 0.05 0.05 0.06 0.05 0.05 l -0.01,0.06 v 0.06 0.05 l -0.01,0.06 -0.01,0.06 -0.01,0.05 -0.01,0.06 -0.01,0.06 -0.01,0.05 -0.02,0.05 -0.02,0.06 -0.02,0.05 -0.02,0.05 -0.03,0.04 -0.03,0.05 -0.03,0.04 -0.04,0.04 -0.03,0.04 -0.03,0.02 -0.02,0.01 -0.02,0.02 -0.02,0.01 -0.03,0.02 -0.02,0.01 -0.03,0.01 -0.03,0.02 -0.03,0.01 -0.03,0.01 h -0.03 l -0.03,0.01 -0.03,0.01 h -0.04 l -0.03,0.01 h -0.04 -0.04 -0.03 c -0.88,0 -0.88,-0.81 -0.88,-1.36 v -32.14 c 0,-0.51 0,-1.36 0.84,-1.36 0.88,0 0.88,0.82 0.88,1.36 z"
           inkscape:connector-curvature="0"
           style="fill:#000000;stroke-width:0" /><path
           id="path1620"
           d="m 936.19,445.86 0.03,0.12 0.03,0.11 0.03,0.1 0.03,0.1 0.03,0.1 0.03,0.09 0.03,0.08 0.04,0.08 0.04,0.08 0.05,0.07 0.05,0.07 0.05,0.06 0.06,0.06 0.07,0.06 0.08,0.05 0.08,0.05 0.09,0.04 0.1,0.04 0.11,0.04 0.12,0.03 0.07,0.02 0.07,0.01 0.07,0.02 0.07,0.01 0.08,0.01 0.07,0.01 0.09,0.02 0.08,0.01 h 0.09 l 0.09,0.01 0.1,0.01 0.1,0.01 0.1,0.01 h 0.11 l 0.11,0.01 h 0.11 l 0.12,0.01 h 0.12 0.13 0.13 l 0.14,0.01 h 0.13 0.15 0.15 c 1.08,0 1.42,0 1.42,0.76 0,0.04 -0.03,0.49 -0.59,0.49 -0.8,0 -1.74,-0.06 -2.58,-0.11 -0.88,-0.03 -1.91,-0.03 -2.79,-0.03 -0.73,0 -1.67,0.03 -2.4,0.03 -0.73,0 -1.56,0.11 -2.27,0.11 -0.2,0 -0.73,0 -0.73,-0.77 0,-0.48 0.42,-0.48 1.12,-0.48 0.03,0 0.69,0 1.32,-0.08 0.73,-0.06 0.81,-0.14 0.81,-0.48 0,-0.07 0,-0.24 -0.14,-0.77 l -4.64,-18.5 c -0.32,-1.19 -0.39,-1.47 -3.07,-1.47 -0.59,0 -1.04,0 -1.04,-0.73 0,-0.52 0.42,-0.52 1.04,-0.52 h 17.52 c 0.88,0 0.91,0.03 1.19,0.7 0.36,0.94 2.97,7.69 2.97,7.97 0,0.11 -0.08,0.5 -0.6,0.5 -0.42,0 -0.48,-0.18 -0.7,-0.73 -1.31,-3.31 -2.86,-7.19 -9.23,-7.19 h -3.94 c -1.08,0 -1.11,0.05 -1.11,0.36 0,0.03 0,0.2 0.14,0.72 z"
           inkscape:connector-curvature="0"
           style="fill:#000000;stroke-width:0" /><path
           id="path1622"
           d="m 952.33,451.06 h -0.02 -0.03 -0.02 -0.03 -0.03 -0.02 -0.03 -0.03 l -0.03,-0.01 h -0.02 -0.03 l -0.03,-0.01 -0.03,-0.01 h -0.03 l -0.02,-0.01 -0.03,-0.01 -0.02,-0.01 -0.03,-0.01 -0.02,-0.02 -0.02,-0.01 -0.02,-0.02 -0.02,-0.01 -0.02,-0.02 -0.01,-0.01 -0.01,-0.02 -0.01,-0.01 -0.01,-0.01 v -0.01 l -0.01,-0.01 -0.01,-0.02 v -0.01 l -0.01,-0.01 v -0.02 l -0.01,-0.02 v -0.01 -0.02 l -0.01,-0.01 v -0.02 -0.02 -0.02 -0.02 c 0,-0.17 0.11,-0.28 0.31,-0.53 3,-2.75 6.35,-7.45 6.35,-16.44 0,-7.28 -2.27,-12.79 -6.04,-16.2 -0.57,-0.59 -0.62,-0.63 -0.62,-0.81 0,-0.18 0.11,-0.41 0.45,-0.41 0.42,0 3.74,2.3 6.04,6.66 1.53,2.89 2.54,6.65 2.54,10.73 0,4.91 -1.47,12.53 -8.36,17.42 z"
           inkscape:connector-curvature="0"
           style="fill:#000000;stroke-width:0" /><path
           id="path1624"
           d="m 976.04,433.59 0.26,0.12 0.26,0.11 0.24,0.11 0.24,0.1 0.23,0.1 0.22,0.1 0.21,0.09 0.21,0.09 0.2,0.08 0.19,0.08 0.18,0.08 0.18,0.08 0.17,0.07 0.16,0.07 0.16,0.06 0.15,0.07 0.14,0.06 0.14,0.06 0.14,0.05 0.12,0.06 0.13,0.05 0.12,0.05 0.11,0.05 0.11,0.05 0.11,0.04 0.1,0.05 0.19,0.08 0.18,0.09 0.16,0.08 c 0.68,0.26 0.99,0.4 0.99,1.07 0,0.6 -0.45,1.11 -1.08,1.11 -0.25,0 -0.31,0 -0.73,-0.31 l -4.74,-3.17 0.52,5.15 c 0.08,0.63 0,1.5 -1.05,1.5 -0.42,0 -1.08,-0.28 -1.08,-1.04 0,-0.31 0.14,-1.36 0.17,-1.7 0.08,-0.6 0.32,-3.11 0.4,-3.91 l -4.71,3.17 c -0.36,0.2 -0.45,0.31 -0.76,0.31 -0.64,0 -1.1,-0.51 -1.1,-1.11 0,-0.7 0.42,-0.87 0.74,-1.01 l 5.26,-2.19 c -2.86,-1.26 -4.14,-1.75 -5.01,-2.17 -0.66,-0.28 -0.99,-0.42 -0.99,-1.08 0,-0.59 0.46,-1.11 1.1,-1.11 0.23,0 0.31,0 0.72,0.31 l 4.75,3.18 -0.57,-5.61 c 0,-0.77 0.66,-1.05 1.08,-1.05 0.42,0 1.08,0.28 1.08,1.05 0,0.31 -0.14,1.36 -0.17,1.7 -0.07,0.59 -0.32,3.09 -0.38,3.91 l 4.17,-2.8 c 0.91,-0.69 0.99,-0.69 1.3,-0.69 0.63,0 1.08,0.52 1.08,1.11 0,0.7 -0.42,0.88 -0.74,1.02 z"
           inkscape:connector-curvature="0"
           style="fill:#000000;stroke-width:0" /><path
           id="path1626"
           d="m 997.06,435.72 0.14,1.12 2.38,9.44 c 0.28,1.08 0.31,1.19 1.82,1.19 h 4 c 3.3,0 5.3,-0.99 5.3,-3.45 0,-1.08 -0.4,-3.83 -2.2,-5.41 -1.2,-1.11 -3.2,-1.77 -5.7,-1.77 h -5.6 l -0.14,-1.12 h 6.34 c 5.9,0 10.8,3.76 10.8,7.56 0,2.94 -2.8,5.44 -7.6,5.44 h -12.18 c -0.7,0 -1.11,0 -1.11,-0.77 0,-0.48 0.38,-0.48 1.14,-0.48 0.57,0 0.71,0 1.33,-0.08 0.7,-0.06 0.77,-0.14 0.77,-0.48 0,-0.07 0,-0.24 -0.14,-0.77 l -4.6,-18.36 c -0.36,-1.36 -0.39,-1.61 -3.11,-1.61 -0.62,0 -1.04,0 -1.04,-0.76 0,-0.03 0,-0.49 0.56,-0.49 1.01,0 3.51,0.14 4.53,0.14 0.59,0 1.81,0 2.41,-0.03 0.68,-0.05 1.56,-0.11 2.23,-0.11 0.2,0 0.72,0 0.72,0.77 0,0.48 -0.41,0.48 -1.11,0.48 -0.03,0 -0.7,0 -1.33,0.08 -0.79,0.06 -0.79,0.17 -0.79,0.52 0,0.03 0,0.25 0.14,0.76 z"
           inkscape:connector-curvature="0"
           style="fill:#000000;stroke-width:0" /><path
           id="path1628"
           d="m 1028.3,451.06 -0.6,-0.44 -0.6,-0.46 -0.6,-0.48 -0.5,-0.49 -0.5,-0.5 -0.5,-0.51 -0.4,-0.52 -0.4,-0.54 -0.4,-0.54 -0.4,-0.55 -0.4,-0.55 -0.3,-0.57 -0.3,-0.57 -0.3,-0.57 -0.2,-0.58 -0.3,-0.58 -0.2,-0.58 -0.2,-0.58 -0.2,-0.58 -0.2,-0.59 -0.2,-0.58 -0.1,-0.57 -0.1,-0.58 -0.1,-0.57 -0.1,-0.57 -0.1,-0.55 -0.1,-0.56 v -0.54 l -0.1,-0.54 v -0.53 -0.51 -0.51 c 0,-4.92 1.5,-12.55 8.4,-17.42 0.3,0 0.7,0 0.7,0.41 0,0.22 -0.1,0.28 -0.4,0.53 -4.6,4.19 -6.3,10.11 -6.3,16.45 0,9.41 3.6,14 6.4,16.58 0.2,0.14 0.3,0.25 0.3,0.42 0,0.42 -0.4,0.42 -0.7,0.42 z"
           inkscape:connector-curvature="0"
           style="fill:#000000;stroke-width:0" /><path
           id="path1630"
           d="m 1045.9,445.86 v 0.12 0.11 0.1 l 0.1,0.1 v 0.1 0.09 l 0.1,0.08 v 0.08 0.08 l 0.1,0.07 v 0.07 l 0.1,0.06 0.1,0.06 v 0.06 l 0.1,0.05 0.1,0.05 0.1,0.04 0.1,0.04 0.1,0.04 0.1,0.03 0.1,0.02 v 0.01 l 0.1,0.02 0.1,0.01 0.1,0.01 v 0.01 l 0.1,0.02 0.1,0.01 h 0.1 l 0.1,0.01 0.1,0.01 0.1,0.01 0.1,0.01 h 0.1 l 0.1,0.01 h 0.1 l 0.1,0.01 h 0.2 0.1 0.1 l 0.2,0.01 h 0.1 0.1 0.2 c 1.1,0 1.4,0 1.4,0.76 0,0.04 0,0.49 -0.6,0.49 -0.8,0 -1.7,-0.06 -2.6,-0.11 -0.8,-0.03 -1.9,-0.03 -2.8,-0.03 -0.7,0 -1.6,0.03 -2.3,0.03 -0.8,0 -1.6,0.11 -2.3,0.11 -0.2,0 -0.7,0 -0.7,-0.77 0,-0.48 0.4,-0.48 1.1,-0.48 0,0 0.7,0 1.3,-0.08 0.7,-0.06 0.8,-0.14 0.8,-0.48 0,-0.07 0,-0.24 -0.1,-0.77 l -4.7,-18.5 c -0.3,-1.19 -0.4,-1.47 -3.1,-1.47 -0.5,0 -1,0 -1,-0.73 0,-0.52 0.4,-0.52 1,-0.52 h 17.6 c 0.8,0 0.9,0.03 1.2,0.7 0.3,0.94 2.9,7.69 2.9,7.97 0,0.11 0,0.5 -0.6,0.5 -0.4,0 -0.4,-0.18 -0.7,-0.73 -1.3,-3.31 -2.8,-7.19 -9.2,-7.19 h -3.9 c -1.1,0 -1.1,0.05 -1.1,0.36 0,0.03 0,0.2 0.1,0.72 z"
           inkscape:connector-curvature="0"
           style="fill:#000000;stroke-width:0" /><path
           id="path1632"
           d="m 1062,451.06 v 0 0 h -0.1 v 0 0 h -0.1 v 0 0 -0.01 h -0.1 v 0 -0.01 -0.01 h -0.1 v -0.01 -0.01 l -0.1,-0.01 v -0.01 -0.02 -0.01 -0.02 l -0.1,-0.01 v -0.02 -0.01 -0.02 -0.01 -0.01 -0.01 -0.01 -0.02 -0.01 -0.01 l -0.1,-0.02 v -0.02 -0.01 -0.02 -0.01 -0.02 -0.02 -0.02 -0.02 c 0,-0.17 0.1,-0.28 0.3,-0.53 3,-2.75 6.4,-7.45 6.4,-16.44 0,-7.28 -2.3,-12.79 -6.1,-16.2 -0.5,-0.59 -0.6,-0.63 -0.6,-0.81 0,-0.18 0.1,-0.41 0.5,-0.41 0.4,0 3.7,2.3 6,6.66 1.5,2.89 2.6,6.65 2.6,10.73 0,4.91 -1.5,12.53 -8.4,17.42 z"
           inkscape:connector-curvature="0"
           style="fill:#000000;stroke-width:0" /><polyline
           id="polyline1634"
           points="693,412 1214.2,412 1214.2,414.04 693,414.04 "
           style="fill:#000000;fill-rule:nonzero;stroke-width:0" /><path
           id="path1636"
           d="m 704.64,394.32 0.14,1.12 2.37,9.44 c 0.28,1.08 0.32,1.19 1.78,1.19 h 4.08 c 3.24,0 5.25,-0.99 5.25,-3.46 0,-1.07 -0.41,-3.82 -2.16,-5.4 -1.25,-1.11 -3.23,-1.77 -5.75,-1.77 h -5.57 l -0.14,-1.12 h 6.31 c 5.89,0 10.87,3.76 10.87,7.56 0,2.94 -2.85,5.44 -7.64,5.44 H 702 c -0.71,0 -1.11,0 -1.11,-0.77 0,-0.48 0.37,-0.48 1.14,-0.48 0.56,0 0.7,0 1.32,-0.08 0.71,-0.06 0.77,-0.14 0.77,-0.49 0,-0.06 0,-0.23 -0.14,-0.76 l -4.59,-18.36 c -0.36,-1.36 -0.39,-1.61 -3.11,-1.61 -0.63,0 -1.05,0 -1.05,-0.77 0,-0.03 0,-0.48 0.56,-0.48 1.02,0 3.52,0.14 4.53,0.14 0.6,0 1.82,0 2.41,-0.03 0.69,-0.05 1.56,-0.11 2.24,-0.11 0.2,0 0.71,0 0.71,0.77 0,0.48 -0.4,0.48 -1.11,0.48 -0.03,0 -0.7,0 -1.32,0.08 -0.8,0.06 -0.8,0.17 -0.8,0.51 0,0.03 0,0.25 0.14,0.77 z"
           inkscape:connector-curvature="0"
           style="fill:#000000;stroke-width:0" /><path
           id="path1638"
           d="m 735.85,409.66 -0.6,-0.45 -0.58,-0.46 -0.56,-0.47 -0.52,-0.49 -0.5,-0.5 -0.47,-0.51 -0.45,-0.53 -0.42,-0.53 -0.4,-0.54 -0.38,-0.55 -0.35,-0.56 -0.33,-0.56 -0.31,-0.57 -0.29,-0.57 -0.26,-0.58 -0.25,-0.58 -0.23,-0.58 -0.21,-0.58 -0.19,-0.59 -0.17,-0.58 -0.16,-0.58 -0.13,-0.58 -0.13,-0.57 -0.11,-0.57 -0.09,-0.57 -0.08,-0.56 -0.06,-0.55 -0.05,-0.54 -0.04,-0.54 -0.03,-0.53 -0.02,-0.51 v -0.51 c 0,-4.92 1.47,-12.55 8.37,-17.42 0.28,0 0.69,0 0.69,0.4 0,0.22 -0.09,0.29 -0.34,0.54 -4.65,4.18 -6.35,10.1 -6.35,16.45 0,9.4 3.6,14 6.45,16.58 0.15,0.14 0.24,0.25 0.24,0.42 0,0.42 -0.41,0.42 -0.69,0.42 z"
           inkscape:connector-curvature="0"
           style="fill:#000000;stroke-width:0" /><path
           id="path1640"
           d="m 767.97,398.33 -0.02,0.51 -0.03,0.5 -0.06,0.49 -0.08,0.49 -0.1,0.47 -0.12,0.47 -0.14,0.45 -0.17,0.44 -0.18,0.43 -0.21,0.42 -0.22,0.41 -0.25,0.39 -0.26,0.38 -0.28,0.36 -0.31,0.35 -0.32,0.34 -0.33,0.31 -0.36,0.31 -0.37,0.28 -0.39,0.27 -0.41,0.24 -0.43,0.23 -0.44,0.21 -0.45,0.2 -0.47,0.17 -0.49,0.14 -0.5,0.13 -0.52,0.11 -0.53,0.08 -0.54,0.06 -0.56,0.04 -0.58,0.01 -0.28,-1.13 c 3.63,0 6.97,-2.29 6.97,-7.34 0,-2.55 -1.07,-7.64 -4.31,-11.36 -2.44,-2.8 -5.61,-4.22 -8.33,-4.22 v 0 c -3.7,0 -6.83,2.52 -6.83,7.67 0,1.77 0.49,6.72 3.69,10.69 2.33,2.86 5.72,4.56 8.81,4.56 l 0.28,1.13 c -8.32,0 -16.37,-7.81 -16.37,-15.66 0,-5.61 4.14,-9.54 10.14,-9.54 8.3,0 16.35,7.61 16.35,15.51 z"
           inkscape:connector-curvature="0"
           style="fill:#000000;stroke-width:0" /><path
           id="path1642"
           d="m 777.16,408.3 v 0.05 0.05 0.05 l -0.01,0.06 v 0.05 0.06 0.05 l -0.01,0.06 v 0.06 l -0.01,0.05 -0.01,0.06 -0.01,0.06 -0.01,0.05 -0.01,0.06 -0.02,0.05 -0.02,0.05 -0.02,0.05 -0.02,0.05 -0.03,0.05 -0.03,0.05 -0.03,0.04 -0.04,0.04 -0.04,0.04 -0.02,0.01 -0.02,0.02 -0.02,0.02 -0.03,0.01 -0.02,0.02 -0.03,0.01 -0.02,0.01 -0.03,0.01 -0.03,0.01 -0.03,0.01 -0.03,0.01 -0.03,0.01 -0.03,0.01 h -0.04 -0.03 l -0.04,0.01 h -0.04 -0.04 c -0.87,0 -0.87,-0.81 -0.87,-1.36 v -32.14 c 0,-0.52 0,-1.36 0.84,-1.36 0.88,0 0.88,0.81 0.88,1.36 z"
           inkscape:connector-curvature="0"
           style="fill:#000000;stroke-width:0" /><path
           id="path1644"
           d="m 796.63,404.46 0.03,0.11 0.03,0.11 0.02,0.11 0.03,0.1 0.03,0.1 0.03,0.09 0.04,0.08 0.04,0.08 0.04,0.08 0.04,0.07 0.05,0.07 0.06,0.06 0.06,0.06 0.07,0.06 0.07,0.05 0.09,0.05 0.09,0.04 0.1,0.04 0.11,0.04 0.12,0.03 0.07,0.02 0.06,0.01 0.07,0.01 0.08,0.02 0.07,0.01 0.08,0.01 0.08,0.01 0.09,0.01 0.09,0.01 0.09,0.01 0.1,0.01 0.1,0.01 h 0.1 l 0.11,0.01 h 0.11 l 0.11,0.01 h 0.12 l 0.12,0.01 h 0.13 0.13 0.13 0.14 l 0.15,0.01 h 0.14 c 1.08,0 1.43,0 1.43,0.76 0,0.03 -0.03,0.49 -0.6,0.49 -0.8,0 -1.73,-0.07 -2.58,-0.11 -0.87,-0.03 -1.9,-0.03 -2.78,-0.03 -0.73,0 -1.67,0.03 -2.4,0.03 -0.74,0 -1.57,0.11 -2.27,0.11 -0.2,0 -0.73,0 -0.73,-0.77 0,-0.48 0.42,-0.48 1.12,-0.48 0.03,0 0.69,0 1.31,-0.08 0.74,-0.06 0.82,-0.14 0.82,-0.49 0,-0.06 0,-0.23 -0.14,-0.76 l -4.65,-18.5 c -0.31,-1.19 -0.38,-1.47 -3.06,-1.47 -0.59,0 -1.04,0 -1.04,-0.73 0,-0.52 0.42,-0.52 1.04,-0.52 h 17.52 c 0.87,0 0.91,0.03 1.19,0.7 0.35,0.94 2.97,7.69 2.97,7.97 0,0.11 -0.08,0.5 -0.6,0.5 -0.42,0 -0.48,-0.19 -0.7,-0.73 -1.32,-3.32 -2.86,-7.19 -9.24,-7.19 h -3.93 c -1.08,0 -1.11,0.05 -1.11,0.36 0,0.03 0,0.2 0.14,0.72 z"
           inkscape:connector-curvature="0"
           style="fill:#000000;stroke-width:0" /><path
           id="path1646"
           d="m 812.77,409.66 h -0.02 -0.03 -0.02 -0.03 -0.03 -0.02 -0.03 l -0.03,-0.01 h -0.03 -0.03 l -0.02,-0.01 h -0.03 l -0.03,-0.01 -0.03,-0.01 h -0.02 l -0.03,-0.01 -0.02,-0.01 -0.03,-0.02 -0.02,-0.01 -0.03,-0.01 -0.02,-0.02 -0.02,-0.02 -0.02,-0.02 v -0.01 l -0.01,-0.01 -0.01,-0.01 -0.01,-0.01 v -0.01 l -0.01,-0.02 -0.01,-0.01 v -0.01 l -0.01,-0.02 v -0.01 l -0.01,-0.02 v -0.01 -0.02 l -0.01,-0.02 v -0.02 -0.01 -0.02 -0.02 c 0,-0.17 0.11,-0.28 0.31,-0.53 3,-2.75 6.34,-7.46 6.34,-16.44 0,-7.28 -2.26,-12.8 -6.03,-16.2 -0.57,-0.6 -0.62,-0.63 -0.62,-0.82 0,-0.17 0.11,-0.4 0.45,-0.4 0.42,0 3.73,2.29 6.03,6.65 1.53,2.89 2.55,6.66 2.55,10.74 0,4.9 -1.47,12.53 -8.36,17.42 z"
           inkscape:connector-curvature="0"
           style="fill:#000000;stroke-width:0" /><path
           id="path1648"
           d="m 836.48,392.19 0.26,0.12 0.26,0.11 0.24,0.11 0.24,0.1 0.23,0.1 0.22,0.1 0.21,0.09 0.21,0.09 0.19,0.08 0.19,0.08 0.19,0.08 0.17,0.07 0.17,0.08 0.17,0.06 0.15,0.07 0.15,0.06 0.15,0.06 0.14,0.06 0.13,0.06 0.13,0.05 0.13,0.06 0.11,0.05 0.12,0.05 0.11,0.04 0.1,0.05 0.11,0.04 0.19,0.09 0.18,0.08 0.16,0.08 c 0.67,0.27 0.99,0.41 0.99,1.08 0,0.6 -0.46,1.11 -1.08,1.11 -0.25,0 -0.31,0 -0.74,-0.31 l -4.73,-3.17 0.52,5.15 c 0.07,0.63 0,1.5 -1.05,1.5 -0.42,0 -1.08,-0.28 -1.08,-1.04 0,-0.32 0.14,-1.36 0.17,-1.71 0.08,-0.59 0.31,-3.11 0.39,-3.9 l -4.7,3.17 c -0.36,0.2 -0.45,0.31 -0.77,0.31 -0.64,0 -1.09,-0.51 -1.09,-1.11 0,-0.7 0.42,-0.87 0.73,-1.01 l 5.27,-2.19 c -2.86,-1.27 -4.14,-1.75 -5.02,-2.17 -0.65,-0.28 -0.98,-0.43 -0.98,-1.08 0,-0.6 0.45,-1.11 1.09,-1.11 0.24,0 0.32,0 0.72,0.31 l 4.75,3.17 -0.56,-5.61 c 0,-0.76 0.66,-1.04 1.08,-1.04 0.42,0 1.08,0.28 1.08,1.04 0,0.32 -0.14,1.36 -0.18,1.71 -0.06,0.59 -0.31,3.09 -0.37,3.9 l 4.17,-2.79 c 0.91,-0.69 0.99,-0.69 1.3,-0.69 0.62,0 1.08,0.51 1.08,1.11 0,0.7 -0.43,0.87 -0.74,1.01 z"
           inkscape:connector-curvature="0"
           style="fill:#000000;stroke-width:0" /><path
           id="path1650"
           d="m 857.5,394.32 0.14,1.12 2.38,9.44 c 0.28,1.08 0.31,1.19 1.78,1.19 h 4.08 c 3.23,0 5.24,-0.99 5.24,-3.46 0,-1.07 -0.4,-3.82 -2.15,-5.4 -1.25,-1.11 -3.24,-1.77 -5.75,-1.77 h -5.58 l -0.14,-1.12 h 6.31 c 5.89,0 10.88,3.76 10.88,7.56 0,2.94 -2.86,5.44 -7.64,5.44 h -12.19 c -0.7,0 -1.11,0 -1.11,-0.77 0,-0.48 0.37,-0.48 1.14,-0.48 0.56,0 0.7,0 1.33,-0.08 0.7,-0.06 0.76,-0.14 0.76,-0.49 0,-0.06 0,-0.23 -0.14,-0.76 l -4.59,-18.36 c -0.36,-1.36 -0.39,-1.61 -3.11,-1.61 -0.62,0 -1.05,0 -1.05,-0.77 0,-0.03 0,-0.48 0.57,-0.48 1.01,0 3.51,0.14 4.53,0.14 0.59,0 1.81,0 2.4,-0.03 0.69,-0.05 1.57,-0.11 2.24,-0.11 0.2,0 0.72,0 0.72,0.77 0,0.48 -0.41,0.48 -1.11,0.48 -0.03,0 -0.71,0 -1.33,0.08 -0.8,0.06 -0.8,0.17 -0.8,0.51 0,0.03 0,0.25 0.14,0.77 z"
           inkscape:connector-curvature="0"
           style="fill:#000000;stroke-width:0" /><path
           id="path1652"
           d="m 888.72,409.66 -0.61,-0.45 -0.58,-0.46 -0.55,-0.47 -0.52,-0.49 -0.5,-0.5 -0.47,-0.51 -0.45,-0.53 -0.42,-0.53 -0.4,-0.54 -0.38,-0.55 -0.35,-0.56 -0.33,-0.56 -0.31,-0.57 -0.29,-0.57 -0.27,-0.58 -0.24,-0.58 -0.23,-0.58 -0.21,-0.58 -0.19,-0.59 -0.17,-0.58 -0.16,-0.58 -0.14,-0.58 -0.12,-0.57 -0.11,-0.57 -0.09,-0.57 -0.08,-0.56 -0.07,-0.55 -0.05,-0.54 -0.04,-0.54 -0.02,-0.53 -0.02,-0.51 -0.01,-0.51 c 0,-4.92 1.47,-12.55 8.38,-17.42 0.28,0 0.69,0 0.69,0.4 0,0.22 -0.1,0.29 -0.35,0.54 -4.64,4.18 -6.34,10.1 -6.34,16.45 0,9.4 3.59,14 6.45,16.58 0.14,0.14 0.24,0.25 0.24,0.42 0,0.42 -0.41,0.42 -0.69,0.42 z"
           inkscape:connector-curvature="0"
           style="fill:#000000;stroke-width:0" /><path
           id="path1654"
           d="m 906.3,404.46 0.03,0.11 0.03,0.11 0.03,0.11 0.02,0.1 0.04,0.1 0.03,0.09 0.03,0.08 0.04,0.08 0.04,0.08 0.04,0.07 0.05,0.07 0.06,0.06 0.06,0.06 0.07,0.06 0.08,0.05 0.08,0.05 0.09,0.04 0.1,0.04 0.11,0.04 0.12,0.03 0.07,0.02 0.07,0.01 0.07,0.01 0.07,0.02 0.07,0.01 0.08,0.01 0.09,0.01 0.08,0.01 0.09,0.01 0.09,0.01 0.1,0.01 0.1,0.01 h 0.1 l 0.11,0.01 h 0.11 l 0.11,0.01 h 0.12 l 0.12,0.01 h 0.13 0.13 0.14 0.13 l 0.15,0.01 h 0.15 c 1.07,0 1.42,0 1.42,0.76 0,0.03 -0.03,0.49 -0.6,0.49 -0.79,0 -1.73,-0.07 -2.57,-0.11 -0.88,-0.03 -1.91,-0.03 -2.78,-0.03 -0.74,0 -1.68,0.03 -2.41,0.03 -0.74,0 -1.56,0.11 -2.27,0.11 -0.2,0 -0.73,0 -0.73,-0.77 0,-0.48 0.42,-0.48 1.12,-0.48 0.04,0 0.69,0 1.32,-0.08 0.73,-0.06 0.81,-0.14 0.81,-0.49 0,-0.06 0,-0.23 -0.14,-0.76 l -4.64,-18.5 c -0.31,-1.19 -0.39,-1.47 -3.06,-1.47 -0.6,0 -1.05,0 -1.05,-0.73 0,-0.52 0.42,-0.52 1.05,-0.52 h 17.51 c 0.87,0 0.91,0.03 1.19,0.7 0.36,0.94 2.97,7.69 2.97,7.97 0,0.11 -0.08,0.5 -0.6,0.5 -0.42,0 -0.48,-0.19 -0.7,-0.73 -1.31,-3.32 -2.86,-7.19 -9.24,-7.19 h -3.93 c -1.08,0 -1.11,0.05 -1.11,0.36 0,0.03 0,0.2 0.14,0.72 z"
           inkscape:connector-curvature="0"
           style="fill:#000000;stroke-width:0" /><path
           id="path1656"
           d="m 922.44,409.66 h -0.02 -0.03 -0.02 -0.03 -0.03 -0.02 -0.03 l -0.03,-0.01 h -0.03 -0.03 l -0.02,-0.01 h -0.03 l -0.03,-0.01 -0.03,-0.01 h -0.02 l -0.03,-0.01 -0.02,-0.01 -0.03,-0.02 -0.02,-0.01 -0.02,-0.01 -0.02,-0.02 -0.02,-0.02 -0.02,-0.02 -0.01,-0.01 -0.01,-0.01 -0.01,-0.01 -0.01,-0.01 v -0.01 l -0.01,-0.02 -0.01,-0.01 v -0.01 l -0.01,-0.02 v -0.01 l -0.01,-0.02 v -0.01 -0.02 l -0.01,-0.02 v -0.02 -0.01 -0.02 -0.02 c 0,-0.17 0.11,-0.28 0.31,-0.53 3,-2.75 6.35,-7.46 6.35,-16.44 0,-7.28 -2.27,-12.8 -6.03,-16.2 -0.58,-0.6 -0.63,-0.63 -0.63,-0.82 0,-0.17 0.11,-0.4 0.45,-0.4 0.43,0 3.74,2.29 6.03,6.65 1.53,2.89 2.55,6.66 2.55,10.74 0,4.9 -1.47,12.53 -8.36,17.42 z"
           inkscape:connector-curvature="0"
           style="fill:#000000;stroke-width:0" /><path
           id="path1658"
           d="m 951.04,391.39 h 10.66 c 0.45,0 1.28,0 1.28,0.85 0,0.86 -0.8,0.86 -1.28,0.86 h -10.66 v 10.7 c 0,0.45 0,1.28 -0.84,1.28 -0.88,0 -0.88,-0.79 -0.88,-1.28 v -10.7 h -10.69 c -0.45,0 -1.29,0 -1.29,-0.83 0,-0.88 0.79,-0.88 1.29,-0.88 h 10.69 v -10.7 c 0,-0.45 0,-1.28 0.84,-1.28 0.88,0 0.88,0.8 0.88,1.28 z"
           inkscape:connector-curvature="0"
           style="fill:#000000;stroke-width:0" /><path
           id="path1660"
           d="m 977.37,394.32 0.14,1.12 2.38,9.44 c 0.28,1.08 0.31,1.19 1.78,1.19 h 4.08 c 3.23,0 5.25,-0.99 5.25,-3.46 0,-1.07 -0.41,-3.82 -2.16,-5.4 -1.25,-1.11 -3.24,-1.77 -5.75,-1.77 h -5.58 l -0.14,-1.12 h 6.31 c 5.89,0 10.88,3.76 10.88,7.56 0,2.94 -2.86,5.44 -7.64,5.44 h -12.19 c -0.7,0 -1.11,0 -1.11,-0.77 0,-0.48 0.38,-0.48 1.14,-0.48 0.56,0 0.71,0 1.33,-0.08 0.7,-0.06 0.76,-0.14 0.76,-0.49 0,-0.06 0,-0.23 -0.13,-0.76 l -4.6,-18.36 c -0.36,-1.36 -0.39,-1.61 -3.11,-1.61 -0.62,0 -1.04,0 -1.04,-0.77 0,-0.03 0,-0.48 0.56,-0.48 1.01,0 3.51,0.14 4.53,0.14 0.59,0 1.81,0 2.41,-0.03 0.68,-0.05 1.56,-0.11 2.23,-0.11 0.2,0 0.72,0 0.72,0.77 0,0.48 -0.41,0.48 -1.11,0.48 -0.03,0 -0.71,0 -1.33,0.08 -0.8,0.06 -0.8,0.17 -0.8,0.51 0,0.03 0,0.25 0.14,0.77 z"
           inkscape:connector-curvature="0"
           style="fill:#000000;stroke-width:0" /><path
           id="path1662"
           d="m 1008.6,409.66 -0.6,-0.45 -0.6,-0.46 -0.5,-0.47 -0.6,-0.49 -0.5,-0.5 -0.4,-0.51 -0.5,-0.53 -0.4,-0.53 -0.4,-0.54 -0.4,-0.55 -0.3,-0.56 -0.4,-0.56 -0.3,-0.57 -0.3,-0.57 -0.2,-0.58 -0.3,-0.58 -0.2,-0.58 -0.2,-0.58 -0.2,-0.59 -0.2,-0.58 -0.1,-0.58 -0.2,-0.58 -0.1,-0.57 -0.1,-0.57 -0.1,-0.57 -0.1,-0.56 v -0.55 l -0.1,-0.54 v -0.54 l -0.1,-0.53 v -0.51 -0.51 c 0,-4.92 1.5,-12.55 8.4,-17.42 0.3,0 0.7,0 0.7,0.4 0,0.22 -0.1,0.29 -0.4,0.54 -4.6,4.18 -6.3,10.1 -6.3,16.45 0,9.4 3.6,14 6.4,16.58 0.2,0.14 0.3,0.25 0.3,0.42 0,0.42 -0.4,0.42 -0.7,0.42 z"
           inkscape:connector-curvature="0"
           style="fill:#000000;stroke-width:0" /><path
           id="path1664"
           d="m 1040.7,398.33 v 0.51 0.5 l -0.1,0.49 -0.1,0.49 -0.1,0.47 -0.1,0.47 -0.1,0.45 -0.2,0.44 -0.2,0.43 -0.2,0.42 -0.2,0.41 -0.3,0.39 -0.2,0.38 -0.3,0.36 -0.3,0.35 -0.3,0.34 -0.4,0.31 -0.3,0.31 -0.4,0.28 -0.4,0.27 -0.4,0.24 -0.4,0.23 -0.5,0.21 -0.4,0.2 -0.5,0.17 -0.5,0.14 -0.5,0.13 -0.5,0.11 -0.5,0.08 -0.6,0.06 -0.5,0.04 -0.6,0.01 -0.3,-1.13 c 3.6,0 7,-2.29 7,-7.34 0,-2.55 -1.1,-7.64 -4.3,-11.36 -2.5,-2.8 -5.6,-4.22 -8.4,-4.22 v 0 c -3.7,0 -6.8,2.52 -6.8,7.67 0,1.77 0.5,6.72 3.7,10.69 2.3,2.86 5.7,4.56 8.8,4.56 l 0.3,1.13 c -8.3,0 -16.4,-7.81 -16.4,-15.66 0,-5.61 4.2,-9.54 10.2,-9.54 8.3,0 16.3,7.61 16.3,15.51 z"
           inkscape:connector-curvature="0"
           style="fill:#000000;stroke-width:0" /><path
           id="path1666"
           d="m 1049.9,408.3 v 0.05 0.05 0.05 0.06 0.05 0.06 0.05 0.06 0.06 0.05 0.06 l -0.1,0.06 v 0.05 0.06 0.05 0.05 0.05 l -0.1,0.05 v 0.05 0.05 0.04 l -0.1,0.04 v 0.04 0.01 l -0.1,0.02 v 0.02 0.01 0.02 l -0.1,0.01 v 0.01 0.01 0.01 l -0.1,0.01 v 0.01 0.01 l -0.1,0.01 v 0 0 l -0.1,0.01 v 0 0 c -0.9,0 -0.9,-0.81 -0.9,-1.36 v -32.14 c 0,-0.52 0,-1.36 0.8,-1.36 0.9,0 0.9,0.81 0.9,1.36 z"
           inkscape:connector-curvature="0"
           style="fill:#000000;stroke-width:0" /><path
           id="path1668"
           d="m 1066.9,394.74 h 3.8 c 2.6,0 3.1,-0.42 3.1,-1.56 0,-0.54 0,-0.6 -0.3,-1.58 -0.1,-0.21 -0.1,-0.31 -0.1,-0.41 0,-0.36 0.3,-0.53 0.6,-0.53 0.4,0 0.5,0.17 0.7,0.8 l 1.8,7.39 c 0.1,0.11 0.2,0.62 0.2,0.7 0,0.34 -0.3,0.52 -0.6,0.52 -0.5,0 -0.5,-0.21 -0.7,-0.83 -0.7,-2.72 -1.7,-3.25 -4.7,-3.25 h -3.5 l 2.2,8.75 c 0.3,1.08 0.3,1.19 1.8,1.19 h 5.3 c 4.7,0 5.6,-1.11 5.6,-4.02 0,-1.14 -0.2,-1.87 -0.2,-2.16 0,-0.28 0.1,-0.59 0.6,-0.59 0.5,0 0.6,0.31 0.6,0.91 l 0.7,6.06 c 0,1.05 -0.2,1.05 -1.1,1.05 h -18.6 c -0.6,0 -1.1,0 -1.1,-0.77 0,-0.48 0.4,-0.48 1.1,-0.48 0.1,0 0.7,0 1.4,-0.08 0.7,-0.06 0.8,-0.13 0.8,-0.49 0,-0.23 -0.1,-0.59 -0.2,-0.76 l -4.5,-18.22 c -0.4,-1.36 -0.4,-1.61 -3.1,-1.61 -0.6,0 -1.1,0 -1.1,-0.73 0,-0.35 0.3,-0.52 0.6,-0.52 1,0 3.6,0.14 4.6,0.14 l 2.7,-0.03 c 0.9,0 1.8,-0.11 2.7,-0.11 0.2,0 0.8,0 0.8,0.77 0,0.48 -0.5,0.48 -1.2,0.48 -0.1,0 -1,0 -1.9,0.08 -0.7,0.06 -1,0.09 -1,0.59 0,0.14 0,0.24 0.1,0.63 z"
           inkscape:connector-curvature="0"
           style="fill:#000000;stroke-width:0" /><path
           id="path1670"
           d="m 1088.9,409.66 h -0.1 v 0 0 0 h -0.1 v 0 0 l -0.1,-0.01 v 0 0 -0.01 h -0.1 v -0.01 -0.01 0 l -0.1,-0.01 v -0.01 -0.02 -0.01 l -0.1,-0.01 v -0.02 -0.02 -0.02 -0.01 -0.01 -0.01 l -0.1,-0.01 v -0.01 -0.02 -0.01 -0.01 -0.02 -0.01 -0.02 -0.01 -0.02 -0.02 -0.02 -0.01 -0.02 -0.02 c 0,-0.17 0.1,-0.28 0.3,-0.53 3,-2.75 6.3,-7.46 6.3,-16.44 0,-7.28 -2.2,-12.8 -6,-16.2 -0.6,-0.6 -0.6,-0.63 -0.6,-0.82 0,-0.17 0.1,-0.4 0.4,-0.4 0.5,0 3.8,2.29 6.1,6.65 1.5,2.89 2.5,6.66 2.5,10.74 0,4.9 -1.4,12.53 -8.3,17.42 z"
           inkscape:connector-curvature="0"
           style="fill:#000000;stroke-width:0" /><path
           id="path1672"
           d="m 1112.6,392.19 0.2,0.12 0.3,0.11 0.2,0.11 0.3,0.1 0.2,0.1 0.2,0.1 0.2,0.09 0.2,0.09 0.2,0.08 0.2,0.08 0.2,0.08 0.2,0.07 0.2,0.08 0.1,0.06 0.2,0.07 0.1,0.06 0.2,0.06 0.1,0.06 0.1,0.06 0.2,0.05 0.1,0.06 0.1,0.05 0.1,0.05 0.1,0.04 0.2,0.05 0.1,0.04 0.1,0.09 0.2,0.08 0.2,0.08 c 0.7,0.27 1,0.41 1,1.08 0,0.6 -0.5,1.11 -1.1,1.11 -0.3,0 -0.3,0 -0.7,-0.31 l -4.8,-3.17 0.5,5.15 c 0.1,0.63 0,1.5 -1,1.5 -0.4,0 -1.1,-0.28 -1.1,-1.04 0,-0.32 0.2,-1.36 0.2,-1.71 0.1,-0.59 0.3,-3.11 0.4,-3.9 l -4.7,3.17 c -0.4,0.2 -0.5,0.31 -0.8,0.31 -0.6,0 -1.1,-0.51 -1.1,-1.11 0,-0.7 0.4,-0.87 0.8,-1.01 l 5.2,-2.19 c -2.8,-1.27 -4.1,-1.75 -5,-2.17 -0.7,-0.28 -1,-0.43 -1,-1.08 0,-0.6 0.5,-1.11 1.1,-1.11 0.2,0 0.3,0 0.7,0.31 l 4.8,3.17 -0.6,-5.61 c 0,-0.76 0.7,-1.04 1.1,-1.04 0.4,0 1.1,0.28 1.1,1.04 0,0.32 -0.2,1.36 -0.2,1.71 -0.1,0.59 -0.3,3.09 -0.4,3.9 l 4.2,-2.79 c 0.9,-0.69 1,-0.69 1.3,-0.69 0.6,0 1.1,0.51 1.1,1.11 0,0.7 -0.4,0.87 -0.8,1.01 z"
           inkscape:connector-curvature="0"
           style="fill:#000000;stroke-width:0" /><path
           id="path1674"
           d="m 1133.6,394.32 0.1,1.12 2.4,9.44 c 0.3,1.08 0.3,1.19 1.8,1.19 h 4.1 c 3.2,0 5.2,-0.99 5.2,-3.46 0,-1.07 -0.4,-3.82 -2.1,-5.4 -1.3,-1.11 -3.3,-1.77 -5.8,-1.77 h -5.6 l -0.1,-1.12 h 6.3 c 5.9,0 10.9,3.76 10.9,7.56 0,2.94 -2.9,5.44 -7.7,5.44 h -12.2 c -0.7,0 -1.1,0 -1.1,-0.77 0,-0.48 0.4,-0.48 1.2,-0.48 0.6,0 0.7,0 1.3,-0.08 0.7,-0.06 0.8,-0.14 0.8,-0.49 0,-0.06 0,-0.23 -0.2,-0.76 l -4.6,-18.36 c -0.3,-1.36 -0.4,-1.61 -3.1,-1.61 -0.6,0 -1,0 -1,-0.77 0,-0.03 0,-0.48 0.6,-0.48 1,0 3.5,0.14 4.5,0.14 0.6,0 1.8,0 2.4,-0.03 0.7,-0.05 1.5,-0.11 2.2,-0.11 0.2,0 0.7,0 0.7,0.77 0,0.48 -0.4,0.48 -1.1,0.48 0,0 -0.7,0 -1.3,0.08 -0.8,0.06 -0.8,0.17 -0.8,0.51 0,0.03 0,0.25 0.2,0.77 z"
           inkscape:connector-curvature="0"
           style="fill:#000000;stroke-width:0" /><path
           id="path1676"
           d="m 1164.8,409.66 -0.6,-0.45 -0.6,-0.46 -0.5,-0.47 -0.6,-0.49 -0.4,-0.5 -0.5,-0.51 -0.5,-0.53 -0.4,-0.53 -0.4,-0.54 -0.4,-0.55 -0.3,-0.56 -0.3,-0.56 -0.4,-0.57 -0.2,-0.57 -0.3,-0.58 -0.3,-0.58 -0.2,-0.58 -0.2,-0.58 -0.2,-0.59 -0.2,-0.58 -0.1,-0.58 -0.2,-0.58 -0.1,-0.57 -0.1,-0.57 -0.1,-0.57 -0.1,-0.56 v -0.55 l -0.1,-0.54 v -0.54 -0.53 l -0.1,-0.51 v -0.51 c 0,-4.92 1.5,-12.55 8.4,-17.42 0.3,0 0.7,0 0.7,0.4 0,0.22 -0.1,0.29 -0.3,0.54 -4.7,4.18 -6.4,10.1 -6.4,16.45 0,9.4 3.6,14 6.5,16.58 0.1,0.14 0.2,0.25 0.2,0.42 0,0.42 -0.4,0.42 -0.7,0.42 z"
           inkscape:connector-curvature="0"
           style="fill:#000000;stroke-width:0" /><path
           id="path1678"
           d="m 1180,394.74 h 3.7 c 2.6,0 3.1,-0.42 3.1,-1.56 0,-0.54 0,-0.6 -0.3,-1.58 0,-0.21 -0.1,-0.31 -0.1,-0.41 0,-0.36 0.3,-0.53 0.6,-0.53 0.5,0 0.5,0.17 0.7,0.8 l 1.9,7.39 c 0,0.11 0.1,0.62 0.1,0.7 0,0.34 -0.2,0.52 -0.6,0.52 -0.5,0 -0.5,-0.21 -0.7,-0.83 -0.7,-2.72 -1.7,-3.25 -4.6,-3.25 h -3.5 l 2.2,8.75 c 0.2,1.08 0.3,1.19 1.7,1.19 h 5.4 c 4.6,0 5.5,-1.11 5.5,-4.02 0,-1.14 -0.2,-1.87 -0.2,-2.16 0,-0.28 0.1,-0.59 0.6,-0.59 0.6,0 0.6,0.31 0.7,0.91 l 0.6,6.06 c 0.1,1.05 -0.2,1.05 -1,1.05 h -18.6 c -0.7,0 -1.1,0 -1.1,-0.77 0,-0.48 0.4,-0.48 1.1,-0.48 0,0 0.7,0 1.3,-0.08 0.7,-0.06 0.8,-0.13 0.8,-0.49 0,-0.23 -0.1,-0.59 -0.2,-0.76 l -4.5,-18.22 c -0.4,-1.36 -0.4,-1.61 -3.1,-1.61 -0.6,0 -1.1,0 -1.1,-0.73 0,-0.35 0.3,-0.52 0.6,-0.52 1,0 3.6,0.14 4.6,0.14 l 2.7,-0.03 c 0.9,0 1.9,-0.11 2.7,-0.11 0.3,0 0.8,0 0.8,0.77 0,0.48 -0.4,0.48 -1.2,0.48 -0.1,0 -1,0 -1.8,0.08 -0.8,0.06 -1.1,0.09 -1.1,0.59 0,0.14 0,0.24 0.1,0.63 z"
           inkscape:connector-curvature="0"
           style="fill:#000000;stroke-width:0" /><path
           id="path1680"
           d="m 1201.9,409.66 v 0 h -0.1 v 0 0 0 h -0.1 v 0 -0.01 0 h -0.1 v -0.01 0 l -0.1,-0.01 v -0.01 0 -0.01 l -0.1,-0.01 v -0.02 -0.01 -0.01 l -0.1,-0.02 v -0.02 -0.02 -0.01 -0.01 -0.01 -0.01 -0.01 -0.02 -0.01 l -0.1,-0.01 v -0.02 -0.01 -0.02 -0.01 -0.02 -0.02 -0.02 -0.01 -0.02 -0.02 c 0,-0.17 0.1,-0.28 0.3,-0.53 3,-2.75 6.4,-7.46 6.4,-16.44 0,-7.28 -2.3,-12.8 -6.1,-16.2 -0.5,-0.6 -0.6,-0.63 -0.6,-0.82 0,-0.17 0.1,-0.4 0.5,-0.4 0.4,0 3.7,2.29 6,6.65 1.5,2.89 2.5,6.66 2.5,10.74 0,4.9 -1.4,12.53 -8.3,17.42 z"
           inkscape:connector-curvature="0"
           style="fill:#000000;stroke-width:0" /><path
           id="path1682"
           d="m 1267.9,417.1 h 0.2 0.1 0.2 l 0.1,0.01 v 0 l 0.1,0.01 0.1,0.01 v 0.01 l 0.1,0.01 0.1,0.01 v 0.02 l 0.1,0.02 0.1,0.02 v 0.03 l 0.1,0.02 v 0.03 l 0.1,0.04 0.1,0.04 v 0.04 0.04 l 0.1,0.05 v 0.03 0.03 0.03 0.03 l 0.1,0.03 v 0.03 0.03 0.04 0.03 0.04 0.04 0.04 0.04 0.04 0.05 0.04 c 0,1 -0.9,1 -1.6,1 h -29.8 c -0.8,0 -1.7,0 -1.7,-1 0,-0.98 0.9,-0.98 1.7,-0.98 z"
           inkscape:connector-curvature="0"
           style="fill:#000000;stroke-width:0" /><path
           id="path1684"
           d="m 1268,407.43 h 0.1 v 0 h 0.2 0.1 l 0.1,0.01 v 0 l 0.1,0.01 0.1,0.01 0.1,0.01 v 0.01 l 0.1,0.01 0.1,0.02 v 0.02 l 0.1,0.02 v 0.03 l 0.1,0.02 0.1,0.04 v 0.03 l 0.1,0.04 v 0.04 0.05 l 0.1,0.02 v 0.03 0.02 0.03 0.03 0.03 l 0.1,0.03 v 0.04 0.03 0.04 0.03 0.04 0.04 0.04 0.04 0.05 0.04 0.05 c 0,1 -0.9,1 -1.7,1 h -29.7 c -0.8,0 -1.7,0 -1.7,-1 0,-1 0.9,-1 1.7,-1 z"
           inkscape:connector-curvature="0"
           style="fill:#000000;stroke-width:0" /><path
           id="path1686"
           d="m 1421.2,451.06 -0.6,-0.44 -0.6,-0.46 -0.6,-0.48 -0.5,-0.49 -0.5,-0.5 -0.5,-0.51 -0.4,-0.52 -0.4,-0.54 -0.4,-0.54 -0.4,-0.55 -0.4,-0.55 -0.3,-0.57 -0.3,-0.57 -0.3,-0.57 -0.2,-0.58 -0.3,-0.58 -0.2,-0.58 -0.2,-0.58 -0.2,-0.58 -0.2,-0.59 -0.2,-0.58 -0.1,-0.57 -0.1,-0.58 -0.1,-0.57 -0.1,-0.57 -0.1,-0.55 -0.1,-0.56 v -0.54 l -0.1,-0.54 v -0.53 -0.51 -0.51 c 0,-4.92 1.5,-12.55 8.4,-17.42 0.3,0 0.7,0 0.7,0.41 0,0.22 -0.1,0.28 -0.4,0.53 -4.6,4.19 -6.3,10.11 -6.3,16.45 0,9.41 3.6,14 6.4,16.58 0.2,0.14 0.3,0.25 0.3,0.42 0,0.42 -0.4,0.42 -0.7,0.42 z"
           inkscape:connector-curvature="0"
           style="fill:#000000;stroke-width:0" /><path
           id="path1688"
           d="m 1436.1,447.08 v 0.04 0.04 0.05 0.04 0.03 0.04 0.04 0.03 0.04 0.03 0.03 0.03 0.03 0.03 l -0.1,0.03 v 0.02 0.03 0.02 0.05 0.04 0.04 0.03 0.03 l -0.1,0.03 v 0.03 0.02 0.02 l -0.1,0.02 V 448 l -0.1,0.02 v 0.01 0 0.01 h -0.1 v 0 0.01 h -0.1 v 0 0 0.01 h -0.1 v 0 h -0.1 v 0 0 h -0.1 v 0 0 h -0.1 v 0 h -0.1 c -2.2,-2.2 -5.4,-2.23 -6.8,-2.23 v -1.25 c 0.8,0 3.1,0 5,0.97 v -17.77 c 0,-1.16 0,-1.61 -3.4,-1.61 h -1.4 v -1.25 c 0.7,0.03 4.9,0.14 6.3,0.14 1,0 5.4,-0.11 6.2,-0.14 v 1.25 h -1.3 c -3.5,0 -3.5,0.45 -3.5,1.61 z"
           inkscape:connector-curvature="0"
           style="fill:#000000;stroke-width:0" /><path
           id="path1690"
           d="m 1461.7,449.52 v 0.02 0.02 0.02 0.02 0.02 0.01 0.02 0.02 0.02 0.01 l 0.1,0.03 v 0.03 0.03 0.03 0.02 0.03 0.02 0.02 0.02 0.02 0.02 0.02 l 0.1,0.01 v 0.02 0.01 0.02 0.01 0.01 0.02 0.02 0.03 0.02 0.03 c 0,0.54 -0.5,0.87 -0.9,0.87 -0.6,0 -0.7,-0.42 -0.9,-0.87 l -13,-32.44 c -0.2,-0.45 -0.2,-0.53 -0.2,-0.67 0,-0.55 0.4,-0.88 0.8,-0.88 0.6,0 0.8,0.42 1,0.88 z"
           inkscape:connector-curvature="0"
           style="fill:#000000;stroke-width:0" /><path
           id="path1692"
           d="m 1482.2,431.27 h -1.2 c -0.1,-0.77 -0.4,-2.83 -0.9,-3.18 -0.3,-0.2 -3,-0.2 -3.4,-0.2 h -6.5 c 3.7,3.23 4.9,4.2 7,5.84 2.6,2.07 5,4.22 5,7.54 0,4.21 -3.7,6.79 -8.2,6.79 -4.3,0 -7.2,-3.03 -7.2,-6.23 0,-1.78 1.5,-1.95 1.8,-1.95 0.9,0 1.9,0.59 1.9,1.84 0,0.62 -0.3,1.84 -2.1,1.84 1.1,2.47 3.5,3.24 5.1,3.24 3.5,0 5.3,-2.71 5.3,-5.53 0,-3.04 -2.1,-5.44 -3.3,-6.69 l -8.4,-8.3 c -0.3,-0.31 -0.3,-0.39 -0.3,-1.36 h 14.3 z"
           inkscape:connector-curvature="0"
           style="fill:#000000;stroke-width:0" /><path
           id="path1694"
           d="m 1487.5,451.06 v 0 0 0 h -0.1 v 0 0 h -0.1 v 0 -0.01 0 h -0.1 v -0.01 -0.01 0 l -0.1,-0.01 v -0.01 -0.01 -0.01 l -0.1,-0.02 v -0.01 -0.02 -0.01 l -0.1,-0.02 v -0.01 -0.02 -0.01 -0.01 -0.01 -0.01 -0.02 -0.01 -0.01 -0.02 -0.02 -0.01 -0.02 -0.01 -0.02 -0.02 -0.02 -0.02 c 0,-0.17 0.1,-0.28 0.3,-0.53 3,-2.75 6.3,-7.45 6.3,-16.44 0,-7.28 -2.3,-12.79 -6,-16.2 -0.6,-0.59 -0.6,-0.63 -0.6,-0.81 0,-0.18 0.1,-0.41 0.4,-0.41 0.4,0 3.8,2.3 6,6.66 1.6,2.89 2.6,6.65 2.6,10.73 0,4.91 -1.5,12.53 -8.4,17.42 z"
           inkscape:connector-curvature="0"
           style="fill:#000000;stroke-width:0" /><path
           id="path1696"
           d="m 1508.2,448.17 h 0.2 l 0.2,-0.01 0.2,-0.03 0.2,-0.02 0.2,-0.04 0.2,-0.05 0.2,-0.05 0.2,-0.06 0.2,-0.07 0.1,-0.07 0.2,-0.09 0.1,-0.09 0.2,-0.1 0.1,-0.1 0.2,-0.12 0.1,-0.12 0.1,-0.13 0.1,-0.13 0.1,-0.14 0.1,-0.15 0.1,-0.16 0.1,-0.16 0.1,-0.17 0.1,-0.18 v -0.18 l 0.1,-0.19 v -0.2 l 0.1,-0.2 v -0.21 -0.22 -0.22 -0.23 c 0,-2.55 -1.5,-3.89 -3.8,-3.89 -0.2,0 -3.2,0 -4.5,1.3 1.1,0.15 1.4,0.92 1.4,1.51 0,0.92 -0.7,1.53 -1.6,1.53 -0.8,0 -1.5,-0.53 -1.5,-1.57 0,-2.6 2.9,-3.78 6.3,-3.78 4.1,0 6.6,2.46 6.6,4.87 0,2.05 -1.8,3.8 -4.6,4.44 3,0.97 3.8,2.87 3.8,4.26 0,2.05 -2.6,3.57 -5.7,3.57 -3.1,0 -5.5,-1.3 -5.5,-3.55 0,-1.17 0.9,-1.47 1.4,-1.47 0.7,0 1.4,0.53 1.4,1.42 0,0.58 -0.3,1.28 -1.2,1.42 1.1,1.14 3.3,1.22 3.8,1.22 1.8,0 3.1,-0.92 3.1,-2.61 0,-1.45 -0.9,-3.72 -3.5,-3.86 -0.7,-0.03 -0.8,-0.04 -1.5,-0.07 -0.2,-0.04 -0.5,-0.05 -0.5,-0.43 0,-0.42 0.2,-0.42 0.7,-0.42 z"
           inkscape:connector-curvature="0"
           style="fill:#000000;stroke-width:0" /><path
           id="path1698"
           d="m 1530.7,433.59 0.3,0.12 0.2,0.11 0.3,0.11 0.2,0.1 0.2,0.1 0.2,0.1 0.3,0.09 0.2,0.09 0.2,0.08 0.1,0.08 0.2,0.08 0.2,0.08 0.2,0.07 0.1,0.07 0.2,0.06 0.1,0.07 0.2,0.06 0.1,0.06 0.2,0.05 0.1,0.06 0.1,0.05 0.1,0.05 0.2,0.05 0.1,0.05 0.1,0.04 0.1,0.05 0.2,0.08 0.1,0.09 0.2,0.08 c 0.7,0.26 1,0.4 1,1.07 0,0.6 -0.5,1.11 -1.1,1.11 -0.2,0 -0.3,0 -0.7,-0.31 l -4.8,-3.17 0.6,5.15 c 0,0.63 0,1.5 -1.1,1.5 -0.4,0 -1.1,-0.28 -1.1,-1.04 0,-0.31 0.2,-1.36 0.2,-1.7 0.1,-0.6 0.3,-3.11 0.4,-3.91 l -4.7,3.17 c -0.4,0.2 -0.5,0.31 -0.8,0.31 -0.6,0 -1.1,-0.51 -1.1,-1.11 0,-0.7 0.5,-0.87 0.8,-1.01 l 5.2,-2.19 c -2.8,-1.26 -4.1,-1.75 -5,-2.17 -0.6,-0.28 -1,-0.42 -1,-1.08 0,-0.59 0.5,-1.11 1.1,-1.11 0.3,0 0.3,0 0.7,0.31 l 4.8,3.18 -0.6,-5.61 c 0,-0.77 0.7,-1.05 1.1,-1.05 0.4,0 1.1,0.28 1.1,1.05 0,0.31 -0.1,1.36 -0.2,1.7 0,0.59 -0.3,3.09 -0.4,3.91 l 4.2,-2.8 c 0.9,-0.69 1,-0.69 1.3,-0.69 0.6,0 1.1,0.52 1.1,1.11 0,0.7 -0.4,0.88 -0.7,1.02 z"
           inkscape:connector-curvature="0"
           style="fill:#000000;stroke-width:0" /><path
           id="path1700"
           d="m 1557.8,436.03 v 0.71 0.68 0.66 l -0.1,0.64 v 0.62 l -0.1,0.6 -0.1,0.57 -0.1,0.56 -0.1,0.55 -0.2,0.53 -0.1,0.51 -0.2,0.5 -0.3,0.49 -0.2,0.48 -0.3,0.47 -0.1,0.23 -0.1,0.23 c -1.1,1.61 -3.3,3 -6.1,3 -8,0 -8,-9.51 -8,-12.03 0,-2.5 0,-11.81 8,-11.81 v 0.98 c -1.6,0 -3.7,0.94 -4.4,3.8 -0.5,2.05 -0.5,4.91 -0.5,7.48 0,2.55 0,5.21 0.5,7.11 0.8,2.75 3,3.49 4.4,3.49 1.9,0 3.7,-1.14 4.4,-3.17 0.5,-1.88 0.6,-4.39 0.6,-7.43 0,-2.57 0,-5.15 -0.5,-7.34 -0.7,-3.17 -3.1,-3.94 -4.5,-3.94 v 0 -0.98 c 8.1,0 8.1,9.31 8.1,11.81 z"
           inkscape:connector-curvature="0"
           style="fill:#000000;stroke-width:0" /><path
           id="path1702"
           d="m 1567.5,426.91 v 0.11 0.11 0.11 0.11 0.11 l -0.1,0.1 v 0.09 0.1 l -0.1,0.09 v 0.09 l -0.1,0.08 v 0.08 l -0.1,0.08 -0.1,0.08 v 0.07 l -0.1,0.06 -0.1,0.07 v 0.06 l -0.1,0.05 -0.1,0.05 -0.1,0.05 -0.1,0.05 v 0.04 l -0.1,0.03 -0.1,0.03 -0.1,0.03 -0.1,0.03 -0.1,0.02 -0.1,0.01 -0.1,0.01 -0.1,0.01 v 0 c -1.2,0 -2.1,-0.94 -2.1,-1.98 0,-1.25 1.1,-2.02 2,-2.02 1.2,0 2,0.94 2,1.99 z"
           inkscape:connector-curvature="0"
           style="fill:#000000;stroke-width:0" /><path
           id="path1704"
           d="m 1589.5,436.03 v 0.71 0.68 l -0.1,0.66 v 0.64 l -0.1,0.62 v 0.6 l -0.1,0.57 -0.1,0.56 -0.2,0.55 -0.1,0.53 -0.2,0.51 -0.2,0.5 -0.2,0.49 -0.2,0.48 -0.3,0.47 -0.1,0.23 -0.2,0.23 c -1,1.61 -3.2,3 -6,3 -8.1,0 -8.1,-9.51 -8.1,-12.03 0,-2.5 0,-11.81 8.1,-11.81 v 0.98 c -1.6,0 -3.7,0.94 -4.4,3.8 -0.5,2.05 -0.5,4.91 -0.5,7.48 0,2.55 0,5.21 0.5,7.11 0.8,2.75 3,3.49 4.4,3.49 1.9,0 3.7,-1.14 4.3,-3.17 0.6,-1.88 0.6,-4.39 0.6,-7.43 0,-2.57 0,-5.15 -0.4,-7.34 -0.7,-3.17 -3.1,-3.94 -4.5,-3.94 v 0 -0.98 c 8.1,0 8.1,9.31 8.1,11.81 z"
           inkscape:connector-curvature="0"
           style="fill:#000000;stroke-width:0" /><path
           id="path1706"
           d="m 1608.9,431.27 h -1.2 c -0.1,-0.77 -0.4,-2.83 -0.9,-3.18 -0.2,-0.2 -2.9,-0.2 -3.4,-0.2 h -6.5 c 3.7,3.23 4.9,4.2 7,5.84 2.6,2.07 5,4.22 5,7.54 0,4.21 -3.7,6.79 -8.1,6.79 -4.4,0 -7.3,-3.03 -7.3,-6.23 0,-1.78 1.5,-1.95 1.9,-1.95 0.8,0 1.8,0.59 1.8,1.84 0,0.62 -0.3,1.84 -2.1,1.84 1.1,2.47 3.5,3.24 5.1,3.24 3.5,0 5.3,-2.71 5.3,-5.53 0,-3.04 -2.1,-5.44 -3.3,-6.69 l -8.3,-8.3 c -0.4,-0.31 -0.4,-0.39 -0.4,-1.36 h 14.4 z"
           inkscape:connector-curvature="0"
           style="fill:#000000;stroke-width:0" /><polyline
           id="polyline1708"
           points="1292,412 1727.6,412 1727.6,414.04 1292,414.04 "
           style="fill:#000000;fill-rule:nonzero;stroke-width:0" /><path
           id="path1710"
           d="m 1304.7,409.66 -0.6,-0.45 -0.6,-0.46 -0.6,-0.47 -0.5,-0.49 -0.5,-0.5 -0.5,-0.51 -0.4,-0.53 -0.4,-0.53 -0.4,-0.54 -0.4,-0.55 -0.4,-0.56 -0.3,-0.56 -0.3,-0.57 -0.3,-0.57 -0.3,-0.58 -0.2,-0.58 -0.2,-0.58 -0.3,-0.58 -0.1,-0.59 -0.2,-0.58 -0.2,-0.58 -0.1,-0.58 -0.1,-0.57 -0.1,-0.57 -0.1,-0.57 -0.1,-0.56 -0.1,-0.55 v -0.54 l -0.1,-0.54 v -0.53 -0.51 -0.51 c 0,-4.92 1.5,-12.55 8.4,-17.42 0.2,0 0.6,0 0.6,0.4 0,0.22 -0.1,0.29 -0.3,0.54 -4.6,4.18 -6.3,10.1 -6.3,16.45 0,9.4 3.5,14 6.4,16.58 0.1,0.14 0.2,0.25 0.2,0.42 0,0.42 -0.4,0.42 -0.6,0.42 z"
           inkscape:connector-curvature="0"
           style="fill:#000000;stroke-width:0" /><path
           id="path1712"
           d="m 1319.6,405.68 v 0.04 l -0.1,0.04 v 0.04 0.04 0.04 0.04 0.04 0.03 0.04 0.03 0.03 0.03 0.03 0.03 0.03 0.02 0.03 0.02 0.02 0.03 0.04 0.04 0.03 l -0.1,0.03 v 0.03 0.03 0.02 l -0.1,0.02 v 0.01 0.02 l -0.1,0.01 v 0.01 0.01 h -0.1 v 0.01 0 0 l -0.1,0.01 v 0 0 h -0.1 v 0 0.01 h -0.1 v 0 0 h -0.1 v 0 h -0.1 v 0 h -0.1 v 0 c -2.2,-2.2 -5.4,-2.23 -6.8,-2.23 v -1.25 c 0.8,0 3.1,0 5,0.96 v -17.76 c 0,-1.16 0,-1.61 -3.5,-1.61 h -1.3 v -1.25 c 0.7,0.03 4.9,0.14 6.2,0.14 1.1,0 5.5,-0.11 6.3,-0.14 v 1.25 h -1.4 c -3.4,0 -3.4,0.45 -3.4,1.61 z"
           inkscape:connector-curvature="0"
           style="fill:#000000;stroke-width:0" /><path
           id="path1714"
           d="m 1345.1,408.11 v 0.02 0.02 l 0.1,0.02 v 0.02 0.02 0.02 0.02 0.02 0.01 0.02 0.03 0.03 l 0.1,0.03 v 0.03 0.02 0.03 0.02 0.02 0.02 0.02 0.02 0.01 0.02 0.02 0.01 0.01 0.02 0.01 0.01 0.03 0.02 0.03 0.03 c 0,0.54 -0.4,0.87 -0.8,0.87 -0.6,0 -0.8,-0.42 -0.9,-0.87 l -13,-32.44 c -0.2,-0.46 -0.2,-0.53 -0.2,-0.67 0,-0.55 0.4,-0.88 0.8,-0.88 0.6,0 0.8,0.42 0.9,0.88 z"
           inkscape:connector-curvature="0"
           style="fill:#000000;stroke-width:0" /><path
           id="path1716"
           d="m 1365.7,389.86 h -1.2 c -0.1,-0.76 -0.5,-2.82 -0.9,-3.17 -0.3,-0.2 -3,-0.2 -3.5,-0.2 h -6.4 c 3.7,3.23 4.9,4.2 7,5.84 2.6,2.06 5,4.22 5,7.53 0,4.22 -3.7,6.8 -8.2,6.8 -4.3,0 -7.2,-3.03 -7.2,-6.23 0,-1.79 1.5,-1.96 1.8,-1.96 0.8,0 1.9,0.6 1.9,1.85 0,0.62 -0.3,1.84 -2.1,1.84 1.1,2.47 3.5,3.23 5.1,3.23 3.5,0 5.3,-2.7 5.3,-5.53 0,-3.03 -2.2,-5.43 -3.3,-6.68 l -8.4,-8.3 c -0.3,-0.31 -0.3,-0.39 -0.3,-1.36 h 14.3 z"
           inkscape:connector-curvature="0"
           style="fill:#000000;stroke-width:0" /><path
           id="path1718"
           d="m 1371,409.66 v 0 0 h -0.1 v 0 0 0 h -0.1 v -0.01 0 h -0.1 v -0.01 0 -0.01 l -0.1,-0.01 v 0 -0.01 -0.01 l -0.1,-0.02 v -0.01 -0.01 -0.02 l -0.1,-0.02 v -0.02 -0.01 -0.01 -0.01 -0.01 -0.01 -0.02 -0.01 -0.01 -0.02 -0.01 -0.02 -0.01 l -0.1,-0.02 v -0.02 -0.02 -0.01 -0.02 -0.02 c 0,-0.17 0.1,-0.28 0.4,-0.53 3,-2.75 6.3,-7.46 6.3,-16.44 0,-7.28 -2.3,-12.8 -6,-16.2 -0.6,-0.6 -0.7,-0.63 -0.7,-0.82 0,-0.17 0.1,-0.4 0.5,-0.4 0.4,0 3.7,2.29 6,6.65 1.6,2.89 2.6,6.66 2.6,10.74 0,4.9 -1.5,12.53 -8.4,17.42 z"
           inkscape:connector-curvature="0"
           style="fill:#000000;stroke-width:0" /><path
           id="path1720"
           d="m 1391.7,401.73 h 0.2 l 0.2,-0.02 0.2,-0.02 0.2,-0.03 0.2,-0.03 0.2,-0.05 0.2,-0.05 0.2,-0.06 0.1,-0.07 0.2,-0.07 0.2,-0.09 0.1,-0.09 0.2,-0.1 0.1,-0.1 0.1,-0.12 0.2,-0.12 0.1,-0.13 0.1,-0.13 0.1,-0.14 0.1,-0.15 0.1,-0.16 0.1,-0.16 0.1,-0.17 v -0.18 l 0.1,-0.18 0.1,-0.19 v -0.2 -0.2 l 0.1,-0.21 v -0.22 -0.22 -0.23 c 0,-2.55 -1.6,-3.89 -3.8,-3.89 -0.3,0 -3.2,0 -4.5,1.3 1,0.15 1.3,0.92 1.3,1.51 0,0.92 -0.7,1.53 -1.5,1.53 -0.8,0 -1.5,-0.53 -1.5,-1.58 0,-2.59 2.9,-3.78 6.3,-3.78 4.1,0 6.6,2.47 6.6,4.88 0,2.05 -1.8,3.8 -4.6,4.44 3,0.96 3.8,2.87 3.8,4.26 0,2.05 -2.6,3.56 -5.7,3.56 -3.1,0 -5.6,-1.29 -5.6,-3.54 0,-1.17 1,-1.47 1.5,-1.47 0.7,0 1.4,0.53 1.4,1.42 0,0.58 -0.3,1.28 -1.2,1.42 1.1,1.14 3.3,1.22 3.8,1.22 1.8,0 3.1,-0.92 3.1,-2.61 0,-1.45 -0.9,-3.72 -3.5,-3.86 -0.7,-0.03 -0.8,-0.04 -1.5,-0.08 -0.3,-0.03 -0.5,-0.04 -0.5,-0.42 0,-0.42 0.2,-0.42 0.7,-0.42 z"
           inkscape:connector-curvature="0"
           style="fill:#000000;stroke-width:0" /><path
           id="path1722"
           d="m 1414.2,392.19 0.2,0.12 0.3,0.11 0.2,0.11 0.3,0.1 0.2,0.1 0.2,0.1 0.2,0.09 0.2,0.09 0.2,0.08 0.2,0.08 0.2,0.08 0.2,0.07 0.2,0.08 0.1,0.06 0.2,0.07 0.1,0.06 0.2,0.06 0.1,0.06 0.1,0.06 0.2,0.05 0.1,0.06 0.1,0.05 0.1,0.05 0.1,0.04 0.2,0.05 0.1,0.04 0.1,0.09 0.2,0.08 0.2,0.08 c 0.7,0.27 1,0.41 1,1.08 0,0.6 -0.5,1.11 -1.1,1.11 -0.3,0 -0.3,0 -0.7,-0.31 l -4.8,-3.17 0.5,5.15 c 0.1,0.63 0,1.5 -1,1.5 -0.4,0 -1.1,-0.28 -1.1,-1.04 0,-0.32 0.2,-1.36 0.2,-1.71 0.1,-0.59 0.3,-3.11 0.4,-3.9 l -4.7,3.17 c -0.4,0.2 -0.5,0.31 -0.8,0.31 -0.6,0 -1.1,-0.51 -1.1,-1.11 0,-0.7 0.4,-0.87 0.8,-1.01 l 5.2,-2.19 c -2.8,-1.27 -4.1,-1.75 -5,-2.17 -0.7,-0.28 -1,-0.43 -1,-1.08 0,-0.6 0.5,-1.11 1.1,-1.11 0.2,0 0.3,0 0.7,0.31 l 4.8,3.17 -0.6,-5.61 c 0,-0.76 0.7,-1.04 1.1,-1.04 0.4,0 1.1,0.28 1.1,1.04 0,0.32 -0.2,1.36 -0.2,1.71 -0.1,0.59 -0.3,3.09 -0.4,3.9 l 4.2,-2.79 c 0.9,-0.69 1,-0.69 1.3,-0.69 0.6,0 1.1,0.51 1.1,1.11 0,0.7 -0.4,0.87 -0.8,1.01 z"
           inkscape:connector-curvature="0"
           style="fill:#000000;stroke-width:0" /><path
           id="path1724"
           d="m 1441.3,394.63 v 0.71 0.68 l -0.1,0.66 v 0.64 l -0.1,0.62 v 0.59 l -0.1,0.58 -0.1,0.56 -0.2,0.55 -0.1,0.53 -0.2,0.51 -0.2,0.5 -0.2,0.49 -0.2,0.48 -0.3,0.47 -0.1,0.23 -0.2,0.23 c -1,1.61 -3.2,3 -6,3 v -0.98 c 1.9,0 3.7,-1.14 4.3,-3.18 0.6,-1.87 0.6,-4.39 0.6,-7.42 0,-2.58 0,-5.15 -0.4,-7.34 -0.7,-3.17 -3.1,-3.94 -4.5,-3.94 v 0 c -1.6,0 -3.7,0.94 -4.4,3.8 -0.5,2.04 -0.5,4.9 -0.5,7.48 0,2.55 0,5.21 0.5,7.11 0.8,2.75 3,3.49 4.4,3.49 v 0.98 c -8.1,0 -8.1,-9.52 -8.1,-12.03 0,-2.5 0,-11.81 8.1,-11.81 8.1,0 8.1,9.31 8.1,11.81 z"
           inkscape:connector-curvature="0"
           style="fill:#000000;stroke-width:0" /><path
           id="path1726"
           d="m 1451,385.5 v 0.12 0.11 0.11 0.11 l -0.1,0.1 v 0.1 0.1 l -0.1,0.1 v 0.09 0.09 l -0.1,0.08 -0.1,0.08 v 0.08 l -0.1,0.07 v 0.07 l -0.1,0.07 -0.1,0.06 -0.1,0.06 v 0.06 l -0.1,0.05 -0.1,0.05 -0.1,0.04 -0.1,0.04 -0.1,0.04 v 0.03 l -0.1,0.03 -0.1,0.02 -0.1,0.02 -0.1,0.02 -0.1,0.01 -0.1,0.01 h -0.1 c -1.1,0 -2,-0.94 -2,-1.98 0,-1.25 1.1,-2.02 2,-2.02 1.2,0 2,0.94 2,1.98 z"
           inkscape:connector-curvature="0"
           style="fill:#000000;stroke-width:0" /><path
           id="path1728"
           d="m 1473,394.63 v 0.71 0.68 l -0.1,0.66 v 0.64 l -0.1,0.62 v 0.59 l -0.1,0.58 -0.1,0.56 -0.2,0.55 -0.1,0.53 -0.2,0.51 -0.2,0.5 -0.2,0.49 -0.2,0.48 -0.3,0.47 -0.1,0.23 -0.2,0.23 c -1.1,1.61 -3.2,3 -6,3 v -0.98 c 1.9,0 3.7,-1.14 4.3,-3.18 0.6,-1.87 0.6,-4.39 0.6,-7.42 0,-2.58 0,-5.15 -0.4,-7.34 -0.7,-3.17 -3.1,-3.94 -4.5,-3.94 v 0 c -1.6,0 -3.7,0.94 -4.4,3.8 -0.5,2.04 -0.5,4.9 -0.5,7.48 0,2.55 0,5.21 0.5,7.11 0.7,2.75 3,3.49 4.4,3.49 v 0.98 c -8.1,0 -8.1,-9.52 -8.1,-12.03 0,-2.5 0,-11.81 8.1,-11.81 8.1,0 8.1,9.31 8.1,11.81 z"
           inkscape:connector-curvature="0"
           style="fill:#000000;stroke-width:0" /><path
           id="path1730"
           d="m 1492.4,389.86 h -1.2 c -0.1,-0.76 -0.4,-2.82 -0.9,-3.17 -0.3,-0.2 -3,-0.2 -3.4,-0.2 h -6.5 c 3.7,3.23 4.9,4.2 7,5.84 2.6,2.06 5,4.22 5,7.53 0,4.22 -3.7,6.8 -8.2,6.8 -4.3,0 -7.2,-3.03 -7.2,-6.23 0,-1.79 1.5,-1.96 1.8,-1.96 0.9,0 1.9,0.6 1.9,1.85 0,0.62 -0.3,1.84 -2.1,1.84 1.1,2.47 3.5,3.23 5.1,3.23 3.5,0 5.3,-2.7 5.3,-5.53 0,-3.03 -2.1,-5.43 -3.3,-6.68 l -8.4,-8.3 c -0.3,-0.31 -0.3,-0.39 -0.3,-1.36 h 14.3 z"
           inkscape:connector-curvature="0"
           style="fill:#000000;stroke-width:0" /><path
           id="path1732"
           d="m 1510.7,391.39 h 10.7 c 0.4,0 1.3,0 1.3,0.85 0,0.86 -0.8,0.86 -1.3,0.86 h -10.7 v 10.7 c 0,0.45 0,1.28 -0.8,1.28 -0.9,0 -0.9,-0.79 -0.9,-1.28 v -10.7 h -10.7 c -0.4,0 -1.3,0 -1.3,-0.83 0,-0.88 0.8,-0.88 1.3,-0.88 h 10.7 v -10.7 c 0,-0.45 0,-1.28 0.9,-1.28 0.8,0 0.8,0.8 0.8,1.28 z"
           inkscape:connector-curvature="0"
           style="fill:#000000;stroke-width:0" /><path
           id="path1734"
           d="m 1537.6,409.66 -0.6,-0.45 -0.6,-0.46 -0.6,-0.47 -0.5,-0.49 -0.5,-0.5 -0.5,-0.51 -0.4,-0.53 -0.4,-0.53 -0.4,-0.54 -0.4,-0.55 -0.4,-0.56 -0.3,-0.56 -0.3,-0.57 -0.3,-0.57 -0.3,-0.58 -0.2,-0.58 -0.2,-0.58 -0.2,-0.58 -0.2,-0.59 -0.2,-0.58 -0.2,-0.58 -0.1,-0.58 -0.1,-0.57 -0.1,-0.57 -0.1,-0.57 -0.1,-0.56 -0.1,-0.55 v -0.54 l -0.1,-0.54 v -0.53 -0.51 -0.51 c 0,-4.92 1.5,-12.55 8.4,-17.42 0.2,0 0.6,0 0.6,0.4 0,0.22 0,0.29 -0.3,0.54 -4.6,4.18 -6.3,10.1 -6.3,16.45 0,9.4 3.6,14 6.4,16.58 0.2,0.14 0.2,0.25 0.2,0.42 0,0.42 -0.4,0.42 -0.6,0.42 z"
           inkscape:connector-curvature="0"
           style="fill:#000000;stroke-width:0" /><path
           id="path1736"
           d="m 1552.5,405.68 v 0.04 0.04 0.04 0.04 0.04 0.04 0.04 0.03 0.04 0.03 l -0.1,0.03 v 0.03 0.03 0.03 0.03 0.02 0.03 0.02 0.02 0.03 0.04 0.04 0.03 l -0.1,0.03 v 0.03 0.03 0.02 l -0.1,0.02 v 0.01 0.02 l -0.1,0.01 v 0.01 l -0.1,0.01 v 0.01 0 0 l -0.1,0.01 v 0 0 h -0.1 v 0 0.01 h -0.1 v 0 0 h -0.1 v 0 h -0.1 v 0 0 h -0.1 c -2.2,-2.2 -5.4,-2.23 -6.8,-2.23 v -1.25 c 0.8,0 3.1,0 5,0.96 v -17.76 c 0,-1.16 0,-1.61 -3.5,-1.61 h -1.3 v -1.25 c 0.7,0.03 4.9,0.14 6.2,0.14 1.1,0 5.5,-0.11 6.3,-0.14 v 1.25 h -1.4 c -3.4,0 -3.4,0.45 -3.4,1.61 z"
           inkscape:connector-curvature="0"
           style="fill:#000000;stroke-width:0" /><path
           id="path1738"
           d="m 1578,408.11 v 0.02 l 0.1,0.02 v 0.02 0.02 0.02 0.02 0.02 0.02 0.01 0.02 0.03 0.03 l 0.1,0.03 v 0.03 0.02 0.03 0.02 0.02 0.02 0.02 0.02 0.01 0.02 0.02 0.01 0.01 0.02 0.01 0.01 0.03 0.02 0.03 0.03 c 0,0.54 -0.4,0.87 -0.8,0.87 -0.6,0 -0.8,-0.42 -0.9,-0.87 l -13,-32.44 c -0.2,-0.46 -0.2,-0.53 -0.2,-0.67 0,-0.55 0.4,-0.88 0.8,-0.88 0.6,0 0.8,0.42 0.9,0.88 z"
           inkscape:connector-curvature="0"
           style="fill:#000000;stroke-width:0" /><path
           id="path1740"
           d="m 1586.2,394.91 v 0.53 0.53 0.52 l 0.1,0.51 v 0.5 l 0.1,0.5 v 0.49 l 0.1,0.48 0.1,0.47 0.1,0.46 0.1,0.45 0.2,0.45 0.1,0.22 v 0.21 l 0.1,0.21 0.1,0.22 0.1,0.2 0.1,0.21 0.2,0.2 0.1,0.2 c 1.2,1.89 3,3.17 5.3,3.17 1,0 2.4,-0.28 3.1,-1.21 -0.9,-0.07 -1.6,-0.66 -1.6,-1.68 0,-0.87 0.6,-1.64 1.6,-1.64 1.1,0 1.7,0.71 1.7,1.71 0,2.03 -1.5,3.84 -4.9,3.84 -5,0 -10.1,-4.61 -10.1,-12.09 0,-9.03 4.2,-11.75 8,-11.75 4.3,0 8,3.25 8,7.81 0,4.42 -3.5,7.7 -7.6,7.7 l -0.2,-0.98 c 1.6,0 2.7,-0.63 3.6,-1.91 0.8,-1.33 0.8,-2.8 0.8,-4.81 0,-1.99 0,-3.45 -0.9,-4.81 -0.8,-1.22 -1.9,-1.88 -3.7,-1.88 v 0 c -1.7,0 -3.1,1 -3.8,2.55 -0.5,1.03 -0.8,2.78 -0.8,4.87 0,3.38 2,5.99 4.8,5.99 l 0.2,0.98 c -2.8,0 -4.3,-1.84 -5.1,-3.42 z"
           inkscape:connector-curvature="0"
           style="fill:#000000;stroke-width:0" /><path
           id="path1742"
           d="m 1603.9,409.66 v 0 0 h -0.1 v 0 0 0 h -0.1 v -0.01 0 0 l -0.1,-0.01 v 0 -0.01 l -0.1,-0.01 v 0 -0.01 -0.01 l -0.1,-0.02 v -0.01 -0.01 -0.02 -0.02 l -0.1,-0.02 v -0.01 -0.01 -0.01 -0.01 -0.01 -0.02 -0.01 -0.01 -0.02 -0.01 -0.02 -0.01 -0.02 -0.02 -0.02 -0.01 -0.02 l -0.1,-0.02 c 0,-0.17 0.2,-0.28 0.4,-0.53 3,-2.75 6.3,-7.46 6.3,-16.44 0,-7.28 -2.3,-12.8 -6,-16.2 -0.6,-0.6 -0.7,-0.63 -0.7,-0.82 0,-0.17 0.2,-0.4 0.5,-0.4 0.4,0 3.7,2.29 6,6.65 1.6,2.89 2.6,6.66 2.6,10.74 0,4.9 -1.5,12.53 -8.4,17.42 z"
           inkscape:connector-curvature="0"
           style="fill:#000000;stroke-width:0" /><path
           id="path1744"
           d="m 1624.6,401.73 h 0.2 l 0.2,-0.02 0.2,-0.02 0.2,-0.03 0.2,-0.03 0.2,-0.05 0.2,-0.05 0.2,-0.06 0.2,-0.07 0.1,-0.07 0.2,-0.09 0.1,-0.09 0.2,-0.1 0.1,-0.1 0.2,-0.12 0.1,-0.12 0.1,-0.13 0.1,-0.13 0.1,-0.14 0.1,-0.15 0.1,-0.16 0.1,-0.16 0.1,-0.17 0.1,-0.18 v -0.18 l 0.1,-0.19 v -0.2 l 0.1,-0.2 v -0.21 -0.22 -0.22 -0.23 c 0,-2.55 -1.5,-3.89 -3.7,-3.89 -0.3,0 -3.3,0 -4.6,1.3 1.1,0.15 1.4,0.92 1.4,1.51 0,0.92 -0.7,1.53 -1.6,1.53 -0.8,0 -1.5,-0.53 -1.5,-1.58 0,-2.59 2.9,-3.78 6.3,-3.78 4.1,0 6.6,2.47 6.6,4.88 0,2.05 -1.8,3.8 -4.6,4.44 3,0.96 3.8,2.87 3.8,4.26 0,2.05 -2.6,3.56 -5.7,3.56 -3.1,0 -5.5,-1.29 -5.5,-3.54 0,-1.17 0.9,-1.47 1.4,-1.47 0.7,0 1.4,0.53 1.4,1.42 0,0.58 -0.3,1.28 -1.2,1.42 1.1,1.14 3.3,1.22 3.8,1.22 1.8,0 3.1,-0.92 3.1,-2.61 0,-1.45 -0.9,-3.72 -3.5,-3.86 -0.7,-0.03 -0.8,-0.04 -1.5,-0.08 -0.2,-0.03 -0.5,-0.04 -0.5,-0.42 0,-0.42 0.2,-0.42 0.7,-0.42 z"
           inkscape:connector-curvature="0"
           style="fill:#000000;stroke-width:0" /><path
           id="path1746"
           d="m 1647.2,392.19 0.3,0.12 0.2,0.11 0.3,0.11 0.2,0.1 0.2,0.1 0.3,0.1 0.2,0.09 0.2,0.09 0.2,0.08 0.2,0.08 0.2,0.08 0.1,0.07 0.2,0.08 0.2,0.06 0.1,0.07 0.2,0.06 0.1,0.06 0.2,0.06 0.1,0.06 0.1,0.05 0.1,0.06 0.2,0.05 0.1,0.05 0.1,0.04 0.1,0.05 0.1,0.04 0.2,0.09 0.2,0.08 0.1,0.08 c 0.7,0.27 1,0.41 1,1.08 0,0.6 -0.4,1.11 -1.1,1.11 -0.2,0 -0.3,0 -0.7,-0.31 l -4.7,-3.17 0.5,5.15 c 0.1,0.63 0,1.5 -1.1,1.5 -0.4,0 -1,-0.28 -1,-1.04 0,-0.32 0.1,-1.36 0.1,-1.71 0.1,-0.59 0.3,-3.11 0.4,-3.9 l -4.7,3.17 c -0.3,0.2 -0.4,0.31 -0.7,0.31 -0.7,0 -1.1,-0.51 -1.1,-1.11 0,-0.7 0.4,-0.87 0.7,-1.01 l 5.3,-2.19 c -2.9,-1.27 -4.2,-1.75 -5.1,-2.17 -0.6,-0.28 -0.9,-0.43 -0.9,-1.08 0,-0.6 0.4,-1.11 1.1,-1.11 0.2,0 0.3,0 0.7,0.31 l 4.7,3.17 -0.5,-5.61 c 0,-0.76 0.6,-1.04 1,-1.04 0.5,0 1.1,0.28 1.1,1.04 0,0.32 -0.1,1.36 -0.2,1.71 0,0.59 -0.3,3.09 -0.3,3.9 l 4.1,-2.79 c 0.9,-0.69 1,-0.69 1.3,-0.69 0.7,0 1.1,0.51 1.1,1.11 0,0.7 -0.4,0.87 -0.7,1.01 z"
           inkscape:connector-curvature="0"
           style="fill:#000000;stroke-width:0" /><path
           id="path1748"
           d="m 1674.3,394.63 v 0.71 0.68 0.66 l -0.1,0.64 v 0.62 l -0.1,0.59 -0.1,0.58 -0.1,0.56 -0.1,0.55 -0.2,0.53 -0.1,0.51 -0.2,0.5 -0.2,0.49 -0.3,0.48 -0.2,0.47 -0.2,0.23 -0.1,0.23 c -1.1,1.61 -3.2,3 -6.1,3 v -0.98 c 1.9,0 3.7,-1.14 4.4,-3.18 0.5,-1.87 0.6,-4.39 0.6,-7.42 0,-2.58 0,-5.15 -0.5,-7.34 -0.7,-3.17 -3,-3.94 -4.5,-3.94 v 0 c -1.5,0 -3.7,0.94 -4.4,3.8 -0.5,2.04 -0.5,4.9 -0.5,7.48 0,2.55 0,5.21 0.6,7.11 0.7,2.75 2.9,3.49 4.3,3.49 v 0.98 c -8,0 -8,-9.52 -8,-12.03 0,-2.5 0,-11.81 8,-11.81 8.1,0 8.1,9.31 8.1,11.81 z"
           inkscape:connector-curvature="0"
           style="fill:#000000;stroke-width:0" /><path
           id="path1750"
           d="m 1684.1,385.5 v 0.12 l -0.1,0.11 v 0.11 0.11 0.1 0.1 l -0.1,0.1 v 0.1 l -0.1,0.09 v 0.09 l -0.1,0.08 v 0.08 l -0.1,0.08 v 0.07 l -0.1,0.07 -0.1,0.07 v 0.06 l -0.1,0.06 -0.1,0.06 -0.1,0.05 -0.1,0.05 v 0.04 l -0.1,0.04 -0.1,0.04 -0.1,0.03 -0.1,0.03 -0.1,0.02 -0.1,0.02 -0.1,0.02 v 0.01 l -0.1,0.01 h -0.1 c -1.2,0 -2,-0.94 -2,-1.98 0,-1.25 1,-2.02 2,-2.02 1.1,0 2,0.94 2,1.98 z"
           inkscape:connector-curvature="0"
           style="fill:#000000;stroke-width:0" /><path
           id="path1752"
           d="m 1702.6,393.91 v -0.4 -0.39 -0.38 -0.37 l -0.1,-0.35 v -0.35 -0.34 l -0.1,-0.33 v -0.32 l -0.1,-0.31 v -0.3 l -0.1,-0.29 -0.1,-0.28 v -0.27 l -0.1,-0.27 -0.1,-0.25 -0.1,-0.25 -0.1,-0.24 -0.1,-0.23 -0.1,-0.22 -0.2,-0.42 -0.2,-0.39 -0.2,-0.36 -0.2,-0.33 -0.3,-0.31 -0.2,-0.27 -0.3,-0.26 -0.2,-0.22 -0.3,-0.21 -0.2,-0.18 -0.3,-0.16 -0.3,-0.15 -0.2,-0.12 -0.3,-0.11 -0.3,-0.09 -0.2,-0.07 -0.3,-0.06 -0.2,-0.05 -0.2,-0.03 -0.3,-0.02 -0.2,-0.01 -0.2,-0.01 c -0.7,0 -2.6,0.06 -3.5,1.14 1.4,0.14 1.5,1.33 1.5,1.64 0,0.88 -0.6,1.64 -1.6,1.64 -1.1,0 -1.7,-0.7 -1.7,-1.7 0,-2.37 2,-3.84 5.3,-3.84 5,0 9.7,4.7 9.7,12.17 0,8.64 -3.8,11.67 -7.9,11.67 -1.1,0 -3.5,-0.17 -5.5,-2.12 -1.2,-1.16 -2.6,-2.52 -2.6,-5.66 0,-4.42 3.5,-7.69 7.6,-7.69 l 0.2,0.97 c -1.4,0 -2.7,0.45 -3.6,2.06 -0.8,1.28 -0.8,2.75 -0.8,4.66 0,2.03 0,3.42 1,4.81 0.8,1.22 1.9,1.95 3.8,1.95 1.7,0 2.8,-1.1 3.4,-2.01 0.9,-1.47 1,-3.91 1,-5.13 0,-4.53 -2.6,-6.34 -4.8,-6.34 v 0 l -0.2,-0.97 c 2.8,0 4.3,1.85 5.1,3.41 z"
           inkscape:connector-curvature="0"
           style="fill:#000000;stroke-width:0" /><path
           id="path1754"
           d="m 1720.2,396.1 0.3,0.12 0.2,0.13 0.2,0.13 0.3,0.13 0.2,0.14 0.2,0.13 0.2,0.14 0.3,0.14 0.2,0.14 0.1,0.15 0.2,0.15 0.2,0.15 0.2,0.15 0.1,0.16 0.2,0.16 0.2,0.16 0.1,0.16 0.1,0.17 0.2,0.18 0.1,0.17 0.1,0.18 0.1,0.18 0.1,0.19 v 0.19 l 0.1,0.19 0.1,0.2 v 0.2 l 0.1,0.2 v 0.21 0.22 l 0.1,0.22 v 0.22 c 0,3.39 -3.6,5.2 -6.9,5.2 l -0.1,-1.02 c 2.7,0 5.1,-1.7 5.1,-4.18 0,-3.1 -3.6,-4.66 -3.7,-4.66 0,0 -0.1,0.03 -0.4,0.17 l -4.2,2.44 c -0.9,0.52 -1.9,1.47 -1.9,2.75 0,2.2 2.6,3.48 5.1,3.48 l 0.1,1.02 c -3.9,0 -7,-2.52 -7,-5.83 0,-1.62 0.8,-2.81 1.4,-3.51 0.6,-0.74 0.9,-0.88 2.9,-2.1 -1.9,-0.83 -5.4,-2.72 -5.4,-6.37 0,-3.86 4,-6.03 8,-6.03 l 0.1,1.12 c -3.2,0 -6,2.05 -6,4.91 0,2.58 1.9,4.56 4.4,5.72 v 0 l 4.8,-2.75 c 0.9,-0.53 2.6,-1.58 2.6,-3.63 0,-2.61 -2.8,-4.25 -5.8,-4.25 l -0.1,-1.12 c 4.4,0 8,2.82 8,6.59 0,2.3 -1.3,4.25 -3.3,5.44 -0.5,0.28 -1.7,0.97 -2.2,1.25 z"
           inkscape:connector-curvature="0"
           style="fill:#000000;stroke-width:0" /></g>    </g>
  </g>
</svg>
