<?xml version="1.0" encoding="UTF-8" standalone="no"?>
<!-- Created with Inkscape (http://www.inkscape.org/) -->

<svg
   xmlns:dc="http://purl.org/dc/elements/1.1/"
   xmlns:cc="http://creativecommons.org/ns#"
   xmlns:rdf="http://www.w3.org/1999/02/22-rdf-syntax-ns#"
   xmlns:svg="http://www.w3.org/2000/svg"
   xmlns="http://www.w3.org/2000/svg"
   xmlns:sodipodi="http://sodipodi.sourceforge.net/DTD/sodipodi-0.dtd"
   xmlns:inkscape="http://www.inkscape.org/namespaces/inkscape"
   width="532mm"
   height="53.109341mm"
   viewBox="0 0 532 53.109341"
   version="1.1"
   id="svg5624"
   inkscape:version="0.92.5 (2060ec1f9f, 2020-04-08)"
   sodipodi:docname="solution_1_e1a.svg">
  <defs
     id="defs5618" />
  <sodipodi:namedview
     id="base"
     pagecolor="#ffffff"
     bordercolor="#666666"
     borderopacity="1.0"
     inkscape:pageopacity="0.0"
     inkscape:pageshadow="2"
     inkscape:zoom="0.49497475"
     inkscape:cx="393.4755"
     inkscape:cy="-193.4664"
     inkscape:document-units="mm"
     inkscape:current-layer="layer1"
     showgrid="false"
     fit-margin-top="0"
     fit-margin-left="0"
     fit-margin-right="0"
     fit-margin-bottom="0"
     inkscape:window-width="1684"
     inkscape:window-height="1376"
     inkscape:window-x="72"
     inkscape:window-y="27"
     inkscape:window-maximized="0" />
  <metadata
     id="metadata5621">
    <rdf:RDF>
      <cc:Work
         rdf:about="">
        <dc:format>image/svg+xml</dc:format>
        <dc:type
           rdf:resource="http://purl.org/dc/dcmitype/StillImage" />
        <dc:title></dc:title>
      </cc:Work>
    </rdf:RDF>
  </metadata>
  <g
     inkscape:label="Layer 1"
     inkscape:groupmode="layer"
     id="layer1"
     transform="translate(161.67857,-35.236649)">
    <rect
       style="fill:#ffffff;fill-opacity:1;stroke:none;stroke-width:0.5;stroke-miterlimit:4;stroke-dasharray:none;stroke-opacity:1"
       id="rect5597"
       width="532"
       height="53.109341"
       x="-161.67857"
       y="35.236649" />
    <g
       id="g945"
       transform="translate(-243.24357,-44.662183)">
      <g
         word-spacing="normal"
         letter-spacing="normal"
         font-size-adjust="none"
         font-stretch="normal"
         font-weight="normal"
         font-variant="normal"
         font-style="normal"
         stroke-miterlimit="10.433"
         xml:space="preserve"
         transform="matrix(0.3,0,0,-0.3,-52.5,222.75)"
         id="content"
         style="font-style:normal;font-variant:normal;font-weight:normal;font-stretch:normal;letter-spacing:normal;word-spacing:normal;text-anchor:start;fill:none;fill-opacity:1;fill-rule:evenodd;stroke:#000000;stroke-linecap:butt;stroke-linejoin:miter;stroke-miterlimit:10.43299961;stroke-dasharray:none;stroke-dashoffset:0;stroke-opacity:1"><path
           id="path818"
           d="m 474.16,436.34 0.04,0.16 0.04,0.16 0.04,0.15 0.04,0.15 0.04,0.13 0.05,0.13 0.05,0.13 0.05,0.11 0.06,0.12 0.06,0.1 0.08,0.1 0.08,0.09 0.09,0.09 0.1,0.08 0.11,0.08 0.12,0.07 0.13,0.06 0.15,0.06 0.16,0.06 0.18,0.05 0.09,0.02 0.1,0.02 0.1,0.02 0.11,0.02 0.11,0.02 0.11,0.02 0.12,0.02 0.13,0.01 0.13,0.01 0.14,0.02 0.14,0.01 0.14,0.01 0.15,0.01 0.16,0.01 0.16,0.01 0.17,0.01 h 0.17 l 0.18,0.01 h 0.18 l 0.19,0.01 h 0.2 0.2 0.21 0.22 c 1.49,0 1.89,0 1.89,0.96 0,0.59 -0.54,0.59 -0.79,0.59 -1.66,0 -5.74,-0.16 -7.38,-0.16 -1.5,0 -5.14,0.16 -6.62,0.16 -0.36,0 -0.96,0 -0.96,-1 0,-0.55 0.46,-0.55 1.39,-0.55 0.11,0 1.05,0 1.91,-0.09 0.89,-0.11 1.34,-0.16 1.34,-0.8 0,-0.2 -0.06,-0.36 -0.2,-0.95 l -6.67,-26.75 c -0.5,-1.95 -0.61,-2.34 -4.55,-2.34 -0.84,0 -1.34,0 -1.34,-1 0,-0.55 0.45,-0.55 1.34,-0.55 h 23.08 c 1.19,0 1.23,0 1.55,0.84 l 3.92,10.77 c 0.2,0.55 0.2,0.64 0.2,0.7 0,0.19 -0.14,0.55 -0.59,0.55 -0.46,0 -0.5,-0.25 -0.85,-1.05 -1.7,-4.59 -3.89,-10.26 -12.51,-10.26 h -4.67 c -0.71,0 -0.8,0 -1.1,0.04 -0.5,0.05 -0.65,0.1 -0.65,0.5 0,0.14 0,0.25 0.25,1.14 z"
           inkscape:connector-curvature="0"
           style="fill:#000000;stroke-width:0" /><path
           id="path820"
           d="m 537.51,422.5 h 0.14 0.15 0.14 l 0.07,0.01 h 0.08 l 0.07,0.01 0.07,0.01 0.07,0.01 0.07,0.01 0.07,0.01 0.06,0.02 0.07,0.02 0.06,0.02 0.06,0.02 0.06,0.03 0.06,0.03 0.05,0.04 0.05,0.03 0.05,0.05 0.04,0.04 0.04,0.05 0.02,0.03 0.01,0.03 0.02,0.02 0.02,0.03 0.01,0.03 0.01,0.04 0.02,0.03 0.01,0.04 0.01,0.03 v 0.04 l 0.01,0.04 0.01,0.04 v 0.04 l 0.01,0.04 v 0.04 0.05 c 0,1 -0.95,1 -1.64,1 h -29.85 c -0.7,0 -1.64,0 -1.64,-1 0,-0.98 0.94,-0.98 1.69,-0.98 z"
           inkscape:connector-curvature="0"
           style="fill:#000000;stroke-width:0" /><path
           id="path822"
           d="m 537.56,412.82 h 0.06 0.07 l 0.14,0.01 h 0.14 0.07 l 0.07,0.01 0.06,0.01 h 0.07 l 0.07,0.01 0.07,0.02 0.07,0.01 0.06,0.02 0.06,0.02 0.07,0.02 0.06,0.02 0.05,0.03 0.06,0.03 0.05,0.04 0.05,0.04 0.05,0.04 0.04,0.05 0.02,0.02 0.02,0.03 0.02,0.02 0.01,0.03 0.02,0.03 0.02,0.03 0.01,0.03 0.01,0.03 0.02,0.04 0.01,0.03 0.01,0.04 v 0.04 l 0.01,0.04 0.01,0.04 v 0.04 l 0.01,0.04 v 0.05 0.04 c 0,1 -0.95,1 -1.69,1 h -29.75 c -0.75,0 -1.69,0 -1.69,-1 0,-1 0.94,-1 1.64,-1 z"
           inkscape:connector-curvature="0"
           style="fill:#000000;stroke-width:0" /><path
           id="path824"
           d="m 574.48,436.34 0.04,0.16 0.04,0.16 0.04,0.15 0.04,0.15 0.04,0.13 0.04,0.13 0.05,0.13 0.06,0.11 0.06,0.12 0.06,0.1 0.07,0.1 0.08,0.09 0.09,0.09 0.1,0.08 0.11,0.08 0.12,0.07 0.14,0.06 0.14,0.06 0.17,0.06 0.17,0.05 0.1,0.02 0.09,0.02 0.11,0.02 0.1,0.02 0.12,0.02 0.11,0.02 0.12,0.02 0.13,0.01 0.13,0.01 0.13,0.02 0.14,0.01 0.15,0.01 0.15,0.01 0.15,0.01 0.17,0.01 0.16,0.01 h 0.18 l 0.18,0.01 h 0.18 l 0.19,0.01 h 0.2 0.2 0.21 0.22 c 1.48,0 1.89,0 1.89,0.96 0,0.59 -0.55,0.59 -0.8,0.59 -1.65,0 -5.73,-0.16 -7.37,-0.16 -1.5,0 -5.14,0.16 -6.63,0.16 -0.36,0 -0.95,0 -0.95,-1 0,-0.55 0.45,-0.55 1.39,-0.55 0.11,0 1.05,0 1.91,-0.09 0.89,-0.11 1.34,-0.16 1.34,-0.8 0,-0.2 -0.06,-0.36 -0.2,-0.95 l -6.68,-26.75 c -0.5,-1.95 -0.61,-2.34 -4.54,-2.34 -0.85,0 -1.35,0 -1.35,-1 0,-0.55 0.46,-0.55 1.35,-0.55 h 23.08 c 1.18,0 1.23,0 1.54,0.84 l 3.92,10.77 c 0.21,0.55 0.21,0.64 0.21,0.7 0,0.19 -0.14,0.55 -0.6,0.55 -0.45,0 -0.5,-0.25 -0.84,-1.05 -1.7,-4.59 -3.89,-10.26 -12.52,-10.26 h -4.67 c -0.7,0 -0.79,0 -1.09,0.04 -0.5,0.05 -0.66,0.1 -0.66,0.5 0,0.14 0,0.25 0.25,1.14 z"
           inkscape:connector-curvature="0"
           style="fill:#000000;stroke-width:0" /><path
           id="path826"
           d="m 613.15,419.79 -0.01,0.48 -0.03,0.47 -0.05,0.46 -0.07,0.44 -0.08,0.44 -0.11,0.42 -0.12,0.4 -0.14,0.4 -0.16,0.38 -0.17,0.36 -0.19,0.36 -0.21,0.34 -0.22,0.32 -0.23,0.31 -0.25,0.3 -0.26,0.28 -0.28,0.26 -0.28,0.25 -0.3,0.24 -0.31,0.22 -0.33,0.2 -0.33,0.19 -0.35,0.17 -0.35,0.15 -0.36,0.13 -0.38,0.12 -0.38,0.1 -0.39,0.09 -0.39,0.06 -0.41,0.05 -0.41,0.03 h -0.42 c -6.67,0 -13.34,-7.06 -13.34,-14.14 0,-4.93 3.33,-8.42 7.97,-8.42 l 0.04,1.1 c -2.13,0 -4.32,1.54 -4.32,5.43 0,2.44 1.29,7.82 2.89,10.36 2.48,3.83 5.33,4.58 6.72,4.58 2.89,0 4.39,-2.39 4.39,-5.37 0,-1.96 -1,-7.18 -2.89,-10.43 -1.75,-2.89 -4.49,-4.57 -6.79,-4.57 v 0 l -0.04,-1.1 c 6.62,0 13.34,6.88 13.34,14.14 z"
           inkscape:connector-curvature="0"
           style="fill:#000000;stroke-width:0" /><path
           id="path828"
           d="m 632.49,425.03 -0.09,0.17 -0.09,0.17 -0.09,0.16 -0.09,0.16 -0.1,0.16 -0.1,0.16 -0.11,0.15 -0.11,0.14 -0.11,0.15 -0.12,0.13 -0.12,0.14 -0.12,0.13 -0.13,0.12 -0.13,0.12 -0.14,0.11 -0.14,0.11 -0.14,0.11 -0.15,0.09 -0.15,0.1 -0.15,0.08 -0.16,0.08 -0.17,0.08 -0.16,0.06 -0.18,0.07 -0.17,0.05 -0.18,0.05 -0.19,0.04 -0.19,0.03 -0.19,0.03 -0.2,0.02 -0.2,0.01 h -0.21 l 0.05,-1.09 c 3.23,0 3.94,-4.08 3.94,-4.37 0,-0.32 -0.1,-0.61 -0.15,-0.86 l -2.5,-9.77 c -0.25,-0.89 -0.25,-0.98 -1,-1.84 -2.18,-2.74 -4.23,-3.53 -5.62,-3.53 -2.48,0 -3.19,2.73 -3.19,4.68 0,2.49 1.59,8.61 2.74,10.91 1.54,2.94 3.79,4.78 5.78,4.78 l -0.05,1.09 c -5.83,0 -12,-7.31 -12,-14.59 0,-4.69 2.74,-7.97 6.62,-7.97 0.99,0 3.49,0.21 6.47,3.74 0.41,-2.1 2.15,-3.74 4.53,-3.74 1.75,0 2.9,1.14 3.69,2.74 0.85,1.79 1.5,4.84 1.5,4.93 0,0.5 -0.45,0.5 -0.59,0.5 -0.5,0 -0.55,-0.2 -0.7,-0.9 -0.85,-3.24 -1.75,-6.17 -3.78,-6.17 -1.35,0 -1.5,1.29 -1.5,2.29 0,1.1 0.09,1.49 0.63,3.69 0.57,2.09 0.66,2.59 1.12,4.48 l 1.78,6.97 c 0.35,1.39 0.35,1.5 0.35,1.69 0,0.86 -0.6,1.36 -1.45,1.36 -1.18,0 -1.93,-1.11 -2.09,-2.2 z"
           inkscape:connector-curvature="0"
           style="fill:#000000;stroke-width:0" /><path
           id="path830"
           d="m 665.89,440.23 v 0 0.01 0 0.01 0.02 0.01 0.02 l -0.01,0.02 v 0.02 0.02 l -0.01,0.02 -0.01,0.02 v 0.02 l -0.01,0.03 -0.01,0.02 -0.02,0.03 -0.01,0.02 -0.02,0.03 -0.01,0.02 -0.02,0.02 -0.03,0.03 -0.01,0.01 -0.01,0.01 -0.01,0.01 -0.02,0.01 -0.01,0.01 -0.02,0.01 -0.01,0.01 -0.02,0.01 -0.02,0.01 -0.01,0.01 h -0.02 l -0.02,0.01 -0.02,0.01 h -0.02 l -0.03,0.01 -0.02,0.01 h -0.02 -0.03 l -0.02,0.01 h -0.03 -0.02 l -0.03,0.01 h -0.03 -0.03 c -0.75,0 -5.48,-0.46 -6.33,-0.55 -0.4,-0.05 -0.7,-0.3 -0.7,-0.95 0,-0.6 0.45,-0.6 1.2,-0.6 2.39,0 2.49,-0.34 2.49,-0.84 l -0.14,-1 -3,-11.81 c -0.89,1.84 -2.35,3.18 -4.58,3.18 l 0.04,-1.09 c 3.24,0 3.94,-4.08 3.94,-4.37 0,-0.32 -0.09,-0.61 -0.14,-0.86 l -2.5,-9.77 c -0.25,-0.89 -0.25,-0.98 -1,-1.84 -2.19,-2.74 -4.23,-3.53 -5.62,-3.53 -2.49,0 -3.19,2.73 -3.19,4.68 0,2.49 1.59,8.61 2.73,10.91 1.55,2.94 3.8,4.78 5.78,4.78 l -0.04,1.09 c -5.83,0 -12,-7.31 -12,-14.59 0,-4.69 2.73,-7.97 6.62,-7.97 0.99,0 3.49,0.21 6.47,3.74 0.41,-2.1 2.14,-3.74 4.53,-3.74 1.75,0 2.89,1.14 3.69,2.74 0.84,1.79 1.5,4.84 1.5,4.93 0,0.5 -0.45,0.5 -0.59,0.5 -0.5,0 -0.55,-0.2 -0.71,-0.9 -0.84,-3.24 -1.75,-6.17 -3.78,-6.17 -1.34,0 -1.5,1.29 -1.5,2.29 0,1.19 0.1,1.55 0.3,2.39 z"
           inkscape:connector-curvature="0"
           style="fill:#000000;stroke-width:0" /><path
           id="path832"
           d="m 675.42,417.71 0.14,0.01 h 0.16 0.16 0.18 l 0.19,0.01 h 0.2 l 0.21,0.01 0.21,0.01 0.23,0.01 0.23,0.01 0.24,0.01 0.24,0.02 0.25,0.02 0.26,0.02 0.52,0.05 0.54,0.07 0.54,0.07 0.55,0.1 0.54,0.11 0.53,0.12 0.26,0.07 0.26,0.08 0.26,0.08 0.24,0.08 0.25,0.09 0.23,0.1 c 3.49,1.5 3.74,4.43 3.74,5.12 0,2.2 -1.89,4.23 -5.33,4.23 v -1.09 c 2.34,0 3.69,-1.44 3.69,-3.14 0,-5.17 -7.97,-5.17 -10.02,-5.17 h -2.05 c 1.96,7.56 7.08,8.31 8.38,8.31 v 1.09 c -5.53,0 -13.05,-4.82 -13.05,-13.54 0,-5.08 2.94,-9.02 7.82,-9.02 7.12,0 11.31,5.28 11.31,5.88 0,0.29 -0.3,0.65 -0.6,0.65 -0.25,0 -0.34,-0.11 -0.65,-0.5 -3.94,-4.93 -9.36,-4.93 -9.96,-4.93 -3.89,0 -4.34,4.18 -4.34,5.78 0,0.59 0.05,2.14 0.8,5.18 z"
           inkscape:connector-curvature="0"
           style="fill:#000000;stroke-width:0" /><path
           id="path834"
           d="m 714.97,440.23 v 0 0.01 h -0.01 v 0.01 0.02 0.01 0.02 0.02 0.02 l -0.01,0.02 v 0.02 l -0.01,0.02 -0.01,0.02 -0.01,0.03 -0.01,0.02 -0.01,0.03 -0.02,0.02 -0.01,0.03 -0.02,0.02 -0.02,0.02 -0.02,0.03 -0.01,0.01 -0.02,0.01 -0.01,0.01 -0.01,0.01 -0.02,0.01 -0.01,0.01 -0.02,0.01 -0.02,0.01 -0.01,0.01 -0.02,0.01 h -0.02 l -0.02,0.01 -0.02,0.01 h -0.02 l -0.02,0.01 -0.02,0.01 h -0.03 -0.02 l -0.03,0.01 h -0.02 -0.03 l -0.03,0.01 h -0.03 -0.03 c -0.75,0 -5.48,-0.46 -6.32,-0.55 -0.41,-0.05 -0.71,-0.3 -0.71,-0.95 0,-0.6 0.46,-0.6 1.21,-0.6 2.39,0 2.48,-0.34 2.48,-0.84 l -0.14,-1 -3,-11.81 c -0.89,1.84 -2.34,3.18 -4.58,3.18 l 0.05,-1.09 c 3.23,0 3.94,-4.08 3.94,-4.37 0,-0.32 -0.1,-0.61 -0.15,-0.86 l -2.5,-9.77 c -0.25,-0.89 -0.25,-0.98 -1,-1.84 -2.18,-2.74 -4.23,-3.53 -5.62,-3.53 -2.48,0 -3.19,2.73 -3.19,4.68 0,2.49 1.6,8.61 2.74,10.91 1.54,2.94 3.79,4.78 5.78,4.78 l -0.05,1.09 c -5.83,0 -12,-7.31 -12,-14.59 0,-4.69 2.74,-7.97 6.63,-7.97 0.98,0 3.48,0.21 6.46,3.74 0.41,-2.1 2.15,-3.74 4.54,-3.74 1.75,0 2.89,1.14 3.68,2.74 0.85,1.79 1.5,4.84 1.5,4.93 0,0.5 -0.45,0.5 -0.59,0.5 -0.5,0 -0.55,-0.2 -0.7,-0.9 -0.85,-3.24 -1.75,-6.17 -3.78,-6.17 -1.35,0 -1.5,1.29 -1.5,2.29 0,1.19 0.09,1.55 0.29,2.39 z"
           inkscape:connector-curvature="0"
           style="fill:#000000;stroke-width:0" /><path
           id="path836"
           d="m 725.29,406.25 v 0.3 l -0.02,0.3 -0.01,0.29 -0.03,0.28 -0.03,0.27 -0.04,0.26 -0.04,0.26 -0.05,0.24 -0.06,0.24 -0.07,0.23 -0.07,0.22 -0.07,0.21 -0.09,0.2 -0.09,0.19 -0.09,0.19 -0.1,0.17 -0.11,0.16 -0.11,0.16 -0.12,0.14 -0.12,0.13 -0.13,0.13 -0.13,0.11 -0.14,0.1 -0.15,0.1 -0.14,0.08 -0.16,0.07 -0.16,0.06 -0.16,0.05 -0.17,0.04 -0.17,0.03 -0.18,0.01 -0.18,0.01 c -1.64,0 -2.64,-1.25 -2.64,-2.64 0,-1.34 1,-2.64 2.64,-2.64 0.6,0 1.25,0.2 1.75,0.64 0.14,0.11 0.2,0.16 0.25,0.16 0.05,0 0.1,-0.05 0.1,-0.75 0,-3.69 -1.74,-6.68 -3.4,-8.32 -0.54,-0.54 -0.54,-0.65 -0.54,-0.79 0,-0.36 0.25,-0.55 0.5,-0.55 0.54,0 4.53,3.83 4.53,9.66 z"
           inkscape:connector-curvature="0"
           style="fill:#000000;stroke-width:0" /><path
           id="path838"
           d="m 752.35,422.39 h 4.83 c 3.75,0 4.14,-0.8 4.14,-2.24 0,-0.36 0,-0.95 -0.35,-2.44 -0.11,-0.25 -0.15,-0.45 -0.15,-0.56 0,-0.39 0.29,-0.59 0.59,-0.59 0.5,0 0.5,0.15 0.75,1.05 l 2.75,10.81 c 0.14,0.54 0.14,0.65 0.14,0.79 0,0.1 -0.09,0.55 -0.59,0.55 -0.5,0 -0.55,-0.25 -0.75,-1.05 -1.05,-3.87 -2.19,-4.78 -6.43,-4.78 h -4.53 l 3.19,12.66 c 0.44,1.75 0.5,1.94 2.69,1.94 h 6.58 c 6.12,0 7.26,-1.64 7.26,-5.47 0,-1.16 0,-1.35 -0.14,-2.7 -0.11,-0.65 -0.11,-0.74 -0.11,-0.9 0,-0.25 0.16,-0.59 0.61,-0.59 0.55,0 0.6,0.3 0.69,1.25 l 1,8.61 c 0.16,1.34 -0.09,1.34 -1.34,1.34 h -24.41 c -1,0 -1.5,0 -1.5,-1 0,-0.54 0.45,-0.54 1.39,-0.54 1.84,0 3.24,0 3.24,-0.89 0,-0.21 0,-0.3 -0.25,-1.21 l -6.57,-26.34 c -0.5,-1.95 -0.61,-2.34 -4.55,-2.34 -0.84,0 -1.38,0 -1.38,-0.96 0,-0.59 0.59,-0.59 0.75,-0.59 1.43,0 5.12,0.16 6.57,0.16 1.64,0 5.78,-0.16 7.43,-0.16 0.45,0 1.04,0 1.04,0.95 0,0.39 -0.29,0.49 -0.29,0.55 -0.16,0.05 -0.25,0.05 -1.4,0.05 -1.1,0 -1.35,0 -2.59,0.09 -1.45,0.16 -1.59,0.36 -1.59,1 0,0.09 0,0.41 0.18,1.14 z"
           inkscape:connector-curvature="0"
           style="fill:#000000;stroke-width:0" /><path
           id="path840"
           d="m 824.41,422.5 h 0.14 0.14 0.15 l 0.07,0.01 h 0.07 l 0.08,0.01 0.07,0.01 0.07,0.01 0.07,0.01 0.07,0.01 0.06,0.02 0.07,0.02 0.06,0.02 0.06,0.02 0.06,0.03 0.05,0.03 0.06,0.04 0.05,0.03 0.04,0.05 0.05,0.04 0.04,0.05 0.02,0.03 0.01,0.03 0.02,0.02 0.02,0.03 0.01,0.03 0.01,0.04 0.01,0.03 0.02,0.04 0.01,0.03 v 0.04 l 0.01,0.04 0.01,0.04 v 0.04 l 0.01,0.04 v 0.04 0.05 c 0,1 -0.95,1 -1.64,1 h -29.85 c -0.7,0 -1.64,0 -1.64,-1 0,-0.98 0.94,-0.98 1.69,-0.98 z"
           inkscape:connector-curvature="0"
           style="fill:#000000;stroke-width:0" /><path
           id="path842"
           d="m 824.46,412.82 h 0.06 0.07 l 0.14,0.01 h 0.13 0.07 l 0.07,0.01 0.07,0.01 h 0.07 l 0.07,0.01 0.07,0.02 0.07,0.01 0.06,0.02 0.06,0.02 0.07,0.02 0.06,0.02 0.05,0.03 0.06,0.03 0.05,0.04 0.05,0.04 0.05,0.04 0.04,0.05 0.02,0.02 0.02,0.03 0.02,0.02 0.01,0.03 0.02,0.03 0.02,0.03 0.01,0.03 0.01,0.03 0.01,0.04 0.02,0.03 0.01,0.04 v 0.04 l 0.01,0.04 0.01,0.04 v 0.04 l 0.01,0.04 v 0.05 0.04 c 0,1 -0.95,1 -1.69,1 h -29.75 c -0.75,0 -1.69,0 -1.69,-1 0,-1 0.94,-1 1.64,-1 z"
           inkscape:connector-curvature="0"
           style="fill:#000000;stroke-width:0" /><path
           id="path844"
           d="m 857.82,422.39 h 4.83 c 3.75,0 4.14,-0.8 4.14,-2.24 0,-0.36 0,-0.95 -0.34,-2.44 -0.11,-0.25 -0.16,-0.45 -0.16,-0.56 0,-0.39 0.3,-0.59 0.6,-0.59 0.5,0 0.5,0.15 0.75,1.05 l 2.75,10.81 c 0.14,0.54 0.14,0.65 0.14,0.79 0,0.1 -0.1,0.55 -0.6,0.55 -0.5,0 -0.54,-0.25 -0.75,-1.05 -1.04,-3.87 -2.18,-4.78 -6.42,-4.78 h -4.53 l 3.19,12.66 c 0.43,1.75 0.5,1.94 2.68,1.94 h 6.58 c 6.13,0 7.27,-1.64 7.27,-5.47 0,-1.16 0,-1.35 -0.14,-2.7 -0.11,-0.65 -0.11,-0.74 -0.11,-0.9 0,-0.25 0.15,-0.59 0.61,-0.59 0.54,0 0.59,0.3 0.69,1.25 l 1,8.61 c 0.15,1.34 -0.1,1.34 -1.35,1.34 h -24.4 c -1,0 -1.5,0 -1.5,-1 0,-0.54 0.45,-0.54 1.39,-0.54 1.84,0 3.23,0 3.23,-0.89 0,-0.21 0,-0.3 -0.25,-1.21 l -6.56,-26.34 c -0.5,-1.95 -0.61,-2.34 -4.55,-2.34 -0.84,0 -1.39,0 -1.39,-0.96 0,-0.59 0.6,-0.59 0.75,-0.59 1.44,0 5.13,0.16 6.58,0.16 1.64,0 5.78,-0.16 7.42,-0.16 0.45,0 1.05,0 1.05,0.95 0,0.39 -0.3,0.49 -0.3,0.55 -0.15,0.05 -0.25,0.05 -1.39,0.05 -1.11,0 -1.36,0 -2.59,0.09 -1.46,0.16 -1.6,0.36 -1.6,1 0,0.09 0,0.41 0.19,1.14 z"
           inkscape:connector-curvature="0"
           style="fill:#000000;stroke-width:0" /><path
           id="path846"
           d="m 900.31,425.03 -0.09,0.17 -0.08,0.17 -0.1,0.16 -0.09,0.16 -0.1,0.16 -0.1,0.16 -0.11,0.15 -0.11,0.14 -0.11,0.15 -0.12,0.13 -0.12,0.14 -0.12,0.13 -0.13,0.12 -0.13,0.12 -0.14,0.11 -0.14,0.11 -0.14,0.11 -0.15,0.09 -0.15,0.1 -0.15,0.08 -0.16,0.08 -0.17,0.08 -0.16,0.06 -0.18,0.07 -0.17,0.05 -0.18,0.05 -0.19,0.04 -0.19,0.03 -0.19,0.03 -0.2,0.02 -0.2,0.01 h -0.21 l 0.05,-1.09 c 3.23,0 3.94,-4.08 3.94,-4.37 0,-0.32 -0.1,-0.61 -0.15,-0.86 l -2.5,-9.77 c -0.25,-0.89 -0.25,-0.98 -1,-1.84 -2.18,-2.74 -4.23,-3.53 -5.62,-3.53 -2.48,0 -3.19,2.73 -3.19,4.68 0,2.49 1.59,8.61 2.74,10.91 1.54,2.94 3.79,4.78 5.78,4.78 l -0.05,1.09 c -5.83,0 -12,-7.31 -12,-14.59 0,-4.69 2.74,-7.97 6.62,-7.97 0.99,0 3.49,0.21 6.47,3.74 0.41,-2.1 2.15,-3.74 4.53,-3.74 1.75,0 2.9,1.14 3.69,2.74 0.85,1.79 1.5,4.84 1.5,4.93 0,0.5 -0.45,0.5 -0.59,0.5 -0.5,0 -0.55,-0.2 -0.7,-0.9 -0.85,-3.24 -1.75,-6.17 -3.78,-6.17 -1.35,0 -1.5,1.29 -1.5,2.29 0,1.1 0.09,1.49 0.63,3.69 0.57,2.09 0.66,2.59 1.12,4.48 l 1.78,6.97 c 0.35,1.39 0.35,1.5 0.35,1.69 0,0.86 -0.6,1.36 -1.45,1.36 -1.18,0 -1.93,-1.11 -2.09,-2.2 z"
           inkscape:connector-curvature="0"
           style="fill:#000000;stroke-width:0" /><path
           id="path848"
           d="m 922.16,437.34 v 0.09 0.09 l -0.01,0.1 -0.02,0.08 -0.02,0.09 -0.02,0.09 -0.02,0.08 -0.03,0.08 -0.04,0.08 -0.03,0.08 -0.04,0.08 -0.05,0.07 -0.05,0.07 -0.05,0.07 -0.05,0.06 -0.06,0.06 -0.06,0.06 -0.07,0.06 -0.06,0.05 -0.08,0.05 -0.07,0.05 -0.08,0.04 -0.08,0.04 -0.08,0.04 -0.09,0.03 -0.09,0.03 -0.09,0.02 -0.09,0.02 -0.1,0.02 -0.1,0.01 h -0.1 l -0.11,0.01 c -1.36,0 -2.7,-1.3 -2.7,-2.64 0,-0.96 0.7,-1.8 1.9,-1.8 1.14,0 2.64,1.14 2.64,2.64 z"
           inkscape:connector-curvature="0"
           style="fill:#000000;stroke-width:0" /><path
           id="path850"
           d="m 918.37,418.61 0.05,0.13 0.05,0.12 0.05,0.12 0.04,0.11 0.05,0.1 0.04,0.1 0.03,0.09 0.04,0.09 0.03,0.09 0.03,0.08 0.03,0.08 0.03,0.08 0.03,0.07 0.03,0.07 0.05,0.15 0.05,0.14 0.05,0.14 0.03,0.07 0.03,0.08 0.02,0.08 0.03,0.08 0.03,0.08 0.04,0.09 0.03,0.1 0.03,0.09 0.04,0.11 0.04,0.11 0.05,0.11 0.04,0.13 c 0.41,1 0.66,1.68 0.66,2.64 0,2.23 -1.6,4.07 -4.1,4.07 -4.67,0 -6.57,-7.21 -6.57,-7.67 0,-0.5 0.5,-0.5 0.6,-0.5 0.5,0 0.55,0.11 0.8,0.91 1.35,4.69 3.33,6.17 5.03,6.17 0.39,0 1.25,0 1.25,-1.59 0,-1.05 -0.36,-2.1 -0.56,-2.6 -0.39,-1.29 -2.64,-7.06 -3.44,-9.22 -0.48,-1.28 -1.14,-2.93 -1.14,-3.98 0,-2.33 1.69,-4.08 4.1,-4.08 4.67,0 6.51,7.22 6.51,7.67 0,0.5 -0.44,0.5 -0.59,0.5 -0.5,0 -0.5,-0.15 -0.75,-0.9 -0.89,-3.13 -2.53,-6.17 -5.08,-6.17 -0.84,0 -1.2,0.5 -1.2,1.64 0,1.25 0.31,1.95 1.45,4.98 z"
           inkscape:connector-curvature="0"
           style="fill:#000000;stroke-width:0" /><path
           id="path852"
           d="m 929.55,409.14 -0.01,-0.07 -0.02,-0.08 -0.01,-0.07 -0.02,-0.08 -0.04,-0.16 -0.03,-0.16 -0.04,-0.16 -0.04,-0.16 -0.03,-0.16 -0.04,-0.16 -0.02,-0.08 -0.01,-0.07 -0.02,-0.07 -0.02,-0.07 -0.01,-0.07 -0.01,-0.07 -0.02,-0.06 -0.01,-0.06 -0.01,-0.06 -0.01,-0.05 -0.01,-0.05 v -0.04 l -0.01,-0.04 v -0.04 l -0.01,-0.03 V 407 c 0,-0.89 0.7,-1.35 1.44,-1.35 0.61,0 1.5,0.39 1.84,1.39 0.11,0.21 1.8,6.99 2,7.88 0.39,1.64 1.3,5.12 1.6,6.48 0.2,0.64 1.59,2.99 2.78,4.08 0.4,0.34 1.84,1.64 4,1.64 1.28,0 2.03,-0.59 2.08,-0.59 -1.49,-0.25 -2.58,-1.46 -2.58,-2.74 0,-0.79 0.54,-1.75 1.89,-1.75 1.34,0 2.73,1.14 2.73,2.94 0,1.75 -1.59,3.23 -4.12,3.23 -3.25,0 -5.44,-2.43 -6.39,-3.82 -0.39,2.23 -2.19,3.82 -4.53,3.82 -2.29,0 -3.24,-1.93 -3.69,-2.82 -0.89,-1.71 -1.55,-4.69 -1.55,-4.85 0,-0.5 0.5,-0.5 0.61,-0.5 0.5,0 0.55,0.07 0.84,1.16 0.85,3.53 1.85,5.92 3.65,5.92 0.84,0 1.54,-0.39 1.54,-2.28 0,-1.05 -0.15,-1.61 -0.79,-4.19 z"
           inkscape:connector-curvature="0"
           style="fill:#000000;stroke-width:0" /><path
           id="path854"
           d="m 956.27,406.25 v 0.3 l -0.01,0.3 -0.02,0.29 -0.02,0.28 -0.04,0.27 -0.03,0.26 -0.05,0.26 -0.05,0.24 -0.06,0.24 -0.06,0.23 -0.07,0.22 -0.08,0.21 -0.08,0.2 -0.09,0.19 -0.1,0.19 -0.1,0.17 -0.1,0.16 -0.12,0.16 -0.11,0.14 -0.13,0.13 -0.13,0.13 -0.13,0.11 -0.14,0.1 -0.14,0.1 -0.15,0.08 -0.15,0.07 -0.16,0.06 -0.17,0.05 -0.16,0.04 -0.18,0.03 -0.17,0.01 -0.18,0.01 c -1.64,0 -2.64,-1.25 -2.64,-2.64 0,-1.34 1,-2.64 2.64,-2.64 0.59,0 1.25,0.2 1.75,0.64 0.14,0.11 0.2,0.16 0.25,0.16 0.04,0 0.09,-0.05 0.09,-0.75 0,-3.69 -1.73,-6.68 -3.39,-8.32 -0.55,-0.54 -0.55,-0.65 -0.55,-0.79 0,-0.36 0.25,-0.55 0.5,-0.55 0.55,0 4.53,3.83 4.53,9.66 z"
           inkscape:connector-curvature="0"
           style="fill:#000000;stroke-width:0" /><path
           id="path856"
           d="m 1005.1,427.92 v 0.74 l -0.1,0.73 v 0.71 l -0.1,0.7 -0.2,0.68 -0.1,0.66 -0.2,0.64 -0.2,0.62 -0.3,0.6 -0.2,0.59 -0.3,0.56 -0.4,0.54 -0.3,0.52 -0.4,0.5 -0.3,0.47 -0.5,0.45 -0.4,0.43 -0.4,0.41 -0.5,0.38 -0.51,0.35 -0.52,0.33 -0.53,0.3 -0.55,0.28 -0.57,0.25 -0.59,0.22 -0.6,0.2 -0.62,0.16 -0.63,0.14 -0.65,0.1 -0.67,0.08 -0.67,0.05 -0.69,0.01 -0.3,-1.25 c 4.09,0 8.6,-2.78 8.6,-10.2 0,-3.59 -1.37,-11.36 -6.3,-17.5 -2.4,-3.03 -6.49,-5.97 -10.66,-5.97 v 0 c -4.94,0 -8.42,4.03 -8.42,10.61 0,2.19 0.68,9.47 4.53,15.3 3.43,5.17 8.31,7.76 12.25,7.76 l 0.3,1.25 c -10.75,0 -21.72,-11.31 -21.72,-22.92 0,-8.26 5.57,-13.29 12.76,-13.29 10.55,0 21.66,10.9 21.66,22.81 z"
           inkscape:connector-curvature="0"
           style="fill:#000000;stroke-width:0" /><path
           id="path858"
           d="m 1055.9,422.5 h 0.1 0.2 0.1 l 0.1,0.01 v 0 l 0.1,0.01 0.1,0.01 0.1,0.01 v 0.01 l 0.1,0.01 0.1,0.02 v 0.02 l 0.1,0.02 0.1,0.02 v 0.03 l 0.1,0.03 v 0.04 l 0.1,0.03 v 0.05 l 0.1,0.04 v 0.05 0.03 0.03 l 0.1,0.02 v 0.03 0.03 0.04 0.03 0.04 0.03 0.04 0.04 0.04 l 0.1,0.04 v 0.04 0.04 0.05 c 0,1 -1,1 -1.7,1 h -29.8 c -0.7,0 -1.7,0 -1.7,-1 0,-0.98 1,-0.98 1.7,-0.98 z"
           inkscape:connector-curvature="0"
           style="fill:#000000;stroke-width:0" /><path
           id="path860"
           d="m 1055.9,412.82 h 0.1 0.1 l 0.1,0.01 h 0.1 0.1 l 0.1,0.01 v 0.01 h 0.1 l 0.1,0.01 v 0.02 l 0.1,0.01 0.1,0.02 v 0.02 l 0.1,0.02 0.1,0.02 V 413 l 0.1,0.03 v 0.04 l 0.1,0.04 v 0.04 l 0.1,0.05 v 0.02 0.03 0.02 0.03 l 0.1,0.03 v 0.03 0.03 0.03 0.04 0.03 0.04 0.04 0.04 0.04 l 0.1,0.04 v 0.04 0.05 0.04 c 0,1 -1,1 -1.7,1 h -29.8 c -0.7,0 -1.7,0 -1.7,-1 0,-1 1,-1 1.7,-1 z"
           inkscape:connector-curvature="0"
           style="fill:#000000;stroke-width:0" /><path
           id="path862"
           d="m 1111.1,427.92 v 0.74 l -0.1,0.73 -0.1,0.71 -0.1,0.7 -0.1,0.68 -0.2,0.66 -0.2,0.64 -0.2,0.62 -0.2,0.6 -0.3,0.59 -0.3,0.56 -0.3,0.54 -0.3,0.52 -0.4,0.5 -0.4,0.47 -0.4,0.45 -0.4,0.43 -0.5,0.41 -0.5,0.38 -0.5,0.35 -0.5,0.33 -0.5,0.3 -0.6,0.28 -0.5,0.25 -0.6,0.22 -0.6,0.2 -0.6,0.16 -0.7,0.14 -0.6,0.1 -0.7,0.08 -0.7,0.05 -0.7,0.01 -0.2,-1.25 c 4.1,0 8.5,-2.78 8.5,-10.2 0,-3.59 -1.3,-11.36 -6.3,-17.5 -2.3,-3.03 -6.4,-5.97 -10.6,-5.97 v 0 c -4.9,0 -8.4,4.03 -8.4,10.61 0,2.19 0.7,9.47 4.5,15.3 3.4,5.17 8.3,7.76 12.3,7.76 l 0.2,1.25 c -10.7,0 -21.7,-11.31 -21.7,-22.92 0,-8.26 5.6,-13.29 12.8,-13.29 10.5,0 21.7,10.9 21.7,22.81 z"
           inkscape:connector-curvature="0"
           style="fill:#000000;stroke-width:0" /><path
           id="path864"
           d="m 1125.6,440.23 v 0 0.01 0 0.01 0.02 0.01 0.02 0.02 0.02 0.02 0.02 0.02 l -0.1,0.02 v 0.03 0.02 0.03 0.02 0.03 0.02 l -0.1,0.02 v 0.03 0.01 0.01 0.01 0.01 0.01 l -0.1,0.01 v 0.01 0.01 0.01 0.01 0 l -0.1,0.01 v 0.01 0 0.01 0.01 h -0.1 v 0 0.01 0 h -0.1 v 0.01 0 h -0.1 c -1.1,0 -4.7,-0.41 -6,-0.5 -0.4,-0.05 -1,-0.1 -1,-1 0,-0.6 0.5,-0.6 1.2,-0.6 2.4,0 2.5,-0.34 2.5,-0.84 0,-0.36 -0.5,-2.05 -0.7,-3.09 l -4.1,-16.24 c -0.6,-2.5 -0.8,-3.3 -0.8,-5.03 0,-4.73 2.7,-7.83 6.3,-7.83 v 1.1 c -1.7,0 -3.3,1.34 -3.3,5.03 0,0.95 0,1.89 0.8,5.03 l 1.1,4.59 c 0.3,1.1 0.3,1.19 0.7,1.74 2.5,3.23 4.7,3.98 6,3.98 1.8,0 3.2,-1.48 3.2,-4.69 0,-2.93 -1.7,-8.65 -2.6,-10.56 -1.6,-3.33 -3.9,-5.12 -5.9,-5.12 v -1.1 c 5.9,0 12,7.42 12,14.6 0,4.53 -2.6,7.96 -6.6,7.96 -2.3,0 -4.3,-1.43 -5.8,-2.98 z"
           inkscape:connector-curvature="0"
           style="fill:#000000;stroke-width:0" /><path
           id="path866"
           d="m 1154.5,424.84 -0.1,-0.01 -0.1,-0.01 -0.2,-0.02 -0.1,-0.03 -0.1,-0.03 -0.1,-0.04 -0.1,-0.04 -0.1,-0.04 -0.2,-0.05 -0.1,-0.06 -0.1,-0.06 -0.1,-0.06 v -0.07 l -0.1,-0.07 -0.1,-0.07 -0.1,-0.08 -0.1,-0.08 -0.1,-0.08 v -0.09 l -0.1,-0.08 v -0.09 l -0.1,-0.1 v -0.09 l -0.1,-0.1 v -0.09 l -0.1,-0.1 v -0.1 -0.1 -0.1 l -0.1,-0.11 v -0.1 -0.1 c 0,-0.7 0.5,-1.44 1.6,-1.44 1.1,0 2.3,0.85 2.3,2.78 0,2.25 -2.2,4.28 -6,4.28 -6.5,0 -8.4,-5.07 -8.4,-7.26 0,-3.89 3.7,-4.64 5.1,-4.94 2.6,-0.5 5.2,-1.05 5.2,-3.78 0,-1.3 -1.1,-5.48 -7.1,-5.48 -0.7,0 -4.5,0 -5.7,2.64 1.9,-0.25 3.1,1.25 3.1,2.64 0,1.14 -0.7,1.75 -1.8,1.75 -1.3,0 -2.8,-1.05 -2.8,-3.3 0,-2.84 2.9,-4.83 7.2,-4.83 8,0 10,6.03 10,8.27 0,1.79 -1,3.04 -1.6,3.64 -1.3,1.39 -2.8,1.64 -5,2.09 -1.8,0.39 -3.7,0.75 -3.7,2.99 0,1.45 1.1,4.48 5.5,4.48 1.3,0 3.8,-0.34 4.5,-2.28 z"
           inkscape:connector-curvature="0"
           style="fill:#000000;stroke-width:0" /><path
           id="path868"
           d="m 1167.8,417.71 0.1,0.01 h 0.1 0.2 0.2 l 0.2,0.01 h 0.2 l 0.2,0.01 0.2,0.01 0.2,0.01 0.3,0.01 0.2,0.01 0.2,0.02 0.3,0.02 0.3,0.02 0.5,0.05 0.5,0.07 0.6,0.07 0.5,0.1 0.5,0.11 0.6,0.12 0.2,0.07 0.3,0.08 0.2,0.08 0.3,0.08 0.2,0.09 0.3,0.1 c 3.5,1.5 3.7,4.43 3.7,5.12 0,2.2 -1.9,4.23 -5.3,4.23 v -1.09 c 2.3,0 3.7,-1.44 3.7,-3.14 0,-5.17 -8,-5.17 -10.1,-5.17 h -2 c 2,7.56 7.1,8.31 8.4,8.31 v 1.09 c -5.6,0 -13.1,-4.82 -13.1,-13.54 0,-5.08 3,-9.02 7.8,-9.02 7.2,0 11.4,5.28 11.4,5.88 0,0.29 -0.3,0.65 -0.6,0.65 -0.3,0 -0.4,-0.11 -0.7,-0.5 -3.9,-4.93 -9.4,-4.93 -9.9,-4.93 -3.9,0 -4.4,4.18 -4.4,5.78 0,0.59 0.1,2.14 0.8,5.18 z"
           inkscape:connector-curvature="0"
           style="fill:#000000;stroke-width:0" /><path
           id="path870"
           d="m 1186,409.14 v -0.07 l -0.1,-0.08 v -0.07 -0.08 -0.16 l -0.1,-0.16 v -0.16 -0.16 l -0.1,-0.16 v -0.16 -0.08 -0.07 l -0.1,-0.07 v -0.07 -0.07 -0.07 -0.06 -0.06 -0.06 -0.05 l -0.1,-0.05 v -0.04 -0.04 -0.04 -0.03 -0.02 c 0,-0.89 0.7,-1.35 1.5,-1.35 0.6,0 1.5,0.39 1.8,1.39 0.1,0.21 1.8,6.99 2,7.88 0.4,1.64 1.3,5.12 1.6,6.48 0.2,0.64 1.6,2.99 2.8,4.08 0.4,0.34 1.8,1.64 4,1.64 1.3,0 2,-0.59 2.1,-0.59 -1.5,-0.25 -2.6,-1.46 -2.6,-2.74 0,-0.79 0.5,-1.75 1.9,-1.75 1.3,0 2.7,1.14 2.7,2.94 0,1.75 -1.6,3.23 -4.1,3.23 -3.3,0 -5.4,-2.43 -6.4,-3.82 -0.4,2.23 -2.2,3.82 -4.5,3.82 -2.3,0 -3.3,-1.93 -3.7,-2.82 -0.9,-1.71 -1.6,-4.69 -1.6,-4.85 0,-0.5 0.5,-0.5 0.6,-0.5 0.5,0 0.6,0.07 0.9,1.16 0.8,3.53 1.8,5.92 3.6,5.92 0.9,0 1.6,-0.39 1.6,-2.28 0,-1.05 -0.2,-1.61 -0.8,-4.19 z"
           inkscape:connector-curvature="0"
           style="fill:#000000;stroke-width:0" /><path
           id="path872"
           d="m 1228.8,424.73 v 0.12 0.13 0.12 0.11 0.12 l -0.1,0.11 v 0.11 0.1 0.21 0.19 l -0.1,0.18 v 0.18 l -0.1,0.16 v 0.16 l -0.1,0.15 -0.1,0.13 v 0.13 l -0.1,0.12 -0.1,0.12 -0.1,0.1 -0.1,0.1 v 0.09 l -0.1,0.08 -0.1,0.07 -0.1,0.07 -0.1,0.06 -0.1,0.05 -0.1,0.05 -0.1,0.04 -0.1,0.03 -0.1,0.03 -0.1,0.03 -0.1,0.01 v 0.02 h -0.1 -0.1 c -1.3,0 -2.4,-1.29 -2.4,-2.39 0,-0.64 0.2,-0.93 0.7,-1.48 1.1,-1 1.7,-2.3 1.7,-4.09 0,-2.1 -3,-13.5 -8.8,-13.5 -2.6,0 -3.7,1.75 -3.7,4.32 0,2.8 1.3,6.44 2.9,10.57 0.3,0.86 0.6,1.54 0.6,2.5 0,2.23 -1.6,4.07 -4.1,4.07 -4.7,0 -6.6,-7.21 -6.6,-7.67 0,-0.5 0.5,-0.5 0.6,-0.5 0.5,0 0.6,0.11 0.8,0.91 1.5,5.03 3.6,6.17 5,6.17 0.4,0 1.3,0 1.3,-1.59 0,-1.25 -0.5,-2.6 -0.9,-3.49 -2.1,-5.78 -2.8,-8.08 -2.8,-10.22 0,-5.37 4.4,-6.17 6.7,-6.17 8.3,0 11.2,16.49 11.2,19.08 z"
           inkscape:connector-curvature="0"
           style="fill:#000000;stroke-width:0" /><path
           id="path874"
           d="m 1250,425.03 -0.1,0.17 -0.1,0.17 -0.1,0.16 -0.1,0.16 -0.1,0.16 -0.1,0.16 -0.1,0.15 -0.1,0.14 -0.1,0.15 -0.1,0.13 -0.2,0.14 -0.1,0.13 -0.1,0.12 -0.1,0.12 -0.2,0.11 -0.1,0.11 -0.2,0.11 -0.1,0.09 -0.2,0.1 -0.1,0.08 -0.2,0.08 -0.1,0.08 -0.2,0.06 -0.2,0.07 -0.2,0.05 -0.1,0.05 -0.2,0.04 -0.2,0.03 -0.2,0.03 -0.2,0.02 -0.2,0.01 h -0.2 v -1.09 c 3.3,0 4,-4.08 4,-4.37 0,-0.32 -0.1,-0.61 -0.2,-0.86 l -2.5,-9.77 c -0.2,-0.89 -0.2,-0.98 -1,-1.84 -2.2,-2.74 -4.2,-3.53 -5.6,-3.53 -2.5,0 -3.2,2.73 -3.2,4.68 0,2.49 1.6,8.61 2.8,10.91 1.5,2.94 3.7,4.78 5.7,4.78 v 1.09 c -5.8,0 -12,-7.31 -12,-14.59 0,-4.69 2.7,-7.97 6.6,-7.97 1,0 3.5,0.21 6.5,3.74 0.4,-2.1 2.1,-3.74 4.5,-3.74 1.8,0 2.9,1.14 3.7,2.74 0.8,1.79 1.5,4.84 1.5,4.93 0,0.5 -0.5,0.5 -0.6,0.5 -0.5,0 -0.5,-0.2 -0.7,-0.9 -0.8,-3.24 -1.7,-6.17 -3.8,-6.17 -1.3,0 -1.5,1.29 -1.5,2.29 0,1.1 0.1,1.49 0.7,3.69 0.5,2.09 0.6,2.59 1.1,4.48 l 1.8,6.97 c 0.3,1.39 0.3,1.5 0.3,1.69 0,0.86 -0.6,1.36 -1.4,1.36 -1.2,0 -2,-1.11 -2.1,-2.2 z"
           inkscape:connector-curvature="0"
           style="fill:#000000;stroke-width:0" /><path
           id="path876"
           d="m 1267.9,426.12 h 4.7 c 1,0 1.5,0 1.5,1 0,0.55 -0.5,0.55 -1.4,0.55 h -4.4 c 1.8,7.08 2.1,8.08 2.1,8.37 0,0.85 -0.6,1.35 -1.5,1.35 -0.1,0 -1.5,-0.05 -2,-1.8 l -1.9,-7.92 h -4.7 c -1,0 -1.5,0 -1.5,-0.94 0,-0.61 0.4,-0.61 1.4,-0.61 h 4.4 c -3.6,-14.14 -3.8,-14.98 -3.8,-15.89 0,-2.69 1.9,-4.58 4.6,-4.58 5.1,0 7.9,7.27 7.9,7.67 0,0.5 -0.4,0.5 -0.6,0.5 -0.5,0 -0.5,-0.15 -0.7,-0.7 -2.2,-5.17 -4.8,-6.37 -6.5,-6.37 -1.1,0 -1.6,0.65 -1.6,2.29 0,1.19 0.1,1.55 0.3,2.39 z"
           inkscape:connector-curvature="0"
           style="fill:#000000;stroke-width:0" /><path
           id="path878"
           d="m 1289.8,437.34 v 0.09 0.09 0.1 0.08 0.09 l -0.1,0.09 v 0.08 0.08 0.08 l -0.1,0.08 v 0.08 l -0.1,0.07 v 0.07 l -0.1,0.07 v 0.06 l -0.1,0.06 v 0.06 l -0.1,0.06 -0.1,0.05 v 0.05 l -0.1,0.05 -0.1,0.04 -0.1,0.04 -0.1,0.04 v 0.03 l -0.1,0.03 -0.1,0.02 -0.1,0.02 -0.1,0.02 -0.1,0.01 h -0.1 l -0.1,0.01 c -1.4,0 -2.7,-1.3 -2.7,-2.64 0,-0.96 0.7,-1.8 1.9,-1.8 1.1,0 2.6,1.14 2.6,2.64 z"
           inkscape:connector-curvature="0"
           style="fill:#000000;stroke-width:0" /><path
           id="path880"
           d="m 1286,418.61 0.1,0.13 v 0.12 l 0.1,0.12 v 0.11 l 0.1,0.1 v 0.1 0.09 l 0.1,0.09 v 0.09 0.08 l 0.1,0.08 v 0.08 0.07 0.07 l 0.1,0.15 v 0.14 l 0.1,0.14 v 0.07 l 0.1,0.08 v 0.08 0.08 0.08 l 0.1,0.09 v 0.1 0.09 l 0.1,0.11 v 0.11 l 0.1,0.11 v 0.13 c 0.4,1 0.7,1.68 0.7,2.64 0,2.23 -1.6,4.07 -4.1,4.07 -4.7,0 -6.6,-7.21 -6.6,-7.67 0,-0.5 0.5,-0.5 0.6,-0.5 0.5,0 0.5,0.11 0.8,0.91 1.3,4.69 3.3,6.17 5,6.17 0.4,0 1.3,0 1.3,-1.59 0,-1.05 -0.4,-2.1 -0.6,-2.6 -0.4,-1.29 -2.6,-7.06 -3.4,-9.22 -0.5,-1.28 -1.2,-2.93 -1.2,-3.98 0,-2.33 1.7,-4.08 4.1,-4.08 4.7,0 6.5,7.22 6.5,7.67 0,0.5 -0.4,0.5 -0.5,0.5 -0.5,0 -0.5,-0.15 -0.8,-0.9 -0.9,-3.13 -2.5,-6.17 -5.1,-6.17 -0.8,0 -1.2,0.5 -1.2,1.64 0,1.25 0.3,1.95 1.5,4.98 z"
           inkscape:connector-curvature="0"
           style="fill:#000000;stroke-width:0" /><path
           id="path882"
           d="m 1316.2,419.79 v 0.48 l -0.1,0.47 v 0.46 l -0.1,0.44 -0.1,0.44 -0.1,0.42 -0.1,0.4 -0.1,0.4 -0.2,0.38 -0.2,0.36 -0.2,0.36 -0.2,0.34 -0.2,0.32 -0.2,0.31 -0.3,0.3 -0.2,0.28 -0.3,0.26 -0.3,0.25 -0.3,0.24 -0.3,0.22 -0.3,0.2 -0.4,0.19 -0.3,0.17 -0.4,0.15 -0.3,0.13 -0.4,0.12 -0.4,0.1 -0.4,0.09 -0.4,0.06 -0.4,0.05 -0.4,0.03 h -0.4 v -1.09 c 2.9,0 4.4,-2.39 4.4,-5.37 0,-1.96 -1,-7.18 -2.9,-10.43 -1.8,-2.89 -4.5,-4.57 -6.8,-4.57 v 0 c -2.2,0 -4.3,1.54 -4.3,5.43 0,2.44 1.2,7.82 2.8,10.36 2.5,3.83 5.4,4.58 6.8,4.58 v 1.09 c -6.7,0 -13.3,-7.06 -13.3,-14.14 0,-4.93 3.3,-8.42 7.9,-8.42 6.7,0 13.4,6.88 13.4,14.14 z"
           inkscape:connector-curvature="0"
           style="fill:#000000;stroke-width:0" /><path
           id="path884"
           d="m 1321.3,409.14 v -0.07 -0.08 -0.07 -0.08 l -0.1,-0.16 v -0.16 l -0.1,-0.16 v -0.16 -0.16 l -0.1,-0.16 v -0.08 -0.07 -0.07 -0.07 -0.07 l -0.1,-0.07 v -0.06 -0.06 -0.06 -0.05 -0.05 -0.04 -0.04 -0.04 -0.03 -0.02 c 0,-0.89 0.7,-1.35 1.4,-1.35 0.6,0 1.5,0.39 1.9,1.39 0,0.11 0.6,2.44 0.9,3.69 l 1.1,4.48 c 0.3,1.1 0.6,2.19 0.8,3.35 0.2,0.84 0.7,2.28 0.7,2.48 0.7,1.55 3.4,6.08 8.1,6.08 2.3,0 2.7,-1.84 2.7,-3.48 0,-3.1 -2.4,-9.47 -3.2,-11.61 -0.5,-1.14 -0.5,-1.75 -0.5,-2.3 0,-2.33 1.7,-4.08 4.1,-4.08 4.6,0 6.5,7.27 6.5,7.67 0,0.5 -0.5,0.5 -0.6,0.5 -0.5,0 -0.5,-0.15 -0.8,-0.9 -1,-3.38 -2.6,-6.17 -5.1,-6.17 -0.8,0 -1.1,0.5 -1.1,1.64 0,1.25 0.4,2.45 0.9,3.54 0.9,2.64 3,8.11 3,10.96 0,3.34 -2.1,5.32 -5.7,5.32 -4.5,0 -7,-3.18 -7.8,-4.32 -0.3,2.79 -2.3,4.32 -4.6,4.32 -2.3,0 -3.2,-1.93 -3.7,-2.82 -0.8,-1.71 -1.5,-4.64 -1.5,-4.85 0,-0.5 0.5,-0.5 0.6,-0.5 0.5,0 0.5,0.07 0.8,1.16 0.9,3.53 1.9,5.92 3.7,5.92 0.9,0 1.5,-0.64 1.5,-2.28 0,-1.05 -0.1,-1.61 -0.8,-4.19 z"
           inkscape:connector-curvature="0"
           style="fill:#000000;stroke-width:0" /><path
           id="path886"
           d="m 470.61,362.19 0.21,1.28 3.39,13.57 c 0.43,1.73 0.54,1.89 2.68,1.89 h 4.79 c 4.14,0 6.78,-1.35 6.78,-4.79 0,-1.95 -1,-6.23 -2.94,-8.03 -2.5,-2.23 -5.48,-2.64 -7.69,-2.64 h -7.01 l -0.21,-1.28 h 8.47 c 7.08,0 14,5.17 14,10.75 0,3.85 -3.28,7.53 -9.81,7.53 h -16.14 c -0.95,0 -1.5,0 -1.5,-0.95 0,-0.59 0.45,-0.59 1.45,-0.59 0.64,0 1.55,-0.05 2.14,-0.1 0.8,-0.11 1.1,-0.25 1.1,-0.79 0,-0.21 -0.05,-0.36 -0.21,-0.96 l -6.67,-26.75 c -0.5,-1.95 -0.59,-2.34 -4.53,-2.34 -0.84,0 -1.39,0 -1.39,-0.95 0,-0.6 0.59,-0.6 0.73,-0.6 1.41,0 4.94,0.16 6.33,0.16 1.05,0 2.14,-0.06 3.19,-0.06 1.11,0 2.2,-0.1 3.25,-0.1 0.34,0 0.98,0 0.98,1 0,0.55 -0.43,0.55 -1.39,0.55 -1.84,0 -3.23,0 -3.23,0.89 0,0.3 0.09,0.55 0.14,0.84 z"
           inkscape:connector-curvature="0"
           style="fill:#000000;stroke-width:0" /><path
           id="path888"
           d="m 511,334.49 v 0.02 0.03 0.01 0.02 0.01 l -0.01,0.02 v 0.02 l -0.01,0.01 -0.01,0.02 -0.01,0.02 -0.01,0.03 -0.02,0.02 -0.01,0.02 -0.02,0.03 -0.02,0.03 -0.03,0.03 -0.02,0.04 -0.03,0.03 -0.02,0.02 -0.01,0.02 -0.02,0.02 -0.02,0.02 -0.02,0.02 -0.02,0.03 -0.02,0.02 -0.02,0.02 -0.02,0.03 -0.03,0.03 -0.02,0.02 -0.03,0.03 -0.03,0.03 -0.02,0.03 -0.03,0.03 -0.03,0.03 -0.03,0.03 -0.03,0.03 -0.04,0.04 -0.03,0.03 -0.04,0.04 -0.03,0.04 -0.04,0.03 -0.04,0.04 c -6.22,6.28 -7.81,15.69 -7.81,23.31 0,8.68 1.89,17.35 8.01,23.57 0.64,0.61 0.64,0.7 0.64,0.86 0,0.34 -0.18,0.48 -0.48,0.48 -0.5,0 -4.98,-3.37 -7.92,-9.7 -2.55,-5.49 -3.14,-11.02 -3.14,-15.21 0,-3.89 0.54,-9.9 3.28,-15.54 2.98,-6.13 7.28,-9.36 7.78,-9.36 0.3,0 0.48,0.14 0.48,0.5 z"
           inkscape:connector-curvature="0"
           style="fill:#000000;stroke-width:0" /><path
           id="path890"
           d="m 550.71,368.16 -0.01,0.75 -0.05,0.72 -0.08,0.72 -0.1,0.69 -0.13,0.68 -0.17,0.66 -0.18,0.64 -0.22,0.62 -0.24,0.61 -0.27,0.58 -0.29,0.56 -0.32,0.54 -0.34,0.52 -0.37,0.5 -0.39,0.47 -0.41,0.45 -0.43,0.43 -0.46,0.41 -0.47,0.38 -0.49,0.35 -0.52,0.33 -0.53,0.3 -0.55,0.28 -0.57,0.25 -0.59,0.22 -0.6,0.2 -0.62,0.16 -0.64,0.14 -0.65,0.11 -0.66,0.07 -0.68,0.05 -0.69,0.02 -0.29,-1.25 c 4.09,0 8.57,-2.78 8.57,-10.21 0,-3.59 -1.34,-11.36 -6.28,-17.5 -2.39,-3.03 -6.48,-5.97 -10.65,-5.97 v 0 c -4.94,0 -8.43,4.04 -8.43,10.61 0,2.19 0.69,9.47 4.54,15.3 3.43,5.17 8.31,7.77 12.25,7.77 l 0.29,1.25 c -10.75,0 -21.72,-11.32 -21.72,-22.93 0,-8.26 5.58,-13.29 12.77,-13.29 10.55,0 21.67,10.9 21.67,22.81 z"
           inkscape:connector-curvature="0"
           style="fill:#000000;stroke-width:0" /><path
           id="path892"
           d="m 567.71,358.89 v 0.38 l -0.01,0.38 -0.01,0.39 -0.01,0.41 -0.04,0.84 -0.06,0.88 -0.08,0.92 -0.11,0.95 -0.13,0.98 -0.17,1 -0.19,1.02 -0.23,1.04 -0.27,1.05 -0.31,1.06 -0.35,1.06 -0.39,1.07 -0.21,0.53 -0.23,0.53 -0.23,0.53 -0.25,0.53 c -2.99,6.13 -7.27,9.36 -7.77,9.36 -0.3,0 -0.5,-0.19 -0.5,-0.48 0,-0.16 0,-0.25 0.94,-1.16 4.89,-4.92 7.73,-12.84 7.73,-23.27 0,-8.51 -1.84,-17.28 -8.03,-23.56 -0.64,-0.59 -0.64,-0.7 -0.64,-0.84 0,-0.3 0.2,-0.5 0.5,-0.5 0.5,0 4.97,3.39 7.92,9.72 2.53,5.47 3.13,11 3.13,15.18 z"
           inkscape:connector-curvature="0"
           style="fill:#000000;stroke-width:0" /><path
           id="path894"
           d="m 620.66,362.74 h 0.14 0.15 0.14 l 0.07,0.01 h 0.08 l 0.07,0.01 0.07,0.01 0.07,0.01 0.07,0.01 0.07,0.01 0.07,0.02 0.06,0.02 0.06,0.02 0.06,0.03 0.06,0.02 0.06,0.03 0.05,0.04 0.05,0.04 0.05,0.04 0.04,0.04 0.04,0.05 0.02,0.03 0.02,0.03 0.01,0.03 0.02,0.03 0.01,0.03 0.02,0.03 0.01,0.03 0.01,0.04 0.01,0.03 0.01,0.04 0.01,0.04 v 0.04 l 0.01,0.04 v 0.04 0.05 0.04 c 0,1 -0.95,1 -1.64,1 h -29.84 c -0.71,0 -1.64,0 -1.64,-1 0,-0.98 0.93,-0.98 1.68,-0.98 z"
           inkscape:connector-curvature="0"
           style="fill:#000000;stroke-width:0" /><path
           id="path896"
           d="m 620.71,353.07 h 0.07 0.06 0.14 0.14 l 0.07,0.01 h 0.07 l 0.07,0.01 0.07,0.01 0.06,0.01 0.07,0.01 0.07,0.01 0.06,0.02 0.07,0.02 0.06,0.02 0.06,0.03 0.06,0.02 0.05,0.04 0.05,0.03 0.05,0.04 0.05,0.04 0.04,0.05 0.02,0.02 0.02,0.03 0.02,0.02 0.02,0.03 0.01,0.03 0.02,0.03 0.01,0.03 0.02,0.04 0.01,0.03 0.01,0.04 0.01,0.03 0.01,0.04 0.01,0.04 v 0.04 l 0.01,0.04 v 0.05 0.04 0.05 c 0,1 -0.95,1 -1.69,1 h -29.75 c -0.75,0 -1.68,0 -1.68,-1 0,-1 0.93,-1 1.64,-1 z"
           inkscape:connector-curvature="0"
           style="fill:#000000;stroke-width:0" /><path
           id="path898"
           d="m 654.08,362.19 0.2,1.28 3.4,13.57 c 0.43,1.73 0.54,1.89 2.68,1.89 h 4.79 c 4.13,0 6.78,-1.35 6.78,-4.79 0,-1.95 -1,-6.23 -2.94,-8.03 -2.5,-2.23 -5.49,-2.64 -7.69,-2.64 h -7.02 l -0.2,-1.28 h 8.47 c 7.08,0 14,5.17 14,10.75 0,3.85 -3.28,7.53 -9.81,7.53 H 650.6 c -0.95,0 -1.5,0 -1.5,-0.95 0,-0.59 0.45,-0.59 1.45,-0.59 0.64,0 1.55,-0.05 2.14,-0.1 0.8,-0.11 1.09,-0.25 1.09,-0.79 0,-0.21 -0.04,-0.36 -0.2,-0.96 l -6.67,-26.75 c -0.5,-1.95 -0.59,-2.34 -4.53,-2.34 -0.85,0 -1.39,0 -1.39,-0.95 0,-0.6 0.59,-0.6 0.73,-0.6 1.41,0 4.94,0.16 6.33,0.16 1.05,0 2.14,-0.06 3.19,-0.06 1.11,0 2.2,-0.1 3.25,-0.1 0.34,0 0.98,0 0.98,1 0,0.55 -0.44,0.55 -1.39,0.55 -1.84,0 -3.23,0 -3.23,0.89 0,0.3 0.09,0.55 0.14,0.84 z"
           inkscape:connector-curvature="0"
           style="fill:#000000;stroke-width:0" /><path
           id="path900"
           d="m 694.47,334.49 v 0.02 0.03 0.01 0.02 l -0.01,0.01 v 0.02 l -0.01,0.02 v 0.01 l -0.01,0.02 -0.01,0.02 -0.01,0.03 -0.02,0.02 -0.01,0.02 -0.02,0.03 -0.02,0.03 -0.03,0.03 -0.02,0.04 -0.03,0.03 -0.02,0.02 -0.02,0.02 -0.01,0.02 -0.02,0.02 -0.02,0.02 -0.02,0.03 -0.02,0.02 -0.02,0.02 -0.03,0.03 -0.02,0.03 -0.02,0.02 -0.03,0.03 -0.03,0.03 -0.02,0.03 -0.03,0.03 -0.03,0.03 -0.03,0.03 -0.04,0.03 -0.03,0.04 -0.03,0.03 -0.04,0.04 -0.03,0.04 -0.04,0.03 -0.04,0.04 c -6.22,6.28 -7.81,15.69 -7.81,23.31 0,8.68 1.89,17.35 8.01,23.57 0.64,0.61 0.64,0.7 0.64,0.86 0,0.34 -0.19,0.48 -0.48,0.48 -0.5,0 -4.99,-3.37 -7.92,-9.7 -2.55,-5.49 -3.14,-11.02 -3.14,-15.21 0,-3.89 0.54,-9.9 3.28,-15.54 2.98,-6.13 7.28,-9.36 7.78,-9.36 0.29,0 0.48,0.14 0.48,0.5 z"
           inkscape:connector-curvature="0"
           style="fill:#000000;stroke-width:0" /><path
           id="path902"
           d="m 712.4,362.63 h 4.83 c 3.75,0 4.14,-0.8 4.14,-2.24 0,-0.35 0,-0.95 -0.35,-2.43 -0.11,-0.25 -0.15,-0.46 -0.15,-0.57 0,-0.39 0.29,-0.59 0.59,-0.59 0.5,0 0.5,0.16 0.75,1.05 l 2.75,10.81 c 0.14,0.55 0.14,0.66 0.14,0.8 0,0.09 -0.09,0.54 -0.59,0.54 -0.5,0 -0.55,-0.25 -0.75,-1.04 -1.05,-3.88 -2.19,-4.78 -6.42,-4.78 h -4.54 l 3.19,12.65 c 0.44,1.75 0.5,1.94 2.69,1.94 h 6.58 c 6.12,0 7.26,-1.64 7.26,-5.47 0,-1.16 0,-1.34 -0.14,-2.7 -0.11,-0.64 -0.11,-0.74 -0.11,-0.89 0,-0.25 0.16,-0.6 0.61,-0.6 0.55,0 0.6,0.3 0.69,1.25 l 1,8.61 c 0.16,1.35 -0.09,1.35 -1.34,1.35 h -24.41 c -1,0 -1.5,0 -1.5,-1 0,-0.55 0.45,-0.55 1.39,-0.55 1.84,0 3.24,0 3.24,-0.89 0,-0.2 0,-0.3 -0.25,-1.2 l -6.57,-26.35 c -0.5,-1.95 -0.61,-2.34 -4.54,-2.34 -0.85,0 -1.39,0 -1.39,-0.95 0,-0.6 0.59,-0.6 0.75,-0.6 1.43,0 5.12,0.16 6.57,0.16 1.64,0 5.78,-0.16 7.43,-0.16 0.45,0 1.04,0 1.04,0.95 0,0.4 -0.29,0.49 -0.29,0.55 -0.16,0.05 -0.25,0.05 -1.4,0.05 -1.1,0 -1.35,0 -2.59,0.09 -1.45,0.16 -1.59,0.36 -1.59,1 0,0.1 0,0.41 0.18,1.14 z"
           inkscape:connector-curvature="0"
           style="fill:#000000;stroke-width:0" /><path
           id="path904"
           d="m 750.7,358.89 -0.01,0.38 v 0.38 l -0.01,0.39 -0.01,0.41 -0.04,0.84 -0.06,0.88 -0.09,0.92 -0.1,0.95 -0.14,0.98 -0.16,1 -0.2,1.02 -0.23,1.04 -0.26,1.05 -0.31,1.06 -0.35,1.06 -0.39,1.07 -0.21,0.53 -0.23,0.53 -0.24,0.53 -0.25,0.53 c -2.98,6.13 -7.26,9.36 -7.76,9.36 -0.3,0 -0.5,-0.19 -0.5,-0.48 0,-0.16 0,-0.25 0.94,-1.16 4.89,-4.92 7.73,-12.84 7.73,-23.27 0,-8.51 -1.84,-17.28 -8.03,-23.56 -0.64,-0.59 -0.64,-0.7 -0.64,-0.84 0,-0.3 0.2,-0.5 0.5,-0.5 0.5,0 4.97,3.39 7.92,9.72 2.53,5.47 3.13,11 3.13,15.18 z"
           inkscape:connector-curvature="0"
           style="fill:#000000;stroke-width:0" /><path
           id="path906"
           d="m 780.36,367.72 0.01,0.07 v 0.07 0.07 l 0.01,0.07 v 0.08 0.07 l -0.01,0.08 v 0.08 l -0.01,0.08 v 0.08 l -0.02,0.07 -0.01,0.08 -0.02,0.08 -0.02,0.08 -0.02,0.07 -0.03,0.08 -0.03,0.07 -0.03,0.07 -0.04,0.06 -0.05,0.07 -0.05,0.06 -0.05,0.05 -0.03,0.03 -0.03,0.03 -0.03,0.02 -0.04,0.02 -0.03,0.03 -0.04,0.02 -0.04,0.02 -0.04,0.02 -0.04,0.02 -0.04,0.01 -0.04,0.02 -0.05,0.01 -0.05,0.01 -0.05,0.01 -0.05,0.01 -0.05,0.01 -0.05,0.01 h -0.06 -0.06 -0.06 c -0.79,0 -1.43,-0.65 -1.29,-1.29 v -0.66 l 0.7,-7.72 -6.37,4.64 c -0.46,0.25 -0.55,0.35 -0.91,0.35 -0.69,0 -1.34,-0.71 -1.34,-1.39 0,-0.8 0.5,-1 1,-1.25 l 7.07,-3.4 -6.87,-3.32 c -0.8,-0.41 -1.2,-0.61 -1.2,-1.36 0,-0.74 0.65,-1.39 1.34,-1.39 0.36,0 0.45,0 1.7,0.95 l 5.58,4.03 -0.75,-8.37 c 0,-1.05 0.89,-1.3 1.3,-1.3 0.59,0 1.34,0.36 1.34,1.3 l -0.75,8.37 6.37,-4.64 c 0.46,-0.23 0.55,-0.34 0.91,-0.34 0.69,0 1.34,0.7 1.34,1.39 0,0.75 -0.45,1 -1.04,1.29 -2.99,1.5 -3.09,1.5 -7.03,3.35 l 6.87,3.34 c 0.8,0.39 1.2,0.6 1.2,1.35 0,0.75 -0.65,1.39 -1.34,1.39 -0.36,0 -0.45,0 -1.7,-0.96 l -5.58,-4.03 z"
           inkscape:connector-curvature="0"
           style="fill:#000000;stroke-width:0" /><path
           id="path908"
           d="m 817.75,362.19 0.2,1.28 3.39,13.57 c 0.44,1.73 0.55,1.89 2.69,1.89 h 4.78 c 4.14,0 6.78,-1.35 6.78,-4.79 0,-1.95 -1,-6.23 -2.93,-8.03 -2.5,-2.23 -5.49,-2.64 -7.69,-2.64 h -7.02 l -0.2,-1.28 h 8.47 c 7.08,0 14,5.17 14,10.75 0,3.85 -3.28,7.53 -9.81,7.53 h -16.14 c -0.96,0 -1.5,0 -1.5,-0.95 0,-0.59 0.45,-0.59 1.45,-0.59 0.64,0 1.55,-0.05 2.14,-0.1 0.8,-0.11 1.09,-0.25 1.09,-0.79 0,-0.21 -0.04,-0.36 -0.2,-0.96 l -6.67,-26.75 c -0.5,-1.95 -0.6,-2.34 -4.53,-2.34 -0.85,0 -1.39,0 -1.39,-0.95 0,-0.6 0.59,-0.6 0.73,-0.6 1.41,0 4.94,0.16 6.33,0.16 1.05,0 2.14,-0.06 3.19,-0.06 1.11,0 2.2,-0.1 3.25,-0.1 0.34,0 0.98,0 0.98,1 0,0.55 -0.44,0.55 -1.39,0.55 -1.84,0 -3.23,0 -3.23,0.89 0,0.3 0.09,0.55 0.14,0.84 z"
           inkscape:connector-curvature="0"
           style="fill:#000000;stroke-width:0" /><path
           id="path910"
           d="m 858.14,334.49 v 0.02 0.03 0.01 0.02 l -0.01,0.01 v 0.02 l -0.01,0.02 v 0.01 l -0.01,0.02 -0.01,0.02 -0.02,0.03 -0.01,0.02 -0.02,0.02 -0.01,0.03 -0.03,0.03 -0.02,0.03 -0.03,0.04 -0.03,0.03 -0.01,0.02 -0.02,0.02 -0.01,0.02 -0.02,0.02 -0.02,0.02 -0.02,0.03 -0.02,0.02 -0.03,0.02 -0.02,0.03 -0.02,0.03 -0.03,0.02 -0.02,0.03 -0.03,0.03 -0.03,0.03 -0.02,0.03 -0.03,0.03 -0.04,0.03 -0.03,0.03 -0.03,0.04 -0.03,0.03 -0.04,0.04 -0.04,0.04 -0.03,0.03 -0.04,0.04 c -6.22,6.28 -7.82,15.69 -7.82,23.31 0,8.68 1.9,17.35 8.02,23.57 0.64,0.61 0.64,0.7 0.64,0.86 0,0.34 -0.19,0.48 -0.48,0.48 -0.5,0 -4.99,-3.37 -7.93,-9.7 -2.54,-5.49 -3.14,-11.02 -3.14,-15.21 0,-3.89 0.55,-9.9 3.29,-15.54 2.98,-6.13 7.28,-9.36 7.78,-9.36 0.29,0 0.48,0.14 0.48,0.5 z"
           inkscape:connector-curvature="0"
           style="fill:#000000;stroke-width:0" /><path
           id="path912"
           d="m 897.85,368.16 -0.02,0.75 -0.04,0.72 -0.08,0.72 -0.1,0.69 -0.14,0.68 -0.16,0.66 -0.19,0.64 -0.21,0.62 -0.25,0.61 -0.26,0.58 -0.3,0.56 -0.32,0.54 -0.34,0.52 -0.36,0.5 -0.39,0.47 -0.41,0.45 -0.44,0.43 -0.45,0.41 -0.47,0.38 -0.5,0.35 -0.51,0.33 -0.54,0.3 -0.55,0.28 -0.57,0.25 -0.58,0.22 -0.61,0.2 -0.61,0.16 -0.64,0.14 -0.65,0.11 -0.66,0.07 -0.68,0.05 -0.69,0.02 -0.3,-1.25 c 4.1,0 8.58,-2.78 8.58,-10.21 0,-3.59 -1.34,-11.36 -6.28,-17.5 -2.39,-3.03 -6.48,-5.97 -10.66,-5.97 v 0 c -4.94,0 -8.42,4.04 -8.42,10.61 0,2.19 0.69,9.47 4.53,15.3 3.44,5.17 8.32,7.77 12.25,7.77 l 0.3,1.25 c -10.75,0 -21.72,-11.32 -21.72,-22.93 0,-8.26 5.58,-13.29 12.77,-13.29 10.54,0 21.67,10.9 21.67,22.81 z"
           inkscape:connector-curvature="0"
           style="fill:#000000;stroke-width:0" /><path
           id="path914"
           d="m 908.38,382.02 -0.01,0.17 v 0.16 0.16 l -0.01,0.08 v 0.08 l -0.01,0.08 -0.01,0.08 -0.01,0.07 -0.01,0.07 -0.01,0.08 -0.02,0.06 -0.02,0.07 -0.02,0.06 -0.02,0.07 -0.03,0.05 -0.03,0.06 -0.04,0.05 -0.04,0.05 -0.04,0.05 -0.05,0.04 -0.05,0.04 -0.02,0.02 -0.03,0.01 -0.03,0.02 -0.03,0.01 -0.03,0.02 -0.04,0.01 -0.03,0.01 -0.03,0.01 -0.04,0.01 -0.04,0.01 -0.04,0.01 h -0.04 l -0.04,0.01 h -0.04 -0.05 -0.04 c -1,0 -1,-0.89 -1,-1.78 v -46.23 c 0,-0.91 0,-1.8 1,-1.8 1,0 1,0.89 1,1.8 z"
           inkscape:connector-curvature="0"
           style="fill:#000000;stroke-width:0" /><path
           id="path916"
           d="m 929.34,362.63 h 4.83 c 3.75,0 4.14,-0.8 4.14,-2.24 0,-0.35 0,-0.95 -0.34,-2.43 -0.11,-0.25 -0.16,-0.46 -0.16,-0.57 0,-0.39 0.3,-0.59 0.6,-0.59 0.5,0 0.5,0.16 0.75,1.05 l 2.75,10.81 c 0.14,0.55 0.14,0.66 0.14,0.8 0,0.09 -0.1,0.54 -0.6,0.54 -0.5,0 -0.54,-0.25 -0.75,-1.04 -1.04,-3.88 -2.18,-4.78 -6.42,-4.78 h -4.53 l 3.19,12.65 c 0.44,1.75 0.5,1.94 2.68,1.94 h 6.58 c 6.13,0 7.27,-1.64 7.27,-5.47 0,-1.16 0,-1.34 -0.14,-2.7 -0.11,-0.64 -0.11,-0.74 -0.11,-0.89 0,-0.25 0.16,-0.6 0.61,-0.6 0.55,0 0.59,0.3 0.69,1.25 l 1,8.61 c 0.15,1.35 -0.1,1.35 -1.35,1.35 h -24.4 c -1,0 -1.5,0 -1.5,-1 0,-0.55 0.45,-0.55 1.39,-0.55 1.84,0 3.23,0 3.23,-0.89 0,-0.2 0,-0.3 -0.25,-1.2 l -6.56,-26.35 c -0.5,-1.95 -0.61,-2.34 -4.55,-2.34 -0.84,0 -1.39,0 -1.39,-0.95 0,-0.6 0.59,-0.6 0.75,-0.6 1.44,0 5.13,0.16 6.58,0.16 1.64,0 5.78,-0.16 7.42,-0.16 0.45,0 1.05,0 1.05,0.95 0,0.4 -0.3,0.49 -0.3,0.55 -0.16,0.05 -0.25,0.05 -1.39,0.05 -1.11,0 -1.36,0 -2.59,0.09 -1.46,0.16 -1.6,0.36 -1.6,1 0,0.1 0,0.41 0.19,1.14 z"
           inkscape:connector-curvature="0"
           style="fill:#000000;stroke-width:0" /><path
           id="path918"
           d="m 967.64,358.89 v 0.38 l -0.01,0.38 -0.01,0.39 -0.01,0.41 -0.04,0.84 -0.06,0.88 -0.08,0.92 -0.11,0.95 -0.13,0.98 -0.17,1 -0.19,1.02 -0.23,1.04 -0.27,1.05 -0.31,1.06 -0.35,1.06 -0.39,1.07 -0.21,0.53 -0.23,0.53 -0.23,0.53 -0.26,0.53 c -2.98,6.13 -7.26,9.36 -7.76,9.36 -0.3,0 -0.5,-0.19 -0.5,-0.48 0,-0.16 0,-0.25 0.94,-1.16 4.89,-4.92 7.73,-12.84 7.73,-23.27 0,-8.51 -1.84,-17.28 -8.03,-23.56 -0.64,-0.59 -0.64,-0.7 -0.64,-0.84 0,-0.3 0.2,-0.5 0.5,-0.5 0.5,0 4.97,3.39 7.92,9.72 2.53,5.47 3.13,11 3.13,15.18 z"
           inkscape:connector-curvature="0"
           style="fill:#000000;stroke-width:0" /><path
           id="path920"
           d="m 1003.9,357.89 h 13.9 c 0.7,0 1.6,0 1.6,1 0,1 -0.9,1 -1.6,1 h -13.9 v 13.96 c 0,0.69 0,1.64 -1,1.64 -1,0 -1,-0.95 -1,-1.64 v -13.96 h -13.98 c -0.7,0 -1.64,0 -1.64,-1 0,-1 0.94,-1 1.64,-1 h 13.98 v -13.93 c 0,-0.71 0,-1.66 1,-1.66 1,0 1,0.95 1,1.66 z"
           inkscape:connector-curvature="0"
           style="fill:#000000;stroke-width:0" /><path
           id="path922"
           d="m 1048.4,362.19 0.2,1.28 3.4,13.57 c 0.4,1.73 0.5,1.89 2.7,1.89 h 4.7 c 4.2,0 6.8,-1.35 6.8,-4.79 0,-1.95 -1,-6.23 -2.9,-8.03 -2.5,-2.23 -5.5,-2.64 -7.7,-2.64 h -7 l -0.2,-1.28 h 8.4 c 7.1,0 14,5.17 14,10.75 0,3.85 -3.2,7.53 -9.8,7.53 h -16.1 c -1,0 -1.5,0 -1.5,-0.95 0,-0.59 0.4,-0.59 1.4,-0.59 0.7,0 1.6,-0.05 2.2,-0.1 0.8,-0.11 1.1,-0.25 1.1,-0.79 0,-0.21 -0.1,-0.36 -0.2,-0.96 l -6.7,-26.75 c -0.5,-1.95 -0.6,-2.34 -4.5,-2.34 -0.9,0 -1.4,0 -1.4,-0.95 0,-0.6 0.6,-0.6 0.7,-0.6 1.4,0 4.9,0.16 6.3,0.16 1.1,0 2.2,-0.06 3.2,-0.06 1.1,0 2.2,-0.1 3.3,-0.1 0.3,0 1,0 1,1 0,0.55 -0.5,0.55 -1.4,0.55 -1.9,0 -3.3,0 -3.3,0.89 0,0.3 0.1,0.55 0.2,0.84 z"
           inkscape:connector-curvature="0"
           style="fill:#000000;stroke-width:0" /><path
           id="path924"
           d="m 1088.8,334.49 v 0.02 0.03 0.01 0.02 0.01 0.02 0.02 l -0.1,0.01 v 0.02 0.02 0.03 0.02 0.02 0.03 l -0.1,0.03 v 0.03 0.04 0.03 l -0.1,0.02 v 0.02 0.02 0.02 0.02 0.03 l -0.1,0.02 v 0.02 0.03 0.03 l -0.1,0.02 v 0.03 0.03 0.03 l -0.1,0.03 v 0.03 0.03 l -0.1,0.03 v 0.04 0.03 l -0.1,0.04 v 0.04 0.03 l -0.1,0.04 c -6.2,6.28 -7.8,15.69 -7.8,23.31 0,8.68 1.9,17.35 8,23.57 0.7,0.61 0.7,0.7 0.7,0.86 0,0.34 -0.2,0.48 -0.5,0.48 -0.5,0 -5,-3.37 -7.9,-9.7 -2.6,-5.49 -3.2,-11.02 -3.2,-15.21 0,-3.89 0.6,-9.9 3.3,-15.54 3,-6.13 7.3,-9.36 7.8,-9.36 0.3,0 0.5,0.14 0.5,0.5 z"
           inkscape:connector-curvature="0"
           style="fill:#000000;stroke-width:0" /><path
           id="path926"
           d="m 1110.2,376.58 0.1,0.17 v 0.15 l 0.1,0.16 v 0.14 0.14 l 0.1,0.13 v 0.12 l 0.1,0.12 v 0.11 l 0.1,0.1 0.1,0.1 0.1,0.09 0.1,0.09 0.1,0.08 0.1,0.08 0.1,0.07 0.1,0.06 0.2,0.06 0.1,0.06 0.2,0.05 0.1,0.02 0.1,0.02 0.1,0.02 0.1,0.02 0.1,0.02 0.1,0.02 0.2,0.02 0.1,0.01 0.1,0.02 0.1,0.01 0.2,0.01 0.1,0.01 0.2,0.01 0.1,0.01 0.2,0.01 0.2,0.01 0.1,0.01 h 0.2 l 0.2,0.01 h 0.2 0.2 0.2 l 0.2,0.01 h 0.2 c 1.5,0 1.9,0 1.9,0.95 0,0.59 -0.5,0.59 -0.8,0.59 -1.6,0 -5.7,-0.15 -7.4,-0.15 -1.5,0 -5.1,0.15 -6.6,0.15 -0.4,0 -0.9,0 -0.9,-1 0,-0.54 0.4,-0.54 1.4,-0.54 0.1,0 1,0 1.9,-0.1 0.8,-0.11 1.3,-0.15 1.3,-0.79 0,-0.21 -0.1,-0.36 -0.2,-0.96 l -6.7,-26.75 c -0.5,-1.95 -0.6,-2.34 -4.5,-2.34 -0.9,0 -1.4,0 -1.4,-1 0,-0.55 0.5,-0.55 1.4,-0.55 h 23.1 c 1.1,0 1.2,0 1.5,0.85 l 3.9,10.76 c 0.2,0.55 0.2,0.64 0.2,0.7 0,0.19 -0.1,0.55 -0.6,0.55 -0.4,0 -0.5,-0.25 -0.8,-1.05 -1.7,-4.59 -3.9,-10.26 -12.5,-10.26 h -4.7 c -0.7,0 -0.8,0 -1.1,0.05 -0.5,0.04 -0.7,0.09 -0.7,0.5 0,0.14 0,0.25 0.3,1.14 z"
           inkscape:connector-curvature="0"
           style="fill:#000000;stroke-width:0" /><path
           id="path928"
           d="m 1139.9,358.89 v 0.38 0.38 0.39 0.41 0.84 l -0.1,0.88 -0.1,0.92 -0.1,0.95 -0.1,0.98 -0.2,1 -0.2,1.02 -0.2,1.04 -0.3,1.05 -0.3,1.06 -0.3,1.06 -0.4,1.07 -0.2,0.53 -0.3,0.53 -0.2,0.53 -0.2,0.53 c -3,6.13 -7.3,9.36 -7.8,9.36 -0.3,0 -0.5,-0.19 -0.5,-0.48 0,-0.16 0,-0.25 0.9,-1.16 4.9,-4.92 7.8,-12.84 7.8,-23.27 0,-8.51 -1.9,-17.28 -8.1,-23.56 -0.6,-0.59 -0.6,-0.7 -0.6,-0.84 0,-0.3 0.2,-0.5 0.5,-0.5 0.5,0 5,3.39 7.9,9.72 2.5,5.47 3.1,11 3.1,15.18 z"
           inkscape:connector-curvature="0"
           style="fill:#000000;stroke-width:0" /><path
           id="path930"
           d="m 1169.6,367.72 v 0.07 0.07 0.07 0.07 0.08 0.07 0.08 0.08 0.08 0.08 0.07 0.08 0.08 l -0.1,0.08 v 0.07 0.08 0.07 l -0.1,0.07 v 0.06 l -0.1,0.07 v 0.06 l -0.1,0.05 v 0.03 0.03 l -0.1,0.02 v 0.02 0.03 l -0.1,0.02 v 0.02 0.02 l -0.1,0.02 v 0.01 l -0.1,0.02 v 0.01 l -0.1,0.01 v 0.01 l -0.1,0.01 v 0.01 l -0.1,0.01 v 0 h -0.1 v 0 c -0.8,0 -1.5,-0.65 -1.3,-1.29 v -0.66 l 0.7,-7.72 -6.4,4.64 c -0.5,0.25 -0.6,0.35 -0.9,0.35 -0.7,0 -1.4,-0.71 -1.4,-1.39 0,-0.8 0.5,-1 1,-1.25 l 7.1,-3.4 -6.9,-3.32 c -0.7,-0.41 -1.2,-0.61 -1.2,-1.36 0,-0.74 0.7,-1.39 1.4,-1.39 0.3,0 0.4,0 1.7,0.95 l 5.6,4.03 -0.8,-8.37 c 0,-1.05 0.9,-1.3 1.3,-1.3 0.6,0 1.4,0.36 1.4,1.3 l -0.8,8.37 6.4,-4.64 c 0.4,-0.23 0.5,-0.34 0.9,-0.34 0.7,0 1.3,0.7 1.3,1.39 0,0.75 -0.4,1 -1,1.29 -3,1.5 -3.1,1.5 -7,3.35 l 6.8,3.34 c 0.8,0.39 1.2,0.6 1.2,1.35 0,0.75 -0.6,1.39 -1.3,1.39 -0.4,0 -0.5,0 -1.7,-0.96 l -5.6,-4.03 z"
           inkscape:connector-curvature="0"
           style="fill:#000000;stroke-width:0" /><path
           id="path932"
           d="m 1207,362.19 0.2,1.28 3.4,13.57 c 0.4,1.73 0.5,1.89 2.7,1.89 h 4.8 c 4.1,0 6.7,-1.35 6.7,-4.79 0,-1.95 -1,-6.23 -2.9,-8.03 -2.5,-2.23 -5.5,-2.64 -7.7,-2.64 h -7 l -0.2,-1.28 h 8.5 c 7.1,0 14,5.17 14,10.75 0,3.85 -3.3,7.53 -9.8,7.53 h -16.2 c -0.9,0 -1.5,0 -1.5,-0.95 0,-0.59 0.5,-0.59 1.5,-0.59 0.6,0 1.5,-0.05 2.1,-0.1 0.8,-0.11 1.1,-0.25 1.1,-0.79 0,-0.21 0,-0.36 -0.2,-0.96 l -6.7,-26.75 c -0.5,-1.95 -0.6,-2.34 -4.5,-2.34 -0.9,0 -1.4,0 -1.4,-0.95 0,-0.6 0.6,-0.6 0.7,-0.6 1.5,0 5,0.16 6.4,0.16 1,0 2.1,-0.06 3.2,-0.06 1.1,0 2.2,-0.1 3.2,-0.1 0.4,0 1,0 1,1 0,0.55 -0.5,0.55 -1.4,0.55 -1.8,0 -3.2,0 -3.2,0.89 0,0.3 0.1,0.55 0.1,0.84 z"
           inkscape:connector-curvature="0"
           style="fill:#000000;stroke-width:0" /><path
           id="path934"
           d="m 1247.4,334.49 v 0.02 0.03 0.01 0.02 0.01 0.02 0.02 0.01 0.02 l -0.1,0.02 v 0.03 0.02 0.02 0.03 0.03 l -0.1,0.03 v 0.04 0.03 0.02 0.02 l -0.1,0.02 v 0.02 0.02 0.03 0.02 l -0.1,0.02 v 0.03 0.03 0.02 l -0.1,0.03 v 0.03 0.03 0.03 l -0.1,0.03 v 0.03 0.03 l -0.1,0.04 v 0.03 0.04 l -0.1,0.04 v 0.03 0.04 c -6.3,6.28 -7.9,15.69 -7.9,23.31 0,8.68 1.9,17.35 8.1,23.57 0.6,0.61 0.6,0.7 0.6,0.86 0,0.34 -0.2,0.48 -0.5,0.48 -0.5,0 -5,-3.37 -7.9,-9.7 -2.6,-5.49 -3.2,-11.02 -3.2,-15.21 0,-3.89 0.6,-9.9 3.3,-15.54 3,-6.13 7.3,-9.36 7.8,-9.36 0.3,0 0.5,0.14 0.5,0.5 z"
           inkscape:connector-curvature="0"
           style="fill:#000000;stroke-width:0" /><path
           id="path936"
           d="m 1287.1,368.16 v 0.75 l -0.1,0.72 v 0.72 l -0.1,0.69 -0.2,0.68 -0.1,0.66 -0.2,0.64 -0.2,0.62 -0.3,0.61 -0.3,0.58 -0.2,0.56 -0.4,0.54 -0.3,0.52 -0.4,0.5 -0.4,0.47 -0.4,0.45 -0.4,0.43 -0.5,0.41 -0.4,0.38 -0.5,0.35 -0.5,0.33 -0.6,0.3 -0.5,0.28 -0.6,0.25 -0.6,0.22 -0.6,0.2 -0.6,0.16 -0.6,0.14 -0.7,0.11 -0.7,0.07 -0.6,0.05 -0.7,0.02 -0.3,-1.25 c 4.1,0 8.6,-2.78 8.6,-10.21 0,-3.59 -1.4,-11.36 -6.3,-17.5 -2.4,-3.03 -6.5,-5.97 -10.7,-5.97 v 0 c -4.9,0 -8.4,4.04 -8.4,10.61 0,2.19 0.7,9.47 4.5,15.3 3.5,5.17 8.3,7.77 12.3,7.77 l 0.3,1.25 c -10.8,0 -21.7,-11.32 -21.7,-22.93 0,-8.26 5.5,-13.29 12.7,-13.29 10.6,0 21.7,10.9 21.7,22.81 z"
           inkscape:connector-curvature="0"
           style="fill:#000000;stroke-width:0" /><path
           id="path938"
           d="m 1297.6,382.02 v 0.17 0.16 0.16 0.08 0.08 0.08 0.08 0.07 0.07 0.08 l -0.1,0.06 v 0.07 0.06 0.07 0.05 l -0.1,0.06 v 0.05 l -0.1,0.05 v 0.05 0.04 l -0.1,0.04 v 0.02 0.01 l -0.1,0.02 v 0.01 0.02 l -0.1,0.01 v 0.01 0.01 l -0.1,0.01 v 0.01 l -0.1,0.01 v 0 0.01 h -0.1 v 0 h -0.1 c -1,0 -1,-0.89 -1,-1.78 v -46.23 c 0,-0.91 0,-1.8 1,-1.8 1,0 1,0.89 1,1.8 z"
           inkscape:connector-curvature="0"
           style="fill:#000000;stroke-width:0" /><path
           id="path940"
           d="m 1322.1,376.58 0.1,0.17 v 0.15 l 0.1,0.16 v 0.14 0.14 l 0.1,0.13 v 0.12 l 0.1,0.12 v 0.11 l 0.1,0.1 0.1,0.1 0.1,0.09 0.1,0.09 0.1,0.08 0.1,0.08 0.1,0.07 0.1,0.06 0.2,0.06 0.1,0.06 0.2,0.05 0.1,0.02 0.1,0.02 0.1,0.02 0.1,0.02 0.1,0.02 0.1,0.02 0.2,0.02 0.1,0.01 0.1,0.02 0.1,0.01 0.2,0.01 0.1,0.01 0.2,0.01 0.1,0.01 0.2,0.01 0.2,0.01 0.1,0.01 h 0.2 l 0.2,0.01 h 0.2 0.2 0.2 l 0.2,0.01 h 0.2 c 1.5,0 1.9,0 1.9,0.95 0,0.59 -0.5,0.59 -0.8,0.59 -1.6,0 -5.7,-0.15 -7.4,-0.15 -1.5,0 -5.1,0.15 -6.6,0.15 -0.3,0 -0.9,0 -0.9,-1 0,-0.54 0.4,-0.54 1.3,-0.54 0.2,0 1.1,0 2,-0.1 0.9,-0.11 1.3,-0.15 1.3,-0.79 0,-0.21 -0.1,-0.36 -0.2,-0.96 l -6.7,-26.75 c -0.5,-1.95 -0.6,-2.34 -4.5,-2.34 -0.9,0 -1.4,0 -1.4,-1 0,-0.55 0.5,-0.55 1.4,-0.55 h 23.1 c 1.2,0 1.2,0 1.5,0.85 l 3.9,10.76 c 0.2,0.55 0.2,0.64 0.2,0.7 0,0.19 -0.1,0.55 -0.6,0.55 -0.4,0 -0.5,-0.25 -0.8,-1.05 -1.7,-4.59 -3.9,-10.26 -12.5,-10.26 h -4.7 c -0.7,0 -0.8,0 -1.1,0.05 -0.5,0.04 -0.6,0.09 -0.6,0.5 0,0.14 0,0.25 0.2,1.14 z"
           inkscape:connector-curvature="0"
           style="fill:#000000;stroke-width:0" /><path
           id="path942"
           d="m 1351.8,358.89 v 0.38 0.38 0.39 0.41 0.84 l -0.1,0.88 -0.1,0.92 -0.1,0.95 -0.1,0.98 -0.2,1 -0.2,1.02 -0.2,1.04 -0.3,1.05 -0.3,1.06 -0.3,1.06 -0.4,1.07 -0.2,0.53 -0.2,0.53 -0.3,0.53 -0.2,0.53 c -3,6.13 -7.3,9.36 -7.8,9.36 -0.3,0 -0.5,-0.19 -0.5,-0.48 0,-0.16 0,-0.25 0.9,-1.16 4.9,-4.92 7.8,-12.84 7.8,-23.27 0,-8.51 -1.9,-17.28 -8.1,-23.56 -0.6,-0.59 -0.6,-0.7 -0.6,-0.84 0,-0.3 0.2,-0.5 0.5,-0.5 0.5,0 5,3.39 7.9,9.72 2.5,5.47 3.1,11 3.1,15.18 z"
           inkscape:connector-curvature="0"
           style="fill:#000000;stroke-width:0" /></g>    </g>
  </g>
</svg>
